<?xml version="1.0" encoding="UTF-8"?>
<svg xmlns="http://www.w3.org/2000/svg"
     xmlns:xlink="http://www.w3.org/1999/xlink"
     xmlns:gadfly="http://www.gadflyjl.org/ns"
     version="1.2"
     width="400mm" height="200mm" viewBox="0 0 400 200"
     stroke="none"
     fill="#000000"
     stroke-width="0.3"
     font-size="3.88"
>
<g class="plotroot xscalable yscalable" id="img-a42cf42e-1">
  <g font-size="6" font-family="'PT Sans','Helvetica Neue','Helvetica',sans-serif" fill="#564A55" stroke="#000000" stroke-opacity="0.000" id="img-a42cf42e-2">
    <text x="187.14" y="186.42" text-anchor="middle" dy="0.6em">Estimator value (basis points)</text>
  </g>
  <g class="guide xlabels" font-size="4.94" font-family="'PT Sans Caption','Helvetica Neue','Helvetica',sans-serif" fill="#6C606B" id="img-a42cf42e-3">
    <text x="28.55" y="177.74" text-anchor="middle" dy="0.6em">-20</text>
    <text x="107.84" y="177.74" text-anchor="middle" dy="0.6em">-10</text>
    <text x="187.14" y="177.74" text-anchor="middle" dy="0.6em">0</text>
    <text x="266.44" y="177.74" text-anchor="middle" dy="0.6em">10</text>
    <text x="345.74" y="177.74" text-anchor="middle" dy="0.6em">20</text>
  </g>
  <g class="guide colorkey" id="img-a42cf42e-4">
    <g fill="#4C404B" font-size="4.94" font-family="'PT Sans','Helvetica Neue','Helvetica',sans-serif" id="img-a42cf42e-5">
      <text x="352.53" y="95.66" dy="0.35em">Mean</text>
      <text x="352.53" y="101.26" dy="0.35em">Trimmed mean (0.4)</text>
    </g>
    <g stroke="#000000" stroke-opacity="0.000" id="img-a42cf42e-6">
      <rect x="348.74" y="94.26" width="2.8" height="2.8" fill="#0000FF"/>
      <rect x="348.74" y="99.86" width="2.8" height="2.8" fill="#008000"/>
    </g>
    <g fill="#362A35" font-size="6" font-family="'PT Sans','Helvetica Neue','Helvetica',sans-serif" stroke="#000000" stroke-opacity="0.000" id="img-a42cf42e-7">
      <text x="348.74" y="90.86">Legend:</text>
    </g>
  </g>
<g clip-path="url(#img-a42cf42e-8)">
  <g id="img-a42cf42e-9">
    <g pointer-events="visible" opacity="1" fill="#000000" fill-opacity="0.000" stroke="#000000" stroke-opacity="0.000" class="guide background" id="img-a42cf42e-10">
      <rect x="26.55" y="14.58" width="321.19" height="162.16"/>
    </g>
    <g class="guide ygridlines xfixed" stroke-dasharray="0.5,0.5" stroke-width="0.2" stroke="#D0D0E0" id="img-a42cf42e-11">
      <path fill="none" d="M26.55,174.74 L 347.74 174.74"/>
      <path fill="none" d="M26.55,135.2 L 347.74 135.2"/>
      <path fill="none" d="M26.55,95.66 L 347.74 95.66"/>
      <path fill="none" d="M26.55,56.12 L 347.74 56.12"/>
      <path fill="none" d="M26.55,16.58 L 347.74 16.58"/>
    </g>
    <g class="guide xgridlines yfixed" stroke-dasharray="0.5,0.5" stroke-width="0.2" stroke="#D0D0E0" id="img-a42cf42e-12">
      <path fill="none" d="M28.55,14.58 L 28.55 176.74"/>
      <path fill="none" d="M107.84,14.58 L 107.84 176.74"/>
      <path fill="none" d="M187.14,14.58 L 187.14 176.74"/>
      <path fill="none" d="M266.44,14.58 L 266.44 176.74"/>
      <path fill="none" d="M345.74,14.58 L 345.74 176.74"/>
    </g>
    <g class="plotpanel" id="img-a42cf42e-13">
      <g stroke-width="0.3" fill="#000000" fill-opacity="0.000" class="geometry" stroke-dasharray="none" stroke="#008000" id="img-a42cf42e-14">
        <path fill="none" d="M136.09,174.74 L 136.16 174.74 136.22 174.74 136.28 174.74 136.35 174.74 136.41 174.74 136.47 174.74 136.54 174.74 136.6 174.74 136.66 174.74 136.73 174.74 136.79 174.74 136.85 174.74 136.92 174.74 136.98 174.74 137.04 174.74 137.11 174.74 137.17 174.74 137.23 174.74 137.3 174.74 137.36 174.74 137.42 174.74 137.49 174.74 137.55 174.74 137.61 174.74 137.68 174.74 137.74 174.74 137.8 174.74 137.87 174.74 137.93 174.74 137.99 174.74 138.06 174.74 138.12 174.74 138.18 174.74 138.24 174.74 138.31 174.74 138.37 174.74 138.43 174.74 138.5 174.74 138.56 174.74 138.62 174.74 138.69 174.74 138.75 174.74 138.81 174.74 138.88 174.74 138.94 174.74 139 174.74 139.07 174.74 139.13 174.74 139.19 174.74 139.26 174.74 139.32 174.74 139.38 174.73 139.45 174.73 139.51 174.73 139.57 174.73 139.64 174.73 139.7 174.73 139.76 174.73 139.83 174.73 139.89 174.73 139.95 174.73 140.02 174.73 140.08 174.73 140.14 174.73 140.21 174.73 140.27 174.73 140.33 174.73 140.4 174.73 140.46 174.73 140.52 174.73 140.59 174.73 140.65 174.73 140.71 174.73 140.77 174.72 140.84 174.72 140.9 174.72 140.96 174.72 141.03 174.72 141.09 174.72 141.15 174.72 141.22 174.72 141.28 174.72 141.34 174.72 141.41 174.72 141.47 174.71 141.53 174.71 141.6 174.71 141.66 174.71 141.72 174.71 141.79 174.71 141.85 174.71 141.91 174.7 141.98 174.7 142.04 174.7 142.1 174.7 142.17 174.7 142.23 174.7 142.29 174.69 142.36 174.69 142.42 174.69 142.48 174.69 142.55 174.69 142.61 174.68 142.67 174.68 142.74 174.68 142.8 174.68 142.86 174.67 142.93 174.67 142.99 174.67 143.05 174.66 143.11 174.66 143.18 174.66 143.24 174.65 143.3 174.65 143.37 174.65 143.43 174.64 143.49 174.64 143.56 174.64 143.62 174.63 143.68 174.63 143.75 174.62 143.81 174.62 143.87 174.61 143.94 174.61 144 174.6 144.06 174.6 144.13 174.59 144.19 174.59 144.25 174.58 144.32 174.58 144.38 174.57 144.44 174.56 144.51 174.56 144.57 174.55 144.63 174.54 144.7 174.54 144.76 174.53 144.82 174.52 144.89 174.51 144.95 174.51 145.01 174.5 145.08 174.49 145.14 174.48 145.2 174.47 145.27 174.46 145.33 174.45 145.39 174.44 145.45 174.43 145.52 174.42 145.58 174.41 145.64 174.4 145.71 174.39 145.77 174.38 145.83 174.36 145.9 174.35 145.96 174.34 146.02 174.33 146.09 174.31 146.15 174.3 146.21 174.29 146.28 174.27 146.34 174.26 146.4 174.24 146.47 174.23 146.53 174.21 146.59 174.19 146.66 174.18 146.72 174.16 146.78 174.14 146.85 174.13 146.91 174.11 146.97 174.09 147.04 174.07 147.1 174.05 147.16 174.03 147.23 174.01 147.29 173.99 147.35 173.97 147.42 173.94 147.48 173.92 147.54 173.9 147.61 173.88 147.67 173.85 147.73 173.83 147.8 173.8 147.86 173.78 147.92 173.75 147.98 173.72 148.05 173.7 148.11 173.67 148.17 173.64 148.24 173.61 148.3 173.58 148.36 173.55 148.43 173.52 148.49 173.49 148.55 173.46 148.62 173.42 148.68 173.39 148.74 173.36 148.81 173.32 148.87 173.29 148.93 173.25 149 173.21 149.06 173.18 149.12 173.14 149.19 173.1 149.25 173.06 149.31 173.02 149.38 172.98 149.44 172.94 149.5 172.9 149.57 172.85 149.63 172.81 149.69 172.77 149.76 172.72 149.82 172.68 149.88 172.63 149.95 172.58 150.01 172.54 150.07 172.49 150.14 172.44 150.2 172.39 150.26 172.34 150.32 172.29 150.39 172.23 150.45 172.18 150.51 172.13 150.58 172.07 150.64 172.02 150.7 171.96 150.77 171.9 150.83 171.85 150.89 171.79 150.96 171.73 151.02 171.67 151.08 171.61 151.15 171.55 151.21 171.49 151.27 171.42 151.34 171.36 151.4 171.3 151.46 171.23 151.53 171.16 151.59 171.1 151.65 171.03 151.72 170.96 151.78 170.89 151.84 170.83 151.91 170.76 151.97 170.68 152.03 170.61 152.1 170.54 152.16 170.47 152.22 170.4 152.29 170.32 152.35 170.25 152.41 170.17 152.48 170.09 152.54 170.02 152.6 169.94 152.66 169.86 152.73 169.78 152.79 169.71 152.85 169.63 152.92 169.55 152.98 169.46 153.04 169.38 153.11 169.3 153.17 169.22 153.23 169.14 153.3 169.05 153.36 168.97 153.42 168.88 153.49 168.8 153.55 168.71 153.61 168.63 153.68 168.54 153.74 168.45 153.8 168.37 153.87 168.28 153.93 168.19 153.99 168.1 154.06 168.02 154.12 167.93 154.18 167.84 154.25 167.75 154.31 167.66 154.37 167.57 154.44 167.48 154.5 167.39 154.56 167.3 154.63 167.21 154.69 167.11 154.75 167.02 154.82 166.93 154.88 166.84 154.94 166.75 155 166.66 155.07 166.56 155.13 166.47 155.19 166.38 155.26 166.29 155.32 166.2 155.38 166.1 155.45 166.01 155.51 165.92 155.57 165.83 155.64 165.74 155.7 165.64 155.76 165.55 155.83 165.46 155.89 165.37 155.95 165.28 156.02 165.19 156.08 165.09 156.14 165 156.21 164.91 156.27 164.82 156.33 164.73 156.4 164.64 156.46 164.55 156.52 164.46 156.59 164.37 156.65 164.28 156.71 164.19 156.78 164.1 156.84 164.01 156.9 163.92 156.97 163.83 157.03 163.74 157.09 163.66 157.16 163.57 157.22 163.48 157.28 163.39 157.35 163.31 157.41 163.22 157.47 163.13 157.53 163.05 157.6 162.96 157.66 162.88 157.72 162.79 157.79 162.71 157.85 162.62 157.91 162.54 157.98 162.45 158.04 162.37 158.1 162.29 158.17 162.2 158.23 162.12 158.29 162.04 158.36 161.95 158.42 161.87 158.48 161.79 158.55 161.71 158.61 161.63 158.67 161.55 158.74 161.46 158.8 161.38 158.86 161.3 158.93 161.22 158.99 161.14 159.05 161.06 159.12 160.98 159.18 160.9 159.24 160.82 159.31 160.74 159.37 160.66 159.43 160.58 159.5 160.5 159.56 160.42 159.62 160.34 159.69 160.26 159.75 160.19 159.81 160.11 159.87 160.03 159.94 159.95 160 159.87 160.06 159.79 160.13 159.71 160.19 159.63 160.25 159.55 160.32 159.47 160.38 159.38 160.44 159.3 160.51 159.22 160.57 159.14 160.63 159.06 160.7 158.98 160.76 158.89 160.82 158.81 160.89 158.73 160.95 158.65 161.01 158.56 161.08 158.48 161.14 158.39 161.2 158.31 161.27 158.22 161.33 158.13 161.39 158.05 161.46 157.96 161.52 157.87 161.58 157.78 161.65 157.69 161.71 157.6 161.77 157.51 161.84 157.42 161.9 157.33 161.96 157.24 162.03 157.14 162.09 157.05 162.15 156.95 162.21 156.86 162.28 156.76 162.34 156.66 162.4 156.57 162.47 156.47 162.53 156.37 162.59 156.27 162.66 156.16 162.72 156.06 162.78 155.96 162.85 155.85 162.91 155.75 162.97 155.64 163.04 155.53 163.1 155.42 163.16 155.31 163.23 155.2 163.29 155.09 163.35 154.97 163.42 154.86 163.48 154.75 163.54 154.63 163.61 154.51 163.67 154.39 163.73 154.27 163.8 154.15 163.86 154.03 163.92 153.91 163.99 153.78 164.05 153.66 164.11 153.53 164.18 153.4 164.24 153.27 164.3 153.14 164.37 153.01 164.43 152.88 164.49 152.74 164.55 152.61 164.62 152.47 164.68 152.33 164.74 152.19 164.81 152.05 164.87 151.91 164.93 151.77 165 151.63 165.06 151.48 165.12 151.34 165.19 151.19 165.25 151.04 165.31 150.89 165.38 150.74 165.44 150.59 165.5 150.44 165.57 150.28 165.63 150.13 165.69 149.97 165.76 149.81 165.82 149.65 165.88 149.49 165.95 149.33 166.01 149.17 166.07 149.01 166.14 148.84 166.2 148.68 166.26 148.51 166.33 148.35 166.39 148.18 166.45 148.01 166.52 147.84 166.58 147.67 166.64 147.49 166.71 147.32 166.77 147.15 166.83 146.97 166.9 146.8 166.96 146.62 167.02 146.44 167.08 146.26 167.15 146.08 167.21 145.9 167.27 145.72 167.34 145.54 167.4 145.36 167.46 145.18 167.53 144.99 167.59 144.81 167.65 144.62 167.72 144.44 167.78 144.25 167.84 144.06 167.91 143.88 167.97 143.69 168.03 143.5 168.1 143.31 168.16 143.12 168.22 142.93 168.29 142.74 168.35 142.55 168.41 142.35 168.48 142.16 168.54 141.97 168.6 141.78 168.67 141.58 168.73 141.39 168.79 141.19 168.86 141 168.92 140.8 168.98 140.61 169.05 140.41 169.11 140.22 169.17 140.02 169.24 139.83 169.3 139.63 169.36 139.43 169.42 139.24 169.49 139.04 169.55 138.84 169.61 138.64 169.68 138.45 169.74 138.25 169.8 138.05 169.87 137.86 169.93 137.66 169.99 137.46 170.06 137.26 170.12 137.07 170.18 136.87 170.25 136.67 170.31 136.47 170.37 136.28 170.44 136.08 170.5 135.88 170.56 135.69 170.63 135.49 170.69 135.29 170.75 135.1 170.82 134.9 170.88 134.7 170.94 134.51 171.01 134.31 171.07 134.11 171.13 133.92 171.2 133.72 171.26 133.53 171.32 133.33 171.39 133.13 171.45 132.94 171.51 132.74 171.58 132.55 171.64 132.35 171.7 132.16 171.76 131.96 171.83 131.77 171.89 131.58 171.95 131.38 172.02 131.19 172.08 130.99 172.14 130.8 172.21 130.61 172.27 130.41 172.33 130.22 172.4 130.03 172.46 129.83 172.52 129.64 172.59 129.44 172.65 129.25 172.71 129.06 172.78 128.86 172.84 128.67 172.9 128.48 172.97 128.28 173.03 128.09 173.09 127.9 173.16 127.7 173.22 127.51 173.28 127.32 173.35 127.12 173.41 126.93 173.47 126.73 173.54 126.54 173.6 126.34 173.66 126.15 173.73 125.95 173.79 125.76 173.85 125.56 173.92 125.37 173.98 125.17 174.04 124.97 174.1 124.78 174.17 124.58 174.23 124.38 174.29 124.18 174.36 123.98 174.42 123.78 174.48 123.58 174.55 123.38 174.61 123.18 174.67 122.98 174.74 122.78 174.8 122.58 174.86 122.37 174.93 122.17 174.99 121.97 175.05 121.76 175.12 121.56 175.18 121.35 175.24 121.14 175.31 120.93 175.37 120.73 175.43 120.52 175.5 120.31 175.56 120.1 175.62 119.88 175.69 119.67 175.75 119.46 175.81 119.24 175.88 119.03 175.94 118.81 176 118.59 176.07 118.37 176.13 118.16 176.19 117.94 176.26 117.71 176.32 117.49 176.38 117.27 176.45 117.04 176.51 116.82 176.57 116.59 176.63 116.37 176.7 116.14 176.76 115.91 176.82 115.68 176.89 115.44 176.95 115.21 177.01 114.98 177.08 114.74 177.14 114.5 177.2 114.27 177.27 114.03 177.33 113.79 177.39 113.55 177.46 113.3 177.52 113.06 177.58 112.81 177.65 112.57 177.71 112.32 177.77 112.07 177.84 111.82 177.9 111.57 177.96 111.32 178.03 111.06 178.09 110.81 178.15 110.55 178.22 110.29 178.28 110.03 178.34 109.77 178.41 109.51 178.47 109.25 178.53 108.99 178.6 108.72 178.66 108.45 178.72 108.18 178.79 107.92 178.85 107.64 178.91 107.37 178.97 107.1 179.04 106.82 179.1 106.55 179.16 106.27 179.23 105.99 179.29 105.71 179.35 105.43 179.42 105.15 179.48 104.86 179.54 104.58 179.61 104.29 179.67 104.01 179.73 103.72 179.8 103.43 179.86 103.14 179.92 102.84 179.99 102.55 180.05 102.25 180.11 101.96 180.18 101.66 180.24 101.36 180.3 101.06 180.37 100.76 180.43 100.46 180.49 100.15 180.56 99.85 180.62 99.54 180.68 99.24 180.75 98.93 180.81 98.62 180.87 98.31 180.94 98 181 97.68 181.06 97.37 181.13 97.06 181.19 96.74 181.25 96.42 181.31 96.11 181.38 95.79 181.44 95.47 181.5 95.15 181.57 94.83 181.63 94.51 181.69 94.18 181.76 93.86 181.82 93.54 181.88 93.21 181.95 92.89 182.01 92.56 182.07 92.23 182.14 91.9 182.2 91.57 182.26 91.25 182.33 90.92 182.39 90.59 182.45 90.26 182.52 89.92 182.58 89.59 182.64 89.26 182.71 88.93 182.77 88.6 182.83 88.26 182.9 87.93 182.96 87.6 183.02 87.26 183.09 86.93 183.15 86.6 183.21 86.26 183.28 85.93 183.34 85.6 183.4 85.26 183.47 84.93 183.53 84.6 183.59 84.26 183.65 83.93 183.72 83.6 183.78 83.27 183.84 82.93 183.91 82.6 183.97 82.27 184.03 81.94 184.1 81.61 184.16 81.28 184.22 80.95 184.29 80.63 184.35 80.3 184.41 79.97 184.48 79.65 184.54 79.32 184.6 79 184.67 78.68 184.73 78.36 184.79 78.04 184.86 77.72 184.92 77.4 184.98 77.08 185.05 76.77 185.11 76.45 185.17 76.14 185.24 75.83 185.3 75.52 185.36 75.21 185.43 74.9 185.49 74.6 185.55 74.29 185.62 73.99 185.68 73.69 185.74 73.39 185.81 73.09 185.87 72.8 185.93 72.5 186 72.21 186.06 71.92 186.12 71.63 186.18 71.35 186.25 71.06 186.31 70.78 186.37 70.5 186.44 70.22 186.5 69.94 186.56 69.67 186.63 69.4 186.69 69.13 186.75 68.86 186.82 68.59 186.88 68.33 186.94 68.06 187.01 67.8 187.07 67.54 187.13 67.29 187.2 67.03 187.26 66.78 187.32 66.53 187.39 66.28 187.45 66.04 187.51 65.79 187.58 65.55 187.64 65.31 187.7 65.07 187.77 64.84 187.83 64.6 187.89 64.37 187.96 64.14 188.02 63.91 188.08 63.69 188.15 63.46 188.21 63.24 188.27 63.02 188.34 62.8 188.4 62.58 188.46 62.36 188.52 62.15 188.59 61.94 188.65 61.72 188.71 61.51 188.78 61.31 188.84 61.1 188.9 60.89 188.97 60.69 189.03 60.49 189.09 60.28 189.16 60.08 189.22 59.88 189.28 59.69 189.35 59.49 189.41 59.29 189.47 59.1 189.54 58.9 189.6 58.71 189.66 58.51 189.73 58.32 189.79 58.13 189.85 57.94 189.92 57.74 189.98 57.55 190.04 57.36 190.11 57.17 190.17 56.98 190.23 56.79 190.3 56.6 190.36 56.41 190.42 56.22 190.49 56.03 190.55 55.84 190.61 55.65 190.68 55.46 190.74 55.27 190.8 55.08 190.86 54.89 190.93 54.7 190.99 54.5 191.05 54.31 191.12 54.12 191.18 53.92 191.24 53.73 191.31 53.53 191.37 53.34 191.43 53.14 191.5 52.94 191.56 52.74 191.62 52.54 191.69 52.34 191.75 52.14 191.81 51.93 191.88 51.73 191.94 51.52 192 51.31 192.07 51.11 192.13 50.9 192.19 50.69 192.26 50.47 192.32 50.26 192.38 50.05 192.45 49.83 192.51 49.61 192.57 49.4 192.64 49.18 192.7 48.96 192.76 48.73 192.83 48.51 192.89 48.29 192.95 48.06 193.02 47.83 193.08 47.6 193.14 47.37 193.2 47.14 193.27 46.91 193.33 46.68 193.39 46.44 193.46 46.21 193.52 45.97 193.58 45.74 193.65 45.5 193.71 45.26 193.77 45.02 193.84 44.78 193.9 44.53 193.96 44.29 194.03 44.05 194.09 43.8 194.15 43.56 194.22 43.31 194.28 43.07 194.34 42.82 194.41 42.58 194.47 42.33 194.53 42.08 194.6 41.83 194.66 41.59 194.72 41.34 194.79 41.09 194.85 40.84 194.91 40.6 194.98 40.35 195.04 40.1 195.1 39.86 195.17 39.61 195.23 39.37 195.29 39.12 195.36 38.88 195.42 38.64 195.48 38.4 195.55 38.15 195.61 37.91 195.67 37.68 195.73 37.44 195.8 37.2 195.86 36.97 195.92 36.73 195.99 36.5 196.05 36.27 196.11 36.04 196.18 35.82 196.24 35.59 196.3 35.37 196.37 35.15 196.43 34.93 196.49 34.72 196.56 34.5 196.62 34.29 196.68 34.08 196.75 33.87 196.81 33.67 196.87 33.47 196.94 33.27 197 33.07 197.06 32.88 197.13 32.69 197.19 32.5 197.25 32.32 197.32 32.14 197.38 31.96 197.44 31.78 197.51 31.61 197.57 31.45 197.63 31.28 197.7 31.12 197.76 30.96 197.82 30.81 197.89 30.66 197.95 30.51 198.01 30.37 198.07 30.23 198.14 30.09 198.2 29.96 198.26 29.83 198.33 29.7 198.39 29.58 198.45 29.47 198.52 29.35 198.58 29.24 198.64 29.14 198.71 29.04 198.77 28.94 198.83 28.85 198.9 28.76 198.96 28.67 199.02 28.59 199.09 28.52 199.15 28.44 199.21 28.37 199.28 28.31 199.34 28.25 199.4 28.19 199.47 28.14 199.53 28.09 199.59 28.05 199.66 28.01 199.72 27.97 199.78 27.94 199.85 27.91 199.91 27.89 199.97 27.87 200.04 27.85 200.1 27.84 200.16 27.83 200.23 27.83 200.29 27.83 200.35 27.83 200.41 27.84 200.48 27.85 200.54 27.87 200.6 27.89 200.67 27.91 200.73 27.94 200.79 27.97 200.86 28.01 200.92 28.05 200.98 28.09 201.05 28.14 201.11 28.19 201.17 28.24 201.24 28.3 201.3 28.36 201.36 28.43 201.43 28.5 201.49 28.57 201.55 28.64 201.62 28.72 201.68 28.81 201.74 28.89 201.81 28.98 201.87 29.08 201.93 29.17 202 29.27 202.06 29.38 202.12 29.49 202.19 29.6 202.25 29.71 202.31 29.83 202.38 29.95 202.44 30.07 202.5 30.2 202.57 30.33 202.63 30.46 202.69 30.6 202.75 30.73 202.82 30.88 202.88 31.02 202.94 31.17 203.01 31.32 203.07 31.48 203.13 31.63 203.2 31.79 203.26 31.96 203.32 32.12 203.39 32.29 203.45 32.46 203.51 32.64 203.58 32.81 203.64 32.99 203.7 33.18 203.77 33.36 203.83 33.55 203.89 33.74 203.96 33.93 204.02 34.13 204.08 34.33 204.15 34.53 204.21 34.73 204.27 34.93 204.34 35.14 204.4 35.35 204.46 35.56 204.53 35.78 204.59 36 204.65 36.21 204.72 36.44 204.78 36.66 204.84 36.88 204.91 37.11 204.97 37.34 205.03 37.57 205.1 37.8 205.16 38.04 205.22 38.27 205.28 38.51 205.35 38.75 205.41 38.99 205.47 39.24 205.54 39.48 205.6 39.73 205.66 39.97 205.73 40.22 205.79 40.47 205.85 40.72 205.92 40.98 205.98 41.23 206.04 41.48 206.11 41.74 206.17 42 206.23 42.26 206.3 42.51 206.36 42.77 206.42 43.03 206.49 43.29 206.55 43.56 206.61 43.82 206.68 44.08 206.74 44.34 206.8 44.61 206.87 44.87 206.93 45.14 206.99 45.4 207.06 45.67 207.12 45.93 207.18 46.2 207.25 46.46 207.31 46.73 207.37 46.99 207.44 47.26 207.5 47.52 207.56 47.78 207.62 48.05 207.69 48.31 207.75 48.57 207.81 48.84 207.88 49.1 207.94 49.36 208 49.62 208.07 49.88 208.13 50.14 208.19 50.4 208.26 50.66 208.32 50.92 208.38 51.17 208.45 51.43 208.51 51.68 208.57 51.94 208.64 52.19 208.7 52.44 208.76 52.69 208.83 52.94 208.89 53.19 208.95 53.44 209.02 53.68 209.08 53.93 209.14 54.17 209.21 54.41 209.27 54.65 209.33 54.89 209.4 55.13 209.46 55.37 209.52 55.61 209.59 55.84 209.65 56.08 209.71 56.31 209.78 56.54 209.84 56.77 209.9 57 209.96 57.23 210.03 57.46 210.09 57.68 210.15 57.91 210.22 58.13 210.28 58.35 210.34 58.58 210.41 58.8 210.47 59.02 210.53 59.23 210.6 59.45 210.66 59.67 210.72 59.89 210.79 60.1 210.85 60.32 210.91 60.53 210.98 60.74 211.04 60.96 211.1 61.17 211.17 61.38 211.23 61.59 211.29 61.8 211.36 62.01 211.42 62.22 211.48 62.43 211.55 62.64 211.61 62.85 211.67 63.06 211.74 63.27 211.8 63.48 211.86 63.69 211.93 63.9 211.99 64.11 212.05 64.32 212.12 64.53 212.18 64.74 212.24 64.96 212.3 65.17 212.37 65.38 212.43 65.6 212.49 65.81 212.56 66.03 212.62 66.24 212.68 66.46 212.75 66.68 212.81 66.9 212.87 67.12 212.94 67.34 213 67.57 213.06 67.79 213.13 68.02 213.19 68.25 213.25 68.48 213.32 68.71 213.38 68.94 213.44 69.18 213.51 69.41 213.57 69.65 213.63 69.89 213.7 70.14 213.76 70.38 213.82 70.63 213.89 70.88 213.95 71.13 214.01 71.38 214.08 71.64 214.14 71.89 214.2 72.15 214.27 72.41 214.33 72.68 214.39 72.95 214.46 73.21 214.52 73.49 214.58 73.76 214.65 74.04 214.71 74.32 214.77 74.6 214.83 74.88 214.9 75.17 214.96 75.46 215.02 75.75 215.09 76.04 215.15 76.34 215.21 76.64 215.28 76.94 215.34 77.25 215.4 77.56 215.47 77.87 215.53 78.18 215.59 78.49 215.66 78.81 215.72 79.13 215.78 79.45 215.85 79.78 215.91 80.1 215.97 80.43 216.04 80.77 216.1 81.1 216.16 81.44 216.23 81.77 216.29 82.12 216.35 82.46 216.42 82.8 216.48 83.15 216.54 83.5 216.61 83.85 216.67 84.21 216.73 84.56 216.8 84.92 216.86 85.28 216.92 85.64 216.99 86 217.05 86.37 217.11 86.73 217.17 87.1 217.24 87.47 217.3 87.84 217.36 88.21 217.43 88.58 217.49 88.96 217.55 89.33 217.62 89.71 217.68 90.09 217.74 90.47 217.81 90.84 217.87 91.22 217.93 91.61 218 91.99 218.06 92.37 218.12 92.75 218.19 93.14 218.25 93.52 218.31 93.9 218.38 94.29 218.44 94.67 218.5 95.06 218.57 95.44 218.63 95.83 218.69 96.21 218.76 96.6 218.82 96.98 218.88 97.36 218.95 97.75 219.01 98.13 219.07 98.51 219.14 98.9 219.2 99.28 219.26 99.66 219.33 100.04 219.39 100.42 219.45 100.8 219.51 101.18 219.58 101.55 219.64 101.93 219.7 102.3 219.77 102.68 219.83 103.05 219.89 103.42 219.96 103.79 220.02 104.16 220.08 104.53 220.15 104.89 220.21 105.26 220.27 105.62 220.34 105.98 220.4 106.34 220.46 106.7 220.53 107.05 220.59 107.41 220.65 107.76 220.72 108.11 220.78 108.46 220.84 108.81 220.91 109.15 220.97 109.5 221.03 109.84 221.1 110.18 221.16 110.51 221.22 110.85 221.29 111.18 221.35 111.51 221.41 111.84 221.48 112.17 221.54 112.49 221.6 112.81 221.67 113.13 221.73 113.45 221.79 113.77 221.85 114.08 221.92 114.39 221.98 114.7 222.04 115.01 222.11 115.31 222.17 115.61 222.23 115.91 222.3 116.21 222.36 116.5 222.42 116.8 222.49 117.09 222.55 117.37 222.61 117.66 222.68 117.94 222.74 118.22 222.8 118.5 222.87 118.78 222.93 119.05 222.99 119.32 223.06 119.59 223.12 119.86 223.18 120.13 223.25 120.39 223.31 120.65 223.37 120.91 223.44 121.16 223.5 121.42 223.56 121.67 223.63 121.92 223.69 122.17 223.75 122.41 223.82 122.65 223.88 122.9 223.94 123.13 224.01 123.37 224.07 123.61 224.13 123.84 224.2 124.07 224.26 124.3 224.32 124.53 224.38 124.75 224.45 124.97 224.51 125.19 224.57 125.41 224.64 125.63 224.7 125.85 224.76 126.06 224.83 126.27 224.89 126.48 224.95 126.69 225.02 126.9 225.08 127.1 225.14 127.31 225.21 127.51 225.27 127.71 225.33 127.91 225.4 128.1 225.46 128.3 225.52 128.49 225.59 128.69 225.65 128.88 225.71 129.07 225.78 129.26 225.84 129.44 225.9 129.63 225.97 129.82 226.03 130 226.09 130.18 226.16 130.36 226.22 130.54 226.28 130.72 226.35 130.9 226.41 131.07 226.47 131.25 226.54 131.42 226.6 131.6 226.66 131.77 226.72 131.94 226.79 132.11 226.85 132.28 226.91 132.45 226.98 132.62 227.04 132.79 227.1 132.96 227.17 133.12 227.23 133.29 227.29 133.45 227.36 133.62 227.42 133.78 227.48 133.95 227.55 134.11 227.61 134.27 227.67 134.44 227.74 134.6 227.8 134.76 227.86 134.92 227.93 135.08 227.99 135.24 228.05 135.4 228.12 135.56 228.18 135.72 228.24 135.88 228.31 136.04 228.37 136.2 228.43 136.36 228.5 136.52 228.56 136.69 228.62 136.85 228.69 137.01 228.75 137.17 228.81 137.33 228.88 137.49 228.94 137.65 229 137.81 229.06 137.97 229.13 138.14 229.19 138.3 229.25 138.46 229.32 138.62 229.38 138.79 229.44 138.95 229.51 139.12 229.57 139.28 229.63 139.45 229.7 139.61 229.76 139.78 229.82 139.95 229.89 140.11 229.95 140.28 230.01 140.45 230.08 140.62 230.14 140.79 230.2 140.96 230.27 141.14 230.33 141.31 230.39 141.48 230.46 141.65 230.52 141.83 230.58 142 230.65 142.18 230.71 142.36 230.77 142.53 230.84 142.71 230.9 142.89 230.96 143.07 231.03 143.25 231.09 143.43 231.15 143.62 231.22 143.8 231.28 143.98 231.34 144.17 231.4 144.35 231.47 144.54 231.53 144.72 231.59 144.91 231.66 145.1 231.72 145.29 231.78 145.48 231.85 145.67 231.91 145.86 231.97 146.05 232.04 146.24 232.1 146.43 232.16 146.63 232.23 146.82 232.29 147.01 232.35 147.21 232.42 147.4 232.48 147.6 232.54 147.79 232.61 147.99 232.67 148.18 232.73 148.38 232.8 148.58 232.86 148.77 232.92 148.97 232.99 149.17 233.05 149.36 233.11 149.56 233.18 149.76 233.24 149.96 233.3 150.15 233.37 150.35 233.43 150.55 233.49 150.75 233.56 150.94 233.62 151.14 233.68 151.34 233.75 151.53 233.81 151.73 233.87 151.92 233.93 152.12 234 152.31 234.06 152.51 234.12 152.7 234.19 152.89 234.25 153.08 234.31 153.27 234.38 153.47 234.44 153.66 234.5 153.84 234.57 154.03 234.63 154.22 234.69 154.41 234.76 154.59 234.82 154.78 234.88 154.96 234.95 155.14 235.01 155.32 235.07 155.5 235.14 155.68 235.2 155.86 235.26 156.03 235.33 156.21 235.39 156.38 235.45 156.55 235.52 156.72 235.58 156.89 235.64 157.06 235.71 157.22 235.77 157.39 235.83 157.55 235.9 157.71 235.96 157.87 236.02 158.03 236.09 158.19 236.15 158.34 236.21 158.49 236.27 158.64 236.34 158.79 236.4 158.94 236.46 159.09 236.53 159.23 236.59 159.37 236.65 159.51 236.72 159.65 236.78 159.79 236.84 159.92 236.91 160.05 236.97 160.19 237.03 160.31 237.1 160.44 237.16 160.57 237.22 160.69 237.29 160.81 237.35 160.93 237.41 161.05 237.48 161.16 237.54 161.28 237.6 161.39 237.67 161.5 237.73 161.61 237.79 161.72 237.86 161.82 237.92 161.92 237.98 162.02 238.05 162.12 238.11 162.22 238.17 162.32 238.24 162.41 238.3 162.5 238.36 162.59 238.43 162.68 238.49 162.77 238.55 162.86 238.61 162.94 238.68 163.02 238.74 163.1 238.8 163.18 238.87 163.26 238.93 163.34 238.99 163.41 239.06 163.49 239.12 163.56 239.18 163.63 239.25 163.7 239.31 163.77 239.37 163.84 239.44 163.9 239.5 163.97 239.56 164.03 239.63 164.09 239.69 164.15 239.75 164.21 239.82 164.27 239.88 164.33 239.94 164.39 240.01 164.44 240.07 164.5 240.13 164.55 240.2 164.61 240.26 164.66 240.32 164.71 240.39 164.76 240.45 164.82 240.51 164.87 240.58 164.91 240.64 164.96 240.7 165.01 240.77 165.06 240.83 165.11 240.89 165.15 240.95 165.2 241.02 165.24 241.08 165.29 241.14 165.34 241.21 165.38 241.27 165.42 241.33 165.47 241.4 165.51 241.46 165.56 241.52 165.6 241.59 165.64 241.65 165.68 241.71 165.73 241.78 165.77 241.84 165.81 241.9 165.86 241.97 165.9 242.03 165.94 242.09 165.98 242.16 166.03 242.22 166.07 242.28 166.11 242.35 166.15 242.41 166.2 242.47 166.24 242.54 166.28 242.6 166.32 242.66 166.37 242.73 166.41 242.79 166.45 242.85 166.5 242.92 166.54 242.98 166.58 243.04 166.63 243.11 166.67 243.17 166.72 243.23 166.76 243.3 166.8 243.36 166.85 243.42 166.89 243.48 166.94 243.55 166.99 243.61 167.03 243.67 167.08 243.74 167.12 243.8 167.17 243.86 167.21 243.93 167.26 243.99 167.31 244.05 167.36 244.12 167.4 244.18 167.45 244.24 167.5 244.31 167.54 244.37 167.59 244.43 167.64 244.5 167.69 244.56 167.74 244.62 167.79 244.69 167.83 244.75 167.88 244.81 167.93 244.88 167.98 244.94 168.03 245 168.08 245.07 168.13 245.13 168.18 245.19 168.23 245.26 168.28 245.32 168.33 245.38 168.38 245.45 168.43 245.51 168.48 245.57 168.53 245.64 168.58 245.7 168.63 245.76 168.67 245.82 168.72 245.89 168.77 245.95 168.82 246.01 168.87 246.08 168.92 246.14 168.97 246.2 169.02 246.27 169.07 246.33 169.12 246.39 169.17 246.46 169.22 246.52 169.27 246.58 169.32 246.65 169.37 246.71 169.42 246.77 169.46 246.84 169.51 246.9 169.56 246.96 169.61 247.03 169.66 247.09 169.71 247.15 169.75 247.22 169.8 247.28 169.85 247.34 169.9 247.41 169.94 247.47 169.99 247.53 170.04 247.6 170.08 247.66 170.13 247.72 170.18 247.79 170.22 247.85 170.27 247.91 170.31 247.98 170.36 248.04 170.4 248.1 170.45 248.16 170.49 248.23 170.54 248.29 170.58 248.35 170.63 248.42 170.67 248.48 170.71 248.54 170.76 248.61 170.8 248.67 170.84 248.73 170.89 248.8 170.93 248.86 170.97 248.92 171.01 248.99 171.06 249.05 171.1 249.11 171.14 249.18 171.18 249.24 171.22 249.3 171.26 249.37 171.3 249.43 171.34 249.49 171.38 249.56 171.42 249.62 171.46 249.68 171.5 249.75 171.54 249.81 171.58 249.87 171.62 249.94 171.66 250 171.7 250.06 171.74 250.13 171.78 250.19 171.81 250.25 171.85 250.32 171.89 250.38 171.93 250.44 171.96 250.5 172 250.57 172.04 250.63 172.07 250.69 172.11 250.76 172.15 250.82 172.18 250.88 172.22 250.95 172.25 251.01 172.29 251.07 172.32 251.14 172.36 251.2 172.39 251.26 172.43 251.33 172.46 251.39 172.49 251.45 172.53 251.52 172.56 251.58 172.59 251.64 172.63 251.71 172.66 251.77 172.69 251.83 172.72 251.9 172.76 251.96 172.79 252.02 172.82 252.09 172.85 252.15 172.88 252.21 172.91 252.28 172.94 252.34 172.97 252.4 173.01 252.47 173.03 252.53 173.06 252.59 173.09 252.66 173.12 252.72 173.15 252.78 173.18 252.85 173.21 252.91 173.24 252.97 173.27 253.03 173.29 253.1 173.32 253.16 173.35 253.22 173.37 253.29 173.4 253.35 173.43 253.41 173.45 253.48 173.48 253.54 173.5 253.6 173.53 253.67 173.55 253.73 173.58 253.79 173.6 253.86 173.63 253.92 173.65 253.98 173.67 254.05 173.7 254.11 173.72 254.17 173.74 254.24 173.76 254.3 173.79 254.36 173.81 254.43 173.83 254.49 173.85 254.55 173.87 254.62 173.89 254.68 173.91 254.74 173.93 254.81 173.95 254.87 173.97 254.93 173.99 255 174.01 255.06 174.02 255.12 174.04 255.19 174.06 255.25 174.08 255.31 174.09 255.37 174.11 255.44 174.13 255.5 174.14 255.56 174.16 255.63 174.17 255.69 174.19 255.75 174.2 255.82 174.22 255.88 174.23 255.94 174.25 256.01 174.26 256.07 174.27 256.13 174.29 256.2 174.3 256.26 174.31 256.32 174.33 256.39 174.34 256.45 174.35 256.51 174.36 256.58 174.37 256.64 174.38 256.7 174.39 256.77 174.4 256.83 174.42 256.89 174.43 256.96 174.43 257.02 174.44 257.08 174.45 257.15 174.46 257.21 174.47 257.27 174.48 257.34 174.49 257.4 174.5 257.46 174.51 257.53 174.51 257.59 174.52 257.65 174.53 257.71 174.54 257.78 174.54 257.84 174.55 257.9 174.56 257.97 174.56 258.03 174.57 258.09 174.57 258.16 174.58 258.22 174.59 258.28 174.59 258.35 174.6 258.41 174.6 258.47 174.61 258.54 174.61 258.6 174.62 258.66 174.62 258.73 174.63 258.79 174.63 258.85 174.63 258.92 174.64 258.98 174.64 259.04 174.65 259.11 174.65 259.17 174.65 259.23 174.66 259.3 174.66 259.36 174.66 259.42 174.67 259.49 174.67 259.55 174.67 259.61 174.68 259.68 174.68 259.74 174.68 259.8 174.68 259.87 174.69 259.93 174.69 259.99 174.69 260.05 174.69 260.12 174.69 260.18 174.7 260.24 174.7 260.31 174.7 260.37 174.7 260.43 174.7 260.5 174.7 260.56 174.71 260.62 174.71 260.69 174.71 260.75 174.71 260.81 174.71 260.88 174.71 260.94 174.71 261 174.72 261.07 174.72 261.13 174.72 261.19 174.72 261.26 174.72 261.32 174.72 261.38 174.72 261.45 174.72 261.51 174.72 261.57 174.72 261.64 174.73 261.7 174.73 261.76 174.73 261.83 174.73 261.89 174.73 261.95 174.73 262.02 174.73 262.08 174.73 262.14 174.73 262.21 174.73 262.27 174.73 262.33 174.73 262.4 174.73 262.46 174.73 262.52 174.73 262.58 174.73 262.65 174.73 262.71 174.73 262.77 174.73 262.84 174.73 262.9 174.73 262.96 174.74 263.03 174.74 263.09 174.74 263.15 174.74 263.22 174.74 263.28 174.74 263.34 174.74 263.41 174.74 263.47 174.74 263.53 174.74 263.6 174.74 263.66 174.74 263.72 174.74 263.79 174.74 263.85 174.74 263.91 174.74 263.98 174.74 264.04 174.74 264.1 174.74 264.17 174.74 264.23 174.74 264.29 174.74 264.36 174.74 264.42 174.74 264.48 174.74 264.55 174.74 264.61 174.74 264.67 174.74 264.74 174.74 264.8 174.74 264.86 174.74 264.92 174.74 264.99 174.74 265.05 174.74 265.11 174.74 265.18 174.74 265.24 174.74 265.3 174.74 265.37 174.74 265.43 174.74 265.49 174.74 265.56 174.74"/>
      </g>
      <g stroke-width="0.3" fill="#000000" fill-opacity="0.000" class="geometry" stroke-dasharray="none" stroke="#0000FF" id="img-a42cf42e-15">
        <path fill="none" d="M105.79,174.74 L 105.87 174.74 105.94 174.74 106.02 174.74 106.1 174.74 106.18 174.74 106.26 174.74 106.34 174.74 106.42 174.74 106.49 174.74 106.57 174.74 106.65 174.74 106.73 174.74 106.81 174.74 106.89 174.74 106.96 174.74 107.04 174.74 107.12 174.74 107.2 174.74 107.28 174.74 107.36 174.74 107.44 174.74 107.51 174.74 107.59 174.74 107.67 174.74 107.75 174.74 107.83 174.74 107.91 174.74 107.99 174.74 108.06 174.74 108.14 174.74 108.22 174.74 108.3 174.74 108.38 174.74 108.46 174.74 108.54 174.74 108.61 174.74 108.69 174.74 108.77 174.74 108.85 174.74 108.93 174.74 109.01 174.74 109.08 174.74 109.16 174.74 109.24 174.74 109.32 174.74 109.4 174.74 109.48 174.74 109.56 174.74 109.63 174.74 109.71 174.74 109.79 174.74 109.87 174.73 109.95 174.73 110.03 174.73 110.11 174.73 110.18 174.73 110.26 174.73 110.34 174.73 110.42 174.73 110.5 174.73 110.58 174.73 110.65 174.73 110.73 174.73 110.81 174.73 110.89 174.73 110.97 174.73 111.05 174.73 111.13 174.73 111.2 174.73 111.28 174.73 111.36 174.73 111.44 174.73 111.52 174.72 111.6 174.72 111.68 174.72 111.75 174.72 111.83 174.72 111.91 174.72 111.99 174.72 112.07 174.72 112.15 174.72 112.23 174.72 112.3 174.72 112.38 174.71 112.46 174.71 112.54 174.71 112.62 174.71 112.7 174.71 112.77 174.71 112.85 174.71 112.93 174.71 113.01 174.7 113.09 174.7 113.17 174.7 113.25 174.7 113.32 174.7 113.4 174.7 113.48 174.69 113.56 174.69 113.64 174.69 113.72 174.69 113.8 174.69 113.87 174.68 113.95 174.68 114.03 174.68 114.11 174.68 114.19 174.67 114.27 174.67 114.35 174.67 114.42 174.67 114.5 174.66 114.58 174.66 114.66 174.66 114.74 174.66 114.82 174.65 114.89 174.65 114.97 174.65 115.05 174.64 115.13 174.64 115.21 174.64 115.29 174.63 115.37 174.63 115.44 174.63 115.52 174.62 115.6 174.62 115.68 174.61 115.76 174.61 115.84 174.61 115.92 174.6 115.99 174.6 116.07 174.59 116.15 174.59 116.23 174.58 116.31 174.58 116.39 174.57 116.46 174.57 116.54 174.56 116.62 174.56 116.7 174.55 116.78 174.55 116.86 174.54 116.94 174.54 117.01 174.53 117.09 174.53 117.17 174.52 117.25 174.51 117.33 174.51 117.41 174.5 117.49 174.5 117.56 174.49 117.64 174.48 117.72 174.48 117.8 174.47 117.88 174.46 117.96 174.46 118.04 174.45 118.11 174.44 118.19 174.44 118.27 174.43 118.35 174.42 118.43 174.41 118.51 174.41 118.58 174.4 118.66 174.39 118.74 174.38 118.82 174.38 118.9 174.37 118.98 174.36 119.06 174.35 119.13 174.35 119.21 174.34 119.29 174.33 119.37 174.32 119.45 174.31 119.53 174.3 119.61 174.3 119.68 174.29 119.76 174.28 119.84 174.27 119.92 174.26 120 174.25 120.08 174.24 120.15 174.24 120.23 174.23 120.31 174.22 120.39 174.21 120.47 174.2 120.55 174.19 120.63 174.18 120.7 174.17 120.78 174.16 120.86 174.15 120.94 174.14 121.02 174.13 121.1 174.12 121.18 174.11 121.25 174.1 121.33 174.09 121.41 174.08 121.49 174.07 121.57 174.06 121.65 174.05 121.73 174.04 121.8 174.03 121.88 174.02 121.96 174.01 122.04 174 122.12 173.99 122.2 173.98 122.27 173.97 122.35 173.95 122.43 173.94 122.51 173.93 122.59 173.92 122.67 173.91 122.75 173.89 122.82 173.88 122.9 173.87 122.98 173.86 123.06 173.85 123.14 173.83 123.22 173.82 123.3 173.81 123.37 173.79 123.45 173.78 123.53 173.77 123.61 173.75 123.69 173.74 123.77 173.72 123.85 173.71 123.92 173.69 124 173.68 124.08 173.66 124.16 173.65 124.24 173.63 124.32 173.61 124.39 173.6 124.47 173.58 124.55 173.56 124.63 173.54 124.71 173.53 124.79 173.51 124.87 173.49 124.94 173.47 125.02 173.45 125.1 173.43 125.18 173.41 125.26 173.39 125.34 173.37 125.42 173.35 125.49 173.33 125.57 173.31 125.65 173.28 125.73 173.26 125.81 173.24 125.89 173.21 125.96 173.19 126.04 173.17 126.12 173.14 126.2 173.11 126.28 173.09 126.36 173.06 126.44 173.04 126.51 173.01 126.59 172.98 126.67 172.95 126.75 172.92 126.83 172.89 126.91 172.86 126.99 172.83 127.06 172.8 127.14 172.77 127.22 172.74 127.3 172.71 127.38 172.68 127.46 172.64 127.54 172.61 127.61 172.57 127.69 172.54 127.77 172.51 127.85 172.47 127.93 172.43 128.01 172.4 128.08 172.36 128.16 172.32 128.24 172.28 128.32 172.25 128.4 172.21 128.48 172.17 128.56 172.13 128.63 172.09 128.71 172.05 128.79 172.01 128.87 171.97 128.95 171.92 129.03 171.88 129.11 171.84 129.18 171.8 129.26 171.75 129.34 171.71 129.42 171.67 129.5 171.62 129.58 171.58 129.66 171.53 129.73 171.49 129.81 171.44 129.89 171.4 129.97 171.35 130.05 171.31 130.13 171.26 130.2 171.22 130.28 171.17 130.36 171.12 130.44 171.08 130.52 171.03 130.6 170.98 130.68 170.94 130.75 170.89 130.83 170.84 130.91 170.79 130.99 170.75 131.07 170.7 131.15 170.65 131.23 170.6 131.3 170.56 131.38 170.51 131.46 170.46 131.54 170.42 131.62 170.37 131.7 170.32 131.77 170.28 131.85 170.23 131.93 170.18 132.01 170.14 132.09 170.09 132.17 170.04 132.25 170 132.32 169.95 132.4 169.91 132.48 169.86 132.56 169.82 132.64 169.77 132.72 169.73 132.8 169.68 132.87 169.64 132.95 169.6 133.03 169.55 133.11 169.51 133.19 169.47 133.27 169.42 133.35 169.38 133.42 169.34 133.5 169.3 133.58 169.26 133.66 169.22 133.74 169.18 133.82 169.14 133.89 169.1 133.97 169.06 134.05 169.02 134.13 168.98 134.21 168.94 134.29 168.9 134.37 168.86 134.44 168.82 134.52 168.79 134.6 168.75 134.68 168.71 134.76 168.67 134.84 168.64 134.92 168.6 134.99 168.56 135.07 168.53 135.15 168.49 135.23 168.46 135.31 168.42 135.39 168.39 135.46 168.35 135.54 168.32 135.62 168.28 135.7 168.25 135.78 168.21 135.86 168.18 135.94 168.14 136.01 168.11 136.09 168.07 136.17 168.03 136.25 168 136.33 167.96 136.41 167.93 136.49 167.89 136.56 167.86 136.64 167.82 136.72 167.79 136.8 167.75 136.88 167.71 136.96 167.67 137.04 167.64 137.11 167.6 137.19 167.56 137.27 167.52 137.35 167.48 137.43 167.44 137.51 167.4 137.58 167.36 137.66 167.32 137.74 167.28 137.82 167.24 137.9 167.2 137.98 167.15 138.06 167.11 138.13 167.06 138.21 167.02 138.29 166.97 138.37 166.92 138.45 166.88 138.53 166.83 138.61 166.78 138.68 166.73 138.76 166.68 138.84 166.62 138.92 166.57 139 166.52 139.08 166.46 139.16 166.4 139.23 166.35 139.31 166.29 139.39 166.23 139.47 166.17 139.55 166.11 139.63 166.05 139.7 165.98 139.78 165.92 139.86 165.85 139.94 165.78 140.02 165.72 140.1 165.65 140.18 165.58 140.25 165.5 140.33 165.43 140.41 165.36 140.49 165.28 140.57 165.2 140.65 165.13 140.73 165.05 140.8 164.97 140.88 164.89 140.96 164.8 141.04 164.72 141.12 164.63 141.2 164.55 141.27 164.46 141.35 164.37 141.43 164.28 141.51 164.19 141.59 164.1 141.67 164.01 141.75 163.91 141.82 163.82 141.9 163.72 141.98 163.62 142.06 163.52 142.14 163.42 142.22 163.32 142.3 163.22 142.37 163.12 142.45 163.01 142.53 162.91 142.61 162.8 142.69 162.69 142.77 162.59 142.85 162.48 142.92 162.37 143 162.26 143.08 162.14 143.16 162.03 143.24 161.92 143.32 161.8 143.39 161.69 143.47 161.57 143.55 161.46 143.63 161.34 143.71 161.22 143.79 161.1 143.87 160.98 143.94 160.86 144.02 160.74 144.1 160.62 144.18 160.5 144.26 160.38 144.34 160.25 144.42 160.13 144.49 160.01 144.57 159.88 144.65 159.76 144.73 159.63 144.81 159.5 144.89 159.38 144.96 159.25 145.04 159.12 145.12 159 145.2 158.87 145.28 158.74 145.36 158.61 145.44 158.48 145.51 158.35 145.59 158.22 145.67 158.09 145.75 157.96 145.83 157.83 145.91 157.7 145.99 157.57 146.06 157.43 146.14 157.3 146.22 157.17 146.3 157.03 146.38 156.9 146.46 156.77 146.54 156.63 146.61 156.5 146.69 156.36 146.77 156.23 146.85 156.09 146.93 155.96 147.01 155.82 147.08 155.68 147.16 155.55 147.24 155.41 147.32 155.27 147.4 155.13 147.48 154.99 147.56 154.85 147.63 154.71 147.71 154.57 147.79 154.43 147.87 154.29 147.95 154.15 148.03 154 148.11 153.86 148.18 153.71 148.26 153.57 148.34 153.42 148.42 153.28 148.5 153.13 148.58 152.98 148.66 152.83 148.73 152.68 148.81 152.53 148.89 152.38 148.97 152.22 149.05 152.07 149.13 151.91 149.2 151.76 149.28 151.6 149.36 151.44 149.44 151.28 149.52 151.12 149.6 150.96 149.68 150.8 149.75 150.63 149.83 150.46 149.91 150.3 149.99 150.13 150.07 149.96 150.15 149.79 150.23 149.61 150.3 149.44 150.38 149.26 150.46 149.09 150.54 148.91 150.62 148.73 150.7 148.55 150.77 148.36 150.85 148.18 150.93 147.99 151.01 147.8 151.09 147.61 151.17 147.42 151.25 147.23 151.32 147.04 151.4 146.84 151.48 146.64 151.56 146.44 151.64 146.24 151.72 146.04 151.8 145.83 151.87 145.63 151.95 145.42 152.03 145.21 152.11 145 152.19 144.78 152.27 144.57 152.35 144.35 152.42 144.14 152.5 143.92 152.58 143.7 152.66 143.47 152.74 143.25 152.82 143.02 152.89 142.8 152.97 142.57 153.05 142.34 153.13 142.11 153.21 141.88 153.29 141.64 153.37 141.41 153.44 141.17 153.52 140.93 153.6 140.69 153.68 140.45 153.76 140.21 153.84 139.97 153.92 139.72 153.99 139.48 154.07 139.23 154.15 138.99 154.23 138.74 154.31 138.49 154.39 138.24 154.46 137.99 154.54 137.74 154.62 137.49 154.7 137.23 154.78 136.98 154.86 136.73 154.94 136.47 155.01 136.22 155.09 135.96 155.17 135.71 155.25 135.45 155.33 135.2 155.41 134.94 155.49 134.68 155.56 134.43 155.64 134.17 155.72 133.91 155.8 133.66 155.88 133.4 155.96 133.14 156.04 132.89 156.11 132.63 156.19 132.37 156.27 132.12 156.35 131.86 156.43 131.61 156.51 131.35 156.58 131.1 156.66 130.84 156.74 130.59 156.82 130.34 156.9 130.09 156.98 129.83 157.06 129.58 157.13 129.33 157.21 129.08 157.29 128.84 157.37 128.59 157.45 128.34 157.53 128.1 157.61 127.85 157.68 127.61 157.76 127.37 157.84 127.12 157.92 126.88 158 126.64 158.08 126.4 158.16 126.17 158.23 125.93 158.31 125.7 158.39 125.46 158.47 125.23 158.55 125 158.63 124.77 158.7 124.54 158.78 124.31 158.86 124.09 158.94 123.86 159.02 123.64 159.1 123.42 159.18 123.2 159.25 122.98 159.33 122.77 159.41 122.55 159.49 122.34 159.57 122.12 159.65 121.91 159.73 121.7 159.8 121.5 159.88 121.29 159.96 121.09 160.04 120.89 160.12 120.68 160.2 120.49 160.27 120.29 160.35 120.09 160.43 119.9 160.51 119.71 160.59 119.51 160.67 119.33 160.75 119.14 160.82 118.95 160.9 118.77 160.98 118.59 161.06 118.41 161.14 118.23 161.22 118.05 161.3 117.88 161.37 117.7 161.45 117.53 161.53 117.36 161.61 117.19 161.69 117.03 161.77 116.86 161.85 116.7 161.92 116.54 162 116.38 162.08 116.22 162.16 116.07 162.24 115.91 162.32 115.76 162.39 115.61 162.47 115.46 162.55 115.31 162.63 115.17 162.71 115.02 162.79 114.88 162.87 114.74 162.94 114.6 163.02 114.46 163.1 114.33 163.18 114.19 163.26 114.06 163.34 113.93 163.42 113.8 163.49 113.67 163.57 113.54 163.65 113.41 163.73 113.29 163.81 113.16 163.89 113.04 163.96 112.92 164.04 112.8 164.12 112.68 164.2 112.56 164.28 112.45 164.36 112.33 164.44 112.22 164.51 112.1 164.59 111.99 164.67 111.88 164.75 111.77 164.83 111.66 164.91 111.55 164.99 111.44 165.06 111.33 165.14 111.22 165.22 111.11 165.3 111.01 165.38 110.9 165.46 110.79 165.54 110.69 165.61 110.58 165.69 110.47 165.77 110.37 165.85 110.26 165.93 110.16 166.01 110.05 166.08 109.94 166.16 109.84 166.24 109.73 166.32 109.62 166.4 109.51 166.48 109.4 166.56 109.29 166.63 109.18 166.71 109.07 166.79 108.96 166.87 108.85 166.95 108.74 167.03 108.62 167.11 108.51 167.18 108.39 167.26 108.27 167.34 108.15 167.42 108.03 167.5 107.91 167.58 107.79 167.66 107.66 167.73 107.53 167.81 107.4 167.89 107.27 167.97 107.14 168.05 107.01 168.13 106.87 168.2 106.73 168.28 106.59 168.36 106.45 168.44 106.31 168.52 106.16 168.6 106.01 168.68 105.86 168.75 105.71 168.83 105.55 168.91 105.39 168.99 105.23 169.07 105.07 169.15 104.9 169.23 104.74 169.3 104.57 169.38 104.39 169.46 104.21 169.54 104.03 169.62 103.85 169.7 103.67 169.77 103.48 169.85 103.29 169.93 103.09 170.01 102.9 170.09 102.7 170.17 102.49 170.25 102.29 170.32 102.08 170.4 101.87 170.48 101.65 170.56 101.43 170.64 101.21 170.72 100.99 170.8 100.76 170.87 100.53 170.95 100.3 171.03 100.06 171.11 99.82 171.19 99.58 171.27 99.33 171.35 99.08 171.42 98.83 171.5 98.57 171.58 98.31 171.66 98.05 171.74 97.79 171.82 97.52 171.89 97.25 171.97 96.97 172.05 96.7 172.13 96.41 172.21 96.13 172.29 95.84 172.37 95.55 172.44 95.26 172.52 94.97 172.6 94.67 172.68 94.37 172.76 94.06 172.84 93.76 172.92 93.45 172.99 93.13 173.07 92.82 173.15 92.5 173.23 92.18 173.31 91.86 173.39 91.53 173.46 91.2 173.54 90.87 173.62 90.54 173.7 90.2 173.78 89.86 173.86 89.52 173.94 89.18 174.01 88.83 174.09 88.48 174.17 88.13 174.25 87.78 174.33 87.42 174.41 87.07 174.49 86.71 174.56 86.35 174.64 85.98 174.72 85.62 174.8 85.25 174.88 84.88 174.96 84.51 175.04 84.14 175.11 83.77 175.19 83.39 175.27 83.02 175.35 82.64 175.43 82.26 175.51 81.88 175.58 81.5 175.66 81.12 175.74 80.73 175.82 80.35 175.9 79.96 175.98 79.57 176.06 79.19 176.13 78.8 176.21 78.41 176.29 78.02 176.37 77.63 176.45 77.24 176.53 76.85 176.61 76.46 176.68 76.06 176.76 75.67 176.84 75.28 176.92 74.89 177 74.5 177.08 74.11 177.16 73.72 177.23 73.33 177.31 72.94 177.39 72.55 177.47 72.16 177.55 71.77 177.63 71.38 177.7 71 177.78 70.61 177.86 70.23 177.94 69.85 178.02 69.47 178.1 69.09 178.18 68.71 178.25 68.33 178.33 67.96 178.41 67.59 178.49 67.22 178.57 66.85 178.65 66.48 178.73 66.12 178.8 65.76 178.88 65.4 178.96 65.04 179.04 64.69 179.12 64.34 179.2 63.99 179.27 63.64 179.35 63.3 179.43 62.96 179.51 62.63 179.59 62.29 179.67 61.96 179.75 61.64 179.82 61.32 179.9 61 179.98 60.69 180.06 60.38 180.14 60.07 180.22 59.77 180.3 59.47 180.37 59.18 180.45 58.89 180.53 58.6 180.61 58.32 180.69 58.05 180.77 57.77 180.85 57.51 180.92 57.25 181 56.99 181.08 56.74 181.16 56.49 181.24 56.25 181.32 56.01 181.39 55.78 181.47 55.55 181.55 55.33 181.63 55.11 181.71 54.9 181.79 54.69 181.87 54.49 181.94 54.3 182.02 54.11 182.1 53.92 182.18 53.74 182.26 53.57 182.34 53.4 182.42 53.23 182.49 53.08 182.57 52.92 182.65 52.78 182.73 52.63 182.81 52.5 182.89 52.36 182.96 52.24 183.04 52.12 183.12 52 183.2 51.89 183.28 51.78 183.36 51.68 183.44 51.59 183.51 51.5 183.59 51.41 183.67 51.33 183.75 51.25 183.83 51.18 183.91 51.12 183.99 51.05 184.06 51 184.14 50.94 184.22 50.9 184.3 50.85 184.38 50.81 184.46 50.78 184.54 50.74 184.61 50.72 184.69 50.69 184.77 50.67 184.85 50.66 184.93 50.64 185.01 50.63 185.08 50.63 185.16 50.63 185.24 50.63 185.32 50.63 185.4 50.64 185.48 50.65 185.56 50.66 185.63 50.67 185.71 50.69 185.79 50.71 185.87 50.73 185.95 50.75 186.03 50.78 186.11 50.81 186.18 50.84 186.26 50.87 186.34 50.9 186.42 50.94 186.5 50.97 186.58 51.01 186.66 51.05 186.73 51.09 186.81 51.13 186.89 51.17 186.97 51.21 187.05 51.25 187.13 51.3 187.2 51.34 187.28 51.38 187.36 51.43 187.44 51.47 187.52 51.52 187.6 51.56 187.68 51.6 187.75 51.65 187.83 51.69 187.91 51.73 187.99 51.77 188.07 51.81 188.15 51.85 188.23 51.89 188.3 51.93 188.38 51.97 188.46 52.01 188.54 52.04 188.62 52.08 188.7 52.11 188.77 52.15 188.85 52.18 188.93 52.21 189.01 52.24 189.09 52.27 189.17 52.29 189.25 52.32 189.32 52.34 189.4 52.36 189.48 52.38 189.56 52.4 189.64 52.42 189.72 52.44 189.8 52.45 189.87 52.47 189.95 52.48 190.03 52.49 190.11 52.5 190.19 52.51 190.27 52.52 190.35 52.52 190.42 52.53 190.5 52.53 190.58 52.53 190.66 52.54 190.74 52.54 190.82 52.53 190.89 52.53 190.97 52.53 191.05 52.53 191.13 52.52 191.21 52.52 191.29 52.51 191.37 52.51 191.44 52.5 191.52 52.49 191.6 52.49 191.68 52.48 191.76 52.47 191.84 52.46 191.92 52.46 191.99 52.45 192.07 52.44 192.15 52.44 192.23 52.43 192.31 52.42 192.39 52.42 192.46 52.42 192.54 52.41 192.62 52.41 192.7 52.41 192.78 52.41 192.86 52.41 192.94 52.42 193.01 52.42 193.09 52.43 193.17 52.44 193.25 52.45 193.33 52.46 193.41 52.47 193.49 52.49 193.56 52.51 193.64 52.53 193.72 52.56 193.8 52.59 193.88 52.62 193.96 52.65 194.04 52.69 194.11 52.72 194.19 52.77 194.27 52.81 194.35 52.86 194.43 52.92 194.51 52.97 194.58 53.03 194.66 53.1 194.74 53.17 194.82 53.24 194.9 53.32 194.98 53.4 195.06 53.48 195.13 53.57 195.21 53.67 195.29 53.77 195.37 53.87 195.45 53.98 195.53 54.09 195.61 54.21 195.68 54.33 195.76 54.45 195.84 54.59 195.92 54.72 196 54.87 196.08 55.01 196.16 55.16 196.23 55.32 196.31 55.48 196.39 55.65 196.47 55.82 196.55 56 196.63 56.18 196.7 56.37 196.78 56.56 196.86 56.76 196.94 56.96 197.02 57.17 197.1 57.38 197.18 57.6 197.25 57.82 197.33 58.05 197.41 58.28 197.49 58.52 197.57 58.76 197.65 59.01 197.73 59.26 197.8 59.52 197.88 59.78 197.96 60.05 198.04 60.32 198.12 60.6 198.2 60.88 198.27 61.16 198.35 61.45 198.43 61.74 198.51 62.04 198.59 62.34 198.67 62.64 198.75 62.95 198.82 63.26 198.9 63.58 198.98 63.9 199.06 64.22 199.14 64.55 199.22 64.88 199.3 65.21 199.37 65.55 199.45 65.89 199.53 66.23 199.61 66.57 199.69 66.92 199.77 67.27 199.85 67.62 199.92 67.97 200 68.33 200.08 68.69 200.16 69.05 200.24 69.41 200.32 69.77 200.39 70.14 200.47 70.5 200.55 70.87 200.63 71.24 200.71 71.61 200.79 71.98 200.87 72.35 200.94 72.73 201.02 73.1 201.1 73.47 201.18 73.85 201.26 74.22 201.34 74.6 201.42 74.97 201.49 75.34 201.57 75.72 201.65 76.09 201.73 76.47 201.81 76.84 201.89 77.21 201.96 77.59 202.04 77.96 202.12 78.33 202.2 78.7 202.28 79.07 202.36 79.44 202.44 79.8 202.51 80.17 202.59 80.53 202.67 80.9 202.75 81.26 202.83 81.62 202.91 81.98 202.99 82.33 203.06 82.69 203.14 83.04 203.22 83.4 203.3 83.75 203.38 84.1 203.46 84.44 203.54 84.79 203.61 85.13 203.69 85.47 203.77 85.81 203.85 86.15 203.93 86.48 204.01 86.81 204.08 87.14 204.16 87.47 204.24 87.8 204.32 88.13 204.4 88.45 204.48 88.77 204.56 89.09 204.63 89.41 204.71 89.72 204.79 90.03 204.87 90.34 204.95 90.65 205.03 90.96 205.11 91.27 205.18 91.57 205.26 91.87 205.34 92.17 205.42 92.47 205.5 92.77 205.58 93.06 205.66 93.35 205.73 93.65 205.81 93.94 205.89 94.23 205.97 94.51 206.05 94.8 206.13 95.09 206.2 95.37 206.28 95.65 206.36 95.94 206.44 96.22 206.52 96.5 206.6 96.78 206.68 97.06 206.75 97.33 206.83 97.61 206.91 97.89 206.99 98.16 207.07 98.44 207.15 98.71 207.23 98.99 207.3 99.26 207.38 99.54 207.46 99.81 207.54 100.09 207.62 100.36 207.7 100.64 207.77 100.91 207.85 101.19 207.93 101.46 208.01 101.74 208.09 102.01 208.17 102.29 208.25 102.57 208.32 102.85 208.4 103.12 208.48 103.4 208.56 103.68 208.64 103.96 208.72 104.25 208.8 104.53 208.87 104.81 208.95 105.1 209.03 105.38 209.11 105.67 209.19 105.95 209.27 106.24 209.35 106.53 209.42 106.82 209.5 107.12 209.58 107.41 209.66 107.7 209.74 108 209.82 108.3 209.89 108.59 209.97 108.89 210.05 109.2 210.13 109.5 210.21 109.8 210.29 110.11 210.37 110.41 210.44 110.72 210.52 111.03 210.6 111.34 210.68 111.65 210.76 111.96 210.84 112.28 210.92 112.59 210.99 112.91 211.07 113.23 211.15 113.55 211.23 113.87 211.31 114.19 211.39 114.51 211.46 114.83 211.54 115.16 211.62 115.48 211.7 115.81 211.78 116.14 211.86 116.47 211.94 116.79 212.01 117.12 212.09 117.45 212.17 117.79 212.25 118.12 212.33 118.45 212.41 118.78 212.49 119.12 212.56 119.45 212.64 119.79 212.72 120.12 212.8 120.46 212.88 120.79 212.96 121.13 213.04 121.46 213.11 121.8 213.19 122.13 213.27 122.47 213.35 122.8 213.43 123.14 213.51 123.47 213.58 123.81 213.66 124.14 213.74 124.48 213.82 124.81 213.9 125.14 213.98 125.47 214.06 125.8 214.13 126.13 214.21 126.46 214.29 126.79 214.37 127.12 214.45 127.45 214.53 127.77 214.61 128.1 214.68 128.42 214.76 128.74 214.84 129.06 214.92 129.38 215 129.7 215.08 130.02 215.16 130.33 215.23 130.64 215.31 130.96 215.39 131.27 215.47 131.57 215.55 131.88 215.63 132.18 215.7 132.49 215.78 132.79 215.86 133.09 215.94 133.38 216.02 133.68 216.1 133.97 216.18 134.26 216.25 134.55 216.33 134.83 216.41 135.11 216.49 135.4 216.57 135.67 216.65 135.95 216.73 136.22 216.8 136.49 216.88 136.76 216.96 137.03 217.04 137.29 217.12 137.55 217.2 137.81 217.27 138.07 217.35 138.32 217.43 138.57 217.51 138.82 217.59 139.06 217.67 139.3 217.75 139.54 217.82 139.78 217.9 140.01 217.98 140.24 218.06 140.47 218.14 140.69 218.22 140.92 218.3 141.14 218.37 141.35 218.45 141.57 218.53 141.78 218.61 141.98 218.69 142.19 218.77 142.39 218.85 142.59 218.92 142.79 219 142.98 219.08 143.17 219.16 143.36 219.24 143.55 219.32 143.73 219.39 143.91 219.47 144.09 219.55 144.26 219.63 144.43 219.71 144.6 219.79 144.77 219.87 144.93 219.94 145.09 220.02 145.25 220.1 145.41 220.18 145.56 220.26 145.71 220.34 145.86 220.42 146 220.49 146.15 220.57 146.29 220.65 146.43 220.73 146.56 220.81 146.7 220.89 146.83 220.96 146.96 221.04 147.08 221.12 147.21 221.2 147.33 221.28 147.45 221.36 147.57 221.44 147.69 221.51 147.8 221.59 147.91 221.67 148.02 221.75 148.13 221.83 148.24 221.91 148.34 221.99 148.45 222.06 148.55 222.14 148.65 222.22 148.74 222.3 148.84 222.38 148.94 222.46 149.03 222.54 149.12 222.61 149.21 222.69 149.3 222.77 149.39 222.85 149.47 222.93 149.56 223.01 149.64 223.08 149.72 223.16 149.81 223.24 149.89 223.32 149.97 223.4 150.04 223.48 150.12 223.56 150.2 223.63 150.27 223.71 150.35 223.79 150.42 223.87 150.49 223.95 150.57 224.03 150.64 224.11 150.71 224.18 150.78 224.26 150.85 224.34 150.92 224.42 150.99 224.5 151.05 224.58 151.12 224.66 151.19 224.73 151.26 224.81 151.32 224.89 151.39 224.97 151.46 225.05 151.52 225.13 151.59 225.2 151.65 225.28 151.72 225.36 151.78 225.44 151.85 225.52 151.91 225.6 151.98 225.68 152.05 225.75 152.11 225.83 152.18 225.91 152.24 225.99 152.31 226.07 152.38 226.15 152.44 226.23 152.51 226.3 152.58 226.38 152.64 226.46 152.71 226.54 152.78 226.62 152.85 226.7 152.92 226.77 152.98 226.85 153.05 226.93 153.12 227.01 153.19 227.09 153.27 227.17 153.34 227.25 153.41 227.32 153.48 227.4 153.55 227.48 153.63 227.56 153.7 227.64 153.78 227.72 153.85 227.8 153.93 227.87 154 227.95 154.08 228.03 154.16 228.11 154.24 228.19 154.32 228.27 154.4 228.35 154.48 228.42 154.56 228.5 154.64 228.58 154.72 228.66 154.81 228.74 154.89 228.82 154.97 228.89 155.06 228.97 155.14 229.05 155.23 229.13 155.32 229.21 155.41 229.29 155.5 229.37 155.59 229.44 155.68 229.52 155.77 229.6 155.86 229.68 155.95 229.76 156.04 229.84 156.14 229.92 156.23 229.99 156.33 230.07 156.42 230.15 156.52 230.23 156.62 230.31 156.71 230.39 156.81 230.46 156.91 230.54 157.01 230.62 157.11 230.7 157.21 230.78 157.31 230.86 157.42 230.94 157.52 231.01 157.62 231.09 157.73 231.17 157.83 231.25 157.94 231.33 158.04 231.41 158.15 231.49 158.25 231.56 158.36 231.64 158.47 231.72 158.58 231.8 158.68 231.88 158.79 231.96 158.9 232.04 159.01 232.11 159.12 232.19 159.23 232.27 159.34 232.35 159.45 232.43 159.56 232.51 159.67 232.58 159.79 232.66 159.9 232.74 160.01 232.82 160.12 232.9 160.24 232.98 160.35 233.06 160.46 233.13 160.57 233.21 160.69 233.29 160.8 233.37 160.91 233.45 161.03 233.53 161.14 233.61 161.26 233.68 161.37 233.76 161.48 233.84 161.6 233.92 161.71 234 161.82 234.08 161.94 234.16 162.05 234.23 162.16 234.31 162.28 234.39 162.39 234.47 162.5 234.55 162.61 234.63 162.73 234.7 162.84 234.78 162.95 234.86 163.06 234.94 163.17 235.02 163.28 235.1 163.39 235.18 163.5 235.25 163.61 235.33 163.72 235.41 163.83 235.49 163.94 235.57 164.05 235.65 164.15 235.73 164.26 235.8 164.37 235.88 164.47 235.96 164.58 236.04 164.68 236.12 164.79 236.2 164.89 236.27 164.99 236.35 165.1 236.43 165.2 236.51 165.3 236.59 165.4 236.67 165.5 236.75 165.6 236.82 165.7 236.9 165.8 236.98 165.89 237.06 165.99 237.14 166.09 237.22 166.18 237.3 166.27 237.37 166.37 237.45 166.46 237.53 166.55 237.61 166.64 237.69 166.73 237.77 166.82 237.85 166.91 237.92 167 238 167.09 238.08 167.17 238.16 167.26 238.24 167.34 238.32 167.43 238.39 167.51 238.47 167.59 238.55 167.67 238.63 167.75 238.71 167.83 238.79 167.91 238.87 167.99 238.94 168.07 239.02 168.14 239.1 168.22 239.18 168.29 239.26 168.37 239.34 168.44 239.42 168.51 239.49 168.58 239.57 168.65 239.65 168.72 239.73 168.79 239.81 168.86 239.89 168.93 239.96 168.99 240.04 169.06 240.12 169.12 240.2 169.19 240.28 169.25 240.36 169.31 240.44 169.37 240.51 169.43 240.59 169.49 240.67 169.55 240.75 169.61 240.83 169.67 240.91 169.73 240.99 169.78 241.06 169.84 241.14 169.89 241.22 169.95 241.3 170 241.38 170.05 241.46 170.11 241.54 170.16 241.61 170.21 241.69 170.26 241.77 170.31 241.85 170.36 241.93 170.41 242.01 170.45 242.08 170.5 242.16 170.55 242.24 170.59 242.32 170.64 242.4 170.68 242.48 170.73 242.56 170.77 242.63 170.81 242.71 170.86 242.79 170.9 242.87 170.94 242.95 170.98 243.03 171.02 243.11 171.06 243.18 171.1 243.26 171.14 243.34 171.18 243.42 171.22 243.5 171.26 243.58 171.29 243.66 171.33 243.73 171.37 243.81 171.4 243.89 171.44 243.97 171.47 244.05 171.51 244.13 171.54 244.2 171.58 244.28 171.61 244.36 171.65 244.44 171.68 244.52 171.71 244.6 171.74 244.68 171.78 244.75 171.81 244.83 171.84 244.91 171.87 244.99 171.9 245.07 171.93 245.15 171.96 245.23 171.99 245.3 172.02 245.38 172.05 245.46 172.08 245.54 172.11 245.62 172.14 245.7 172.17 245.77 172.2 245.85 172.23 245.93 172.25 246.01 172.28 246.09 172.31 246.17 172.34 246.25 172.36 246.32 172.39 246.4 172.42 246.48 172.44 246.56 172.47 246.64 172.5 246.72 172.52 246.8 172.55 246.87 172.57 246.95 172.6 247.03 172.62 247.11 172.65 247.19 172.67 247.27 172.7 247.35 172.72 247.42 172.75 247.5 172.77 247.58 172.8 247.66 172.82 247.74 172.84 247.82 172.87 247.89 172.89 247.97 172.92 248.05 172.94 248.13 172.96 248.21 172.99 248.29 173.01 248.37 173.03 248.44 173.05 248.52 173.08 248.6 173.1 248.68 173.12 248.76 173.14 248.84 173.17 248.92 173.19 248.99 173.21 249.07 173.23 249.15 173.25 249.23 173.27 249.31 173.3 249.39 173.32 249.46 173.34 249.54 173.36 249.62 173.38 249.7 173.4 249.78 173.42 249.86 173.44 249.94 173.46 250.01 173.48 250.09 173.5 250.17 173.52 250.25 173.54 250.33 173.56 250.41 173.58 250.49 173.6 250.56 173.62 250.64 173.64 250.72 173.66 250.8 173.68 250.88 173.7 250.96 173.71 251.04 173.73 251.11 173.75 251.19 173.77 251.27 173.79 251.35 173.8 251.43 173.82 251.51 173.84 251.58 173.86 251.66 173.87 251.74 173.89 251.82 173.91 251.9 173.92 251.98 173.94 252.06 173.96 252.13 173.97 252.21 173.99 252.29 174 252.37 174.02 252.45 174.04 252.53 174.05 252.61 174.07 252.68 174.08 252.76 174.1 252.84 174.11 252.92 174.12 253 174.14 253.08 174.15 253.16 174.17 253.23 174.18 253.31 174.19 253.39 174.21 253.47 174.22 253.55 174.23 253.63 174.24 253.7 174.26 253.78 174.27 253.86 174.28 253.94 174.29 254.02 174.3 254.1 174.31 254.18 174.33 254.25 174.34 254.33 174.35 254.41 174.36 254.49 174.37 254.57 174.38 254.65 174.39 254.73 174.4 254.8 174.41 254.88 174.42 254.96 174.43 255.04 174.44 255.12 174.44 255.2 174.45 255.27 174.46 255.35 174.47 255.43 174.48 255.51 174.49 255.59 174.49 255.67 174.5 255.75 174.51 255.82 174.52 255.9 174.52 255.98 174.53 256.06 174.54 256.14 174.54 256.22 174.55 256.3 174.56 256.37 174.56 256.45 174.57 256.53 174.57 256.61 174.58 256.69 174.59 256.77 174.59 256.85 174.6 256.92 174.6 257 174.61 257.08 174.61 257.16 174.61 257.24 174.62 257.32 174.62 257.39 174.63 257.47 174.63 257.55 174.64 257.63 174.64 257.71 174.64 257.79 174.65 257.87 174.65 257.94 174.65 258.02 174.66 258.1 174.66 258.18 174.66 258.26 174.67 258.34 174.67 258.42 174.67 258.49 174.68 258.57 174.68 258.65 174.68 258.73 174.68 258.81 174.69 258.89 174.69 258.96 174.69 259.04 174.69 259.12 174.69 259.2 174.7 259.28 174.7 259.36 174.7 259.44 174.7 259.51 174.7 259.59 174.7 259.67 174.71 259.75 174.71 259.83 174.71 259.91 174.71 259.99 174.71 260.06 174.71 260.14 174.71 260.22 174.72 260.3 174.72 260.38 174.72 260.46 174.72 260.54 174.72 260.61 174.72 260.69 174.72 260.77 174.72 260.85 174.72 260.93 174.72 261.01 174.73 261.08 174.73 261.16 174.73 261.24 174.73 261.32 174.73 261.4 174.73 261.48 174.73 261.56 174.73 261.63 174.73 261.71 174.73 261.79 174.73 261.87 174.73 261.95 174.73 262.03 174.73 262.11 174.73 262.18 174.73 262.26 174.73 262.34 174.73 262.42 174.73 262.5 174.73 262.58 174.73 262.66 174.74 262.73 174.74 262.81 174.74 262.89 174.74 262.97 174.74 263.05 174.74 263.13 174.74 263.2 174.74 263.28 174.74 263.36 174.74 263.44 174.74 263.52 174.74 263.6 174.74 263.68 174.74 263.75 174.74 263.83 174.74 263.91 174.74 263.99 174.74 264.07 174.74 264.15 174.74 264.23 174.74 264.3 174.74 264.38 174.74 264.46 174.74 264.54 174.74 264.62 174.74 264.7 174.74 264.77 174.74 264.85 174.74 264.93 174.74 265.01 174.74 265.09 174.74 265.17 174.74 265.25 174.74 265.32 174.74 265.4 174.74 265.48 174.74 265.56 174.74 265.64 174.74 265.72 174.74 265.8 174.74 265.87 174.74 265.95 174.74 266.03 174.74 266.11 174.74 266.19 174.74 266.27 174.74 266.35 174.74 266.42 174.74 266.5 174.74"/>
      </g>
    </g>
  </g>
</g>
  <g class="guide ylabels" font-size="4.94" font-family="'PT Sans Caption','Helvetica Neue','Helvetica',sans-serif" fill="#6C606B" id="img-a42cf42e-16">
    <text x="25.54" y="174.74" text-anchor="end" dy="0.35em">0.00</text>
    <text x="25.54" y="135.2" text-anchor="end" dy="0.35em">0.05</text>
    <text x="25.54" y="95.66" text-anchor="end" dy="0.35em">0.10</text>
    <text x="25.54" y="56.12" text-anchor="end" dy="0.35em">0.15</text>
    <text x="25.54" y="16.58" text-anchor="end" dy="0.35em">0.20</text>
  </g>
  <g font-size="6" font-family="'PT Sans','Helvetica Neue','Helvetica',sans-serif" fill="#564A55" stroke="#000000" stroke-opacity="0.000" id="img-a42cf42e-17">
    <text x="9.79" y="93.66" text-anchor="middle" dy="0.35em" transform="rotate(-90, 9.79, 95.66)">Density</text>
  </g>
  <g font-size="6" font-family="'PT Sans','Helvetica Neue','Helvetica',sans-serif" fill="#564A55" stroke="#000000" stroke-opacity="0.000" id="img-a42cf42e-18">
    <text x="187.14" y="12.58" text-anchor="middle">Location estimator densities for CCL return data</text>
  </g>
</g>
<defs>
  <clipPath id="img-a42cf42e-8">
  <path d="M26.55,14.58 L 347.74 14.58 347.74 176.74 26.55 176.74" />
</clipPath>
</defs>
</svg>
