<?xml version="1.0" encoding="UTF-8"?>
<svg xmlns="http://www.w3.org/2000/svg"
     xmlns:xlink="http://www.w3.org/1999/xlink"
     xmlns:gadfly="http://www.gadflyjl.org/ns"
     version="1.2"
     width="400mm" height="200mm" viewBox="0 0 400 200"
     stroke="none"
     fill="#000000"
     stroke-width="0.3"
     font-size="3.88"
>
<g class="plotroot xscalable yscalable" id="img-02c1b249-1">
  <g font-size="6" font-family="'PT Sans','Helvetica Neue','Helvetica',sans-serif" fill="#564A55" stroke="#000000" stroke-opacity="0.000" id="img-02c1b249-2">
    <text x="187.14" y="186.42" text-anchor="middle" dy="0.6em">Estimator value (basis points)</text>
  </g>
  <g class="guide xlabels" font-size="4.94" font-family="'PT Sans Caption','Helvetica Neue','Helvetica',sans-serif" fill="#6C606B" id="img-02c1b249-3">
    <text x="28.55" y="177.74" text-anchor="middle" dy="0.6em">-30</text>
    <text x="81.41" y="177.74" text-anchor="middle" dy="0.6em">-20</text>
    <text x="134.28" y="177.74" text-anchor="middle" dy="0.6em">-10</text>
    <text x="187.14" y="177.74" text-anchor="middle" dy="0.6em">0</text>
    <text x="240" y="177.74" text-anchor="middle" dy="0.6em">10</text>
    <text x="292.87" y="177.74" text-anchor="middle" dy="0.6em">20</text>
    <text x="345.74" y="177.74" text-anchor="middle" dy="0.6em">30</text>
  </g>
  <g class="guide colorkey" id="img-02c1b249-4">
    <g fill="#4C404B" font-size="4.94" font-family="'PT Sans','Helvetica Neue','Helvetica',sans-serif" id="img-02c1b249-5">
      <text x="352.53" y="95.66" dy="0.35em">Mean</text>
      <text x="352.53" y="101.26" dy="0.35em">Trimmed mean (0.4)</text>
    </g>
    <g stroke="#000000" stroke-opacity="0.000" id="img-02c1b249-6">
      <rect x="348.74" y="94.26" width="2.8" height="2.8" fill="#0000FF"/>
      <rect x="348.74" y="99.86" width="2.8" height="2.8" fill="#008000"/>
    </g>
    <g fill="#362A35" font-size="6" font-family="'PT Sans','Helvetica Neue','Helvetica',sans-serif" stroke="#000000" stroke-opacity="0.000" id="img-02c1b249-7">
      <text x="348.74" y="90.86">Legend:</text>
    </g>
  </g>
<g clip-path="url(#img-02c1b249-8)">
  <g id="img-02c1b249-9">
    <g pointer-events="visible" opacity="1" fill="#000000" fill-opacity="0.000" stroke="#000000" stroke-opacity="0.000" class="guide background" id="img-02c1b249-10">
      <rect x="26.55" y="14.58" width="321.19" height="162.16"/>
    </g>
    <g class="guide ygridlines xfixed" stroke-dasharray="0.5,0.5" stroke-width="0.2" stroke="#D0D0E0" id="img-02c1b249-11">
      <path fill="none" d="M26.55,174.74 L 347.74 174.74"/>
      <path fill="none" d="M26.55,135.2 L 347.74 135.2"/>
      <path fill="none" d="M26.55,95.66 L 347.74 95.66"/>
      <path fill="none" d="M26.55,56.12 L 347.74 56.12"/>
      <path fill="none" d="M26.55,16.58 L 347.74 16.58"/>
    </g>
    <g class="guide xgridlines yfixed" stroke-dasharray="0.5,0.5" stroke-width="0.2" stroke="#D0D0E0" id="img-02c1b249-12">
      <path fill="none" d="M28.55,14.58 L 28.55 176.74"/>
      <path fill="none" d="M81.41,14.58 L 81.41 176.74"/>
      <path fill="none" d="M134.28,14.58 L 134.28 176.74"/>
      <path fill="none" d="M187.14,14.58 L 187.14 176.74"/>
      <path fill="none" d="M240,14.58 L 240 176.74"/>
      <path fill="none" d="M292.87,14.58 L 292.87 176.74"/>
      <path fill="none" d="M345.74,14.58 L 345.74 176.74"/>
    </g>
    <g class="plotpanel" id="img-02c1b249-13">
      <g stroke-width="0.3" fill="#000000" fill-opacity="0.000" class="geometry" stroke-dasharray="none" stroke="#008000" id="img-02c1b249-14">
        <path fill="none" d="M142.75,174.74 L 142.79 174.74 142.84 174.74 142.89 174.74 142.93 174.74 142.98 174.74 143.03 174.74 143.07 174.74 143.12 174.74 143.17 174.74 143.22 174.74 143.26 174.74 143.31 174.74 143.36 174.74 143.4 174.74 143.45 174.74 143.5 174.74 143.54 174.74 143.59 174.74 143.64 174.74 143.68 174.74 143.73 174.74 143.78 174.74 143.82 174.74 143.87 174.74 143.92 174.74 143.96 174.74 144.01 174.74 144.06 174.74 144.1 174.74 144.15 174.74 144.2 174.74 144.25 174.74 144.29 174.74 144.34 174.74 144.39 174.74 144.43 174.74 144.48 174.74 144.53 174.74 144.57 174.74 144.62 174.74 144.67 174.74 144.71 174.74 144.76 174.74 144.81 174.74 144.85 174.74 144.9 174.74 144.95 174.74 144.99 174.74 145.04 174.74 145.09 174.74 145.13 174.73 145.18 174.73 145.23 174.73 145.27 174.73 145.32 174.73 145.37 174.73 145.42 174.73 145.46 174.73 145.51 174.73 145.56 174.73 145.6 174.73 145.65 174.73 145.7 174.73 145.74 174.73 145.79 174.73 145.84 174.73 145.88 174.73 145.93 174.73 145.98 174.73 146.02 174.73 146.07 174.73 146.12 174.72 146.16 174.72 146.21 174.72 146.26 174.72 146.3 174.72 146.35 174.72 146.4 174.72 146.45 174.72 146.49 174.72 146.54 174.72 146.59 174.72 146.63 174.71 146.68 174.71 146.73 174.71 146.77 174.71 146.82 174.71 146.87 174.71 146.91 174.71 146.96 174.71 147.01 174.7 147.05 174.7 147.1 174.7 147.15 174.7 147.19 174.7 147.24 174.7 147.29 174.69 147.33 174.69 147.38 174.69 147.43 174.69 147.48 174.69 147.52 174.68 147.57 174.68 147.62 174.68 147.66 174.68 147.71 174.67 147.76 174.67 147.8 174.67 147.85 174.67 147.9 174.66 147.94 174.66 147.99 174.66 148.04 174.65 148.08 174.65 148.13 174.65 148.18 174.64 148.22 174.64 148.27 174.64 148.32 174.63 148.36 174.63 148.41 174.63 148.46 174.62 148.5 174.62 148.55 174.62 148.6 174.61 148.65 174.61 148.69 174.6 148.74 174.6 148.79 174.59 148.83 174.59 148.88 174.59 148.93 174.58 148.97 174.58 149.02 174.57 149.07 174.57 149.11 174.56 149.16 174.56 149.21 174.55 149.25 174.55 149.3 174.54 149.35 174.53 149.39 174.53 149.44 174.52 149.49 174.52 149.53 174.51 149.58 174.5 149.63 174.5 149.68 174.49 149.72 174.49 149.77 174.48 149.82 174.47 149.86 174.47 149.91 174.46 149.96 174.45 150 174.45 150.05 174.44 150.1 174.43 150.14 174.43 150.19 174.42 150.24 174.41 150.28 174.41 150.33 174.4 150.38 174.39 150.42 174.38 150.47 174.38 150.52 174.37 150.56 174.36 150.61 174.35 150.66 174.35 150.71 174.34 150.75 174.33 150.8 174.32 150.85 174.32 150.89 174.31 150.94 174.3 150.99 174.29 151.03 174.29 151.08 174.28 151.13 174.27 151.17 174.26 151.22 174.26 151.27 174.25 151.31 174.24 151.36 174.23 151.41 174.23 151.45 174.22 151.5 174.21 151.55 174.2 151.59 174.2 151.64 174.19 151.69 174.18 151.74 174.17 151.78 174.17 151.83 174.16 151.88 174.15 151.92 174.14 151.97 174.14 152.02 174.13 152.06 174.12 152.11 174.12 152.16 174.11 152.2 174.1 152.25 174.1 152.3 174.09 152.34 174.08 152.39 174.08 152.44 174.07 152.48 174.06 152.53 174.06 152.58 174.05 152.62 174.04 152.67 174.04 152.72 174.03 152.76 174.03 152.81 174.02 152.86 174.02 152.91 174.01 152.95 174 153 174 153.05 173.99 153.09 173.99 153.14 173.98 153.19 173.98 153.23 173.97 153.28 173.97 153.33 173.97 153.37 173.96 153.42 173.96 153.47 173.95 153.51 173.95 153.56 173.94 153.61 173.94 153.65 173.94 153.7 173.93 153.75 173.93 153.79 173.93 153.84 173.92 153.89 173.92 153.94 173.92 153.98 173.91 154.03 173.91 154.08 173.91 154.12 173.9 154.17 173.9 154.22 173.9 154.26 173.9 154.31 173.89 154.36 173.89 154.4 173.89 154.45 173.89 154.5 173.89 154.54 173.88 154.59 173.88 154.64 173.88 154.68 173.88 154.73 173.88 154.78 173.87 154.82 173.87 154.87 173.87 154.92 173.87 154.97 173.87 155.01 173.87 155.06 173.86 155.11 173.86 155.15 173.86 155.2 173.86 155.25 173.86 155.29 173.86 155.34 173.86 155.39 173.86 155.43 173.85 155.48 173.85 155.53 173.85 155.57 173.85 155.62 173.85 155.67 173.85 155.71 173.85 155.76 173.85 155.81 173.85 155.85 173.85 155.9 173.85 155.95 173.85 155.99 173.84 156.04 173.84 156.09 173.84 156.14 173.84 156.18 173.84 156.23 173.84 156.28 173.84 156.32 173.84 156.37 173.84 156.42 173.84 156.46 173.84 156.51 173.84 156.56 173.84 156.6 173.83 156.65 173.83 156.7 173.83 156.74 173.83 156.79 173.83 156.84 173.83 156.88 173.83 156.93 173.83 156.98 173.83 157.02 173.83 157.07 173.83 157.12 173.82 157.17 173.82 157.21 173.82 157.26 173.82 157.31 173.82 157.35 173.82 157.4 173.82 157.45 173.82 157.49 173.81 157.54 173.81 157.59 173.81 157.63 173.81 157.68 173.81 157.73 173.8 157.77 173.8 157.82 173.8 157.87 173.8 157.91 173.8 157.96 173.79 158.01 173.79 158.05 173.79 158.1 173.78 158.15 173.78 158.2 173.78 158.24 173.77 158.29 173.77 158.34 173.77 158.38 173.76 158.43 173.76 158.48 173.75 158.52 173.75 158.57 173.74 158.62 173.74 158.66 173.73 158.71 173.73 158.76 173.72 158.8 173.72 158.85 173.71 158.9 173.7 158.94 173.7 158.99 173.69 159.04 173.68 159.08 173.67 159.13 173.66 159.18 173.66 159.22 173.65 159.27 173.64 159.32 173.63 159.37 173.62 159.41 173.61 159.46 173.59 159.51 173.58 159.55 173.57 159.6 173.56 159.65 173.55 159.69 173.53 159.74 173.52 159.79 173.5 159.83 173.49 159.88 173.47 159.93 173.46 159.97 173.44 160.02 173.43 160.07 173.41 160.11 173.39 160.16 173.37 160.21 173.35 160.25 173.33 160.3 173.31 160.35 173.29 160.4 173.27 160.44 173.25 160.49 173.22 160.54 173.2 160.58 173.18 160.63 173.15 160.68 173.13 160.72 173.1 160.77 173.07 160.82 173.05 160.86 173.02 160.91 172.99 160.96 172.96 161 172.93 161.05 172.9 161.1 172.87 161.14 172.83 161.19 172.8 161.24 172.77 161.28 172.73 161.33 172.7 161.38 172.66 161.43 172.62 161.47 172.58 161.52 172.55 161.57 172.51 161.61 172.47 161.66 172.43 161.71 172.38 161.75 172.34 161.8 172.3 161.85 172.25 161.89 172.21 161.94 172.16 161.99 172.12 162.03 172.07 162.08 172.02 162.13 171.97 162.17 171.92 162.22 171.87 162.27 171.82 162.31 171.77 162.36 171.72 162.41 171.66 162.46 171.61 162.5 171.55 162.55 171.5 162.6 171.44 162.64 171.38 162.69 171.33 162.74 171.27 162.78 171.21 162.83 171.15 162.88 171.09 162.92 171.03 162.97 170.96 163.02 170.9 163.06 170.84 163.11 170.77 163.16 170.71 163.2 170.64 163.25 170.57 163.3 170.51 163.34 170.44 163.39 170.37 163.44 170.3 163.48 170.23 163.53 170.16 163.58 170.09 163.63 170.02 163.67 169.94 163.72 169.87 163.77 169.8 163.81 169.72 163.86 169.65 163.91 169.57 163.95 169.5 164 169.42 164.05 169.34 164.09 169.26 164.14 169.19 164.19 169.11 164.23 169.03 164.28 168.95 164.33 168.87 164.37 168.79 164.42 168.7 164.47 168.62 164.51 168.54 164.56 168.46 164.61 168.37 164.66 168.29 164.7 168.2 164.75 168.12 164.8 168.03 164.84 167.95 164.89 167.86 164.94 167.78 164.98 167.69 165.03 167.6 165.08 167.51 165.12 167.42 165.17 167.33 165.22 167.24 165.26 167.15 165.31 167.06 165.36 166.97 165.4 166.88 165.45 166.79 165.5 166.7 165.54 166.61 165.59 166.51 165.64 166.42 165.69 166.33 165.73 166.23 165.78 166.14 165.83 166.04 165.87 165.95 165.92 165.85 165.97 165.75 166.01 165.66 166.06 165.56 166.11 165.46 166.15 165.36 166.2 165.26 166.25 165.16 166.29 165.06 166.34 164.96 166.39 164.86 166.43 164.76 166.48 164.66 166.53 164.55 166.57 164.45 166.62 164.35 166.67 164.24 166.71 164.14 166.76 164.03 166.81 163.93 166.86 163.82 166.9 163.71 166.95 163.6 167 163.49 167.04 163.38 167.09 163.27 167.14 163.16 167.18 163.05 167.23 162.94 167.28 162.83 167.32 162.71 167.37 162.6 167.42 162.48 167.46 162.37 167.51 162.25 167.56 162.13 167.6 162.01 167.65 161.89 167.7 161.77 167.74 161.65 167.79 161.53 167.84 161.4 167.89 161.28 167.93 161.15 167.98 161.03 168.03 160.9 168.07 160.77 168.12 160.64 168.17 160.51 168.21 160.38 168.26 160.25 168.31 160.11 168.35 159.98 168.4 159.84 168.45 159.7 168.49 159.56 168.54 159.42 168.59 159.28 168.63 159.14 168.68 159 168.73 158.85 168.77 158.7 168.82 158.56 168.87 158.41 168.92 158.26 168.96 158.11 169.01 157.95 169.06 157.8 169.1 157.64 169.15 157.48 169.2 157.32 169.24 157.16 169.29 157 169.34 156.84 169.38 156.67 169.43 156.51 169.48 156.34 169.52 156.17 169.57 156 169.62 155.82 169.66 155.65 169.71 155.47 169.76 155.3 169.8 155.12 169.85 154.94 169.9 154.76 169.94 154.57 169.99 154.39 170.04 154.2 170.09 154.01 170.13 153.82 170.18 153.63 170.23 153.43 170.27 153.24 170.32 153.04 170.37 152.84 170.41 152.64 170.46 152.44 170.51 152.24 170.55 152.03 170.6 151.83 170.65 151.62 170.69 151.41 170.74 151.2 170.79 150.99 170.83 150.77 170.88 150.56 170.93 150.34 170.97 150.12 171.02 149.9 171.07 149.68 171.12 149.45 171.16 149.23 171.21 149 171.26 148.77 171.3 148.54 171.35 148.31 171.4 148.08 171.44 147.84 171.49 147.61 171.54 147.37 171.58 147.13 171.63 146.89 171.68 146.65 171.72 146.41 171.77 146.17 171.82 145.92 171.86 145.68 171.91 145.43 171.96 145.18 172 144.93 172.05 144.68 172.1 144.43 172.15 144.18 172.19 143.92 172.24 143.67 172.29 143.41 172.33 143.16 172.38 142.9 172.43 142.64 172.47 142.38 172.52 142.12 172.57 141.86 172.61 141.59 172.66 141.33 172.71 141.07 172.75 140.8 172.8 140.53 172.85 140.27 172.89 140 172.94 139.73 172.99 139.47 173.03 139.2 173.08 138.93 173.13 138.66 173.17 138.39 173.22 138.12 173.27 137.84 173.32 137.57 173.36 137.3 173.41 137.03 173.46 136.76 173.5 136.48 173.55 136.21 173.6 135.94 173.64 135.66 173.69 135.39 173.74 135.11 173.78 134.84 173.83 134.57 173.88 134.29 173.92 134.02 173.97 133.74 174.02 133.47 174.06 133.2 174.11 132.92 174.16 132.65 174.2 132.37 174.25 132.1 174.3 131.83 174.35 131.55 174.39 131.28 174.44 131.01 174.49 130.74 174.53 130.46 174.58 130.19 174.63 129.92 174.67 129.65 174.72 129.38 174.77 129.11 174.81 128.84 174.86 128.57 174.91 128.3 174.95 128.03 175 127.76 175.05 127.5 175.09 127.23 175.14 126.96 175.19 126.7 175.23 126.43 175.28 126.16 175.33 125.9 175.38 125.63 175.42 125.37 175.47 125.11 175.52 124.84 175.56 124.58 175.61 124.32 175.66 124.05 175.7 123.79 175.75 123.53 175.8 123.27 175.84 123.01 175.89 122.75 175.94 122.49 175.98 122.23 176.03 121.97 176.08 121.71 176.12 121.45 176.17 121.19 176.22 120.93 176.26 120.67 176.31 120.41 176.36 120.15 176.41 119.89 176.45 119.63 176.5 119.37 176.55 119.11 176.59 118.85 176.64 118.59 176.69 118.33 176.73 118.07 176.78 117.8 176.83 117.54 176.87 117.28 176.92 117.02 176.97 116.75 177.01 116.49 177.06 116.22 177.11 115.96 177.15 115.69 177.2 115.42 177.25 115.15 177.29 114.88 177.34 114.61 177.39 114.34 177.43 114.07 177.48 113.79 177.53 113.52 177.58 113.24 177.62 112.96 177.67 112.68 177.72 112.4 177.76 112.12 177.81 111.84 177.86 111.55 177.9 111.27 177.95 110.98 178 110.69 178.04 110.4 178.09 110.11 178.14 109.81 178.18 109.52 178.23 109.22 178.28 108.92 178.32 108.62 178.37 108.31 178.42 108.01 178.46 107.7 178.51 107.4 178.56 107.09 178.61 106.77 178.65 106.46 178.7 106.15 178.75 105.83 178.79 105.51 178.84 105.19 178.89 104.87 178.93 104.55 178.98 104.22 179.03 103.9 179.07 103.57 179.12 103.24 179.17 102.91 179.21 102.58 179.26 102.25 179.31 101.91 179.35 101.58 179.4 101.24 179.45 100.9 179.49 100.57 179.54 100.23 179.59 99.89 179.64 99.55 179.68 99.21 179.73 98.87 179.78 98.52 179.82 98.18 179.87 97.84 179.92 97.5 179.96 97.16 180.01 96.81 180.06 96.47 180.1 96.13 180.15 95.79 180.2 95.45 180.24 95.11 180.29 94.77 180.34 94.43 180.38 94.09 180.43 93.76 180.48 93.42 180.52 93.09 180.57 92.76 180.62 92.43 180.66 92.1 180.71 91.77 180.76 91.45 180.81 91.13 180.85 90.8 180.9 90.49 180.95 90.17 180.99 89.86 181.04 89.55 181.09 89.24 181.13 88.93 181.18 88.63 181.23 88.33 181.27 88.04 181.32 87.75 181.37 87.46 181.41 87.17 181.46 86.89 181.51 86.61 181.55 86.34 181.6 86.06 181.65 85.8 181.69 85.54 181.74 85.28 181.79 85.02 181.84 84.77 181.88 84.52 181.93 84.28 181.98 84.04 182.02 83.81 182.07 83.58 182.12 83.36 182.16 83.14 182.21 82.92 182.26 82.71 182.3 82.5 182.35 82.3 182.4 82.1 182.44 81.91 182.49 81.72 182.54 81.54 182.58 81.36 182.63 81.18 182.68 81.01 182.72 80.85 182.77 80.69 182.82 80.53 182.87 80.38 182.91 80.23 182.96 80.09 183.01 79.95 183.05 79.81 183.1 79.68 183.15 79.55 183.19 79.43 183.24 79.31 183.29 79.19 183.33 79.08 183.38 78.97 183.43 78.87 183.47 78.77 183.52 78.67 183.57 78.58 183.61 78.48 183.66 78.4 183.71 78.31 183.75 78.23 183.8 78.15 183.85 78.07 183.89 78 183.94 77.93 183.99 77.86 184.04 77.79 184.08 77.72 184.13 77.66 184.18 77.6 184.22 77.54 184.27 77.48 184.32 77.42 184.36 77.37 184.41 77.31 184.46 77.26 184.5 77.21 184.55 77.15 184.6 77.1 184.64 77.05 184.69 77 184.74 76.95 184.78 76.9 184.83 76.85 184.88 76.8 184.92 76.75 184.97 76.7 185.02 76.65 185.07 76.6 185.11 76.54 185.16 76.49 185.21 76.43 185.25 76.38 185.3 76.32 185.35 76.26 185.39 76.2 185.44 76.14 185.49 76.07 185.53 76.01 185.58 75.94 185.63 75.87 185.67 75.8 185.72 75.73 185.77 75.65 185.81 75.57 185.86 75.49 185.91 75.4 185.95 75.32 186 75.23 186.05 75.14 186.1 75.04 186.14 74.94 186.19 74.84 186.24 74.73 186.28 74.63 186.33 74.51 186.38 74.4 186.42 74.28 186.47 74.16 186.52 74.03 186.56 73.9 186.61 73.77 186.66 73.63 186.7 73.49 186.75 73.35 186.8 73.2 186.84 73.05 186.89 72.89 186.94 72.73 186.98 72.57 187.03 72.4 187.08 72.22 187.13 72.05 187.17 71.87 187.22 71.68 187.27 71.49 187.31 71.3 187.36 71.1 187.41 70.9 187.45 70.7 187.5 70.49 187.55 70.28 187.59 70.06 187.64 69.84 187.69 69.61 187.73 69.38 187.78 69.15 187.83 68.91 187.87 68.67 187.92 68.42 187.97 68.17 188.01 67.92 188.06 67.66 188.11 67.4 188.15 67.14 188.2 66.87 188.25 66.59 188.3 66.32 188.34 66.04 188.39 65.76 188.44 65.47 188.48 65.18 188.53 64.88 188.58 64.59 188.62 64.29 188.67 63.98 188.72 63.68 188.76 63.37 188.81 63.06 188.86 62.74 188.9 62.42 188.95 62.1 189 61.78 189.04 61.45 189.09 61.12 189.14 60.79 189.18 60.46 189.23 60.12 189.28 59.79 189.33 59.45 189.37 59.1 189.42 58.76 189.47 58.42 189.51 58.07 189.56 57.72 189.61 57.37 189.65 57.02 189.7 56.67 189.75 56.31 189.79 55.96 189.84 55.6 189.89 55.25 189.93 54.89 189.98 54.53 190.03 54.18 190.07 53.82 190.12 53.46 190.17 53.1 190.21 52.74 190.26 52.38 190.31 52.03 190.36 51.67 190.4 51.31 190.45 50.96 190.5 50.6 190.54 50.25 190.59 49.89 190.64 49.54 190.68 49.19 190.73 48.84 190.78 48.49 190.82 48.15 190.87 47.8 190.92 47.46 190.96 47.12 191.01 46.78 191.06 46.44 191.1 46.11 191.15 45.78 191.2 45.45 191.24 45.12 191.29 44.8 191.34 44.48 191.38 44.16 191.43 43.85 191.48 43.54 191.53 43.23 191.57 42.93 191.62 42.63 191.67 42.33 191.71 42.04 191.76 41.75 191.81 41.47 191.85 41.19 191.9 40.91 191.95 40.64 191.99 40.37 192.04 40.11 192.09 39.85 192.13 39.6 192.18 39.35 192.23 39.1 192.27 38.86 192.32 38.63 192.37 38.4 192.41 38.17 192.46 37.95 192.51 37.74 192.56 37.53 192.6 37.33 192.65 37.13 192.7 36.93 192.74 36.74 192.79 36.56 192.84 36.38 192.88 36.21 192.93 36.04 192.98 35.88 193.02 35.72 193.07 35.57 193.12 35.43 193.16 35.29 193.21 35.15 193.26 35.02 193.3 34.9 193.35 34.78 193.4 34.67 193.44 34.56 193.49 34.45 193.54 34.36 193.59 34.26 193.63 34.18 193.68 34.09 193.73 34.02 193.77 33.94 193.82 33.88 193.87 33.81 193.91 33.76 193.96 33.7 194.01 33.66 194.05 33.61 194.1 33.57 194.15 33.54 194.19 33.51 194.24 33.48 194.29 33.46 194.33 33.45 194.38 33.43 194.43 33.42 194.47 33.42 194.52 33.42 194.57 33.42 194.61 33.43 194.66 33.44 194.71 33.45 194.76 33.47 194.8 33.49 194.85 33.52 194.9 33.54 194.94 33.57 194.99 33.61 195.04 33.64 195.08 33.68 195.13 33.73 195.18 33.77 195.22 33.82 195.27 33.87 195.32 33.92 195.36 33.98 195.41 34.04 195.46 34.1 195.5 34.16 195.55 34.22 195.6 34.29 195.64 34.36 195.69 34.43 195.74 34.5 195.79 34.58 195.83 34.65 195.88 34.73 195.93 34.81 195.97 34.89 196.02 34.98 196.07 35.06 196.11 35.15 196.16 35.23 196.21 35.32 196.25 35.41 196.3 35.51 196.35 35.6 196.39 35.69 196.44 35.79 196.49 35.89 196.53 35.99 196.58 36.09 196.63 36.19 196.67 36.29 196.72 36.4 196.77 36.5 196.82 36.61 196.86 36.72 196.91 36.83 196.96 36.94 197 37.05 197.05 37.16 197.1 37.28 197.14 37.4 197.19 37.52 197.24 37.64 197.28 37.76 197.33 37.88 197.38 38 197.42 38.13 197.47 38.26 197.52 38.39 197.56 38.52 197.61 38.65 197.66 38.79 197.7 38.93 197.75 39.07 197.8 39.21 197.84 39.35 197.89 39.5 197.94 39.65 197.99 39.8 198.03 39.95 198.08 40.1 198.13 40.26 198.17 40.42 198.22 40.58 198.27 40.75 198.31 40.91 198.36 41.08 198.41 41.26 198.45 41.43 198.5 41.61 198.55 41.79 198.59 41.98 198.64 42.16 198.69 42.35 198.73 42.54 198.78 42.74 198.83 42.94 198.87 43.14 198.92 43.34 198.97 43.55 199.02 43.76 199.06 43.98 199.11 44.2 199.16 44.42 199.2 44.64 199.25 44.87 199.3 45.1 199.34 45.33 199.39 45.57 199.44 45.81 199.48 46.05 199.53 46.3 199.58 46.55 199.62 46.8 199.67 47.06 199.72 47.32 199.76 47.58 199.81 47.85 199.86 48.12 199.9 48.39 199.95 48.67 200 48.95 200.05 49.23 200.09 49.52 200.14 49.8 200.19 50.09 200.23 50.39 200.28 50.69 200.33 50.99 200.37 51.29 200.42 51.59 200.47 51.9 200.51 52.21 200.56 52.53 200.61 52.84 200.65 53.16 200.7 53.48 200.75 53.8 200.79 54.13 200.84 54.46 200.89 54.79 200.93 55.12 200.98 55.45 201.03 55.79 201.08 56.12 201.12 56.46 201.17 56.8 201.22 57.14 201.26 57.49 201.31 57.83 201.36 58.18 201.4 58.53 201.45 58.88 201.5 59.23 201.54 59.58 201.59 59.93 201.64 60.28 201.68 60.64 201.73 60.99 201.78 61.35 201.82 61.7 201.87 62.06 201.92 62.41 201.96 62.77 202.01 63.13 202.06 63.49 202.1 63.84 202.15 64.2 202.2 64.56 202.25 64.92 202.29 65.28 202.34 65.63 202.39 65.99 202.43 66.35 202.48 66.7 202.53 67.06 202.57 67.42 202.62 67.77 202.67 68.13 202.71 68.48 202.76 68.83 202.81 69.19 202.85 69.54 202.9 69.89 202.95 70.24 202.99 70.59 203.04 70.94 203.09 71.29 203.13 71.63 203.18 71.98 203.23 72.32 203.28 72.67 203.32 73.01 203.37 73.35 203.42 73.7 203.46 74.04 203.51 74.38 203.56 74.71 203.6 75.05 203.65 75.39 203.7 75.72 203.74 76.06 203.79 76.39 203.84 76.72 203.88 77.06 203.93 77.39 203.98 77.72 204.02 78.05 204.07 78.37 204.12 78.7 204.16 79.03 204.21 79.35 204.26 79.68 204.31 80 204.35 80.32 204.4 80.65 204.45 80.97 204.49 81.29 204.54 81.61 204.59 81.93 204.63 82.25 204.68 82.57 204.73 82.89 204.77 83.21 204.82 83.52 204.87 83.84 204.91 84.16 204.96 84.48 205.01 84.79 205.05 85.11 205.1 85.43 205.15 85.74 205.19 86.06 205.24 86.37 205.29 86.69 205.33 87.01 205.38 87.32 205.43 87.64 205.48 87.96 205.52 88.27 205.57 88.59 205.62 88.91 205.66 89.22 205.71 89.54 205.76 89.86 205.8 90.18 205.85 90.5 205.9 90.82 205.94 91.14 205.99 91.46 206.04 91.78 206.08 92.1 206.13 92.42 206.18 92.74 206.22 93.06 206.27 93.38 206.32 93.71 206.36 94.03 206.41 94.35 206.46 94.68 206.51 95 206.55 95.33 206.6 95.66 206.65 95.98 206.69 96.31 206.74 96.64 206.79 96.96 206.83 97.29 206.88 97.62 206.93 97.95 206.97 98.28 207.02 98.61 207.07 98.94 207.11 99.27 207.16 99.6 207.21 99.93 207.25 100.26 207.3 100.6 207.35 100.93 207.39 101.26 207.44 101.59 207.49 101.92 207.54 102.25 207.58 102.59 207.63 102.92 207.68 103.25 207.72 103.58 207.77 103.91 207.82 104.24 207.86 104.57 207.91 104.91 207.96 105.24 208 105.57 208.05 105.89 208.1 106.22 208.14 106.55 208.19 106.88 208.24 107.21 208.28 107.53 208.33 107.86 208.38 108.18 208.42 108.51 208.47 108.83 208.52 109.15 208.56 109.48 208.61 109.8 208.66 110.11 208.71 110.43 208.75 110.75 208.8 111.07 208.85 111.38 208.89 111.69 208.94 112.01 208.99 112.32 209.03 112.63 209.08 112.94 209.13 113.24 209.17 113.55 209.22 113.85 209.27 114.15 209.31 114.46 209.36 114.75 209.41 115.05 209.45 115.35 209.5 115.64 209.55 115.94 209.59 116.23 209.64 116.52 209.69 116.8 209.74 117.09 209.78 117.38 209.83 117.66 209.88 117.94 209.92 118.22 209.97 118.5 210.02 118.77 210.06 119.05 210.11 119.32 210.16 119.59 210.2 119.86 210.25 120.12 210.3 120.39 210.34 120.65 210.39 120.92 210.44 121.18 210.48 121.43 210.53 121.69 210.58 121.95 210.62 122.2 210.67 122.45 210.72 122.7 210.77 122.95 210.81 123.2 210.86 123.44 210.91 123.69 210.95 123.93 211 124.17 211.05 124.41 211.09 124.65 211.14 124.89 211.19 125.12 211.23 125.36 211.28 125.59 211.33 125.82 211.37 126.05 211.42 126.28 211.47 126.51 211.51 126.74 211.56 126.96 211.61 127.19 211.65 127.41 211.7 127.63 211.75 127.85 211.8 128.07 211.84 128.29 211.89 128.51 211.94 128.73 211.98 128.95 212.03 129.16 212.08 129.38 212.12 129.59 212.17 129.8 212.22 130.02 212.26 130.23 212.31 130.44 212.36 130.65 212.4 130.86 212.45 131.07 212.5 131.28 212.54 131.49 212.59 131.7 212.64 131.9 212.68 132.11 212.73 132.32 212.78 132.52 212.82 132.73 212.87 132.94 212.92 133.14 212.97 133.35 213.01 133.55 213.06 133.75 213.11 133.96 213.15 134.16 213.2 134.36 213.25 134.57 213.29 134.77 213.34 134.97 213.39 135.17 213.43 135.38 213.48 135.58 213.53 135.78 213.57 135.98 213.62 136.18 213.67 136.38 213.71 136.58 213.76 136.78 213.81 136.98 213.85 137.18 213.9 137.38 213.95 137.58 214 137.78 214.04 137.98 214.09 138.18 214.14 138.38 214.18 138.58 214.23 138.78 214.28 138.98 214.32 139.18 214.37 139.38 214.42 139.58 214.46 139.78 214.51 139.97 214.56 140.17 214.6 140.37 214.65 140.57 214.7 140.77 214.74 140.96 214.79 141.16 214.84 141.36 214.88 141.56 214.93 141.75 214.98 141.95 215.03 142.15 215.07 142.34 215.12 142.54 215.17 142.74 215.21 142.93 215.26 143.13 215.31 143.32 215.35 143.52 215.4 143.72 215.45 143.91 215.49 144.11 215.54 144.3 215.59 144.5 215.63 144.69 215.68 144.89 215.73 145.08 215.77 145.28 215.82 145.47 215.87 145.66 215.91 145.86 215.96 146.05 216.01 146.25 216.05 146.44 216.1 146.63 216.15 146.83 216.2 147.02 216.24 147.21 216.29 147.4 216.34 147.6 216.38 147.79 216.43 147.98 216.48 148.17 216.52 148.37 216.57 148.56 216.62 148.75 216.66 148.94 216.71 149.13 216.76 149.32 216.8 149.52 216.85 149.71 216.9 149.9 216.94 150.09 216.99 150.28 217.04 150.47 217.08 150.66 217.13 150.85 217.18 151.04 217.23 151.23 217.27 151.42 217.32 151.61 217.37 151.8 217.41 151.99 217.46 152.17 217.51 152.36 217.55 152.55 217.6 152.74 217.65 152.93 217.69 153.11 217.74 153.3 217.79 153.49 217.83 153.68 217.88 153.86 217.93 154.05 217.97 154.23 218.02 154.42 218.07 154.6 218.11 154.79 218.16 154.97 218.21 155.16 218.26 155.34 218.3 155.53 218.35 155.71 218.4 155.89 218.44 156.07 218.49 156.26 218.54 156.44 218.58 156.62 218.63 156.8 218.68 156.98 218.72 157.16 218.77 157.34 218.82 157.51 218.86 157.69 218.91 157.87 218.96 158.04 219 158.22 219.05 158.39 219.1 158.57 219.14 158.74 219.19 158.91 219.24 159.09 219.28 159.26 219.33 159.43 219.38 159.6 219.43 159.77 219.47 159.93 219.52 160.1 219.57 160.27 219.61 160.43 219.66 160.6 219.71 160.76 219.75 160.92 219.8 161.09 219.85 161.25 219.89 161.4 219.94 161.56 219.99 161.72 220.03 161.88 220.08 162.03 220.13 162.19 220.17 162.34 220.22 162.49 220.27 162.64 220.31 162.79 220.36 162.94 220.41 163.08 220.46 163.23 220.5 163.37 220.55 163.52 220.6 163.66 220.64 163.8 220.69 163.94 220.74 164.08 220.78 164.21 220.83 164.35 220.88 164.48 220.92 164.62 220.97 164.75 221.02 164.88 221.06 165.01 221.11 165.13 221.16 165.26 221.2 165.38 221.25 165.51 221.3 165.63 221.34 165.75 221.39 165.87 221.44 165.98 221.49 166.1 221.53 166.21 221.58 166.33 221.63 166.44 221.67 166.55 221.72 166.66 221.77 166.77 221.81 166.87 221.86 166.98 221.91 167.08 221.95 167.18 222 167.28 222.05 167.38 222.09 167.48 222.14 167.58 222.19 167.67 222.23 167.77 222.28 167.86 222.33 167.95 222.37 168.04 222.42 168.13 222.47 168.22 222.51 168.3 222.56 168.39 222.61 168.47 222.66 168.55 222.7 168.63 222.75 168.71 222.8 168.79 222.84 168.87 222.89 168.95 222.94 169.02 222.98 169.09 223.03 169.17 223.08 169.24 223.12 169.31 223.17 169.38 223.22 169.45 223.26 169.52 223.31 169.58 223.36 169.65 223.4 169.71 223.45 169.78 223.5 169.84 223.54 169.9 223.59 169.96 223.64 170.02 223.69 170.08 223.73 170.14 223.78 170.19 223.83 170.25 223.87 170.31 223.92 170.36 223.97 170.41 224.01 170.47 224.06 170.52 224.11 170.57 224.15 170.62 224.2 170.67 224.25 170.72 224.29 170.77 224.34 170.82 224.39 170.87 224.43 170.91 224.48 170.96 224.53 171 224.57 171.05 224.62 171.09 224.67 171.14 224.72 171.18 224.76 171.22 224.81 171.26 224.86 171.3 224.9 171.35 224.95 171.39 225 171.43 225.04 171.46 225.09 171.5 225.14 171.54 225.18 171.58 225.23 171.62 225.28 171.65 225.32 171.69 225.37 171.73 225.42 171.76 225.46 171.8 225.51 171.83 225.56 171.87 225.6 171.9 225.65 171.94 225.7 171.97 225.75 172 225.79 172.04 225.84 172.07 225.89 172.1 225.93 172.13 225.98 172.16 226.03 172.19 226.07 172.22 226.12 172.26 226.17 172.29 226.21 172.32 226.26 172.35 226.31 172.37 226.35 172.4 226.4 172.43 226.45 172.46 226.49 172.49 226.54 172.52 226.59 172.55 226.63 172.57 226.68 172.6 226.73 172.63 226.77 172.65 226.82 172.68 226.87 172.71 226.92 172.73 226.96 172.76 227.01 172.79 227.06 172.81 227.1 172.84 227.15 172.86 227.2 172.89 227.24 172.91 227.29 172.94 227.34 172.96 227.38 172.98 227.43 173.01 227.48 173.03 227.52 173.05 227.57 173.08 227.62 173.1 227.66 173.12 227.71 173.15 227.76 173.17 227.8 173.19 227.85 173.21 227.9 173.24 227.95 173.26 227.99 173.28 228.04 173.3 228.09 173.32 228.13 173.34 228.18 173.36 228.23 173.39 228.27 173.41 228.32 173.43 228.37 173.45 228.41 173.47 228.46 173.49 228.51 173.51 228.55 173.53 228.6 173.55 228.65 173.56 228.69 173.58 228.74 173.6 228.79 173.62 228.83 173.64 228.88 173.66 228.93 173.68 228.98 173.7 229.02 173.71 229.07 173.73 229.12 173.75 229.16 173.77 229.21 173.78 229.26 173.8 229.3 173.82 229.35 173.83 229.4 173.85 229.44 173.87 229.49 173.88 229.54 173.9 229.58 173.92 229.63 173.93 229.68 173.95 229.72 173.96 229.77 173.98 229.82 173.99 229.86 174.01 229.91 174.02 229.96 174.04 230 174.05 230.05 174.07 230.1 174.08 230.15 174.09 230.19 174.11 230.24 174.12 230.29 174.13 230.33 174.15 230.38 174.16 230.43 174.17 230.47 174.19 230.52 174.2 230.57 174.21 230.61 174.22 230.66 174.23 230.71 174.25 230.75 174.26 230.8 174.27 230.85 174.28 230.89 174.29 230.94 174.3 230.99 174.31 231.03 174.32 231.08 174.33 231.13 174.34 231.18 174.36 231.22 174.36 231.27 174.37 231.32 174.38 231.36 174.39 231.41 174.4 231.46 174.41 231.5 174.42 231.55 174.43 231.6 174.44 231.64 174.45 231.69 174.45 231.74 174.46 231.78 174.47 231.83 174.48 231.88 174.49 231.92 174.49 231.97 174.5 232.02 174.51 232.06 174.51 232.11 174.52 232.16 174.53 232.21 174.53 232.25 174.54 232.3 174.55 232.35 174.55 232.39 174.56 232.44 174.56 232.49 174.57 232.53 174.58 232.58 174.58 232.63 174.59 232.67 174.59 232.72 174.6 232.77 174.6 232.81 174.61 232.86 174.61 232.91 174.61 232.95 174.62 233 174.62 233.05 174.63 233.09 174.63 233.14 174.64 233.19 174.64 233.23 174.64 233.28 174.65 233.33 174.65 233.38 174.65 233.42 174.66 233.47 174.66 233.52 174.66 233.56 174.67 233.61 174.67 233.66 174.67 233.7 174.67 233.75 174.68 233.8 174.68 233.84 174.68 233.89 174.68 233.94 174.69 233.98 174.69 234.03 174.69 234.08 174.69 234.12 174.69 234.17 174.7 234.22 174.7 234.26 174.7 234.31 174.7 234.36 174.7 234.41 174.7 234.45 174.71 234.5 174.71 234.55 174.71 234.59 174.71 234.64 174.71 234.69 174.71 234.73 174.71 234.78 174.72 234.83 174.72 234.87 174.72 234.92 174.72 234.97 174.72 235.01 174.72 235.06 174.72 235.11 174.72 235.15 174.72 235.2 174.72 235.25 174.72 235.29 174.73 235.34 174.73 235.39 174.73 235.44 174.73 235.48 174.73 235.53 174.73 235.58 174.73 235.62 174.73 235.67 174.73 235.72 174.73 235.76 174.73 235.81 174.73 235.86 174.73 235.9 174.73 235.95 174.73 236 174.73 236.04 174.73 236.09 174.73 236.14 174.73 236.18 174.73 236.23 174.73 236.28 174.74 236.32 174.74 236.37 174.74 236.42 174.74 236.47 174.74 236.51 174.74 236.56 174.74 236.61 174.74 236.65 174.74 236.7 174.74 236.75 174.74 236.79 174.74 236.84 174.74 236.89 174.74 236.93 174.74 236.98 174.74 237.03 174.74 237.07 174.74 237.12 174.74 237.17 174.74 237.21 174.74 237.26 174.74 237.31 174.74 237.35 174.74 237.4 174.74 237.45 174.74 237.49 174.74 237.54 174.74 237.59 174.74 237.64 174.74 237.68 174.74 237.73 174.74 237.78 174.74 237.82 174.74 237.87 174.74 237.92 174.74 237.96 174.74 238.01 174.74 238.06 174.74 238.1 174.74 238.15 174.74 238.2 174.74 238.24 174.74 238.29 174.74 238.34 174.74 238.38 174.74 238.43 174.74 238.48 174.74 238.52 174.74 238.57 174.74"/>
      </g>
      <g stroke-width="0.3" fill="#000000" fill-opacity="0.000" class="geometry" stroke-dasharray="none" stroke="#0000FF" id="img-02c1b249-15">
        <path fill="none" d="M46.81,174.74 L 46.94 174.74 47.07 174.74 47.19 174.74 47.32 174.74 47.45 174.74 47.58 174.74 47.71 174.74 47.83 174.74 47.96 174.74 48.09 174.74 48.22 174.74 48.35 174.74 48.47 174.74 48.6 174.74 48.73 174.74 48.86 174.74 48.99 174.74 49.12 174.74 49.24 174.74 49.37 174.74 49.5 174.74 49.63 174.74 49.76 174.74 49.88 174.74 50.01 174.74 50.14 174.74 50.27 174.74 50.4 174.74 50.52 174.74 50.65 174.74 50.78 174.74 50.91 174.74 51.04 174.74 51.16 174.74 51.29 174.74 51.42 174.74 51.55 174.74 51.68 174.74 51.81 174.74 51.93 174.74 52.06 174.74 52.19 174.74 52.32 174.74 52.45 174.74 52.57 174.74 52.7 174.74 52.83 174.74 52.96 174.73 53.09 174.73 53.21 174.73 53.34 174.73 53.47 174.73 53.6 174.73 53.73 174.73 53.86 174.73 53.98 174.73 54.11 174.73 54.24 174.73 54.37 174.73 54.5 174.73 54.62 174.73 54.75 174.73 54.88 174.73 55.01 174.73 55.14 174.72 55.26 174.72 55.39 174.72 55.52 174.72 55.65 174.72 55.78 174.72 55.9 174.72 56.03 174.72 56.16 174.72 56.29 174.71 56.42 174.71 56.55 174.71 56.67 174.71 56.8 174.71 56.93 174.71 57.06 174.71 57.19 174.7 57.31 174.7 57.44 174.7 57.57 174.7 57.7 174.7 57.83 174.69 57.95 174.69 58.08 174.69 58.21 174.69 58.34 174.68 58.47 174.68 58.6 174.68 58.72 174.68 58.85 174.67 58.98 174.67 59.11 174.67 59.24 174.67 59.36 174.66 59.49 174.66 59.62 174.66 59.75 174.65 59.88 174.65 60 174.65 60.13 174.64 60.26 174.64 60.39 174.64 60.52 174.63 60.65 174.63 60.77 174.62 60.9 174.62 61.03 174.62 61.16 174.61 61.29 174.61 61.41 174.6 61.54 174.6 61.67 174.6 61.8 174.59 61.93 174.59 62.05 174.58 62.18 174.58 62.31 174.57 62.44 174.57 62.57 174.57 62.69 174.56 62.82 174.56 62.95 174.55 63.08 174.55 63.21 174.54 63.34 174.54 63.46 174.53 63.59 174.53 63.72 174.53 63.85 174.52 63.98 174.52 64.1 174.51 64.23 174.51 64.36 174.5 64.49 174.5 64.62 174.5 64.74 174.49 64.87 174.49 65 174.48 65.13 174.48 65.26 174.48 65.39 174.47 65.51 174.47 65.64 174.47 65.77 174.46 65.9 174.46 66.03 174.46 66.15 174.45 66.28 174.45 66.41 174.45 66.54 174.45 66.67 174.44 66.79 174.44 66.92 174.44 67.05 174.44 67.18 174.44 67.31 174.44 67.43 174.43 67.56 174.43 67.69 174.43 67.82 174.43 67.95 174.43 68.08 174.43 68.2 174.43 68.33 174.43 68.46 174.43 68.59 174.43 68.72 174.43 68.84 174.43 68.97 174.43 69.1 174.43 69.23 174.43 69.36 174.44 69.48 174.44 69.61 174.44 69.74 174.44 69.87 174.44 70 174.44 70.13 174.45 70.25 174.45 70.38 174.45 70.51 174.45 70.64 174.46 70.77 174.46 70.89 174.46 71.02 174.47 71.15 174.47 71.28 174.47 71.41 174.48 71.53 174.48 71.66 174.48 71.79 174.49 71.92 174.49 72.05 174.5 72.18 174.5 72.3 174.5 72.43 174.51 72.56 174.51 72.69 174.52 72.82 174.52 72.94 174.52 73.07 174.53 73.2 174.53 73.33 174.54 73.46 174.54 73.58 174.55 73.71 174.55 73.84 174.56 73.97 174.56 74.1 174.56 74.22 174.57 74.35 174.57 74.48 174.58 74.61 174.58 74.74 174.59 74.87 174.59 74.99 174.59 75.12 174.6 75.25 174.6 75.38 174.61 75.51 174.61 75.63 174.61 75.76 174.62 75.89 174.62 76.02 174.62 76.15 174.63 76.27 174.63 76.4 174.63 76.53 174.64 76.66 174.64 76.79 174.64 76.92 174.65 77.04 174.65 77.17 174.65 77.3 174.65 77.43 174.66 77.56 174.66 77.68 174.66 77.81 174.66 77.94 174.67 78.07 174.67 78.2 174.67 78.32 174.67 78.45 174.67 78.58 174.67 78.71 174.68 78.84 174.68 78.96 174.68 79.09 174.68 79.22 174.68 79.35 174.68 79.48 174.68 79.61 174.68 79.73 174.68 79.86 174.68 79.99 174.68 80.12 174.68 80.25 174.68 80.37 174.68 80.5 174.68 80.63 174.68 80.76 174.68 80.89 174.68 81.01 174.68 81.14 174.67 81.27 174.67 81.4 174.67 81.53 174.67 81.66 174.67 81.78 174.67 81.91 174.66 82.04 174.66 82.17 174.66 82.3 174.66 82.42 174.65 82.55 174.65 82.68 174.65 82.81 174.64 82.94 174.64 83.06 174.64 83.19 174.63 83.32 174.63 83.45 174.62 83.58 174.62 83.71 174.62 83.83 174.61 83.96 174.61 84.09 174.6 84.22 174.6 84.35 174.59 84.47 174.59 84.6 174.58 84.73 174.57 84.86 174.57 84.99 174.56 85.11 174.56 85.24 174.55 85.37 174.54 85.5 174.54 85.63 174.53 85.75 174.52 85.88 174.51 86.01 174.51 86.14 174.5 86.27 174.49 86.4 174.48 86.52 174.47 86.65 174.47 86.78 174.46 86.91 174.45 87.04 174.44 87.16 174.43 87.29 174.42 87.42 174.41 87.55 174.4 87.68 174.39 87.8 174.38 87.93 174.37 88.06 174.37 88.19 174.36 88.32 174.35 88.45 174.33 88.57 174.32 88.7 174.31 88.83 174.3 88.96 174.29 89.09 174.28 89.21 174.27 89.34 174.26 89.47 174.25 89.6 174.24 89.73 174.23 89.85 174.22 89.98 174.2 90.11 174.19 90.24 174.18 90.37 174.17 90.49 174.16 90.62 174.15 90.75 174.13 90.88 174.12 91.01 174.11 91.14 174.1 91.26 174.09 91.39 174.07 91.52 174.06 91.65 174.05 91.78 174.04 91.9 174.03 92.03 174.01 92.16 174 92.29 173.99 92.42 173.98 92.54 173.96 92.67 173.95 92.8 173.94 92.93 173.93 93.06 173.91 93.19 173.9 93.31 173.89 93.44 173.88 93.57 173.87 93.7 173.85 93.83 173.84 93.95 173.83 94.08 173.81 94.21 173.8 94.34 173.79 94.47 173.78 94.59 173.76 94.72 173.75 94.85 173.74 94.98 173.73 95.11 173.71 95.23 173.7 95.36 173.69 95.49 173.68 95.62 173.66 95.75 173.65 95.88 173.64 96 173.63 96.13 173.62 96.26 173.6 96.39 173.59 96.52 173.58 96.64 173.57 96.77 173.55 96.9 173.54 97.03 173.53 97.16 173.52 97.28 173.51 97.41 173.49 97.54 173.48 97.67 173.47 97.8 173.46 97.93 173.45 98.05 173.44 98.18 173.43 98.31 173.41 98.44 173.4 98.57 173.39 98.69 173.38 98.82 173.37 98.95 173.36 99.08 173.35 99.21 173.34 99.33 173.33 99.46 173.32 99.59 173.31 99.72 173.3 99.85 173.29 99.98 173.28 100.1 173.28 100.23 173.27 100.36 173.26 100.49 173.25 100.62 173.24 100.74 173.24 100.87 173.23 101 173.22 101.13 173.22 101.26 173.21 101.38 173.2 101.51 173.2 101.64 173.19 101.77 173.19 101.9 173.18 102.02 173.17 102.15 173.17 102.28 173.17 102.41 173.16 102.54 173.16 102.67 173.15 102.79 173.15 102.92 173.15 103.05 173.14 103.18 173.14 103.31 173.14 103.43 173.14 103.56 173.13 103.69 173.13 103.82 173.13 103.95 173.13 104.07 173.13 104.2 173.12 104.33 173.12 104.46 173.12 104.59 173.12 104.72 173.12 104.84 173.12 104.97 173.12 105.1 173.12 105.23 173.12 105.36 173.12 105.48 173.12 105.61 173.11 105.74 173.11 105.87 173.11 106 173.11 106.12 173.11 106.25 173.11 106.38 173.11 106.51 173.11 106.64 173.11 106.76 173.1 106.89 173.1 107.02 173.1 107.15 173.1 107.28 173.09 107.41 173.09 107.53 173.09 107.66 173.08 107.79 173.08 107.92 173.08 108.05 173.07 108.17 173.07 108.3 173.06 108.43 173.06 108.56 173.05 108.69 173.04 108.81 173.03 108.94 173.03 109.07 173.02 109.2 173.01 109.33 173 109.46 172.99 109.58 172.98 109.71 172.97 109.84 172.96 109.97 172.95 110.1 172.93 110.22 172.92 110.35 172.9 110.48 172.89 110.61 172.87 110.74 172.86 110.86 172.84 110.99 172.82 111.12 172.81 111.25 172.79 111.38 172.77 111.51 172.75 111.63 172.73 111.76 172.71 111.89 172.68 112.02 172.66 112.15 172.64 112.27 172.61 112.4 172.59 112.53 172.56 112.66 172.54 112.79 172.51 112.91 172.48 113.04 172.45 113.17 172.42 113.3 172.39 113.43 172.36 113.55 172.33 113.68 172.3 113.81 172.27 113.94 172.23 114.07 172.2 114.2 172.17 114.32 172.13 114.45 172.1 114.58 172.06 114.71 172.02 114.84 171.99 114.96 171.95 115.09 171.91 115.22 171.87 115.35 171.83 115.48 171.8 115.6 171.76 115.73 171.72 115.86 171.68 115.99 171.63 116.12 171.59 116.25 171.55 116.37 171.51 116.5 171.47 116.63 171.43 116.76 171.38 116.89 171.34 117.01 171.3 117.14 171.26 117.27 171.21 117.4 171.17 117.53 171.13 117.65 171.08 117.78 171.04 117.91 171 118.04 170.95 118.17 170.91 118.29 170.87 118.42 170.82 118.55 170.78 118.68 170.74 118.81 170.7 118.94 170.66 119.06 170.61 119.19 170.57 119.32 170.53 119.45 170.49 119.58 170.45 119.7 170.41 119.83 170.37 119.96 170.33 120.09 170.29 120.22 170.25 120.34 170.21 120.47 170.18 120.6 170.14 120.73 170.1 120.86 170.07 120.99 170.03 121.11 170 121.24 169.96 121.37 169.93 121.5 169.89 121.63 169.86 121.75 169.83 121.88 169.8 122.01 169.77 122.14 169.74 122.27 169.71 122.39 169.68 122.52 169.65 122.65 169.62 122.78 169.59 122.91 169.57 123.04 169.54 123.16 169.51 123.29 169.49 123.42 169.46 123.55 169.44 123.68 169.42 123.8 169.39 123.93 169.37 124.06 169.35 124.19 169.33 124.32 169.31 124.44 169.29 124.57 169.27 124.7 169.25 124.83 169.23 124.96 169.21 125.08 169.19 125.21 169.17 125.34 169.16 125.47 169.14 125.6 169.12 125.73 169.11 125.85 169.09 125.98 169.07 126.11 169.06 126.24 169.04 126.37 169.02 126.49 169.01 126.62 168.99 126.75 168.98 126.88 168.96 127.01 168.95 127.13 168.93 127.26 168.92 127.39 168.9 127.52 168.88 127.65 168.87 127.78 168.85 127.9 168.84 128.03 168.82 128.16 168.8 128.29 168.79 128.42 168.77 128.54 168.75 128.67 168.74 128.8 168.72 128.93 168.7 129.06 168.68 129.18 168.66 129.31 168.64 129.44 168.62 129.57 168.6 129.7 168.58 129.82 168.56 129.95 168.54 130.08 168.52 130.21 168.49 130.34 168.47 130.47 168.45 130.59 168.42 130.72 168.4 130.85 168.37 130.98 168.35 131.11 168.32 131.23 168.29 131.36 168.26 131.49 168.23 131.62 168.2 131.75 168.17 131.87 168.14 132 168.11 132.13 168.08 132.26 168.05 132.39 168.01 132.52 167.98 132.64 167.94 132.77 167.91 132.9 167.87 133.03 167.83 133.16 167.79 133.28 167.75 133.41 167.71 133.54 167.67 133.67 167.63 133.8 167.59 133.92 167.54 134.05 167.5 134.18 167.45 134.31 167.41 134.44 167.36 134.57 167.31 134.69 167.27 134.82 167.22 134.95 167.17 135.08 167.11 135.21 167.06 135.33 167.01 135.46 166.96 135.59 166.9 135.72 166.85 135.85 166.79 135.97 166.73 136.1 166.67 136.23 166.62 136.36 166.56 136.49 166.5 136.61 166.43 136.74 166.37 136.87 166.31 137 166.24 137.13 166.18 137.26 166.11 137.38 166.05 137.51 165.98 137.64 165.91 137.77 165.84 137.9 165.77 138.02 165.7 138.15 165.63 138.28 165.56 138.41 165.49 138.54 165.41 138.66 165.34 138.79 165.26 138.92 165.19 139.05 165.11 139.18 165.04 139.31 164.96 139.43 164.88 139.56 164.8 139.69 164.72 139.82 164.64 139.95 164.56 140.07 164.47 140.2 164.39 140.33 164.31 140.46 164.22 140.59 164.14 140.71 164.05 140.84 163.96 140.97 163.88 141.1 163.79 141.23 163.7 141.35 163.61 141.48 163.52 141.61 163.43 141.74 163.34 141.87 163.24 142 163.15 142.12 163.06 142.25 162.96 142.38 162.86 142.51 162.77 142.64 162.67 142.76 162.57 142.89 162.47 143.02 162.37 143.15 162.27 143.28 162.17 143.4 162.06 143.53 161.96 143.66 161.85 143.79 161.74 143.92 161.63 144.05 161.52 144.17 161.41 144.3 161.3 144.43 161.19 144.56 161.07 144.69 160.96 144.81 160.84 144.94 160.72 145.07 160.6 145.2 160.47 145.33 160.35 145.45 160.22 145.58 160.1 145.71 159.97 145.84 159.84 145.97 159.7 146.1 159.57 146.22 159.43 146.35 159.29 146.48 159.15 146.61 159 146.74 158.86 146.86 158.71 146.99 158.56 147.12 158.41 147.25 158.25 147.38 158.1 147.5 157.94 147.63 157.77 147.76 157.61 147.89 157.44 148.02 157.27 148.14 157.1 148.27 156.93 148.4 156.75 148.53 156.57 148.66 156.39 148.79 156.2 148.91 156.01 149.04 155.82 149.17 155.63 149.3 155.44 149.43 155.24 149.55 155.04 149.68 154.83 149.81 154.63 149.94 154.42 150.07 154.21 150.19 153.99 150.32 153.78 150.45 153.56 150.58 153.34 150.71 153.12 150.84 152.89 150.96 152.66 151.09 152.43 151.22 152.2 151.35 151.97 151.48 151.73 151.6 151.49 151.73 151.25 151.86 151.01 151.99 150.76 152.12 150.52 152.24 150.27 152.37 150.02 152.5 149.77 152.63 149.52 152.76 149.27 152.88 149.02 153.01 148.76 153.14 148.51 153.27 148.25 153.4 147.99 153.53 147.73 153.65 147.48 153.78 147.22 153.91 146.96 154.04 146.7 154.17 146.44 154.29 146.18 154.42 145.92 154.55 145.66 154.68 145.4 154.81 145.15 154.93 144.89 155.06 144.63 155.19 144.38 155.32 144.12 155.45 143.87 155.58 143.61 155.7 143.36 155.83 143.11 155.96 142.86 156.09 142.62 156.22 142.37 156.34 142.13 156.47 141.88 156.6 141.64 156.73 141.4 156.86 141.17 156.98 140.93 157.11 140.7 157.24 140.47 157.37 140.25 157.5 140.02 157.63 139.8 157.75 139.58 157.88 139.36 158.01 139.15 158.14 138.94 158.27 138.73 158.39 138.53 158.52 138.32 158.65 138.12 158.78 137.93 158.91 137.73 159.03 137.54 159.16 137.36 159.29 137.17 159.42 136.99 159.55 136.81 159.67 136.64 159.8 136.47 159.93 136.3 160.06 136.13 160.19 135.97 160.32 135.81 160.44 135.66 160.57 135.5 160.7 135.35 160.83 135.21 160.96 135.06 161.08 134.92 161.21 134.78 161.34 134.65 161.47 134.51 161.6 134.38 161.72 134.26 161.85 134.13 161.98 134.01 162.11 133.89 162.24 133.77 162.37 133.65 162.49 133.54 162.62 133.43 162.75 133.31 162.88 133.21 163.01 133.1 163.13 132.99 163.26 132.89 163.39 132.78 163.52 132.68 163.65 132.58 163.77 132.48 163.9 132.38 164.03 132.28 164.16 132.18 164.29 132.09 164.41 131.99 164.54 131.89 164.67 131.79 164.8 131.69 164.93 131.59 165.06 131.49 165.18 131.39 165.31 131.29 165.44 131.19 165.57 131.09 165.7 130.98 165.82 130.88 165.95 130.77 166.08 130.66 166.21 130.55 166.34 130.43 166.46 130.32 166.59 130.2 166.72 130.08 166.85 129.96 166.98 129.83 167.11 129.71 167.23 129.57 167.36 129.44 167.49 129.3 167.62 129.17 167.75 129.02 167.87 128.88 168 128.73 168.13 128.57 168.26 128.42 168.39 128.26 168.51 128.09 168.64 127.93 168.77 127.76 168.9 127.58 169.03 127.4 169.16 127.22 169.28 127.04 169.41 126.85 169.54 126.66 169.67 126.46 169.8 126.26 169.92 126.06 170.05 125.85 170.18 125.64 170.31 125.42 170.44 125.21 170.56 124.99 170.69 124.76 170.82 124.53 170.95 124.3 171.08 124.07 171.2 123.84 171.33 123.6 171.46 123.36 171.59 123.11 171.72 122.87 171.85 122.62 171.97 122.37 172.1 122.11 172.23 121.86 172.36 121.61 172.49 121.35 172.61 121.09 172.74 120.83 172.87 120.57 173 120.31 173.13 120.05 173.25 119.78 173.38 119.52 173.51 119.26 173.64 119 173.77 118.73 173.9 118.47 174.02 118.21 174.15 117.95 174.28 117.69 174.41 117.43 174.54 117.17 174.66 116.91 174.79 116.66 174.92 116.4 175.05 116.15 175.18 115.9 175.3 115.65 175.43 115.41 175.56 115.16 175.69 114.92 175.82 114.68 175.94 114.45 176.07 114.22 176.2 113.98 176.33 113.76 176.46 113.53 176.59 113.31 176.71 113.09 176.84 112.88 176.97 112.67 177.1 112.46 177.23 112.25 177.35 112.05 177.48 111.85 177.61 111.66 177.74 111.47 177.87 111.28 177.99 111.1 178.12 110.91 178.25 110.74 178.38 110.56 178.51 110.39 178.64 110.23 178.76 110.06 178.89 109.9 179.02 109.75 179.15 109.59 179.28 109.44 179.4 109.3 179.53 109.15 179.66 109.01 179.79 108.87 179.92 108.74 180.04 108.61 180.17 108.48 180.3 108.35 180.43 108.23 180.56 108.11 180.69 107.99 180.81 107.87 180.94 107.76 181.07 107.65 181.2 107.54 181.33 107.43 181.45 107.33 181.58 107.23 181.71 107.13 181.84 107.03 181.97 106.93 182.09 106.84 182.22 106.75 182.35 106.66 182.48 106.57 182.61 106.48 182.73 106.4 182.86 106.31 182.99 106.23 183.12 106.15 183.25 106.07 183.38 106 183.5 105.92 183.63 105.85 183.76 105.78 183.89 105.71 184.02 105.64 184.14 105.57 184.27 105.51 184.4 105.44 184.53 105.38 184.66 105.32 184.78 105.27 184.91 105.21 185.04 105.16 185.17 105.11 185.3 105.06 185.43 105.01 185.55 104.96 185.68 104.92 185.81 104.88 185.94 104.84 186.07 104.81 186.19 104.78 186.32 104.75 186.45 104.72 186.58 104.7 186.71 104.67 186.83 104.66 186.96 104.64 187.09 104.63 187.22 104.62 187.35 104.62 187.47 104.61 187.6 104.61 187.73 104.62 187.86 104.63 187.99 104.64 188.12 104.66 188.24 104.68 188.37 104.7 188.5 104.73 188.63 104.76 188.76 104.79 188.88 104.83 189.01 104.87 189.14 104.92 189.27 104.97 189.4 105.03 189.52 105.09 189.65 105.15 189.78 105.21 189.91 105.29 190.04 105.36 190.17 105.44 190.29 105.52 190.42 105.61 190.55 105.7 190.68 105.79 190.81 105.89 190.93 105.99 191.06 106.1 191.19 106.21 191.32 106.32 191.45 106.44 191.57 106.56 191.7 106.68 191.83 106.81 191.96 106.93 192.09 107.07 192.21 107.2 192.34 107.34 192.47 107.48 192.6 107.62 192.73 107.77 192.86 107.92 192.98 108.07 193.11 108.22 193.24 108.37 193.37 108.53 193.5 108.69 193.62 108.85 193.75 109.01 193.88 109.17 194.01 109.34 194.14 109.5 194.26 109.67 194.39 109.84 194.52 110.01 194.65 110.18 194.78 110.35 194.91 110.53 195.03 110.7 195.16 110.87 195.29 111.05 195.42 111.22 195.55 111.4 195.67 111.57 195.8 111.75 195.93 111.93 196.06 112.1 196.19 112.28 196.31 112.46 196.44 112.63 196.57 112.81 196.7 112.99 196.83 113.17 196.96 113.34 197.08 113.52 197.21 113.7 197.34 113.88 197.47 114.06 197.6 114.23 197.72 114.41 197.85 114.59 197.98 114.77 198.11 114.94 198.24 115.12 198.36 115.3 198.49 115.48 198.62 115.66 198.75 115.84 198.88 116.02 199 116.19 199.13 116.37 199.26 116.55 199.39 116.73 199.52 116.91 199.65 117.1 199.77 117.28 199.9 117.46 200.03 117.64 200.16 117.83 200.29 118.01 200.41 118.19 200.54 118.38 200.67 118.57 200.8 118.75 200.93 118.94 201.05 119.13 201.18 119.32 201.31 119.51 201.44 119.7 201.57 119.89 201.7 120.08 201.82 120.28 201.95 120.47 202.08 120.67 202.21 120.87 202.34 121.06 202.46 121.26 202.59 121.46 202.72 121.66 202.85 121.87 202.98 122.07 203.1 122.27 203.23 122.48 203.36 122.69 203.49 122.89 203.62 123.1 203.74 123.31 203.87 123.52 204 123.73 204.13 123.95 204.26 124.16 204.39 124.37 204.51 124.59 204.64 124.8 204.77 125.02 204.9 125.24 205.03 125.46 205.15 125.68 205.28 125.9 205.41 126.12 205.54 126.34 205.67 126.57 205.79 126.79 205.92 127.02 206.05 127.24 206.18 127.47 206.31 127.69 206.44 127.92 206.56 128.15 206.69 128.38 206.82 128.61 206.95 128.84 207.08 129.07 207.2 129.3 207.33 129.53 207.46 129.77 207.59 130 207.72 130.23 207.84 130.47 207.97 130.7 208.1 130.94 208.23 131.18 208.36 131.41 208.49 131.65 208.61 131.89 208.74 132.13 208.87 132.37 209 132.61 209.13 132.85 209.25 133.09 209.38 133.33 209.51 133.58 209.64 133.82 209.77 134.06 209.89 134.31 210.02 134.55 210.15 134.8 210.28 135.05 210.41 135.29 210.53 135.54 210.66 135.79 210.79 136.04 210.92 136.29 211.05 136.54 211.18 136.79 211.3 137.04 211.43 137.3 211.56 137.55 211.69 137.8 211.82 138.06 211.94 138.31 212.07 138.57 212.2 138.82 212.33 139.08 212.46 139.34 212.58 139.6 212.71 139.85 212.84 140.11 212.97 140.37 213.1 140.63 213.23 140.89 213.35 141.15 213.48 141.41 213.61 141.67 213.74 141.93 213.87 142.19 213.99 142.45 214.12 142.71 214.25 142.98 214.38 143.24 214.51 143.5 214.63 143.76 214.76 144.02 214.89 144.28 215.02 144.54 215.15 144.79 215.27 145.05 215.4 145.31 215.53 145.57 215.66 145.82 215.79 146.08 215.92 146.33 216.04 146.59 216.17 146.84 216.3 147.09 216.43 147.34 216.56 147.59 216.68 147.83 216.81 148.08 216.94 148.32 217.07 148.57 217.2 148.81 217.32 149.05 217.45 149.29 217.58 149.52 217.71 149.76 217.84 149.99 217.97 150.22 218.09 150.45 218.22 150.67 218.35 150.89 218.48 151.12 218.61 151.34 218.73 151.55 218.86 151.77 218.99 151.98 219.12 152.19 219.25 152.4 219.37 152.6 219.5 152.8 219.63 153 219.76 153.2 219.89 153.39 220.02 153.58 220.14 153.77 220.27 153.96 220.4 154.14 220.53 154.32 220.66 154.5 220.78 154.68 220.91 154.85 221.04 155.02 221.17 155.19 221.3 155.35 221.42 155.51 221.55 155.67 221.68 155.83 221.81 155.98 221.94 156.13 222.06 156.28 222.19 156.43 222.32 156.57 222.45 156.71 222.58 156.85 222.71 156.99 222.83 157.12 222.96 157.25 223.09 157.38 223.22 157.51 223.35 157.63 223.47 157.75 223.6 157.87 223.73 157.99 223.86 158.1 223.99 158.22 224.11 158.33 224.24 158.44 224.37 158.55 224.5 158.65 224.63 158.75 224.76 158.86 224.88 158.96 225.01 159.05 225.14 159.15 225.27 159.25 225.4 159.34 225.52 159.43 225.65 159.52 225.78 159.61 225.91 159.7 226.04 159.78 226.16 159.87 226.29 159.95 226.42 160.03 226.55 160.11 226.68 160.19 226.8 160.27 226.93 160.35 227.06 160.42 227.19 160.5 227.32 160.57 227.45 160.64 227.57 160.71 227.7 160.78 227.83 160.85 227.96 160.92 228.09 160.99 228.21 161.05 228.34 161.12 228.47 161.18 228.6 161.25 228.73 161.31 228.85 161.37 228.98 161.43 229.11 161.49 229.24 161.55 229.37 161.61 229.5 161.67 229.62 161.72 229.75 161.78 229.88 161.84 230.01 161.89 230.14 161.94 230.26 162 230.39 162.05 230.52 162.1 230.65 162.15 230.78 162.2 230.9 162.25 231.03 162.3 231.16 162.35 231.29 162.4 231.42 162.45 231.55 162.49 231.67 162.54 231.8 162.59 231.93 162.63 232.06 162.68 232.19 162.72 232.31 162.77 232.44 162.81 232.57 162.86 232.7 162.9 232.83 162.94 232.95 162.98 233.08 163.03 233.21 163.07 233.34 163.11 233.47 163.15 233.59 163.19 233.72 163.23 233.85 163.28 233.98 163.32 234.11 163.36 234.24 163.4 234.36 163.44 234.49 163.48 234.62 163.52 234.75 163.56 234.88 163.6 235 163.64 235.13 163.68 235.26 163.72 235.39 163.77 235.52 163.81 235.64 163.85 235.77 163.89 235.9 163.93 236.03 163.97 236.16 164.02 236.29 164.06 236.41 164.1 236.54 164.15 236.67 164.19 236.8 164.23 236.93 164.28 237.05 164.32 237.18 164.37 237.31 164.41 237.44 164.46 237.57 164.5 237.69 164.55 237.82 164.6 237.95 164.64 238.08 164.69 238.21 164.74 238.33 164.79 238.46 164.84 238.59 164.89 238.72 164.94 238.85 164.99 238.98 165.04 239.1 165.09 239.23 165.14 239.36 165.19 239.49 165.24 239.62 165.3 239.74 165.35 239.87 165.4 240 165.46 240.13 165.51 240.26 165.57 240.38 165.62 240.51 165.68 240.64 165.73 240.77 165.79 240.9 165.84 241.03 165.9 241.15 165.96 241.28 166.02 241.41 166.07 241.54 166.13 241.67 166.19 241.79 166.25 241.92 166.31 242.05 166.36 242.18 166.42 242.31 166.48 242.43 166.54 242.56 166.6 242.69 166.66 242.82 166.72 242.95 166.78 243.08 166.84 243.2 166.9 243.33 166.96 243.46 167.02 243.59 167.08 243.72 167.15 243.84 167.21 243.97 167.27 244.1 167.33 244.23 167.39 244.36 167.45 244.48 167.51 244.61 167.57 244.74 167.63 244.87 167.69 245 167.75 245.12 167.81 245.25 167.87 245.38 167.93 245.51 167.99 245.64 168.05 245.77 168.11 245.89 168.17 246.02 168.23 246.15 168.29 246.28 168.35 246.41 168.41 246.53 168.47 246.66 168.52 246.79 168.58 246.92 168.64 247.05 168.7 247.17 168.75 247.3 168.81 247.43 168.87 247.56 168.92 247.69 168.98 247.82 169.03 247.94 169.09 248.07 169.14 248.2 169.2 248.33 169.25 248.46 169.31 248.58 169.36 248.71 169.41 248.84 169.47 248.97 169.52 249.1 169.57 249.22 169.62 249.35 169.67 249.48 169.72 249.61 169.77 249.74 169.82 249.86 169.87 249.99 169.92 250.12 169.97 250.25 170.02 250.38 170.07 250.51 170.12 250.63 170.16 250.76 170.21 250.89 170.26 251.02 170.3 251.15 170.35 251.27 170.39 251.4 170.44 251.53 170.48 251.66 170.53 251.79 170.57 251.91 170.62 252.04 170.66 252.17 170.7 252.3 170.74 252.43 170.79 252.56 170.83 252.68 170.87 252.81 170.91 252.94 170.95 253.07 171 253.2 171.04 253.32 171.08 253.45 171.12 253.58 171.16 253.71 171.2 253.84 171.24 253.96 171.27 254.09 171.31 254.22 171.35 254.35 171.39 254.48 171.43 254.61 171.47 254.73 171.51 254.86 171.54 254.99 171.58 255.12 171.62 255.25 171.65 255.37 171.69 255.5 171.73 255.63 171.76 255.76 171.8 255.89 171.84 256.01 171.87 256.14 171.91 256.27 171.94 256.4 171.98 256.53 172.01 256.65 172.05 256.78 172.08 256.91 172.12 257.04 172.15 257.17 172.18 257.3 172.22 257.42 172.25 257.55 172.28 257.68 172.32 257.81 172.35 257.94 172.38 258.06 172.41 258.19 172.45 258.32 172.48 258.45 172.51 258.58 172.54 258.7 172.57 258.83 172.6 258.96 172.63 259.09 172.66 259.22 172.69 259.35 172.71 259.47 172.74 259.6 172.77 259.73 172.8 259.86 172.82 259.99 172.85 260.11 172.88 260.24 172.9 260.37 172.93 260.5 172.95 260.63 172.97 260.75 173 260.88 173.02 261.01 173.04 261.14 173.06 261.27 173.08 261.39 173.1 261.52 173.12 261.65 173.14 261.78 173.16 261.91 173.18 262.04 173.2 262.16 173.21 262.29 173.23 262.42 173.25 262.55 173.26 262.68 173.28 262.8 173.29 262.93 173.3 263.06 173.32 263.19 173.33 263.32 173.34 263.44 173.35 263.57 173.36 263.7 173.37 263.83 173.38 263.96 173.39 264.09 173.4 264.21 173.41 264.34 173.41 264.47 173.42 264.6 173.43 264.73 173.43 264.85 173.44 264.98 173.44 265.11 173.45 265.24 173.45 265.37 173.46 265.49 173.46 265.62 173.46 265.75 173.47 265.88 173.47 266.01 173.47 266.14 173.47 266.26 173.48 266.39 173.48 266.52 173.48 266.65 173.48 266.78 173.48 266.9 173.48 267.03 173.48 267.16 173.48 267.29 173.48 267.42 173.48 267.54 173.49 267.67 173.49 267.8 173.49 267.93 173.49 268.06 173.49 268.18 173.49 268.31 173.49 268.44 173.49 268.57 173.49 268.7 173.49 268.83 173.49 268.95 173.5 269.08 173.5 269.21 173.5 269.34 173.5 269.47 173.5 269.59 173.51 269.72 173.51 269.85 173.51 269.98 173.52 270.11 173.52 270.23 173.52 270.36 173.53 270.49 173.53 270.62 173.54 270.75 173.54 270.88 173.55 271 173.56 271.13 173.56 271.26 173.57 271.39 173.58 271.52 173.58 271.64 173.59 271.77 173.6 271.9 173.61 272.03 173.61 272.16 173.62 272.28 173.63 272.41 173.64 272.54 173.65 272.67 173.66 272.8 173.67 272.92 173.68 273.05 173.69 273.18 173.7 273.31 173.71 273.44 173.73 273.57 173.74 273.69 173.75 273.82 173.76 273.95 173.77 274.08 173.78 274.21 173.8 274.33 173.81 274.46 173.82 274.59 173.83 274.72 173.84 274.85 173.86 274.97 173.87 275.1 173.88 275.23 173.89 275.36 173.9 275.49 173.92 275.62 173.93 275.74 173.94 275.87 173.95 276 173.96 276.13 173.97 276.26 173.99 276.38 174 276.51 174.01 276.64 174.02 276.77 174.03 276.9 174.04 277.02 174.05 277.15 174.06 277.28 174.07 277.41 174.08 277.54 174.08 277.67 174.09 277.79 174.1 277.92 174.11 278.05 174.12 278.18 174.12 278.31 174.13 278.43 174.14 278.56 174.14 278.69 174.15 278.82 174.15 278.95 174.16 279.07 174.16 279.2 174.17 279.33 174.17 279.46 174.17 279.59 174.18 279.71 174.18 279.84 174.18 279.97 174.18 280.1 174.19 280.23 174.19 280.36 174.19 280.48 174.19 280.61 174.19 280.74 174.19 280.87 174.19 281 174.19 281.12 174.19 281.25 174.19 281.38 174.19 281.51 174.19 281.64 174.18 281.76 174.18 281.89 174.18 282.02 174.18 282.15 174.18 282.28 174.17 282.41 174.17 282.53 174.17 282.66 174.17 282.79 174.16 282.92 174.16 283.05 174.16 283.17 174.15 283.3 174.15 283.43 174.15 283.56 174.15 283.69 174.14 283.81 174.14 283.94 174.14 284.07 174.13 284.2 174.13 284.33 174.13 284.45 174.13 284.58 174.12 284.71 174.12 284.84 174.12 284.97 174.12 285.1 174.11 285.22 174.11 285.35 174.11 285.48 174.11 285.61 174.11 285.74 174.11 285.86 174.11 285.99 174.11 286.12 174.11 286.25 174.11 286.38 174.11 286.5 174.11 286.63 174.11 286.76 174.11 286.89 174.11 287.02 174.11 287.15 174.12 287.27 174.12 287.4 174.12 287.53 174.12 287.66 174.13 287.79 174.13 287.91 174.13 288.04 174.14 288.17 174.14 288.3 174.15 288.43 174.15 288.55 174.16 288.68 174.16 288.81 174.17 288.94 174.17 289.07 174.18 289.19 174.19 289.32 174.19 289.45 174.2 289.58 174.21 289.71 174.21 289.84 174.22 289.96 174.23 290.09 174.23 290.22 174.24 290.35 174.25 290.48 174.26 290.6 174.27 290.73 174.27 290.86 174.28 290.99 174.29 291.12 174.3 291.24 174.31 291.37 174.32 291.5 174.33 291.63 174.33 291.76 174.34 291.89 174.35 292.01 174.36 292.14 174.37 292.27 174.38 292.4 174.39 292.53 174.4 292.65 174.4 292.78 174.41 292.91 174.42 293.04 174.43 293.17 174.44 293.29 174.45 293.42 174.46 293.55 174.46 293.68 174.47 293.81 174.48 293.94 174.49 294.06 174.5 294.19 174.5 294.32 174.51 294.45 174.52 294.58 174.53 294.7 174.53 294.83 174.54 294.96 174.55 295.09 174.55 295.22 174.56 295.34 174.57 295.47 174.57 295.6 174.58 295.73 174.59 295.86 174.59 295.98 174.6 296.11 174.6 296.24 174.61 296.37 174.61 296.5 174.62 296.63 174.62 296.75 174.63 296.88 174.63 297.01 174.64 297.14 174.64 297.27 174.65 297.39 174.65 297.52 174.66 297.65 174.66 297.78 174.66 297.91 174.67 298.03 174.67 298.16 174.67 298.29 174.68 298.42 174.68 298.55 174.68 298.68 174.69 298.8 174.69 298.93 174.69 299.06 174.69 299.19 174.7 299.32 174.7 299.44 174.7 299.57 174.7 299.7 174.7 299.83 174.71 299.96 174.71 300.08 174.71 300.21 174.71 300.34 174.71 300.47 174.72 300.6 174.72 300.72 174.72 300.85 174.72 300.98 174.72 301.11 174.72 301.24 174.72 301.37 174.72 301.49 174.72 301.62 174.73 301.75 174.73 301.88 174.73 302.01 174.73 302.13 174.73 302.26 174.73 302.39 174.73 302.52 174.73 302.65 174.73 302.77 174.73 302.9 174.73 303.03 174.73 303.16 174.73 303.29 174.73 303.42 174.73 303.54 174.73 303.67 174.74 303.8 174.74 303.93 174.74 304.06 174.74 304.18 174.74 304.31 174.74 304.44 174.74 304.57 174.74 304.7 174.74 304.82 174.74 304.95 174.74 305.08 174.74 305.21 174.74 305.34 174.74 305.47 174.74 305.59 174.74 305.72 174.74 305.85 174.74 305.98 174.74 306.11 174.74 306.23 174.74 306.36 174.74 306.49 174.74 306.62 174.74 306.75 174.74 306.87 174.74 307 174.74 307.13 174.74 307.26 174.74 307.39 174.74 307.51 174.74 307.64 174.74 307.77 174.74 307.9 174.74 308.03 174.74 308.16 174.74 308.28 174.74 308.41 174.74 308.54 174.74 308.67 174.74 308.8 174.74 308.92 174.74 309.05 174.74"/>
      </g>
    </g>
  </g>
</g>
  <g class="guide ylabels" font-size="4.94" font-family="'PT Sans Caption','Helvetica Neue','Helvetica',sans-serif" fill="#6C606B" id="img-02c1b249-16">
    <text x="25.54" y="174.74" text-anchor="end" dy="0.35em">0.00</text>
    <text x="25.54" y="135.2" text-anchor="end" dy="0.35em">0.05</text>
    <text x="25.54" y="95.66" text-anchor="end" dy="0.35em">0.10</text>
    <text x="25.54" y="56.12" text-anchor="end" dy="0.35em">0.15</text>
    <text x="25.54" y="16.58" text-anchor="end" dy="0.35em">0.20</text>
  </g>
  <g font-size="6" font-family="'PT Sans','Helvetica Neue','Helvetica',sans-serif" fill="#564A55" stroke="#000000" stroke-opacity="0.000" id="img-02c1b249-17">
    <text x="9.79" y="93.66" text-anchor="middle" dy="0.35em" transform="rotate(-90, 9.79, 95.66)">Density</text>
  </g>
  <g font-size="6" font-family="'PT Sans','Helvetica Neue','Helvetica',sans-serif" fill="#564A55" stroke="#000000" stroke-opacity="0.000" id="img-02c1b249-18">
    <text x="187.14" y="12.58" text-anchor="middle">Location estimator densities for NAB return data</text>
  </g>
</g>
<defs>
  <clipPath id="img-02c1b249-8">
  <path d="M26.55,14.58 L 347.74 14.58 347.74 176.74 26.55 176.74" />
</clipPath>
</defs>
</svg>
