<?xml version="1.0" encoding="UTF-8"?>
<svg xmlns="http://www.w3.org/2000/svg"
     xmlns:xlink="http://www.w3.org/1999/xlink"
     xmlns:gadfly="http://www.gadflyjl.org/ns"
     version="1.2"
     width="400mm" height="200mm" viewBox="0 0 400 200"
     stroke="none"
     fill="#000000"
     stroke-width="0.3"
     font-size="3.88"
>
<g class="plotroot xscalable yscalable" id="img-8a9f4e19-1">
  <g font-size="6" font-family="'PT Sans','Helvetica Neue','Helvetica',sans-serif" fill="#564A55" stroke="#000000" stroke-opacity="0.000" id="img-8a9f4e19-2">
    <text x="188.6" y="186.42" text-anchor="middle" dy="0.6em">Estimator value (basis points)</text>
  </g>
  <g class="guide xlabels" font-size="4.94" font-family="'PT Sans Caption','Helvetica Neue','Helvetica',sans-serif" fill="#6C606B" id="img-8a9f4e19-3">
    <text x="31.47" y="177.74" text-anchor="middle" dy="0.6em">-200</text>
    <text x="110.04" y="177.74" text-anchor="middle" dy="0.6em">-100</text>
    <text x="188.6" y="177.74" text-anchor="middle" dy="0.6em">0</text>
    <text x="267.17" y="177.74" text-anchor="middle" dy="0.6em">100</text>
    <text x="345.74" y="177.74" text-anchor="middle" dy="0.6em">200</text>
  </g>
  <g class="guide colorkey" id="img-8a9f4e19-4">
    <g fill="#4C404B" font-size="4.94" font-family="'PT Sans','Helvetica Neue','Helvetica',sans-serif" id="img-8a9f4e19-5">
      <text x="352.53" y="95.66" dy="0.35em">Mean</text>
      <text x="352.53" y="101.26" dy="0.35em">Trimmed mean (0.4)</text>
    </g>
    <g stroke="#000000" stroke-opacity="0.000" id="img-8a9f4e19-6">
      <rect x="348.74" y="94.26" width="2.8" height="2.8" fill="#0000FF"/>
      <rect x="348.74" y="99.86" width="2.8" height="2.8" fill="#008000"/>
    </g>
    <g fill="#362A35" font-size="6" font-family="'PT Sans','Helvetica Neue','Helvetica',sans-serif" stroke="#000000" stroke-opacity="0.000" id="img-8a9f4e19-7">
      <text x="348.74" y="90.86">Legend:</text>
    </g>
  </g>
<g clip-path="url(#img-8a9f4e19-8)">
  <g id="img-8a9f4e19-9">
    <g pointer-events="visible" opacity="1" fill="#000000" fill-opacity="0.000" stroke="#000000" stroke-opacity="0.000" class="guide background" id="img-8a9f4e19-10">
      <rect x="29.47" y="14.58" width="318.26" height="162.16"/>
    </g>
    <g class="guide ygridlines xfixed" stroke-dasharray="0.5,0.5" stroke-width="0.2" stroke="#D0D0E0" id="img-8a9f4e19-11">
      <path fill="none" d="M29.47,174.74 L 347.74 174.74"/>
      <path fill="none" d="M29.47,135.2 L 347.74 135.2"/>
      <path fill="none" d="M29.47,95.66 L 347.74 95.66"/>
      <path fill="none" d="M29.47,56.12 L 347.74 56.12"/>
      <path fill="none" d="M29.47,16.58 L 347.74 16.58"/>
    </g>
    <g class="guide xgridlines yfixed" stroke-dasharray="0.5,0.5" stroke-width="0.2" stroke="#D0D0E0" id="img-8a9f4e19-12">
      <path fill="none" d="M31.47,14.58 L 31.47 176.74"/>
      <path fill="none" d="M110.04,14.58 L 110.04 176.74"/>
      <path fill="none" d="M188.6,14.58 L 188.6 176.74"/>
      <path fill="none" d="M267.17,14.58 L 267.17 176.74"/>
      <path fill="none" d="M345.74,14.58 L 345.74 176.74"/>
    </g>
    <g class="plotpanel" id="img-8a9f4e19-13">
      <g stroke-width="0.3" fill="#000000" fill-opacity="0.000" class="geometry" stroke-dasharray="none" stroke="#008000" id="img-8a9f4e19-14">
        <path fill="none" d="M104.77,174.74 L 104.85 174.74 104.94 174.74 105.02 174.74 105.1 174.74 105.18 174.74 105.26 174.74 105.34 174.74 105.42 174.74 105.5 174.74 105.58 174.74 105.66 174.74 105.75 174.74 105.83 174.74 105.91 174.74 105.99 174.74 106.07 174.74 106.15 174.74 106.23 174.74 106.31 174.74 106.39 174.74 106.48 174.74 106.56 174.74 106.64 174.74 106.72 174.74 106.8 174.74 106.88 174.74 106.96 174.74 107.04 174.74 107.12 174.74 107.21 174.74 107.29 174.74 107.37 174.74 107.45 174.74 107.53 174.74 107.61 174.74 107.69 174.74 107.77 174.74 107.85 174.74 107.93 174.74 108.02 174.74 108.1 174.74 108.18 174.74 108.26 174.74 108.34 174.74 108.42 174.74 108.5 174.74 108.58 174.74 108.66 174.74 108.75 174.74 108.83 174.74 108.91 174.74 108.99 174.73 109.07 174.73 109.15 174.73 109.23 174.73 109.31 174.73 109.39 174.73 109.47 174.73 109.56 174.73 109.64 174.73 109.72 174.73 109.8 174.73 109.88 174.73 109.96 174.73 110.04 174.73 110.12 174.73 110.2 174.73 110.29 174.73 110.37 174.73 110.45 174.73 110.53 174.73 110.61 174.73 110.69 174.72 110.77 174.72 110.85 174.72 110.93 174.72 111.01 174.72 111.1 174.72 111.18 174.72 111.26 174.72 111.34 174.72 111.42 174.72 111.5 174.71 111.58 174.71 111.66 174.71 111.74 174.71 111.83 174.71 111.91 174.71 111.99 174.71 112.07 174.71 112.15 174.7 112.23 174.7 112.31 174.7 112.39 174.7 112.47 174.7 112.55 174.7 112.64 174.69 112.72 174.69 112.8 174.69 112.88 174.69 112.96 174.69 113.04 174.68 113.12 174.68 113.2 174.68 113.28 174.68 113.37 174.67 113.45 174.67 113.53 174.67 113.61 174.67 113.69 174.66 113.77 174.66 113.85 174.66 113.93 174.65 114.01 174.65 114.09 174.65 114.18 174.64 114.26 174.64 114.34 174.64 114.42 174.63 114.5 174.63 114.58 174.63 114.66 174.62 114.74 174.62 114.82 174.62 114.91 174.61 114.99 174.61 115.07 174.6 115.15 174.6 115.23 174.59 115.31 174.59 115.39 174.58 115.47 174.58 115.55 174.57 115.64 174.57 115.72 174.56 115.8 174.56 115.88 174.55 115.96 174.55 116.04 174.54 116.12 174.54 116.2 174.53 116.28 174.52 116.36 174.52 116.45 174.51 116.53 174.51 116.61 174.5 116.69 174.49 116.77 174.49 116.85 174.48 116.93 174.47 117.01 174.47 117.09 174.46 117.18 174.45 117.26 174.45 117.34 174.44 117.42 174.43 117.5 174.42 117.58 174.42 117.66 174.41 117.74 174.4 117.82 174.39 117.9 174.39 117.99 174.38 118.07 174.37 118.15 174.36 118.23 174.35 118.31 174.35 118.39 174.34 118.47 174.33 118.55 174.32 118.63 174.31 118.72 174.3 118.8 174.3 118.88 174.29 118.96 174.28 119.04 174.27 119.12 174.26 119.2 174.25 119.28 174.24 119.36 174.23 119.44 174.22 119.53 174.21 119.61 174.2 119.69 174.2 119.77 174.19 119.85 174.18 119.93 174.17 120.01 174.16 120.09 174.15 120.17 174.14 120.26 174.13 120.34 174.12 120.42 174.11 120.5 174.1 120.58 174.09 120.66 174.08 120.74 174.07 120.82 174.06 120.9 174.05 120.98 174.04 121.07 174.03 121.15 174.02 121.23 174.01 121.31 174 121.39 173.99 121.47 173.97 121.55 173.96 121.63 173.95 121.71 173.94 121.8 173.93 121.88 173.92 121.96 173.91 122.04 173.9 122.12 173.89 122.2 173.88 122.28 173.86 122.36 173.85 122.44 173.84 122.52 173.83 122.61 173.82 122.69 173.81 122.77 173.79 122.85 173.78 122.93 173.77 123.01 173.76 123.09 173.74 123.17 173.73 123.25 173.72 123.34 173.7 123.42 173.69 123.5 173.68 123.58 173.66 123.66 173.65 123.74 173.64 123.82 173.62 123.9 173.61 123.98 173.59 124.07 173.58 124.15 173.56 124.23 173.55 124.31 173.53 124.39 173.51 124.47 173.5 124.55 173.48 124.63 173.46 124.71 173.45 124.79 173.43 124.88 173.41 124.96 173.39 125.04 173.38 125.12 173.36 125.2 173.34 125.28 173.32 125.36 173.3 125.44 173.28 125.52 173.26 125.61 173.24 125.69 173.21 125.77 173.19 125.85 173.17 125.93 173.15 126.01 173.12 126.09 173.1 126.17 173.07 126.25 173.05 126.33 173.02 126.42 173 126.5 172.97 126.58 172.95 126.66 172.92 126.74 172.89 126.82 172.86 126.9 172.83 126.98 172.8 127.06 172.77 127.15 172.74 127.23 172.71 127.31 172.68 127.39 172.65 127.47 172.61 127.55 172.58 127.63 172.55 127.71 172.51 127.79 172.48 127.87 172.44 127.96 172.4 128.04 172.36 128.12 172.33 128.2 172.29 128.28 172.25 128.36 172.21 128.44 172.17 128.52 172.13 128.6 172.08 128.69 172.04 128.77 172 128.85 171.95 128.93 171.91 129.01 171.86 129.09 171.82 129.17 171.77 129.25 171.72 129.33 171.68 129.41 171.63 129.5 171.58 129.58 171.53 129.66 171.48 129.74 171.43 129.82 171.37 129.9 171.32 129.98 171.27 130.06 171.21 130.14 171.16 130.23 171.11 130.31 171.05 130.39 170.99 130.47 170.94 130.55 170.88 130.63 170.82 130.71 170.76 130.79 170.71 130.87 170.65 130.95 170.59 131.04 170.53 131.12 170.47 131.2 170.4 131.28 170.34 131.36 170.28 131.44 170.22 131.52 170.16 131.6 170.09 131.68 170.03 131.77 169.96 131.85 169.9 131.93 169.84 132.01 169.77 132.09 169.7 132.17 169.64 132.25 169.57 132.33 169.51 132.41 169.44 132.5 169.37 132.58 169.31 132.66 169.24 132.74 169.17 132.82 169.11 132.9 169.04 132.98 168.97 133.06 168.9 133.14 168.84 133.22 168.77 133.31 168.7 133.39 168.63 133.47 168.56 133.55 168.5 133.63 168.43 133.71 168.36 133.79 168.29 133.87 168.22 133.95 168.16 134.04 168.09 134.12 168.02 134.2 167.95 134.28 167.88 134.36 167.82 134.44 167.75 134.52 167.68 134.6 167.61 134.68 167.55 134.76 167.48 134.85 167.41 134.93 167.35 135.01 167.28 135.09 167.21 135.17 167.14 135.25 167.08 135.33 167.01 135.41 166.95 135.49 166.88 135.58 166.81 135.66 166.75 135.74 166.68 135.82 166.62 135.9 166.55 135.98 166.48 136.06 166.42 136.14 166.35 136.22 166.29 136.3 166.22 136.39 166.16 136.47 166.09 136.55 166.03 136.63 165.96 136.71 165.9 136.79 165.83 136.87 165.77 136.95 165.7 137.03 165.64 137.12 165.57 137.2 165.5 137.28 165.44 137.36 165.37 137.44 165.31 137.52 165.24 137.6 165.17 137.68 165.11 137.76 165.04 137.84 164.97 137.93 164.91 138.01 164.84 138.09 164.77 138.17 164.7 138.25 164.63 138.33 164.57 138.41 164.5 138.49 164.43 138.57 164.36 138.66 164.29 138.74 164.22 138.82 164.15 138.9 164.07 138.98 164 139.06 163.93 139.14 163.86 139.22 163.78 139.3 163.71 139.38 163.63 139.47 163.56 139.55 163.48 139.63 163.41 139.71 163.33 139.79 163.25 139.87 163.17 139.95 163.09 140.03 163.01 140.11 162.93 140.2 162.85 140.28 162.77 140.36 162.69 140.44 162.6 140.52 162.52 140.6 162.43 140.68 162.35 140.76 162.26 140.84 162.17 140.92 162.09 141.01 162 141.09 161.91 141.17 161.82 141.25 161.73 141.33 161.63 141.41 161.54 141.49 161.45 141.57 161.35 141.65 161.26 141.74 161.16 141.82 161.07 141.9 160.97 141.98 160.87 142.06 160.77 142.14 160.67 142.22 160.57 142.3 160.47 142.38 160.37 142.47 160.27 142.55 160.16 142.63 160.06 142.71 159.95 142.79 159.85 142.87 159.74 142.95 159.63 143.03 159.53 143.11 159.42 143.19 159.31 143.28 159.2 143.36 159.08 143.44 158.97 143.52 158.86 143.6 158.75 143.68 158.63 143.76 158.52 143.84 158.4 143.92 158.28 144.01 158.17 144.09 158.05 144.17 157.93 144.25 157.81 144.33 157.69 144.41 157.57 144.49 157.44 144.57 157.32 144.65 157.2 144.73 157.07 144.82 156.95 144.9 156.82 144.98 156.69 145.06 156.56 145.14 156.43 145.22 156.3 145.3 156.17 145.38 156.04 145.46 155.91 145.55 155.77 145.63 155.64 145.71 155.5 145.79 155.37 145.87 155.23 145.95 155.09 146.03 154.95 146.11 154.81 146.19 154.66 146.27 154.52 146.36 154.38 146.44 154.23 146.52 154.08 146.6 153.93 146.68 153.78 146.76 153.63 146.84 153.48 146.92 153.33 147 153.17 147.09 153.01 147.17 152.85 147.25 152.69 147.33 152.53 147.41 152.37 147.49 152.21 147.57 152.04 147.65 151.87 147.73 151.7 147.81 151.53 147.9 151.36 147.98 151.18 148.06 151.01 148.14 150.83 148.22 150.65 148.3 150.47 148.38 150.28 148.46 150.1 148.54 149.91 148.63 149.72 148.71 149.53 148.79 149.33 148.87 149.13 148.95 148.94 149.03 148.74 149.11 148.53 149.19 148.33 149.27 148.12 149.35 147.91 149.44 147.7 149.52 147.49 149.6 147.27 149.68 147.05 149.76 146.83 149.84 146.61 149.92 146.38 150 146.16 150.08 145.93 150.17 145.69 150.25 145.46 150.33 145.22 150.41 144.98 150.49 144.74 150.57 144.49 150.65 144.25 150.73 144 150.81 143.75 150.9 143.49 150.98 143.24 151.06 142.98 151.14 142.72 151.22 142.45 151.3 142.19 151.38 141.92 151.46 141.65 151.54 141.38 151.62 141.1 151.71 140.83 151.79 140.55 151.87 140.27 151.95 139.98 152.03 139.7 152.11 139.41 152.19 139.12 152.27 138.83 152.35 138.53 152.44 138.24 152.52 137.94 152.6 137.64 152.68 137.34 152.76 137.04 152.84 136.73 152.92 136.43 153 136.12 153.08 135.81 153.16 135.5 153.25 135.19 153.33 134.87 153.41 134.56 153.49 134.24 153.57 133.92 153.65 133.6 153.73 133.28 153.81 132.96 153.89 132.64 153.98 132.32 154.06 132 154.14 131.67 154.22 131.35 154.3 131.02 154.38 130.69 154.46 130.37 154.54 130.04 154.62 129.71 154.7 129.39 154.79 129.06 154.87 128.73 154.95 128.4 155.03 128.07 155.11 127.74 155.19 127.42 155.27 127.09 155.35 126.76 155.43 126.43 155.52 126.11 155.6 125.78 155.68 125.45 155.76 125.13 155.84 124.8 155.92 124.48 156 124.16 156.08 123.83 156.16 123.51 156.24 123.19 156.33 122.87 156.41 122.55 156.49 122.24 156.57 121.92 156.65 121.6 156.73 121.29 156.81 120.98 156.89 120.67 156.97 120.36 157.06 120.05 157.14 119.74 157.22 119.43 157.3 119.13 157.38 118.83 157.46 118.53 157.54 118.23 157.62 117.93 157.7 117.63 157.78 117.34 157.87 117.04 157.95 116.75 158.03 116.46 158.11 116.17 158.19 115.89 158.27 115.6 158.35 115.32 158.43 115.04 158.51 114.76 158.6 114.48 158.68 114.2 158.76 113.92 158.84 113.65 158.92 113.38 159 113.11 159.08 112.84 159.16 112.57 159.24 112.3 159.33 112.03 159.41 111.77 159.49 111.51 159.57 111.24 159.65 110.98 159.73 110.72 159.81 110.46 159.89 110.21 159.97 109.95 160.05 109.69 160.14 109.44 160.22 109.18 160.3 108.93 160.38 108.67 160.46 108.42 160.54 108.17 160.62 107.91 160.7 107.66 160.78 107.41 160.87 107.16 160.95 106.91 161.03 106.66 161.11 106.4 161.19 106.15 161.27 105.9 161.35 105.65 161.43 105.4 161.51 105.14 161.59 104.89 161.68 104.63 161.76 104.38 161.84 104.12 161.92 103.87 162 103.61 162.08 103.35 162.16 103.09 162.24 102.83 162.32 102.57 162.41 102.31 162.49 102.05 162.57 101.78 162.65 101.52 162.73 101.25 162.81 100.98 162.89 100.71 162.97 100.44 163.05 100.16 163.13 99.89 163.22 99.61 163.3 99.33 163.38 99.05 163.46 98.77 163.54 98.49 163.62 98.2 163.7 97.92 163.78 97.63 163.86 97.34 163.95 97.05 164.03 96.75 164.11 96.46 164.19 96.16 164.27 95.86 164.35 95.56 164.43 95.26 164.51 94.96 164.59 94.65 164.67 94.34 164.76 94.04 164.84 93.72 164.92 93.41 165 93.1 165.08 92.79 165.16 92.47 165.24 92.15 165.32 91.83 165.4 91.51 165.49 91.19 165.57 90.87 165.65 90.55 165.73 90.23 165.81 89.9 165.89 89.58 165.97 89.25 166.05 88.92 166.13 88.59 166.21 88.27 166.3 87.94 166.38 87.61 166.46 87.28 166.54 86.95 166.62 86.62 166.7 86.29 166.78 85.96 166.86 85.64 166.94 85.31 167.03 84.98 167.11 84.65 167.19 84.32 167.27 84 167.35 83.67 167.43 83.35 167.51 83.02 167.59 82.7 167.67 82.38 167.76 82.05 167.84 81.73 167.92 81.42 168 81.1 168.08 80.78 168.16 80.47 168.24 80.16 168.32 79.85 168.4 79.54 168.48 79.23 168.57 78.92 168.65 78.62 168.73 78.32 168.81 78.02 168.89 77.72 168.97 77.43 169.05 77.13 169.13 76.84 169.21 76.55 169.3 76.27 169.38 75.99 169.46 75.7 169.54 75.43 169.62 75.15 169.7 74.88 169.78 74.61 169.86 74.34 169.94 74.07 170.02 73.81 170.11 73.55 170.19 73.29 170.27 73.04 170.35 72.79 170.43 72.54 170.51 72.29 170.59 72.05 170.67 71.8 170.75 71.57 170.84 71.33 170.92 71.1 171 70.87 171.08 70.64 171.16 70.41 171.24 70.19 171.32 69.97 171.4 69.76 171.48 69.54 171.56 69.33 171.65 69.12 171.73 68.91 171.81 68.71 171.89 68.51 171.97 68.31 172.05 68.11 172.13 67.92 172.21 67.72 172.29 67.53 172.38 67.35 172.46 67.16 172.54 66.98 172.62 66.8 172.7 66.62 172.78 66.44 172.86 66.27 172.94 66.09 173.02 65.92 173.1 65.75 173.19 65.58 173.27 65.42 173.35 65.25 173.43 65.09 173.51 64.93 173.59 64.77 173.67 64.61 173.75 64.46 173.83 64.3 173.92 64.15 174 64 174.08 63.85 174.16 63.7 174.24 63.55 174.32 63.41 174.4 63.26 174.48 63.12 174.56 62.97 174.64 62.83 174.73 62.69 174.81 62.55 174.89 62.41 174.97 62.27 175.05 62.14 175.13 62 175.21 61.87 175.29 61.73 175.37 61.6 175.46 61.47 175.54 61.33 175.62 61.2 175.7 61.07 175.78 60.94 175.86 60.81 175.94 60.69 176.02 60.56 176.1 60.43 176.18 60.31 176.27 60.18 176.35 60.06 176.43 59.93 176.51 59.81 176.59 59.69 176.67 59.56 176.75 59.44 176.83 59.32 176.91 59.2 177 59.08 177.08 58.96 177.16 58.84 177.24 58.72 177.32 58.61 177.4 58.49 177.48 58.37 177.56 58.26 177.64 58.14 177.73 58.03 177.81 57.92 177.89 57.8 177.97 57.69 178.05 57.58 178.13 57.47 178.21 57.36 178.29 57.25 178.37 57.14 178.45 57.04 178.54 56.93 178.62 56.82 178.7 56.72 178.78 56.62 178.86 56.51 178.94 56.41 179.02 56.31 179.1 56.21 179.18 56.11 179.27 56.02 179.35 55.92 179.43 55.83 179.51 55.73 179.59 55.64 179.67 55.55 179.75 55.46 179.83 55.37 179.91 55.29 179.99 55.2 180.08 55.12 180.16 55.04 180.24 54.96 180.32 54.88 180.4 54.8 180.48 54.73 180.56 54.66 180.64 54.59 180.72 54.52 180.81 54.45 180.89 54.38 180.97 54.32 181.05 54.26 181.13 54.2 181.21 54.14 181.29 54.09 181.37 54.03 181.45 53.98 181.53 53.94 181.62 53.89 181.7 53.85 181.78 53.8 181.86 53.77 181.94 53.73 182.02 53.7 182.1 53.66 182.18 53.64 182.26 53.61 182.35 53.59 182.43 53.57 182.51 53.55 182.59 53.53 182.67 53.52 182.75 53.51 182.83 53.5 182.91 53.5 182.99 53.5 183.07 53.5 183.16 53.51 183.24 53.51 183.32 53.52 183.4 53.54 183.48 53.55 183.56 53.57 183.64 53.59 183.72 53.62 183.8 53.65 183.89 53.68 183.97 53.71 184.05 53.75 184.13 53.79 184.21 53.83 184.29 53.88 184.37 53.93 184.45 53.98 184.53 54.04 184.61 54.09 184.7 54.15 184.78 54.22 184.86 54.29 184.94 54.35 185.02 54.43 185.1 54.5 185.18 54.58 185.26 54.66 185.34 54.75 185.43 54.83 185.51 54.92 185.59 55.02 185.67 55.11 185.75 55.21 185.83 55.31 185.91 55.41 185.99 55.52 186.07 55.63 186.16 55.74 186.24 55.85 186.32 55.97 186.4 56.08 186.48 56.2 186.56 56.33 186.64 56.45 186.72 56.58 186.8 56.71 186.88 56.84 186.97 56.97 187.05 57.11 187.13 57.24 187.21 57.38 187.29 57.52 187.37 57.67 187.45 57.81 187.53 57.96 187.61 58.11 187.7 58.26 187.78 58.41 187.86 58.56 187.94 58.71 188.02 58.87 188.1 59.03 188.18 59.19 188.26 59.34 188.34 59.51 188.42 59.67 188.51 59.83 188.59 59.99 188.67 60.16 188.75 60.32 188.83 60.49 188.91 60.66 188.99 60.82 189.07 60.99 189.15 61.16 189.24 61.33 189.32 61.5 189.4 61.67 189.48 61.84 189.56 62.01 189.64 62.19 189.72 62.36 189.8 62.53 189.88 62.7 189.96 62.87 190.05 63.05 190.13 63.22 190.21 63.39 190.29 63.56 190.37 63.73 190.45 63.91 190.53 64.08 190.61 64.25 190.69 64.42 190.78 64.59 190.86 64.76 190.94 64.93 191.02 65.1 191.1 65.27 191.18 65.43 191.26 65.6 191.34 65.77 191.42 65.94 191.5 66.1 191.59 66.27 191.67 66.43 191.75 66.59 191.83 66.76 191.91 66.92 191.99 67.08 192.07 67.24 192.15 67.4 192.23 67.56 192.32 67.72 192.4 67.88 192.48 68.03 192.56 68.19 192.64 68.35 192.72 68.5 192.8 68.65 192.88 68.81 192.96 68.96 193.04 69.11 193.13 69.26 193.21 69.41 193.29 69.56 193.37 69.71 193.45 69.86 193.53 70.01 193.61 70.15 193.69 70.3 193.77 70.45 193.86 70.59 193.94 70.74 194.02 70.88 194.1 71.02 194.18 71.17 194.26 71.31 194.34 71.46 194.42 71.6 194.5 71.74 194.59 71.88 194.67 72.03 194.75 72.17 194.83 72.31 194.91 72.45 194.99 72.6 195.07 72.74 195.15 72.88 195.23 73.03 195.31 73.17 195.4 73.32 195.48 73.46 195.56 73.61 195.64 73.76 195.72 73.9 195.8 74.05 195.88 74.2 195.96 74.35 196.04 74.5 196.13 74.65 196.21 74.81 196.29 74.96 196.37 75.12 196.45 75.27 196.53 75.43 196.61 75.59 196.69 75.75 196.77 75.92 196.85 76.08 196.94 76.25 197.02 76.42 197.1 76.59 197.18 76.76 197.26 76.93 197.34 77.11 197.42 77.29 197.5 77.47 197.58 77.66 197.67 77.84 197.75 78.03 197.83 78.22 197.91 78.41 197.99 78.61 198.07 78.81 198.15 79.01 198.23 79.22 198.31 79.42 198.39 79.63 198.48 79.85 198.56 80.06 198.64 80.28 198.72 80.51 198.8 80.73 198.88 80.96 198.96 81.19 199.04 81.43 199.12 81.67 199.21 81.91 199.29 82.15 199.37 82.4 199.45 82.65 199.53 82.91 199.61 83.17 199.69 83.43 199.77 83.69 199.85 83.96 199.93 84.23 200.02 84.51 200.1 84.79 200.18 85.07 200.26 85.35 200.34 85.64 200.42 85.94 200.5 86.23 200.58 86.53 200.66 86.83 200.75 87.14 200.83 87.44 200.91 87.76 200.99 88.07 201.07 88.39 201.15 88.71 201.23 89.03 201.31 89.36 201.39 89.69 201.47 90.02 201.56 90.36 201.64 90.69 201.72 91.04 201.8 91.38 201.88 91.72 201.96 92.07 202.04 92.42 202.12 92.78 202.2 93.13 202.29 93.49 202.37 93.85 202.45 94.21 202.53 94.57 202.61 94.94 202.69 95.31 202.77 95.68 202.85 96.05 202.93 96.42 203.02 96.79 203.1 97.17 203.18 97.54 203.26 97.92 203.34 98.3 203.42 98.68 203.5 99.06 203.58 99.44 203.66 99.82 203.74 100.2 203.83 100.58 203.91 100.97 203.99 101.35 204.07 101.73 204.15 102.12 204.23 102.5 204.31 102.88 204.39 103.26 204.47 103.65 204.56 104.03 204.64 104.41 204.72 104.79 204.8 105.17 204.88 105.55 204.96 105.93 205.04 106.31 205.12 106.68 205.2 107.06 205.28 107.43 205.37 107.8 205.45 108.18 205.53 108.55 205.61 108.91 205.69 109.28 205.77 109.64 205.85 110.01 205.93 110.37 206.01 110.73 206.1 111.08 206.18 111.44 206.26 111.79 206.34 112.14 206.42 112.49 206.5 112.84 206.58 113.18 206.66 113.52 206.74 113.86 206.82 114.19 206.91 114.53 206.99 114.86 207.07 115.18 207.15 115.51 207.23 115.83 207.31 116.15 207.39 116.47 207.47 116.78 207.55 117.09 207.64 117.4 207.72 117.71 207.8 118.01 207.88 118.31 207.96 118.6 208.04 118.9 208.12 119.19 208.2 119.48 208.28 119.76 208.36 120.04 208.45 120.32 208.53 120.6 208.61 120.87 208.69 121.14 208.77 121.41 208.85 121.67 208.93 121.93 209.01 122.19 209.09 122.45 209.18 122.7 209.26 122.95 209.34 123.2 209.42 123.44 209.5 123.69 209.58 123.93 209.66 124.16 209.74 124.4 209.82 124.63 209.9 124.86 209.99 125.09 210.07 125.32 210.15 125.54 210.23 125.76 210.31 125.98 210.39 126.2 210.47 126.41 210.55 126.62 210.63 126.83 210.72 127.04 210.8 127.25 210.88 127.46 210.96 127.66 211.04 127.86 211.12 128.06 211.2 128.26 211.28 128.46 211.36 128.66 211.44 128.85 211.53 129.05 211.61 129.24 211.69 129.43 211.77 129.62 211.85 129.81 211.93 130 212.01 130.18 212.09 130.37 212.17 130.55 212.26 130.74 212.34 130.92 212.42 131.1 212.5 131.29 212.58 131.47 212.66 131.65 212.74 131.83 212.82 132.01 212.9 132.19 212.99 132.37 213.07 132.55 213.15 132.72 213.23 132.9 213.31 133.08 213.39 133.26 213.47 133.43 213.55 133.61 213.63 133.79 213.71 133.96 213.8 134.14 213.88 134.31 213.96 134.49 214.04 134.66 214.12 134.84 214.2 135.01 214.28 135.19 214.36 135.36 214.44 135.54 214.53 135.71 214.61 135.89 214.69 136.06 214.77 136.24 214.85 136.41 214.93 136.58 215.01 136.76 215.09 136.93 215.17 137.11 215.25 137.28 215.34 137.45 215.42 137.63 215.5 137.8 215.58 137.97 215.66 138.14 215.74 138.32 215.82 138.49 215.9 138.66 215.98 138.83 216.07 139 216.15 139.18 216.23 139.35 216.31 139.52 216.39 139.69 216.47 139.86 216.55 140.03 216.63 140.2 216.71 140.37 216.79 140.53 216.88 140.7 216.96 140.87 217.04 141.04 217.12 141.2 217.2 141.37 217.28 141.54 217.36 141.7 217.44 141.87 217.52 142.03 217.61 142.19 217.69 142.36 217.77 142.52 217.85 142.68 217.93 142.84 218.01 143 218.09 143.16 218.17 143.32 218.25 143.48 218.33 143.64 218.42 143.8 218.5 143.95 218.58 144.11 218.66 144.27 218.74 144.42 218.82 144.58 218.9 144.73 218.98 144.89 219.06 145.04 219.15 145.19 219.23 145.34 219.31 145.49 219.39 145.65 219.47 145.8 219.55 145.95 219.63 146.1 219.71 146.24 219.79 146.39 219.87 146.54 219.96 146.69 220.04 146.84 220.12 146.98 220.2 147.13 220.28 147.28 220.36 147.42 220.44 147.57 220.52 147.72 220.6 147.86 220.69 148.01 220.77 148.15 220.85 148.3 220.93 148.44 221.01 148.59 221.09 148.73 221.17 148.87 221.25 149.02 221.33 149.16 221.42 149.31 221.5 149.45 221.58 149.6 221.66 149.74 221.74 149.89 221.82 150.03 221.9 150.18 221.98 150.32 222.06 150.47 222.14 150.61 222.23 150.76 222.31 150.91 222.39 151.05 222.47 151.2 222.55 151.35 222.63 151.49 222.71 151.64 222.79 151.79 222.87 151.94 222.96 152.09 223.04 152.24 223.12 152.39 223.2 152.54 223.28 152.69 223.36 152.84 223.44 152.99 223.52 153.14 223.6 153.29 223.68 153.45 223.77 153.6 223.85 153.75 223.93 153.91 224.01 154.06 224.09 154.21 224.17 154.37 224.25 154.53 224.33 154.68 224.41 154.84 224.5 154.99 224.58 155.15 224.66 155.31 224.74 155.47 224.82 155.63 224.9 155.78 224.98 155.94 225.06 156.1 225.14 156.26 225.22 156.42 225.31 156.58 225.39 156.74 225.47 156.9 225.55 157.06 225.63 157.22 225.71 157.38 225.79 157.54 225.87 157.7 225.95 157.86 226.04 158.02 226.12 158.18 226.2 158.34 226.28 158.5 226.36 158.66 226.44 158.82 226.52 158.98 226.6 159.14 226.68 159.3 226.76 159.45 226.85 159.61 226.93 159.77 227.01 159.93 227.09 160.08 227.17 160.24 227.25 160.4 227.33 160.55 227.41 160.71 227.49 160.86 227.58 161.01 227.66 161.17 227.74 161.32 227.82 161.47 227.9 161.62 227.98 161.77 228.06 161.92 228.14 162.07 228.22 162.21 228.3 162.36 228.39 162.5 228.47 162.65 228.55 162.79 228.63 162.93 228.71 163.08 228.79 163.22 228.87 163.36 228.95 163.49 229.03 163.63 229.12 163.77 229.2 163.9 229.28 164.04 229.36 164.17 229.44 164.3 229.52 164.43 229.6 164.56 229.68 164.69 229.76 164.81 229.85 164.94 229.93 165.06 230.01 165.18 230.09 165.31 230.17 165.43 230.25 165.55 230.33 165.66 230.41 165.78 230.49 165.89 230.57 166.01 230.66 166.12 230.74 166.23 230.82 166.34 230.9 166.45 230.98 166.56 231.06 166.67 231.14 166.77 231.22 166.87 231.3 166.98 231.39 167.08 231.47 167.18 231.55 167.28 231.63 167.38 231.71 167.47 231.79 167.57 231.87 167.66 231.95 167.75 232.03 167.85 232.11 167.94 232.2 168.03 232.28 168.12 232.36 168.2 232.44 168.29 232.52 168.37 232.6 168.46 232.68 168.54 232.76 168.62 232.84 168.71 232.93 168.79 233.01 168.86 233.09 168.94 233.17 169.02 233.25 169.1 233.33 169.17 233.41 169.25 233.49 169.32 233.57 169.39 233.65 169.46 233.74 169.54 233.82 169.61 233.9 169.67 233.98 169.74 234.06 169.81 234.14 169.88 234.22 169.94 234.3 170.01 234.38 170.07 234.47 170.14 234.55 170.2 234.63 170.26 234.71 170.32 234.79 170.38 234.87 170.44 234.95 170.5 235.03 170.56 235.11 170.62 235.19 170.68 235.28 170.74 235.36 170.79 235.44 170.85 235.52 170.9 235.6 170.96 235.68 171.01 235.76 171.06 235.84 171.12 235.92 171.17 236.01 171.22 236.09 171.27 236.17 171.32 236.25 171.37 236.33 171.42 236.41 171.47 236.49 171.51 236.57 171.56 236.65 171.61 236.73 171.65 236.82 171.7 236.9 171.75 236.98 171.79 237.06 171.83 237.14 171.88 237.22 171.92 237.3 171.96 237.38 172 237.46 172.05 237.55 172.09 237.63 172.13 237.71 172.17 237.79 172.2 237.87 172.24 237.95 172.28 238.03 172.32 238.11 172.35 238.19 172.39 238.28 172.43 238.36 172.46 238.44 172.5 238.52 172.53 238.6 172.56 238.68 172.6 238.76 172.63 238.84 172.66 238.92 172.69 239 172.72 239.09 172.75 239.17 172.78 239.25 172.81 239.33 172.84 239.41 172.87 239.49 172.9 239.57 172.93 239.65 172.95 239.73 172.98 239.82 173.01 239.9 173.03 239.98 173.06 240.06 173.08 240.14 173.1 240.22 173.13 240.3 173.15 240.38 173.17 240.46 173.2 240.54 173.22 240.63 173.24 240.71 173.26 240.79 173.28 240.87 173.3 240.95 173.32 241.03 173.34 241.11 173.36 241.19 173.37 241.27 173.39 241.36 173.41 241.44 173.43 241.52 173.44 241.6 173.46 241.68 173.47 241.76 173.49 241.84 173.5 241.92 173.52 242 173.53 242.08 173.55 242.17 173.56 242.25 173.57 242.33 173.59 242.41 173.6 242.49 173.61 242.57 173.62 242.65 173.64 242.73 173.65 242.81 173.66 242.9 173.67 242.98 173.68 243.06 173.69 243.14 173.7 243.22 173.71 243.3 173.72 243.38 173.73 243.46 173.74 243.54 173.75 243.62 173.75 243.71 173.76 243.79 173.77 243.87 173.78 243.95 173.79 244.03 173.79 244.11 173.8 244.19 173.81 244.27 173.82 244.35 173.82 244.44 173.83 244.52 173.83 244.6 173.84 244.68 173.85 244.76 173.85 244.84 173.86 244.92 173.86 245 173.87 245.08 173.88 245.16 173.88 245.25 173.89 245.33 173.89 245.41 173.9 245.49 173.9 245.57 173.9 245.65 173.91 245.73 173.91 245.81 173.92 245.89 173.92 245.98 173.93 246.06 173.93 246.14 173.93 246.22 173.94 246.3 173.94 246.38 173.94 246.46 173.95 246.54 173.95 246.62 173.95 246.71 173.96 246.79 173.96 246.87 173.96 246.95 173.97 247.03 173.97 247.11 173.97 247.19 173.97 247.27 173.98 247.35 173.98 247.43 173.98 247.52 173.98 247.6 173.99 247.68 173.99 247.76 173.99 247.84 173.99 247.92 173.99 248 174 248.08 174 248.16 174 248.25 174 248.33 174 248.41 174 248.49 174.01 248.57 174.01 248.65 174.01 248.73 174.01 248.81 174.01 248.89 174.01 248.97 174.01 249.06 174.02 249.14 174.02 249.22 174.02 249.3 174.02 249.38 174.02 249.46 174.02 249.54 174.02 249.62 174.02 249.7 174.03 249.79 174.03 249.87 174.03 249.95 174.03 250.03 174.03 250.11 174.03 250.19 174.03 250.27 174.03 250.35 174.03 250.43 174.04 250.51 174.04 250.6 174.04 250.68 174.04 250.76 174.04 250.84 174.04 250.92 174.04 251 174.05 251.08 174.05 251.16 174.05 251.24 174.05 251.33 174.05 251.41 174.05 251.49 174.05 251.57 174.06 251.65 174.06 251.73 174.06 251.81 174.06 251.89 174.06 251.97 174.07 252.05 174.07 252.14 174.07 252.22 174.07 252.3 174.08 252.38 174.08 252.46 174.08 252.54 174.08 252.62 174.09 252.7 174.09 252.78 174.09 252.87 174.1 252.95 174.1 253.03 174.1 253.11 174.11 253.19 174.11 253.27 174.11 253.35 174.12 253.43 174.12 253.51 174.13 253.59 174.13 253.68 174.13 253.76 174.14 253.84 174.14 253.92 174.15 254 174.15 254.08 174.16 254.16 174.16 254.24 174.17 254.32 174.17 254.41 174.18 254.49 174.18 254.57 174.19 254.65 174.19 254.73 174.2 254.81 174.2 254.89 174.21 254.97 174.21 255.05 174.22 255.13 174.23 255.22 174.23 255.3 174.24 255.38 174.24 255.46 174.25 255.54 174.26 255.62 174.26 255.7 174.27 255.78 174.27 255.86 174.28 255.95 174.29 256.03 174.29 256.11 174.3 256.19 174.31 256.27 174.31 256.35 174.32 256.43 174.33 256.51 174.33 256.59 174.34 256.68 174.35 256.76 174.35 256.84 174.36 256.92 174.37 257 174.37 257.08 174.38 257.16 174.39 257.24 174.39 257.32 174.4 257.4 174.4 257.49 174.41 257.57 174.42 257.65 174.42 257.73 174.43 257.81 174.44 257.89 174.44 257.97 174.45 258.05 174.46 258.13 174.46 258.22 174.47 258.3 174.47 258.38 174.48 258.46 174.49 258.54 174.49 258.62 174.5 258.7 174.5 258.78 174.51 258.86 174.51 258.94 174.52 259.03 174.53 259.11 174.53 259.19 174.54 259.27 174.54 259.35 174.55 259.43 174.55 259.51 174.56 259.59 174.56 259.67 174.57 259.76 174.57 259.84 174.58 259.92 174.58 260 174.59 260.08 174.59 260.16 174.59 260.24 174.6 260.32 174.6 260.4 174.61 260.48 174.61 260.57 174.62 260.65 174.62 260.73 174.62 260.81 174.63 260.89 174.63 260.97 174.63 261.05 174.64 261.13 174.64 261.21 174.64 261.3 174.65 261.38 174.65 261.46 174.65 261.54 174.66 261.62 174.66 261.7 174.66 261.78 174.67 261.86 174.67 261.94 174.67 262.02 174.67 262.11 174.68 262.19 174.68 262.27 174.68 262.35 174.68 262.43 174.68 262.51 174.69 262.59 174.69 262.67 174.69 262.75 174.69 262.84 174.69 262.92 174.7 263 174.7 263.08 174.7 263.16 174.7 263.24 174.7 263.32 174.7 263.4 174.71 263.48 174.71 263.56 174.71 263.65 174.71 263.73 174.71 263.81 174.71 263.89 174.71 263.97 174.72 264.05 174.72 264.13 174.72 264.21 174.72 264.29 174.72 264.38 174.72 264.46 174.72 264.54 174.72 264.62 174.72 264.7 174.72 264.78 174.72 264.86 174.73 264.94 174.73 265.02 174.73 265.11 174.73 265.19 174.73 265.27 174.73 265.35 174.73 265.43 174.73 265.51 174.73 265.59 174.73 265.67 174.73 265.75 174.73 265.83 174.73 265.92 174.73 266 174.73 266.08 174.73 266.16 174.73 266.24 174.73 266.32 174.73 266.4 174.73 266.48 174.73 266.56 174.74 266.65 174.74 266.73 174.74 266.81 174.74 266.89 174.74 266.97 174.74 267.05 174.74 267.13 174.74 267.21 174.74 267.29 174.74 267.37 174.74 267.46 174.74 267.54 174.74 267.62 174.74 267.7 174.74 267.78 174.74 267.86 174.74 267.94 174.74 268.02 174.74 268.1 174.74 268.19 174.74 268.27 174.74 268.35 174.74 268.43 174.74 268.51 174.74 268.59 174.74 268.67 174.74 268.75 174.74 268.83 174.74 268.91 174.74 269 174.74 269.08 174.74 269.16 174.74 269.24 174.74 269.32 174.74 269.4 174.74 269.48 174.74 269.56 174.74 269.64 174.74 269.73 174.74 269.81 174.74 269.89 174.74 269.97 174.74 270.05 174.74 270.13 174.74 270.21 174.74 270.29 174.74 270.37 174.74 270.45 174.74 270.54 174.74 270.62 174.74 270.7 174.74"/>
      </g>
      <g stroke-width="0.3" fill="#000000" fill-opacity="0.000" class="geometry" stroke-dasharray="none" stroke="#0000FF" id="img-8a9f4e19-15">
        <path fill="none" d="M119.2,174.74 L 119.27 174.74 119.34 174.74 119.41 174.74 119.48 174.74 119.55 174.74 119.62 174.74 119.69 174.74 119.76 174.74 119.83 174.74 119.9 174.74 119.97 174.74 120.04 174.74 120.11 174.74 120.18 174.74 120.25 174.74 120.32 174.74 120.39 174.74 120.46 174.74 120.53 174.74 120.6 174.74 120.67 174.74 120.74 174.74 120.81 174.74 120.88 174.74 120.95 174.74 121.03 174.74 121.1 174.74 121.17 174.74 121.24 174.74 121.31 174.74 121.38 174.74 121.45 174.74 121.52 174.74 121.59 174.74 121.66 174.74 121.73 174.74 121.8 174.74 121.87 174.74 121.94 174.74 122.01 174.74 122.08 174.74 122.15 174.74 122.22 174.74 122.29 174.74 122.36 174.74 122.43 174.74 122.5 174.74 122.57 174.73 122.64 174.73 122.71 174.73 122.78 174.73 122.85 174.73 122.92 174.73 122.99 174.73 123.06 174.73 123.14 174.73 123.21 174.73 123.28 174.73 123.35 174.73 123.42 174.73 123.49 174.73 123.56 174.73 123.63 174.73 123.7 174.73 123.77 174.73 123.84 174.73 123.91 174.73 123.98 174.72 124.05 174.72 124.12 174.72 124.19 174.72 124.26 174.72 124.33 174.72 124.4 174.72 124.47 174.72 124.54 174.72 124.61 174.72 124.68 174.71 124.75 174.71 124.82 174.71 124.89 174.71 124.96 174.71 125.03 174.71 125.1 174.71 125.17 174.7 125.25 174.7 125.32 174.7 125.39 174.7 125.46 174.7 125.53 174.7 125.6 174.69 125.67 174.69 125.74 174.69 125.81 174.69 125.88 174.68 125.95 174.68 126.02 174.68 126.09 174.68 126.16 174.67 126.23 174.67 126.3 174.67 126.37 174.67 126.44 174.66 126.51 174.66 126.58 174.66 126.65 174.65 126.72 174.65 126.79 174.64 126.86 174.64 126.93 174.64 127 174.63 127.07 174.63 127.14 174.62 127.21 174.62 127.28 174.61 127.36 174.61 127.43 174.6 127.5 174.6 127.57 174.59 127.64 174.59 127.71 174.58 127.78 174.58 127.85 174.57 127.92 174.57 127.99 174.56 128.06 174.55 128.13 174.55 128.2 174.54 128.27 174.53 128.34 174.52 128.41 174.52 128.48 174.51 128.55 174.5 128.62 174.49 128.69 174.49 128.76 174.48 128.83 174.47 128.9 174.46 128.97 174.45 129.04 174.44 129.11 174.43 129.18 174.42 129.25 174.41 129.32 174.4 129.39 174.39 129.46 174.38 129.54 174.37 129.61 174.36 129.68 174.35 129.75 174.34 129.82 174.32 129.89 174.31 129.96 174.3 130.03 174.29 130.1 174.27 130.17 174.26 130.24 174.25 130.31 174.23 130.38 174.22 130.45 174.21 130.52 174.19 130.59 174.18 130.66 174.16 130.73 174.15 130.8 174.13 130.87 174.12 130.94 174.1 131.01 174.09 131.08 174.07 131.15 174.05 131.22 174.04 131.29 174.02 131.36 174 131.43 173.98 131.5 173.97 131.57 173.95 131.65 173.93 131.72 173.91 131.79 173.9 131.86 173.88 131.93 173.86 132 173.84 132.07 173.82 132.14 173.8 132.21 173.78 132.28 173.76 132.35 173.74 132.42 173.72 132.49 173.7 132.56 173.68 132.63 173.66 132.7 173.64 132.77 173.62 132.84 173.6 132.91 173.57 132.98 173.55 133.05 173.53 133.12 173.51 133.19 173.49 133.26 173.46 133.33 173.44 133.4 173.42 133.47 173.4 133.54 173.37 133.61 173.35 133.68 173.33 133.76 173.3 133.83 173.28 133.9 173.26 133.97 173.23 134.04 173.21 134.11 173.19 134.18 173.16 134.25 173.14 134.32 173.11 134.39 173.09 134.46 173.07 134.53 173.04 134.6 173.02 134.67 172.99 134.74 172.97 134.81 172.94 134.88 172.92 134.95 172.89 135.02 172.87 135.09 172.84 135.16 172.82 135.23 172.79 135.3 172.77 135.37 172.74 135.44 172.72 135.51 172.69 135.58 172.66 135.65 172.64 135.72 172.61 135.79 172.58 135.87 172.56 135.94 172.53 136.01 172.5 136.08 172.48 136.15 172.45 136.22 172.42 136.29 172.4 136.36 172.37 136.43 172.34 136.5 172.31 136.57 172.29 136.64 172.26 136.71 172.23 136.78 172.2 136.85 172.17 136.92 172.14 136.99 172.11 137.06 172.08 137.13 172.06 137.2 172.03 137.27 172 137.34 171.97 137.41 171.93 137.48 171.9 137.55 171.87 137.62 171.84 137.69 171.81 137.76 171.78 137.83 171.75 137.9 171.71 137.97 171.68 138.05 171.65 138.12 171.61 138.19 171.58 138.26 171.55 138.33 171.51 138.4 171.48 138.47 171.44 138.54 171.41 138.61 171.37 138.68 171.33 138.75 171.3 138.82 171.26 138.89 171.22 138.96 171.18 139.03 171.15 139.1 171.11 139.17 171.07 139.24 171.03 139.31 170.99 139.38 170.95 139.45 170.91 139.52 170.86 139.59 170.82 139.66 170.78 139.73 170.74 139.8 170.7 139.87 170.65 139.94 170.61 140.01 170.56 140.08 170.52 140.16 170.47 140.23 170.43 140.3 170.38 140.37 170.33 140.44 170.29 140.51 170.24 140.58 170.19 140.65 170.14 140.72 170.1 140.79 170.05 140.86 170 140.93 169.95 141 169.9 141.07 169.85 141.14 169.8 141.21 169.75 141.28 169.69 141.35 169.64 141.42 169.59 141.49 169.54 141.56 169.48 141.63 169.43 141.7 169.38 141.77 169.32 141.84 169.27 141.91 169.22 141.98 169.16 142.05 169.11 142.12 169.05 142.19 169 142.27 168.94 142.34 168.89 142.41 168.83 142.48 168.77 142.55 168.72 142.62 168.66 142.69 168.6 142.76 168.55 142.83 168.49 142.9 168.43 142.97 168.38 143.04 168.32 143.11 168.26 143.18 168.21 143.25 168.15 143.32 168.09 143.39 168.03 143.46 167.98 143.53 167.92 143.6 167.86 143.67 167.81 143.74 167.75 143.81 167.69 143.88 167.63 143.95 167.57 144.02 167.52 144.09 167.46 144.16 167.4 144.23 167.34 144.3 167.29 144.38 167.23 144.45 167.17 144.52 167.11 144.59 167.06 144.66 167 144.73 166.94 144.8 166.88 144.87 166.82 144.94 166.77 145.01 166.71 145.08 166.65 145.15 166.59 145.22 166.54 145.29 166.48 145.36 166.42 145.43 166.36 145.5 166.3 145.57 166.24 145.64 166.18 145.71 166.12 145.78 166.07 145.85 166.01 145.92 165.95 145.99 165.89 146.06 165.83 146.13 165.77 146.2 165.71 146.27 165.64 146.34 165.58 146.41 165.52 146.49 165.46 146.56 165.4 146.63 165.33 146.7 165.27 146.77 165.21 146.84 165.14 146.91 165.08 146.98 165.01 147.05 164.94 147.12 164.88 147.19 164.81 147.26 164.74 147.33 164.67 147.4 164.6 147.47 164.53 147.54 164.46 147.61 164.39 147.68 164.31 147.75 164.24 147.82 164.17 147.89 164.09 147.96 164.01 148.03 163.94 148.1 163.86 148.17 163.78 148.24 163.7 148.31 163.61 148.38 163.53 148.45 163.44 148.52 163.36 148.59 163.27 148.67 163.18 148.74 163.09 148.81 163 148.88 162.91 148.95 162.82 149.02 162.72 149.09 162.62 149.16 162.52 149.23 162.42 149.3 162.32 149.37 162.22 149.44 162.12 149.51 162.01 149.58 161.9 149.65 161.79 149.72 161.68 149.79 161.57 149.86 161.45 149.93 161.34 150 161.22 150.07 161.1 150.14 160.98 150.21 160.85 150.28 160.73 150.35 160.6 150.42 160.47 150.49 160.34 150.56 160.21 150.63 160.07 150.7 159.94 150.78 159.8 150.85 159.66 150.92 159.52 150.99 159.37 151.06 159.22 151.13 159.08 151.2 158.93 151.27 158.77 151.34 158.62 151.41 158.46 151.48 158.31 151.55 158.15 151.62 157.99 151.69 157.82 151.76 157.66 151.83 157.49 151.9 157.32 151.97 157.15 152.04 156.98 152.11 156.8 152.18 156.63 152.25 156.45 152.32 156.27 152.39 156.08 152.46 155.9 152.53 155.71 152.6 155.53 152.67 155.34 152.74 155.15 152.81 154.96 152.89 154.76 152.96 154.57 153.03 154.37 153.1 154.17 153.17 153.97 153.24 153.77 153.31 153.56 153.38 153.36 153.45 153.15 153.52 152.94 153.59 152.73 153.66 152.52 153.73 152.31 153.8 152.1 153.87 151.88 153.94 151.67 154.01 151.45 154.08 151.23 154.15 151.02 154.22 150.8 154.29 150.57 154.36 150.35 154.43 150.13 154.5 149.91 154.57 149.68 154.64 149.46 154.71 149.23 154.78 149 154.85 148.77 154.92 148.54 155 148.32 155.07 148.09 155.14 147.85 155.21 147.62 155.28 147.39 155.35 147.16 155.42 146.93 155.49 146.69 155.56 146.46 155.63 146.23 155.7 145.99 155.77 145.76 155.84 145.52 155.91 145.29 155.98 145.05 156.05 144.82 156.12 144.58 156.19 144.35 156.26 144.11 156.33 143.87 156.4 143.64 156.47 143.4 156.54 143.17 156.61 142.93 156.68 142.69 156.75 142.46 156.82 142.22 156.89 141.99 156.96 141.75 157.03 141.51 157.1 141.28 157.18 141.04 157.25 140.81 157.32 140.57 157.39 140.34 157.46 140.1 157.53 139.87 157.6 139.63 157.67 139.4 157.74 139.16 157.81 138.93 157.88 138.69 157.95 138.46 158.02 138.22 158.09 137.99 158.16 137.76 158.23 137.52 158.3 137.29 158.37 137.05 158.44 136.82 158.51 136.58 158.58 136.35 158.65 136.12 158.72 135.88 158.79 135.65 158.86 135.41 158.93 135.18 159 134.94 159.07 134.71 159.14 134.47 159.21 134.23 159.29 134 159.36 133.76 159.43 133.53 159.5 133.29 159.57 133.05 159.64 132.81 159.71 132.57 159.78 132.33 159.85 132.09 159.92 131.85 159.99 131.61 160.06 131.37 160.13 131.13 160.2 130.89 160.27 130.64 160.34 130.4 160.41 130.15 160.48 129.91 160.55 129.66 160.62 129.41 160.69 129.16 160.76 128.91 160.83 128.66 160.9 128.41 160.97 128.16 161.04 127.9 161.11 127.65 161.18 127.39 161.25 127.13 161.32 126.88 161.4 126.62 161.47 126.35 161.54 126.09 161.61 125.83 161.68 125.57 161.75 125.3 161.82 125.03 161.89 124.76 161.96 124.49 162.03 124.22 162.1 123.95 162.17 123.68 162.24 123.4 162.31 123.13 162.38 122.85 162.45 122.57 162.52 122.29 162.59 122.01 162.66 121.73 162.73 121.45 162.8 121.16 162.87 120.88 162.94 120.59 163.01 120.3 163.08 120.01 163.15 119.72 163.22 119.43 163.29 119.14 163.36 118.85 163.43 118.55 163.51 118.26 163.58 117.96 163.65 117.67 163.72 117.37 163.79 117.07 163.86 116.77 163.93 116.47 164 116.17 164.07 115.87 164.14 115.57 164.21 115.27 164.28 114.97 164.35 114.67 164.42 114.36 164.49 114.06 164.56 113.76 164.63 113.46 164.7 113.15 164.77 112.85 164.84 112.55 164.91 112.24 164.98 111.94 165.05 111.64 165.12 111.34 165.19 111.04 165.26 110.73 165.33 110.43 165.4 110.13 165.47 109.83 165.54 109.54 165.62 109.24 165.69 108.94 165.76 108.64 165.83 108.35 165.9 108.05 165.97 107.76 166.04 107.47 166.11 107.17 166.18 106.88 166.25 106.59 166.32 106.31 166.39 106.02 166.46 105.73 166.53 105.45 166.6 105.17 166.67 104.89 166.74 104.61 166.81 104.33 166.88 104.05 166.95 103.78 167.02 103.51 167.09 103.23 167.16 102.96 167.23 102.7 167.3 102.43 167.37 102.17 167.44 101.9 167.51 101.64 167.58 101.38 167.65 101.13 167.72 100.87 167.8 100.62 167.87 100.37 167.94 100.12 168.01 99.87 168.08 99.62 168.15 99.38 168.22 99.14 168.29 98.89 168.36 98.66 168.43 98.42 168.5 98.18 168.57 97.95 168.64 97.72 168.71 97.49 168.78 97.26 168.85 97.03 168.92 96.81 168.99 96.58 169.06 96.36 169.13 96.14 169.2 95.92 169.27 95.7 169.34 95.49 169.41 95.27 169.48 95.06 169.55 94.84 169.62 94.63 169.69 94.42 169.76 94.21 169.83 94 169.91 93.79 169.98 93.59 170.05 93.38 170.12 93.18 170.19 92.97 170.26 92.77 170.33 92.56 170.4 92.36 170.47 92.16 170.54 91.96 170.61 91.76 170.68 91.55 170.75 91.35 170.82 91.15 170.89 90.95 170.96 90.75 171.03 90.55 171.1 90.35 171.17 90.14 171.24 89.94 171.31 89.74 171.38 89.54 171.45 89.33 171.52 89.13 171.59 88.93 171.66 88.72 171.73 88.52 171.8 88.31 171.87 88.1 171.94 87.9 172.02 87.69 172.09 87.48 172.16 87.27 172.23 87.05 172.3 86.84 172.37 86.63 172.44 86.41 172.51 86.2 172.58 85.98 172.65 85.76 172.72 85.54 172.79 85.32 172.86 85.1 172.93 84.87 173 84.65 173.07 84.42 173.14 84.19 173.21 83.96 173.28 83.73 173.35 83.5 173.42 83.26 173.49 83.03 173.56 82.79 173.63 82.55 173.7 82.31 173.77 82.07 173.84 81.83 173.91 81.58 173.98 81.33 174.05 81.09 174.13 80.84 174.2 80.59 174.27 80.33 174.34 80.08 174.41 79.83 174.48 79.57 174.55 79.31 174.62 79.05 174.69 78.79 174.76 78.53 174.83 78.27 174.9 78 174.97 77.74 175.04 77.47 175.11 77.21 175.18 76.94 175.25 76.67 175.32 76.4 175.39 76.13 175.46 75.85 175.53 75.58 175.6 75.31 175.67 75.03 175.74 74.76 175.81 74.48 175.88 74.21 175.95 73.93 176.02 73.65 176.09 73.37 176.16 73.1 176.23 72.82 176.31 72.54 176.38 72.26 176.45 71.98 176.52 71.7 176.59 71.42 176.66 71.14 176.73 70.86 176.8 70.58 176.87 70.3 176.94 70.02 177.01 69.75 177.08 69.47 177.15 69.19 177.22 68.91 177.29 68.63 177.36 68.36 177.43 68.08 177.5 67.8 177.57 67.53 177.64 67.25 177.71 66.98 177.78 66.7 177.85 66.43 177.92 66.16 177.99 65.88 178.06 65.61 178.13 65.34 178.2 65.07 178.27 64.8 178.34 64.54 178.42 64.27 178.49 64 178.56 63.74 178.63 63.47 178.7 63.21 178.77 62.95 178.84 62.69 178.91 62.43 178.98 62.17 179.05 61.91 179.12 61.65 179.19 61.4 179.26 61.14 179.33 60.89 179.4 60.63 179.47 60.38 179.54 60.13 179.61 59.88 179.68 59.63 179.75 59.38 179.82 59.14 179.89 58.89 179.96 58.65 180.03 58.4 180.1 58.16 180.17 57.92 180.24 57.68 180.31 57.44 180.38 57.2 180.45 56.96 180.53 56.72 180.6 56.48 180.67 56.25 180.74 56.01 180.81 55.78 180.88 55.55 180.95 55.32 181.02 55.08 181.09 54.85 181.16 54.62 181.23 54.4 181.3 54.17 181.37 53.94 181.44 53.71 181.51 53.49 181.58 53.26 181.65 53.04 181.72 52.82 181.79 52.59 181.86 52.37 181.93 52.15 182 51.93 182.07 51.71 182.14 51.49 182.21 51.27 182.28 51.06 182.35 50.84 182.42 50.63 182.49 50.41 182.56 50.2 182.64 49.98 182.71 49.77 182.78 49.56 182.85 49.35 182.92 49.14 182.99 48.93 183.06 48.72 183.13 48.51 183.2 48.31 183.27 48.1 183.34 47.9 183.41 47.69 183.48 47.49 183.55 47.29 183.62 47.09 183.69 46.89 183.76 46.7 183.83 46.5 183.9 46.31 183.97 46.11 184.04 45.92 184.11 45.73 184.18 45.54 184.25 45.36 184.32 45.17 184.39 44.99 184.46 44.81 184.53 44.63 184.6 44.45 184.67 44.27 184.74 44.1 184.82 43.93 184.89 43.76 184.96 43.59 185.03 43.42 185.1 43.26 185.17 43.1 185.24 42.94 185.31 42.79 185.38 42.63 185.45 42.48 185.52 42.33 185.59 42.19 185.66 42.05 185.73 41.91 185.8 41.77 185.87 41.64 185.94 41.51 186.01 41.38 186.08 41.26 186.15 41.14 186.22 41.02 186.29 40.91 186.36 40.8 186.43 40.69 186.5 40.59 186.57 40.49 186.64 40.4 186.71 40.3 186.78 40.22 186.85 40.13 186.93 40.05 187 39.97 187.07 39.9 187.14 39.83 187.21 39.77 187.28 39.71 187.35 39.65 187.42 39.59 187.49 39.55 187.56 39.5 187.63 39.46 187.7 39.42 187.77 39.39 187.84 39.36 187.91 39.33 187.98 39.31 188.05 39.3 188.12 39.28 188.19 39.27 188.26 39.27 188.33 39.27 188.4 39.27 188.47 39.28 188.54 39.29 188.61 39.3 188.68 39.32 188.75 39.34 188.82 39.37 188.89 39.4 188.96 39.43 189.04 39.47 189.11 39.51 189.18 39.55 189.25 39.6 189.32 39.65 189.39 39.7 189.46 39.76 189.53 39.82 189.6 39.88 189.67 39.94 189.74 40.01 189.81 40.09 189.88 40.16 189.95 40.24 190.02 40.32 190.09 40.4 190.16 40.48 190.23 40.57 190.3 40.66 190.37 40.75 190.44 40.84 190.51 40.94 190.58 41.04 190.65 41.14 190.72 41.24 190.79 41.34 190.86 41.45 190.93 41.55 191 41.66 191.07 41.77 191.15 41.88 191.22 41.99 191.29 42.1 191.36 42.21 191.43 42.33 191.5 42.44 191.57 42.56 191.64 42.67 191.71 42.79 191.78 42.91 191.85 43.03 191.92 43.14 191.99 43.26 192.06 43.38 192.13 43.5 192.2 43.62 192.27 43.74 192.34 43.86 192.41 43.98 192.48 44.1 192.55 44.22 192.62 44.33 192.69 44.45 192.76 44.57 192.83 44.69 192.9 44.81 192.97 44.92 193.04 45.04 193.11 45.16 193.18 45.27 193.26 45.39 193.33 45.51 193.4 45.62 193.47 45.73 193.54 45.85 193.61 45.96 193.68 46.07 193.75 46.19 193.82 46.3 193.89 46.41 193.96 46.52 194.03 46.63 194.1 46.74 194.17 46.85 194.24 46.96 194.31 47.07 194.38 47.18 194.45 47.28 194.52 47.39 194.59 47.5 194.66 47.61 194.73 47.72 194.8 47.82 194.87 47.93 194.94 48.04 195.01 48.15 195.08 48.26 195.15 48.36 195.22 48.47 195.29 48.58 195.36 48.69 195.44 48.8 195.51 48.91 195.58 49.02 195.65 49.13 195.72 49.25 195.79 49.36 195.86 49.47 195.93 49.59 196 49.71 196.07 49.82 196.14 49.94 196.21 50.06 196.28 50.18 196.35 50.31 196.42 50.43 196.49 50.56 196.56 50.68 196.63 50.81 196.7 50.95 196.77 51.08 196.84 51.21 196.91 51.35 196.98 51.49 197.05 51.63 197.12 51.78 197.19 51.92 197.26 52.07 197.33 52.22 197.4 52.38 197.47 52.53 197.55 52.69 197.62 52.86 197.69 53.02 197.76 53.19 197.83 53.36 197.9 53.53 197.97 53.71 198.04 53.89 198.11 54.07 198.18 54.26 198.25 54.45 198.32 54.64 198.39 54.83 198.46 55.03 198.53 55.24 198.6 55.44 198.67 55.65 198.74 55.86 198.81 56.08 198.88 56.3 198.95 56.52 199.02 56.75 199.09 56.98 199.16 57.21 199.23 57.45 199.3 57.69 199.37 57.93 199.44 58.18 199.51 58.43 199.58 58.68 199.66 58.94 199.73 59.2 199.8 59.47 199.87 59.73 199.94 60 200.01 60.28 200.08 60.55 200.15 60.84 200.22 61.12 200.29 61.41 200.36 61.7 200.43 61.99 200.5 62.28 200.57 62.58 200.64 62.88 200.71 63.19 200.78 63.5 200.85 63.81 200.92 64.12 200.99 64.43 201.06 64.75 201.13 65.07 201.2 65.39 201.27 65.72 201.34 66.04 201.41 66.37 201.48 66.7 201.55 67.04 201.62 67.37 201.69 67.71 201.77 68.05 201.84 68.39 201.91 68.73 201.98 69.07 202.05 69.42 202.12 69.76 202.19 70.11 202.26 70.46 202.33 70.81 202.4 71.16 202.47 71.51 202.54 71.86 202.61 72.21 202.68 72.57 202.75 72.92 202.82 73.28 202.89 73.63 202.96 73.99 203.03 74.35 203.1 74.7 203.17 75.06 203.24 75.42 203.31 75.77 203.38 76.13 203.45 76.49 203.52 76.84 203.59 77.2 203.66 77.56 203.73 77.91 203.8 78.27 203.87 78.62 203.95 78.98 204.02 79.33 204.09 79.69 204.16 80.04 204.23 80.39 204.3 80.74 204.37 81.1 204.44 81.45 204.51 81.8 204.58 82.14 204.65 82.49 204.72 82.84 204.79 83.18 204.86 83.53 204.93 83.87 205 84.22 205.07 84.56 205.14 84.9 205.21 85.24 205.28 85.58 205.35 85.92 205.42 86.25 205.49 86.59 205.56 86.93 205.63 87.26 205.7 87.59 205.77 87.93 205.84 88.26 205.91 88.59 205.98 88.92 206.06 89.24 206.13 89.57 206.2 89.9 206.27 90.22 206.34 90.55 206.41 90.87 206.48 91.2 206.55 91.52 206.62 91.84 206.69 92.16 206.76 92.48 206.83 92.8 206.9 93.12 206.97 93.44 207.04 93.75 207.11 94.07 207.18 94.39 207.25 94.7 207.32 95.02 207.39 95.33 207.46 95.65 207.53 95.96 207.6 96.28 207.67 96.59 207.74 96.9 207.81 97.22 207.88 97.53 207.95 97.84 208.02 98.16 208.09 98.47 208.17 98.78 208.24 99.09 208.31 99.41 208.38 99.72 208.45 100.03 208.52 100.34 208.59 100.66 208.66 100.97 208.73 101.28 208.8 101.59 208.87 101.91 208.94 102.22 209.01 102.53 209.08 102.85 209.15 103.16 209.22 103.48 209.29 103.79 209.36 104.1 209.43 104.42 209.5 104.73 209.57 105.05 209.64 105.37 209.71 105.68 209.78 106 209.85 106.31 209.92 106.63 209.99 106.95 210.06 107.26 210.13 107.58 210.2 107.9 210.28 108.21 210.35 108.53 210.42 108.85 210.49 109.17 210.56 109.49 210.63 109.8 210.7 110.12 210.77 110.44 210.84 110.76 210.91 111.07 210.98 111.39 211.05 111.71 211.12 112.03 211.19 112.34 211.26 112.66 211.33 112.98 211.4 113.29 211.47 113.61 211.54 113.93 211.61 114.24 211.68 114.55 211.75 114.87 211.82 115.18 211.89 115.5 211.96 115.81 212.03 116.12 212.1 116.43 212.17 116.74 212.24 117.05 212.31 117.36 212.39 117.67 212.46 117.97 212.53 118.28 212.6 118.58 212.67 118.89 212.74 119.19 212.81 119.49 212.88 119.79 212.95 120.09 213.02 120.39 213.09 120.68 213.16 120.98 213.23 121.27 213.3 121.56 213.37 121.85 213.44 122.14 213.51 122.43 213.58 122.72 213.65 123 213.72 123.28 213.79 123.57 213.86 123.85 213.93 124.12 214 124.4 214.07 124.67 214.14 124.95 214.21 125.22 214.28 125.48 214.35 125.75 214.42 126.02 214.49 126.28 214.57 126.54 214.64 126.8 214.71 127.06 214.78 127.31 214.85 127.57 214.92 127.82 214.99 128.07 215.06 128.32 215.13 128.56 215.2 128.81 215.27 129.05 215.34 129.29 215.41 129.53 215.48 129.76 215.55 130 215.62 130.23 215.69 130.46 215.76 130.69 215.83 130.92 215.9 131.14 215.97 131.37 216.04 131.59 216.11 131.81 216.18 132.03 216.25 132.24 216.32 132.46 216.39 132.67 216.46 132.88 216.53 133.09 216.6 133.3 216.68 133.51 216.75 133.71 216.82 133.92 216.89 134.12 216.96 134.32 217.03 134.52 217.1 134.72 217.17 134.92 217.24 135.11 217.31 135.31 217.38 135.5 217.45 135.69 217.52 135.88 217.59 136.07 217.66 136.26 217.73 136.45 217.8 136.64 217.87 136.82 217.94 137.01 218.01 137.19 218.08 137.38 218.15 137.56 218.22 137.74 218.29 137.92 218.36 138.1 218.43 138.28 218.5 138.46 218.57 138.64 218.64 138.82 218.71 139 218.79 139.18 218.86 139.35 218.93 139.53 219 139.71 219.07 139.88 219.14 140.06 219.21 140.23 219.28 140.41 219.35 140.59 219.42 140.76 219.49 140.94 219.56 141.11 219.63 141.28 219.7 141.46 219.77 141.63 219.84 141.81 219.91 141.98 219.98 142.16 220.05 142.33 220.12 142.51 220.19 142.68 220.26 142.86 220.33 143.03 220.4 143.2 220.47 143.38 220.54 143.55 220.61 143.73 220.68 143.9 220.75 144.08 220.82 144.25 220.9 144.43 220.97 144.6 221.04 144.78 221.11 144.96 221.18 145.13 221.25 145.31 221.32 145.48 221.39 145.66 221.46 145.83 221.53 146.01 221.6 146.19 221.67 146.36 221.74 146.54 221.81 146.71 221.88 146.89 221.95 147.06 222.02 147.24 222.09 147.42 222.16 147.59 222.23 147.77 222.3 147.94 222.37 148.12 222.44 148.29 222.51 148.47 222.58 148.64 222.65 148.82 222.72 148.99 222.79 149.16 222.86 149.34 222.93 149.51 223 149.68 223.08 149.86 223.15 150.03 223.22 150.2 223.29 150.37 223.36 150.54 223.43 150.71 223.5 150.88 223.57 151.05 223.64 151.22 223.71 151.39 223.78 151.56 223.85 151.72 223.92 151.89 223.99 152.06 224.06 152.22 224.13 152.39 224.2 152.55 224.27 152.71 224.34 152.88 224.41 153.04 224.48 153.2 224.55 153.36 224.62 153.52 224.69 153.68 224.76 153.83 224.83 153.99 224.9 154.15 224.97 154.3 225.04 154.45 225.11 154.61 225.19 154.76 225.26 154.91 225.33 155.06 225.4 155.21 225.47 155.36 225.54 155.51 225.61 155.65 225.68 155.8 225.75 155.94 225.82 156.09 225.89 156.23 225.96 156.37 226.03 156.51 226.1 156.65 226.17 156.79 226.24 156.93 226.31 157.06 226.38 157.2 226.45 157.33 226.52 157.47 226.59 157.6 226.66 157.73 226.73 157.86 226.8 157.99 226.87 158.12 226.94 158.25 227.01 158.37 227.08 158.5 227.15 158.63 227.22 158.75 227.3 158.87 227.37 158.99 227.44 159.11 227.51 159.23 227.58 159.35 227.65 159.47 227.72 159.59 227.79 159.71 227.86 159.82 227.93 159.94 228 160.05 228.07 160.16 228.14 160.28 228.21 160.39 228.28 160.5 228.35 160.61 228.42 160.72 228.49 160.82 228.56 160.93 228.63 161.04 228.7 161.14 228.77 161.25 228.84 161.35 228.91 161.46 228.98 161.56 229.05 161.66 229.12 161.76 229.19 161.86 229.26 161.96 229.33 162.06 229.41 162.16 229.48 162.26 229.55 162.36 229.62 162.45 229.69 162.55 229.76 162.65 229.83 162.74 229.9 162.84 229.97 162.93 230.04 163.02 230.11 163.12 230.18 163.21 230.25 163.3 230.32 163.39 230.39 163.48 230.46 163.57 230.53 163.66 230.6 163.75 230.67 163.84 230.74 163.93 230.81 164.02 230.88 164.1 230.95 164.19 231.02 164.28 231.09 164.36 231.16 164.45 231.23 164.53 231.3 164.62 231.37 164.7 231.44 164.79 231.51 164.87 231.59 164.95 231.66 165.04 231.73 165.12 231.8 165.2 231.87 165.28 231.94 165.36 232.01 165.44 232.08 165.52 232.15 165.6 232.22 165.68 232.29 165.76 232.36 165.84 232.43 165.92 232.5 166 232.57 166.08 232.64 166.15 232.71 166.23 232.78 166.31 232.85 166.38 232.92 166.46 232.99 166.54 233.06 166.61 233.13 166.69 233.2 166.76 233.27 166.83 233.34 166.91 233.41 166.98 233.48 167.05 233.55 167.13 233.62 167.2 233.7 167.27 233.77 167.34 233.84 167.41 233.91 167.48 233.98 167.56 234.05 167.63 234.12 167.69 234.19 167.76 234.26 167.83 234.33 167.9 234.4 167.97 234.47 168.04 234.54 168.1 234.61 168.17 234.68 168.24 234.75 168.3 234.82 168.37 234.89 168.43 234.96 168.5 235.03 168.56 235.1 168.63 235.17 168.69 235.24 168.75 235.31 168.82 235.38 168.88 235.45 168.94 235.52 169 235.59 169.06 235.66 169.12 235.73 169.18 235.81 169.24 235.88 169.3 235.95 169.36 236.02 169.42 236.09 169.48 236.16 169.53 236.23 169.59 236.3 169.65 236.37 169.7 236.44 169.76 236.51 169.81 236.58 169.87 236.65 169.92 236.72 169.97 236.79 170.02 236.86 170.08 236.93 170.13 237 170.18 237.07 170.23 237.14 170.28 237.21 170.33 237.28 170.38 237.35 170.43 237.42 170.48 237.49 170.53 237.56 170.57 237.63 170.62 237.7 170.67 237.77 170.71 237.84 170.76 237.92 170.8 237.99 170.85 238.06 170.89 238.13 170.93 238.2 170.98 238.27 171.02 238.34 171.06 238.41 171.1 238.48 171.14 238.55 171.18 238.62 171.22 238.69 171.26 238.76 171.3 238.83 171.34 238.9 171.38 238.97 171.42 239.04 171.45 239.11 171.49 239.18 171.53 239.25 171.56 239.32 171.6 239.39 171.63 239.46 171.67 239.53 171.7 239.6 171.74 239.67 171.77 239.74 171.8 239.81 171.83 239.88 171.87 239.95 171.9 240.03 171.93 240.1 171.96 240.17 171.99 240.24 172.02 240.31 172.05 240.38 172.08 240.45 172.11 240.52 172.14 240.59 172.16 240.66 172.19 240.73 172.22 240.8 172.24 240.87 172.27 240.94 172.3 241.01 172.32 241.08 172.35 241.15 172.37 241.22 172.4 241.29 172.42 241.36 172.45 241.43 172.47 241.5 172.49 241.57 172.52 241.64 172.54 241.71 172.56 241.78 172.58 241.85 172.61 241.92 172.63 241.99 172.65 242.06 172.67 242.13 172.69 242.21 172.71 242.28 172.73 242.35 172.75 242.42 172.77 242.49 172.79 242.56 172.81 242.63 172.83 242.7 172.85 242.77 172.87 242.84 172.88 242.91 172.9 242.98 172.92 243.05 172.94 243.12 172.95 243.19 172.97 243.26 172.99 243.33 173.01 243.4 173.02 243.47 173.04 243.54 173.05 243.61 173.07 243.68 173.09 243.75 173.1 243.82 173.12 243.89 173.13 243.96 173.15 244.03 173.16 244.1 173.18 244.17 173.19 244.24 173.21 244.32 173.22 244.39 173.24 244.46 173.25 244.53 173.26 244.6 173.28 244.67 173.29 244.74 173.31 244.81 173.32 244.88 173.33 244.95 173.35 245.02 173.36 245.09 173.37 245.16 173.39 245.23 173.4 245.3 173.41 245.37 173.42 245.44 173.44 245.51 173.45 245.58 173.46 245.65 173.48 245.72 173.49 245.79 173.5 245.86 173.51 245.93 173.52 246 173.54 246.07 173.55 246.14 173.56 246.21 173.57 246.28 173.59 246.35 173.6 246.43 173.61 246.5 173.62 246.57 173.63 246.64 173.65 246.71 173.66 246.78 173.67 246.85 173.68 246.92 173.69 246.99 173.7 247.06 173.72 247.13 173.73 247.2 173.74 247.27 173.75 247.34 173.76 247.41 173.77 247.48 173.78 247.55 173.8 247.62 173.81 247.69 173.82 247.76 173.83 247.83 173.84 247.9 173.85 247.97 173.86 248.04 173.88 248.11 173.89 248.18 173.9 248.25 173.91 248.32 173.92 248.39 173.93 248.46 173.94 248.54 173.95 248.61 173.97 248.68 173.98 248.75 173.99 248.82 174 248.89 174.01 248.96 174.02 249.03 174.03 249.1 174.04 249.17 174.05 249.24 174.06 249.31 174.07 249.38 174.08 249.45 174.1 249.52 174.11 249.59 174.12 249.66 174.13 249.73 174.14 249.8 174.15 249.87 174.16 249.94 174.17 250.01 174.18 250.08 174.19 250.15 174.2 250.22 174.21 250.29 174.22 250.36 174.23 250.43 174.24 250.5 174.25 250.57 174.26 250.64 174.27 250.72 174.27 250.79 174.28 250.86 174.29 250.93 174.3 251 174.31 251.07 174.32 251.14 174.33 251.21 174.34 251.28 174.35 251.35 174.35 251.42 174.36 251.49 174.37 251.56 174.38 251.63 174.39 251.7 174.4 251.77 174.4 251.84 174.41 251.91 174.42 251.98 174.43 252.05 174.43 252.12 174.44 252.19 174.45 252.26 174.46 252.33 174.46 252.4 174.47 252.47 174.48 252.54 174.48 252.61 174.49 252.68 174.5 252.75 174.5 252.83 174.51 252.9 174.52 252.97 174.52 253.04 174.53 253.11 174.53 253.18 174.54 253.25 174.55 253.32 174.55 253.39 174.56 253.46 174.56 253.53 174.57 253.6 174.57 253.67 174.58 253.74 174.58 253.81 174.59 253.88 174.59 253.95 174.6 254.02 174.6 254.09 174.61 254.16 174.61 254.23 174.61 254.3 174.62 254.37 174.62 254.44 174.63 254.51 174.63 254.58 174.63 254.65 174.64 254.72 174.64 254.79 174.64 254.86 174.65 254.94 174.65 255.01 174.65 255.08 174.66 255.15 174.66 255.22 174.66 255.29 174.66 255.36 174.67 255.43 174.67 255.5 174.67 255.57 174.68 255.64 174.68 255.71 174.68 255.78 174.68 255.85 174.68 255.92 174.69 255.99 174.69 256.06 174.69 256.13 174.69 256.2 174.69 256.27 174.7 256.34 174.7 256.41 174.7 256.48 174.7 256.55 174.7 256.62 174.7 256.69 174.71 256.76 174.71 256.83 174.71 256.9 174.71 256.97 174.71 257.05 174.71 257.12 174.71 257.19 174.71 257.26 174.72 257.33 174.72 257.4 174.72 257.47 174.72 257.54 174.72 257.61 174.72 257.68 174.72 257.75 174.72 257.82 174.72 257.89 174.72 257.96 174.72 258.03 174.73 258.1 174.73 258.17 174.73 258.24 174.73 258.31 174.73 258.38 174.73 258.45 174.73 258.52 174.73 258.59 174.73 258.66 174.73 258.73 174.73 258.8 174.73 258.87 174.73 258.94 174.73 259.01 174.73 259.08 174.73 259.16 174.73 259.23 174.73 259.3 174.73 259.37 174.73 259.44 174.73 259.51 174.73 259.58 174.74 259.65 174.74 259.72 174.74 259.79 174.74 259.86 174.74 259.93 174.74 260 174.74 260.07 174.74 260.14 174.74 260.21 174.74 260.28 174.74 260.35 174.74 260.42 174.74 260.49 174.74 260.56 174.74 260.63 174.74 260.7 174.74 260.77 174.74 260.84 174.74 260.91 174.74 260.98 174.74 261.05 174.74 261.12 174.74 261.19 174.74 261.26 174.74 261.34 174.74 261.41 174.74 261.48 174.74 261.55 174.74 261.62 174.74 261.69 174.74 261.76 174.74 261.83 174.74 261.9 174.74 261.97 174.74 262.04 174.74 262.11 174.74 262.18 174.74 262.25 174.74 262.32 174.74 262.39 174.74 262.46 174.74 262.53 174.74 262.6 174.74 262.67 174.74 262.74 174.74 262.81 174.74 262.88 174.74 262.95 174.74 263.02 174.74 263.09 174.74 263.16 174.74"/>
      </g>
    </g>
  </g>
</g>
  <g class="guide ylabels" font-size="4.94" font-family="'PT Sans Caption','Helvetica Neue','Helvetica',sans-serif" fill="#6C606B" id="img-8a9f4e19-16">
    <text x="28.47" y="174.74" text-anchor="end" dy="0.35em">0.000</text>
    <text x="28.47" y="135.2" text-anchor="end" dy="0.35em">0.005</text>
    <text x="28.47" y="95.66" text-anchor="end" dy="0.35em">0.010</text>
    <text x="28.47" y="56.12" text-anchor="end" dy="0.35em">0.015</text>
    <text x="28.47" y="16.58" text-anchor="end" dy="0.35em">0.020</text>
  </g>
  <g font-size="6" font-family="'PT Sans','Helvetica Neue','Helvetica',sans-serif" fill="#564A55" stroke="#000000" stroke-opacity="0.000" id="img-8a9f4e19-17">
    <text x="9.79" y="93.66" text-anchor="middle" dy="0.35em" transform="rotate(-90, 9.79, 95.66)">Density</text>
  </g>
  <g font-size="6" font-family="'PT Sans','Helvetica Neue','Helvetica',sans-serif" fill="#564A55" stroke="#000000" stroke-opacity="0.000" id="img-8a9f4e19-18">
    <text x="188.6" y="12.58" text-anchor="middle">Location estimator densities for NAB Short Horizon (Robust kurt = 2.2022522373510838) return data</text>
  </g>
</g>
<defs>
  <clipPath id="img-8a9f4e19-8">
  <path d="M29.47,14.58 L 347.74 14.58 347.74 176.74 29.47 176.74" />
</clipPath>
</defs>
</svg>
