<?xml version="1.0" encoding="UTF-8"?>
<svg xmlns="http://www.w3.org/2000/svg"
     xmlns:xlink="http://www.w3.org/1999/xlink"
     xmlns:gadfly="http://www.gadflyjl.org/ns"
     version="1.2"
     width="400mm" height="200mm" viewBox="0 0 400 200"
     stroke="none"
     fill="#000000"
     stroke-width="0.3"
     font-size="3.88"
>
<g class="plotroot xscalable yscalable" id="img-5ca5c9eb-1">
  <g font-size="6" font-family="'PT Sans','Helvetica Neue','Helvetica',sans-serif" fill="#564A55" stroke="#000000" stroke-opacity="0.000" id="img-5ca5c9eb-2">
    <text x="187.14" y="186.42" text-anchor="middle" dy="0.6em">Estimator value (basis points)</text>
  </g>
  <g class="guide xlabels" font-size="4.94" font-family="'PT Sans Caption','Helvetica Neue','Helvetica',sans-serif" fill="#6C606B" id="img-5ca5c9eb-3">
    <text x="28.55" y="177.74" text-anchor="middle" dy="0.6em">-500</text>
    <text x="134.28" y="177.74" text-anchor="middle" dy="0.6em">0</text>
    <text x="240.01" y="177.74" text-anchor="middle" dy="0.6em">500</text>
    <text x="345.74" y="177.74" text-anchor="middle" dy="0.6em">1000</text>
  </g>
  <g class="guide colorkey" id="img-5ca5c9eb-4">
    <g fill="#4C404B" font-size="4.94" font-family="'PT Sans','Helvetica Neue','Helvetica',sans-serif" id="img-5ca5c9eb-5">
      <text x="352.53" y="95.66" dy="0.35em">Mean</text>
      <text x="352.53" y="101.26" dy="0.35em">Trimmed mean (0.4)</text>
    </g>
    <g stroke="#000000" stroke-opacity="0.000" id="img-5ca5c9eb-6">
      <rect x="348.74" y="94.26" width="2.8" height="2.8" fill="#0000FF"/>
      <rect x="348.74" y="99.86" width="2.8" height="2.8" fill="#008000"/>
    </g>
    <g fill="#362A35" font-size="6" font-family="'PT Sans','Helvetica Neue','Helvetica',sans-serif" stroke="#000000" stroke-opacity="0.000" id="img-5ca5c9eb-7">
      <text x="348.74" y="90.86">Legend:</text>
    </g>
  </g>
<g clip-path="url(#img-5ca5c9eb-8)">
  <g id="img-5ca5c9eb-9">
    <g pointer-events="visible" opacity="1" fill="#000000" fill-opacity="0.000" stroke="#000000" stroke-opacity="0.000" class="guide background" id="img-5ca5c9eb-10">
      <rect x="26.55" y="14.58" width="321.19" height="162.16"/>
    </g>
    <g class="guide ygridlines xfixed" stroke-dasharray="0.5,0.5" stroke-width="0.2" stroke="#D0D0E0" id="img-5ca5c9eb-11">
      <path fill="none" d="M26.55,174.74 L 347.74 174.74"/>
      <path fill="none" d="M26.55,148.38 L 347.74 148.38"/>
      <path fill="none" d="M26.55,122.02 L 347.74 122.02"/>
      <path fill="none" d="M26.55,95.66 L 347.74 95.66"/>
      <path fill="none" d="M26.55,69.3 L 347.74 69.3"/>
      <path fill="none" d="M26.55,42.94 L 347.74 42.94"/>
      <path fill="none" d="M26.55,16.58 L 347.74 16.58"/>
    </g>
    <g class="guide xgridlines yfixed" stroke-dasharray="0.5,0.5" stroke-width="0.2" stroke="#D0D0E0" id="img-5ca5c9eb-12">
      <path fill="none" d="M28.55,14.58 L 28.55 176.74"/>
      <path fill="none" d="M134.28,14.58 L 134.28 176.74"/>
      <path fill="none" d="M240.01,14.58 L 240.01 176.74"/>
      <path fill="none" d="M345.74,14.58 L 345.74 176.74"/>
    </g>
    <g class="plotpanel" id="img-5ca5c9eb-13">
      <g stroke-width="0.3" fill="#000000" fill-opacity="0.000" class="geometry" stroke-dasharray="none" stroke="#008000" id="img-5ca5c9eb-14">
        <path fill="none" d="M128.64,174.74 L 128.65 174.74 128.65 174.74 128.66 174.74 128.66 174.74 128.67 174.74 128.68 174.74 128.68 174.74 128.69 174.74 128.69 174.74 128.7 174.74 128.71 174.74 128.71 174.74 128.72 174.74 128.72 174.74 128.73 174.74 128.74 174.74 128.74 174.74 128.75 174.74 128.76 174.74 128.76 174.74 128.77 174.74 128.77 174.74 128.78 174.74 128.79 174.74 128.79 174.74 128.8 174.74 128.8 174.74 128.81 174.74 128.82 174.74 128.82 174.74 128.83 174.74 128.83 174.74 128.84 174.74 128.85 174.74 128.85 174.74 128.86 174.74 128.86 174.74 128.87 174.74 128.88 174.73 128.88 174.73 128.89 174.73 128.89 174.73 128.9 174.73 128.91 174.73 128.91 174.73 128.92 174.73 128.92 174.73 128.93 174.73 128.94 174.73 128.94 174.73 128.95 174.73 128.96 174.73 128.96 174.73 128.97 174.73 128.97 174.73 128.98 174.73 128.99 174.73 128.99 174.72 129 174.72 129 174.72 129.01 174.72 129.02 174.72 129.02 174.72 129.03 174.72 129.03 174.72 129.04 174.72 129.05 174.72 129.05 174.71 129.06 174.71 129.06 174.71 129.07 174.71 129.08 174.71 129.08 174.71 129.09 174.71 129.09 174.7 129.1 174.7 129.11 174.7 129.11 174.7 129.12 174.7 129.12 174.69 129.13 174.69 129.14 174.69 129.14 174.69 129.15 174.69 129.15 174.68 129.16 174.68 129.17 174.68 129.17 174.67 129.18 174.67 129.19 174.67 129.19 174.66 129.2 174.66 129.2 174.66 129.21 174.65 129.22 174.65 129.22 174.65 129.23 174.64 129.23 174.64 129.24 174.63 129.25 174.63 129.25 174.62 129.26 174.62 129.26 174.61 129.27 174.61 129.28 174.6 129.28 174.6 129.29 174.59 129.29 174.59 129.3 174.58 129.31 174.57 129.31 174.57 129.32 174.56 129.32 174.55 129.33 174.55 129.34 174.54 129.34 174.53 129.35 174.52 129.35 174.52 129.36 174.51 129.37 174.5 129.37 174.49 129.38 174.48 129.38 174.47 129.39 174.46 129.4 174.45 129.4 174.44 129.41 174.43 129.42 174.42 129.42 174.41 129.43 174.4 129.43 174.39 129.44 174.38 129.45 174.36 129.45 174.35 129.46 174.34 129.46 174.33 129.47 174.31 129.48 174.3 129.48 174.28 129.49 174.27 129.49 174.26 129.5 174.24 129.51 174.23 129.51 174.21 129.52 174.19 129.52 174.18 129.53 174.16 129.54 174.14 129.54 174.13 129.55 174.11 129.55 174.09 129.56 174.07 129.57 174.05 129.57 174.04 129.58 174.02 129.58 174 129.59 173.98 129.6 173.96 129.6 173.94 129.61 173.92 129.62 173.89 129.62 173.87 129.63 173.85 129.63 173.83 129.64 173.81 129.65 173.78 129.65 173.76 129.66 173.74 129.66 173.71 129.67 173.69 129.68 173.66 129.68 173.64 129.69 173.61 129.69 173.59 129.7 173.56 129.71 173.54 129.71 173.51 129.72 173.48 129.72 173.46 129.73 173.43 129.74 173.4 129.74 173.38 129.75 173.35 129.75 173.32 129.76 173.29 129.77 173.26 129.77 173.23 129.78 173.21 129.78 173.18 129.79 173.15 129.8 173.12 129.8 173.09 129.81 173.06 129.81 173.03 129.82 173 129.83 172.97 129.83 172.94 129.84 172.91 129.85 172.87 129.85 172.84 129.86 172.81 129.86 172.78 129.87 172.75 129.88 172.72 129.88 172.68 129.89 172.65 129.89 172.62 129.9 172.59 129.91 172.56 129.91 172.52 129.92 172.49 129.92 172.46 129.93 172.43 129.94 172.39 129.94 172.36 129.95 172.33 129.95 172.29 129.96 172.26 129.97 172.23 129.97 172.2 129.98 172.16 129.98 172.13 129.99 172.1 130 172.06 130 172.03 130.01 171.99 130.01 171.96 130.02 171.93 130.03 171.89 130.03 171.86 130.04 171.83 130.04 171.79 130.05 171.76 130.06 171.72 130.06 171.69 130.07 171.65 130.08 171.62 130.08 171.59 130.09 171.55 130.09 171.52 130.1 171.48 130.11 171.45 130.11 171.41 130.12 171.38 130.12 171.34 130.13 171.3 130.14 171.27 130.14 171.23 130.15 171.2 130.15 171.16 130.16 171.12 130.17 171.09 130.17 171.05 130.18 171.01 130.18 170.98 130.19 170.94 130.2 170.9 130.2 170.86 130.21 170.82 130.21 170.78 130.22 170.75 130.23 170.71 130.23 170.67 130.24 170.63 130.24 170.59 130.25 170.54 130.26 170.5 130.26 170.46 130.27 170.42 130.28 170.38 130.28 170.33 130.29 170.29 130.29 170.25 130.3 170.2 130.31 170.16 130.31 170.11 130.32 170.07 130.32 170.02 130.33 169.97 130.34 169.93 130.34 169.88 130.35 169.83 130.35 169.78 130.36 169.73 130.37 169.68 130.37 169.63 130.38 169.58 130.38 169.52 130.39 169.47 130.4 169.42 130.4 169.36 130.41 169.31 130.41 169.25 130.42 169.2 130.43 169.14 130.43 169.08 130.44 169.02 130.44 168.96 130.45 168.9 130.46 168.84 130.46 168.78 130.47 168.72 130.47 168.66 130.48 168.59 130.49 168.53 130.49 168.46 130.5 168.4 130.51 168.33 130.51 168.26 130.52 168.2 130.52 168.13 130.53 168.06 130.54 167.99 130.54 167.91 130.55 167.84 130.55 167.77 130.56 167.7 130.57 167.62 130.57 167.55 130.58 167.47 130.58 167.39 130.59 167.31 130.6 167.24 130.6 167.16 130.61 167.08 130.61 167 130.62 166.91 130.63 166.83 130.63 166.75 130.64 166.67 130.64 166.58 130.65 166.5 130.66 166.41 130.66 166.32 130.67 166.23 130.67 166.15 130.68 166.06 130.69 165.97 130.69 165.88 130.7 165.79 130.71 165.69 130.71 165.6 130.72 165.51 130.72 165.41 130.73 165.32 130.74 165.22 130.74 165.13 130.75 165.03 130.75 164.93 130.76 164.84 130.77 164.74 130.77 164.64 130.78 164.54 130.78 164.44 130.79 164.34 130.8 164.24 130.8 164.13 130.81 164.03 130.81 163.93 130.82 163.82 130.83 163.72 130.83 163.61 130.84 163.51 130.84 163.4 130.85 163.29 130.86 163.18 130.86 163.07 130.87 162.97 130.87 162.86 130.88 162.75 130.89 162.63 130.89 162.52 130.9 162.41 130.9 162.3 130.91 162.19 130.92 162.07 130.92 161.96 130.93 161.84 130.94 161.73 130.94 161.61 130.95 161.49 130.95 161.38 130.96 161.26 130.97 161.14 130.97 161.02 130.98 160.9 130.98 160.78 130.99 160.66 131 160.54 131 160.42 131.01 160.3 131.01 160.17 131.02 160.05 131.03 159.93 131.03 159.8 131.04 159.68 131.04 159.55 131.05 159.42 131.06 159.29 131.06 159.17 131.07 159.04 131.07 158.91 131.08 158.78 131.09 158.65 131.09 158.52 131.1 158.38 131.1 158.25 131.11 158.12 131.12 157.98 131.12 157.85 131.13 157.71 131.13 157.57 131.14 157.44 131.15 157.3 131.15 157.16 131.16 157.02 131.17 156.88 131.17 156.74 131.18 156.59 131.18 156.45 131.19 156.31 131.2 156.16 131.2 156.02 131.21 155.87 131.21 155.72 131.22 155.57 131.23 155.42 131.23 155.27 131.24 155.12 131.24 154.96 131.25 154.81 131.26 154.65 131.26 154.5 131.27 154.34 131.27 154.18 131.28 154.02 131.29 153.86 131.29 153.7 131.3 153.53 131.3 153.37 131.31 153.2 131.32 153.03 131.32 152.87 131.33 152.7 131.33 152.52 131.34 152.35 131.35 152.18 131.35 152 131.36 151.82 131.37 151.64 131.37 151.46 131.38 151.28 131.38 151.1 131.39 150.91 131.4 150.72 131.4 150.54 131.41 150.34 131.41 150.15 131.42 149.96 131.43 149.76 131.43 149.57 131.44 149.37 131.44 149.17 131.45 148.96 131.46 148.76 131.46 148.55 131.47 148.34 131.47 148.13 131.48 147.92 131.49 147.71 131.49 147.49 131.5 147.27 131.5 147.05 131.51 146.83 131.52 146.61 131.52 146.38 131.53 146.15 131.53 145.92 131.54 145.69 131.55 145.46 131.55 145.22 131.56 144.98 131.56 144.74 131.57 144.5 131.58 144.25 131.58 144 131.59 143.75 131.6 143.5 131.6 143.25 131.61 142.99 131.61 142.73 131.62 142.47 131.63 142.21 131.63 141.95 131.64 141.68 131.64 141.41 131.65 141.14 131.66 140.86 131.66 140.59 131.67 140.31 131.67 140.03 131.68 139.75 131.69 139.46 131.69 139.18 131.7 138.89 131.7 138.6 131.71 138.31 131.72 138.01 131.72 137.72 131.73 137.42 131.73 137.12 131.74 136.81 131.75 136.51 131.75 136.2 131.76 135.9 131.76 135.59 131.77 135.28 131.78 134.96 131.78 134.65 131.79 134.33 131.79 134.01 131.8 133.69 131.81 133.37 131.81 133.05 131.82 132.72 131.83 132.4 131.83 132.07 131.84 131.74 131.84 131.41 131.85 131.08 131.86 130.74 131.86 130.41 131.87 130.08 131.87 129.74 131.88 129.4 131.89 129.06 131.89 128.72 131.9 128.38 131.9 128.04 131.91 127.7 131.92 127.36 131.92 127.02 131.93 126.67 131.93 126.33 131.94 125.98 131.95 125.64 131.95 125.29 131.96 124.95 131.96 124.6 131.97 124.25 131.98 123.91 131.98 123.56 131.99 123.21 131.99 122.87 132 122.52 132.01 122.17 132.01 121.83 132.02 121.48 132.03 121.14 132.03 120.79 132.04 120.45 132.04 120.1 132.05 119.76 132.06 119.42 132.06 119.08 132.07 118.74 132.07 118.39 132.08 118.06 132.09 117.72 132.09 117.38 132.1 117.04 132.1 116.71 132.11 116.37 132.12 116.04 132.12 115.71 132.13 115.38 132.13 115.05 132.14 114.73 132.15 114.4 132.15 114.08 132.16 113.75 132.16 113.43 132.17 113.11 132.18 112.8 132.18 112.48 132.19 112.17 132.19 111.86 132.2 111.55 132.21 111.24 132.21 110.94 132.22 110.64 132.22 110.34 132.23 110.04 132.24 109.74 132.24 109.45 132.25 109.16 132.26 108.87 132.26 108.58 132.27 108.3 132.27 108.01 132.28 107.74 132.29 107.46 132.29 107.18 132.3 106.91 132.3 106.64 132.31 106.38 132.32 106.11 132.32 105.85 132.33 105.59 132.33 105.34 132.34 105.09 132.35 104.83 132.35 104.59 132.36 104.34 132.36 104.1 132.37 103.86 132.38 103.62 132.38 103.39 132.39 103.16 132.39 102.93 132.4 102.7 132.41 102.47 132.41 102.25 132.42 102.03 132.42 101.82 132.43 101.6 132.44 101.39 132.44 101.18 132.45 100.98 132.45 100.77 132.46 100.57 132.47 100.37 132.47 100.18 132.48 99.98 132.49 99.79 132.49 99.6 132.5 99.41 132.5 99.23 132.51 99.04 132.52 98.86 132.52 98.68 132.53 98.5 132.53 98.33 132.54 98.15 132.55 97.98 132.55 97.81 132.56 97.64 132.56 97.47 132.57 97.31 132.58 97.14 132.58 96.98 132.59 96.82 132.59 96.66 132.6 96.5 132.61 96.34 132.61 96.18 132.62 96.03 132.62 95.87 132.63 95.72 132.64 95.57 132.64 95.41 132.65 95.26 132.65 95.11 132.66 94.96 132.67 94.81 132.67 94.66 132.68 94.51 132.69 94.36 132.69 94.22 132.7 94.07 132.7 93.92 132.71 93.77 132.72 93.62 132.72 93.48 132.73 93.33 132.73 93.18 132.74 93.03 132.75 92.88 132.75 92.73 132.76 92.59 132.76 92.44 132.77 92.29 132.78 92.13 132.78 91.98 132.79 91.83 132.79 91.68 132.8 91.52 132.81 91.37 132.81 91.21 132.82 91.06 132.82 90.9 132.83 90.74 132.84 90.58 132.84 90.42 132.85 90.26 132.85 90.1 132.86 89.94 132.87 89.77 132.87 89.61 132.88 89.44 132.88 89.27 132.89 89.1 132.9 88.93 132.9 88.76 132.91 88.58 132.92 88.41 132.92 88.23 132.93 88.05 132.93 87.87 132.94 87.69 132.95 87.51 132.95 87.32 132.96 87.14 132.96 86.95 132.97 86.76 132.98 86.57 132.98 86.38 132.99 86.19 132.99 85.99 133 85.79 133.01 85.59 133.01 85.39 133.02 85.19 133.02 84.99 133.03 84.78 133.04 84.58 133.04 84.37 133.05 84.16 133.05 83.95 133.06 83.73 133.07 83.52 133.07 83.3 133.08 83.08 133.08 82.86 133.09 82.64 133.1 82.42 133.1 82.19 133.11 81.96 133.11 81.74 133.12 81.51 133.13 81.27 133.13 81.04 133.14 80.8 133.15 80.57 133.15 80.33 133.16 80.09 133.16 79.85 133.17 79.6 133.18 79.36 133.18 79.11 133.19 78.86 133.19 78.61 133.2 78.36 133.21 78.11 133.21 77.85 133.22 77.6 133.22 77.34 133.23 77.08 133.24 76.82 133.24 76.56 133.25 76.29 133.25 76.03 133.26 75.76 133.27 75.49 133.27 75.22 133.28 74.95 133.28 74.67 133.29 74.4 133.3 74.12 133.3 73.84 133.31 73.57 133.31 73.28 133.32 73 133.33 72.72 133.33 72.43 133.34 72.15 133.35 71.86 133.35 71.57 133.36 71.28 133.36 70.98 133.37 70.69 133.38 70.4 133.38 70.1 133.39 69.8 133.39 69.5 133.4 69.2 133.41 68.9 133.41 68.6 133.42 68.3 133.42 67.99 133.43 67.68 133.44 67.38 133.44 67.07 133.45 66.76 133.45 66.45 133.46 66.14 133.47 65.83 133.47 65.51 133.48 65.2 133.48 64.89 133.49 64.57 133.5 64.25 133.5 63.94 133.51 63.62 133.51 63.3 133.52 62.98 133.53 62.66 133.53 62.34 133.54 62.02 133.54 61.7 133.55 61.38 133.56 61.06 133.56 60.74 133.57 60.42 133.58 60.09 133.58 59.77 133.59 59.45 133.59 59.13 133.6 58.81 133.61 58.48 133.61 58.16 133.62 57.84 133.62 57.52 133.63 57.2 133.64 56.88 133.64 56.56 133.65 56.24 133.65 55.92 133.66 55.6 133.67 55.29 133.67 54.97 133.68 54.65 133.68 54.34 133.69 54.03 133.7 53.71 133.7 53.4 133.71 53.09 133.71 52.78 133.72 52.47 133.73 52.17 133.73 51.86 133.74 51.56 133.74 51.26 133.75 50.95 133.76 50.66 133.76 50.36 133.77 50.06 133.78 49.77 133.78 49.48 133.79 49.19 133.79 48.9 133.8 48.61 133.81 48.33 133.81 48.05 133.82 47.77 133.82 47.49 133.83 47.22 133.84 46.95 133.84 46.68 133.85 46.41 133.85 46.14 133.86 45.88 133.87 45.62 133.87 45.36 133.88 45.11 133.88 44.86 133.89 44.61 133.9 44.36 133.9 44.12 133.91 43.88 133.91 43.64 133.92 43.41 133.93 43.17 133.93 42.95 133.94 42.72 133.94 42.5 133.95 42.28 133.96 42.06 133.96 41.85 133.97 41.64 133.97 41.43 133.98 41.23 133.99 41.03 133.99 40.83 134 40.64 134.01 40.45 134.01 40.26 134.02 40.08 134.02 39.89 134.03 39.72 134.04 39.54 134.04 39.37 134.05 39.2 134.05 39.04 134.06 38.88 134.07 38.72 134.07 38.57 134.08 38.42 134.08 38.27 134.09 38.13 134.1 37.98 134.1 37.85 134.11 37.71 134.11 37.58 134.12 37.45 134.13 37.33 134.13 37.21 134.14 37.09 134.14 36.97 134.15 36.86 134.16 36.75 134.16 36.65 134.17 36.55 134.17 36.45 134.18 36.35 134.19 36.26 134.19 36.17 134.2 36.08 134.2 36 134.21 35.92 134.22 35.84 134.22 35.76 134.23 35.69 134.24 35.62 134.24 35.56 134.25 35.49 134.25 35.43 134.26 35.38 134.27 35.32 134.27 35.27 134.28 35.22 134.28 35.17 134.29 35.13 134.3 35.08 134.3 35.05 134.31 35.01 134.31 34.97 134.32 34.94 134.33 34.91 134.33 34.89 134.34 34.86 134.34 34.84 134.35 34.82 134.36 34.8 134.36 34.79 134.37 34.78 134.37 34.76 134.38 34.76 134.39 34.75 134.39 34.75 134.4 34.74 134.4 34.74 134.41 34.75 134.42 34.75 134.42 34.76 134.43 34.76 134.44 34.77 134.44 34.79 134.45 34.8 134.45 34.82 134.46 34.83 134.47 34.85 134.47 34.88 134.48 34.9 134.48 34.92 134.49 34.95 134.5 34.98 134.5 35.01 134.51 35.04 134.51 35.08 134.52 35.11 134.53 35.15 134.53 35.19 134.54 35.23 134.54 35.28 134.55 35.32 134.56 35.37 134.56 35.42 134.57 35.47 134.57 35.52 134.58 35.57 134.59 35.63 134.59 35.68 134.6 35.74 134.6 35.8 134.61 35.87 134.62 35.93 134.62 36 134.63 36.06 134.63 36.13 134.64 36.21 134.65 36.28 134.65 36.35 134.66 36.43 134.67 36.51 134.67 36.59 134.68 36.67 134.68 36.76 134.69 36.85 134.7 36.94 134.7 37.03 134.71 37.12 134.71 37.21 134.72 37.31 134.73 37.41 134.73 37.51 134.74 37.62 134.74 37.72 134.75 37.83 134.76 37.94 134.76 38.06 134.77 38.17 134.77 38.29 134.78 38.41 134.79 38.53 134.79 38.66 134.8 38.78 134.8 38.91 134.81 39.05 134.82 39.18 134.82 39.32 134.83 39.46 134.83 39.6 134.84 39.75 134.85 39.9 134.85 40.05 134.86 40.21 134.86 40.36 134.87 40.52 134.88 40.69 134.88 40.85 134.89 41.02 134.9 41.19 134.9 41.37 134.91 41.54 134.91 41.73 134.92 41.91 134.93 42.1 134.93 42.29 134.94 42.48 134.94 42.68 134.95 42.88 134.96 43.08 134.96 43.28 134.97 43.49 134.97 43.71 134.98 43.92 134.99 44.14 134.99 44.36 135 44.59 135 44.81 135.01 45.05 135.02 45.28 135.02 45.52 135.03 45.76 135.03 46 135.04 46.25 135.05 46.5 135.05 46.75 135.06 47.01 135.06 47.27 135.07 47.53 135.08 47.8 135.08 48.07 135.09 48.34 135.1 48.62 135.1 48.9 135.11 49.18 135.11 49.46 135.12 49.75 135.13 50.04 135.13 50.33 135.14 50.63 135.14 50.93 135.15 51.23 135.16 51.53 135.16 51.84 135.17 52.15 135.17 52.46 135.18 52.77 135.19 53.09 135.19 53.41 135.2 53.73 135.2 54.05 135.21 54.38 135.22 54.71 135.22 55.04 135.23 55.37 135.23 55.71 135.24 56.04 135.25 56.38 135.25 56.72 135.26 57.06 135.26 57.41 135.27 57.75 135.28 58.1 135.28 58.45 135.29 58.8 135.29 59.15 135.3 59.5 135.31 59.86 135.31 60.21 135.32 60.57 135.33 60.93 135.33 61.28 135.34 61.64 135.34 62.01 135.35 62.37 135.36 62.73 135.36 63.09 135.37 63.46 135.37 63.82 135.38 64.19 135.39 64.55 135.39 64.92 135.4 65.28 135.4 65.65 135.41 66.02 135.42 66.38 135.42 66.75 135.43 67.12 135.43 67.49 135.44 67.85 135.45 68.22 135.45 68.59 135.46 68.96 135.46 69.32 135.47 69.69 135.48 70.06 135.48 70.42 135.49 70.79 135.49 71.16 135.5 71.52 135.51 71.89 135.51 72.25 135.52 72.61 135.52 72.98 135.53 73.34 135.54 73.7 135.54 74.06 135.55 74.42 135.56 74.78 135.56 75.14 135.57 75.5 135.57 75.86 135.58 76.22 135.59 76.57 135.59 76.93 135.6 77.28 135.6 77.64 135.61 77.99 135.62 78.34 135.62 78.69 135.63 79.04 135.63 79.39 135.64 79.74 135.65 80.09 135.65 80.44 135.66 80.78 135.66 81.12 135.67 81.47 135.68 81.81 135.68 82.15 135.69 82.49 135.69 82.83 135.7 83.17 135.71 83.5 135.71 83.84 135.72 84.17 135.72 84.51 135.73 84.84 135.74 85.17 135.74 85.5 135.75 85.83 135.76 86.16 135.76 86.49 135.77 86.81 135.77 87.14 135.78 87.46 135.79 87.78 135.79 88.1 135.8 88.42 135.8 88.74 135.81 89.06 135.82 89.37 135.82 89.69 135.83 90 135.83 90.31 135.84 90.62 135.85 90.93 135.85 91.24 135.86 91.54 135.86 91.85 135.87 92.15 135.88 92.46 135.88 92.76 135.89 93.06 135.89 93.36 135.9 93.65 135.91 93.95 135.91 94.24 135.92 94.53 135.92 94.83 135.93 95.12 135.94 95.4 135.94 95.69 135.95 95.97 135.95 96.26 135.96 96.54 135.97 96.82 135.97 97.1 135.98 97.38 135.99 97.65 135.99 97.93 136 98.2 136 98.47 136.01 98.74 136.02 99 136.02 99.27 136.03 99.53 136.03 99.79 136.04 100.05 136.05 100.31 136.05 100.57 136.06 100.82 136.06 101.08 136.07 101.33 136.08 101.58 136.08 101.82 136.09 102.07 136.09 102.31 136.1 102.56 136.11 102.8 136.11 103.03 136.12 103.27 136.12 103.51 136.13 103.74 136.14 103.97 136.14 104.2 136.15 104.43 136.15 104.65 136.16 104.87 136.17 105.1 136.17 105.32 136.18 105.53 136.18 105.75 136.19 105.96 136.2 106.18 136.2 106.39 136.21 106.6 136.22 106.8 136.22 107.01 136.23 107.21 136.23 107.41 136.24 107.61 136.25 107.81 136.25 108.01 136.26 108.2 136.26 108.39 136.27 108.59 136.28 108.78 136.28 108.96 136.29 109.15 136.29 109.33 136.3 109.52 136.31 109.7 136.31 109.88 136.32 110.06 136.32 110.24 136.33 110.41 136.34 110.59 136.34 110.76 136.35 110.93 136.35 111.1 136.36 111.27 136.37 111.44 136.37 111.61 136.38 111.77 136.38 111.94 136.39 112.1 136.4 112.26 136.4 112.42 136.41 112.59 136.42 112.74 136.42 112.9 136.43 113.06 136.43 113.22 136.44 113.37 136.45 113.53 136.45 113.68 136.46 113.84 136.46 113.99 136.47 114.14 136.48 114.3 136.48 114.45 136.49 114.6 136.49 114.75 136.5 114.9 136.51 115.05 136.51 115.2 136.52 115.35 136.52 115.5 136.53 115.65 136.54 115.8 136.54 115.95 136.55 116.1 136.55 116.25 136.56 116.4 136.57 116.55 136.57 116.7 136.58 116.86 136.58 117.01 136.59 117.16 136.6 117.31 136.6 117.46 136.61 117.62 136.61 117.77 136.62 117.92 136.63 118.08 136.63 118.24 136.64 118.39 136.65 118.55 136.65 118.71 136.66 118.87 136.66 119.03 136.67 119.19 136.68 119.35 136.68 119.52 136.69 119.68 136.69 119.85 136.7 120.02 136.71 120.19 136.71 120.36 136.72 120.53 136.72 120.7 136.73 120.88 136.74 121.05 136.74 121.23 136.75 121.41 136.75 121.59 136.76 121.77 136.77 121.96 136.77 122.14 136.78 122.33 136.78 122.52 136.79 122.71 136.8 122.91 136.8 123.1 136.81 123.3 136.81 123.5 136.82 123.7 136.83 123.9 136.83 124.11 136.84 124.32 136.84 124.53 136.85 124.74 136.86 124.95 136.86 125.17 136.87 125.38 136.88 125.6 136.88 125.83 136.89 126.05 136.89 126.27 136.9 126.5 136.91 126.73 136.91 126.96 136.92 127.2 136.92 127.43 136.93 127.67 136.94 127.91 136.94 128.16 136.95 128.4 136.95 128.65 136.96 128.89 136.97 129.14 136.97 129.4 136.98 129.65 136.98 129.9 136.99 130.16 137 130.42 137 130.68 137.01 130.94 137.01 131.21 137.02 131.47 137.03 131.74 137.03 132.01 137.04 132.28 137.04 132.55 137.05 132.83 137.06 133.1 137.06 133.38 137.07 133.65 137.08 133.93 137.08 134.21 137.09 134.49 137.09 134.77 137.1 135.06 137.11 135.34 137.11 135.62 137.12 135.91 137.12 136.19 137.13 136.48 137.14 136.77 137.14 137.05 137.15 137.34 137.15 137.63 137.16 137.92 137.17 138.21 137.17 138.5 137.18 138.78 137.18 139.07 137.19 139.36 137.2 139.65 137.2 139.94 137.21 140.23 137.21 140.51 137.22 140.8 137.23 141.09 137.23 141.37 137.24 141.66 137.24 141.94 137.25 142.23 137.26 142.51 137.26 142.79 137.27 143.08 137.27 143.36 137.28 143.63 137.29 143.91 137.29 144.19 137.3 144.46 137.31 144.74 137.31 145.01 137.32 145.28 137.32 145.55 137.33 145.82 137.34 146.08 137.34 146.35 137.35 146.61 137.35 146.87 137.36 147.13 137.37 147.39 137.37 147.64 137.38 147.89 137.38 148.14 137.39 148.39 137.4 148.64 137.4 148.88 137.41 149.12 137.41 149.36 137.42 149.6 137.43 149.83 137.43 150.07 137.44 150.3 137.44 150.52 137.45 150.75 137.46 150.97 137.46 151.19 137.47 151.4 137.47 151.62 137.48 151.83 137.49 152.04 137.49 152.24 137.5 152.45 137.51 152.65 137.51 152.84 137.52 153.04 137.52 153.23 137.53 153.42 137.54 153.61 137.54 153.79 137.55 153.97 137.55 154.15 137.56 154.32 137.57 154.5 137.57 154.67 137.58 154.83 137.58 155 137.59 155.16 137.6 155.32 137.6 155.47 137.61 155.63 137.61 155.78 137.62 155.92 137.63 156.07 137.63 156.21 137.64 156.35 137.64 156.49 137.65 156.62 137.66 156.76 137.66 156.88 137.67 157.01 137.67 157.14 137.68 157.26 137.69 157.38 137.69 157.5 137.7 157.61 137.7 157.72 137.71 157.84 137.72 157.94 137.72 158.05 137.73 158.15 137.74 158.26 137.74 158.36 137.75 158.46 137.75 158.55 137.76 158.65 137.77 158.74 137.77 158.83 137.78 158.92 137.78 159.01 137.79 159.09 137.8 159.18 137.8 159.26 137.81 159.34 137.81 159.42 137.82 159.5 137.83 159.57 137.83 159.65 137.84 159.72 137.84 159.8 137.85 159.87 137.86 159.94 137.86 160.01 137.87 160.08 137.87 160.14 137.88 160.21 137.89 160.28 137.89 160.34 137.9 160.41 137.9 160.47 137.91 160.53 137.92 160.6 137.92 160.66 137.93 160.72 137.93 160.78 137.94 160.84 137.95 160.9 137.95 160.96 137.96 161.02 137.97 161.08 137.97 161.14 137.98 161.2 137.98 161.26 137.99 161.32 138 161.38 138 161.44 138.01 161.5 138.01 161.56 138.02 161.62 138.03 161.68 138.03 161.74 138.04 161.8 138.04 161.86 138.05 161.92 138.06 161.98 138.06 162.04 138.07 162.11 138.07 162.17 138.08 162.23 138.09 162.29 138.09 162.36 138.1 162.42 138.1 162.49 138.11 162.55 138.12 162.62 138.12 162.69 138.13 162.75 138.13 162.82 138.14 162.89 138.15 162.96 138.15 163.03 138.16 163.1 138.17 163.17 138.17 163.24 138.18 163.31 138.18 163.39 138.19 163.46 138.2 163.54 138.2 163.61 138.21 163.69 138.21 163.76 138.22 163.84 138.23 163.92 138.23 163.99 138.24 164.07 138.24 164.15 138.25 164.23 138.26 164.31 138.26 164.39 138.27 164.47 138.27 164.56 138.28 164.64 138.29 164.72 138.29 164.81 138.3 164.89 138.3 164.97 138.31 165.06 138.32 165.14 138.32 165.23 138.33 165.31 138.33 165.4 138.34 165.49 138.35 165.57 138.35 165.66 138.36 165.75 138.36 165.83 138.37 165.92 138.38 166.01 138.38 166.09 138.39 166.18 138.4 166.27 138.4 166.36 138.41 166.44 138.41 166.53 138.42 166.62 138.43 166.7 138.43 166.79 138.44 166.88 138.44 166.96 138.45 167.05 138.46 167.14 138.46 167.22 138.47 167.31 138.47 167.39 138.48 167.48 138.49 167.56 138.49 167.64 138.5 167.73 138.5 167.81 138.51 167.89 138.52 167.97 138.52 168.05 138.53 168.13 138.53 168.21 138.54 168.29 138.55 168.37 138.55 168.45 138.56 168.53 138.56 168.6 138.57 168.68 138.58 168.75 138.58 168.83 138.59 168.9 138.59 168.97 138.6 169.04 138.61 169.12 138.61 169.19 138.62 169.25 138.63 169.32 138.63 169.39 138.64 169.46 138.64 169.52 138.65 169.59 138.66 169.65 138.66 169.71 138.67 169.78 138.67 169.84 138.68 169.9 138.69 169.96 138.69 170.02 138.7 170.07 138.7 170.13 138.71 170.18 138.72 170.24 138.72 170.29 138.73 170.35 138.73 170.4 138.74 170.45 138.75 170.5 138.75 170.55 138.76 170.59 138.76 170.64 138.77 170.69 138.78 170.73 138.78 170.78 138.79 170.82 138.79 170.86 138.8 170.9 138.81 170.95 138.81 170.99 138.82 171.02 138.83 171.06 138.83 171.1 138.84 171.14 138.84 171.17 138.85 171.21 138.86 171.24 138.86 171.27 138.87 171.31 138.87 171.34 138.88 171.37 138.89 171.4 138.89 171.43 138.9 171.46 138.9 171.48 138.91 171.51 138.92 171.54 138.92 171.56 138.93 171.59 138.93 171.61 138.94 171.63 138.95 171.66 138.95 171.68 138.96 171.7 138.96 171.72 138.97 171.74 138.98 171.76 138.98 171.78 138.99 171.8 138.99 171.82 139 171.84 139.01 171.86 139.01 171.87 139.02 171.89 139.02 171.9 139.03 171.92 139.04 171.93 139.04 171.95 139.05 171.96 139.06 171.98 139.06 171.99 139.07 172 139.07 172.01 139.08 172.02 139.09 172.04 139.09 172.05 139.1 172.06 139.1 172.07 139.11 172.08 139.12 172.09 139.12 172.1 139.13 172.11 139.13 172.12 139.14 172.12 139.15 172.13 139.15 172.14 139.16 172.15 139.16 172.16 139.17 172.16 139.18 172.17 139.18 172.18 139.19 172.18 139.19 172.19 139.2 172.2 139.21 172.2 139.21 172.21 139.22 172.22 139.22 172.22 139.23 172.23 139.24 172.23 139.24 172.24 139.25 172.24 139.25 172.25 139.26 172.25 139.27 172.26 139.27 172.26 139.28 172.27 139.29 172.27 139.29 172.28 139.3 172.28 139.3 172.29 139.31 172.29 139.32 172.3 139.32 172.3 139.33 172.31 139.33 172.32 139.34 172.32 139.35 172.33 139.35 172.33 139.36 172.34 139.36 172.34 139.37 172.35 139.38 172.35 139.38 172.36 139.39 172.37 139.39 172.37 139.4 172.38 139.41 172.38 139.41 172.39 139.42 172.4 139.42 172.4 139.43 172.41 139.44 172.42 139.44 172.43 139.45 172.43 139.45 172.44 139.46 172.45 139.47 172.46 139.47 172.47 139.48 172.48 139.49 172.48 139.49 172.49 139.5 172.5 139.5 172.51 139.51 172.52 139.52 172.53 139.52 172.54 139.53 172.55 139.53 172.56 139.54 172.58 139.55 172.59 139.55 172.6 139.56 172.61 139.56 172.62 139.57 172.63 139.58 172.65 139.58 172.66 139.59 172.67 139.59 172.69 139.6 172.7 139.61 172.71 139.61 172.73 139.62 172.74 139.62 172.76 139.63 172.77 139.64 172.79 139.64 172.8 139.65 172.82 139.65 172.84 139.66 172.85 139.67 172.87 139.67 172.88 139.68 172.9 139.68 172.92 139.69 172.93 139.7 172.95 139.7 172.97 139.71 172.99 139.72 173.01 139.72 173.02 139.73 173.04 139.73 173.06 139.74 173.08 139.75 173.1 139.75 173.12 139.76 173.14 139.76 173.16 139.77 173.17 139.78 173.19 139.78 173.21 139.79 173.23 139.79 173.25 139.8 173.27 139.81 173.29 139.81 173.31 139.82 173.33 139.82 173.35 139.83 173.37 139.84 173.39 139.84 173.41 139.85 173.43 139.85 173.45 139.86 173.47 139.87 173.49 139.87 173.51 139.88 173.53 139.88 173.55 139.89 173.57 139.9 173.59 139.9 173.61 139.91 173.63 139.91 173.65 139.92 173.67 139.93 173.69 139.93 173.71 139.94 173.73 139.95 173.75 139.95 173.77 139.96 173.79 139.96 173.81 139.97 173.82 139.98 173.84 139.98 173.86 139.99 173.88 139.99 173.9 140 173.92 140.01 173.93 140.01 173.95 140.02 173.97 140.02 173.98 140.03 174 140.04 174.02 140.04 174.04 140.05 174.05 140.05 174.07 140.06 174.08 140.07 174.1 140.07 174.12 140.08 174.13 140.08 174.15 140.09 174.16 140.1 174.18 140.1 174.19 140.11 174.2 140.11 174.22 140.12 174.23 140.13 174.25 140.13 174.26 140.14 174.27 140.15 174.28 140.15 174.3 140.16 174.31 140.16 174.32 140.17 174.33 140.18 174.35 140.18 174.36 140.19 174.37 140.19 174.38 140.2 174.39 140.21 174.4 140.21 174.41 140.22 174.42 140.22 174.43 140.23 174.44 140.24 174.45 140.24 174.46 140.25 174.47 140.25 174.48 140.26 174.49 140.27 174.49 140.27 174.5 140.28 174.51 140.28 174.52 140.29 174.52 140.3 174.53 140.3 174.54 140.31 174.55 140.31 174.55 140.32 174.56 140.33 174.57 140.33 174.57 140.34 174.58 140.34 174.58 140.35 174.59 140.36 174.6 140.36 174.6 140.37 174.61 140.38 174.61 140.38 174.62 140.39 174.62 140.39 174.63 140.4 174.63 140.41 174.63 140.41 174.64 140.42 174.64 140.42 174.65 140.43 174.65 140.44 174.65 140.44 174.66 140.45 174.66 140.45 174.66 140.46 174.67 140.47 174.67 140.47 174.67 140.48 174.68 140.48 174.68 140.49 174.68 140.5 174.68 140.5 174.69 140.51 174.69 140.51 174.69 140.52 174.69 140.53 174.69 140.53 174.7 140.54 174.7 140.54 174.7 140.55 174.7 140.56 174.7 140.56 174.71 140.57 174.71 140.58 174.71 140.58 174.71 140.59 174.71 140.59 174.71 140.6 174.71 140.61 174.72 140.61 174.72 140.62 174.72 140.62 174.72 140.63 174.72 140.64 174.72 140.64 174.72 140.65 174.72 140.65 174.72 140.66 174.72 140.67 174.73 140.67 174.73 140.68 174.73 140.68 174.73 140.69 174.73 140.7 174.73 140.7 174.73 140.71 174.73 140.71 174.73 140.72 174.73 140.73 174.73 140.73 174.73 140.74 174.73 140.74 174.73 140.75 174.73 140.76 174.73 140.76 174.73 140.77 174.73 140.77 174.73 140.78 174.73 140.79 174.74 140.79 174.74 140.8 174.74 140.81 174.74 140.81 174.74 140.82 174.74 140.82 174.74 140.83 174.74 140.84 174.74 140.84 174.74 140.85 174.74 140.85 174.74 140.86 174.74 140.87 174.74 140.87 174.74 140.88 174.74 140.88 174.74 140.89 174.74 140.9 174.74 140.9 174.74 140.91 174.74 140.91 174.74 140.92 174.74 140.93 174.74 140.93 174.74 140.94 174.74 140.94 174.74 140.95 174.74 140.96 174.74 140.96 174.74 140.97 174.74 140.97 174.74 140.98 174.74 140.99 174.74 140.99 174.74 141 174.74 141 174.74 141.01 174.74 141.02 174.74 141.02 174.74 141.03 174.74 141.04 174.74"/>
      </g>
      <g stroke-width="0.3" fill="#000000" fill-opacity="0.000" class="geometry" stroke-dasharray="none" stroke="#0000FF" id="img-5ca5c9eb-15">
        <path fill="none" d="M43.5,174.74 L 43.62 174.74 43.74 174.74 43.87 174.74 43.99 174.74 44.11 174.74 44.23 174.74 44.35 174.74 44.48 174.74 44.6 174.74 44.72 174.74 44.84 174.74 44.96 174.74 45.09 174.74 45.21 174.73 45.33 174.73 45.45 174.73 45.57 174.73 45.7 174.73 45.82 174.72 45.94 174.72 46.06 174.71 46.18 174.71 46.31 174.7 46.43 174.69 46.55 174.69 46.67 174.68 46.79 174.67 46.92 174.66 47.04 174.65 47.16 174.64 47.28 174.63 47.4 174.62 47.53 174.61 47.65 174.6 47.77 174.59 47.89 174.58 48.01 174.57 48.14 174.56 48.26 174.56 48.38 174.55 48.5 174.55 48.62 174.55 48.75 174.54 48.87 174.54 48.99 174.54 49.11 174.54 49.23 174.54 49.36 174.54 49.48 174.54 49.6 174.53 49.72 174.53 49.84 174.52 49.97 174.51 50.09 174.5 50.21 174.49 50.33 174.47 50.45 174.45 50.58 174.43 50.7 174.41 50.82 174.39 50.94 174.37 51.06 174.34 51.19 174.32 51.31 174.3 51.43 174.27 51.55 174.25 51.67 174.23 51.8 174.21 51.92 174.19 52.04 174.18 52.16 174.16 52.28 174.15 52.41 174.14 52.53 174.13 52.65 174.12 52.77 174.11 52.89 174.11 53.02 174.1 53.14 174.1 53.26 174.09 53.38 174.09 53.5 174.09 53.63 174.08 53.75 174.08 53.87 174.07 53.99 174.07 54.11 174.06 54.24 174.06 54.36 174.05 54.48 174.05 54.6 174.04 54.72 174.04 54.85 174.04 54.97 174.03 55.09 174.03 55.21 174.04 55.33 174.04 55.46 174.05 55.58 174.05 55.7 174.06 55.82 174.07 55.94 174.09 56.07 174.1 56.19 174.11 56.31 174.13 56.43 174.14 56.55 174.15 56.68 174.17 56.8 174.18 56.92 174.19 57.04 174.21 57.16 174.22 57.29 174.23 57.41 174.25 57.53 174.26 57.65 174.28 57.77 174.29 57.9 174.31 58.02 174.33 58.14 174.35 58.26 174.37 58.38 174.39 58.51 174.41 58.63 174.43 58.75 174.45 58.87 174.47 58.99 174.49 59.12 174.51 59.24 174.53 59.36 174.54 59.48 174.55 59.6 174.56 59.73 174.57 59.85 174.58 59.97 174.58 60.09 174.58 60.21 174.58 60.34 174.58 60.46 174.58 60.58 174.58 60.7 174.57 60.82 174.57 60.95 174.56 61.07 174.56 61.19 174.56 61.31 174.56 61.43 174.56 61.56 174.56 61.68 174.56 61.8 174.57 61.92 174.57 62.04 174.58 62.17 174.59 62.29 174.59 62.41 174.6 62.53 174.61 62.65 174.63 62.78 174.64 62.9 174.65 63.02 174.66 63.14 174.67 63.26 174.68 63.39 174.68 63.51 174.69 63.63 174.7 63.75 174.71 63.87 174.71 64 174.72 64.12 174.72 64.24 174.72 64.36 174.73 64.48 174.73 64.61 174.73 64.73 174.73 64.85 174.74 64.97 174.74 65.09 174.74 65.22 174.74 65.34 174.74 65.46 174.74 65.58 174.74 65.7 174.74 65.83 174.74 65.95 174.74 66.07 174.74 66.19 174.74 66.31 174.74 66.44 174.74 66.56 174.74 66.68 174.74 66.8 174.74 66.92 174.74 67.05 174.74 67.17 174.74 67.29 174.74 67.41 174.74 67.53 174.74 67.66 174.74 67.78 174.74 67.9 174.74 68.02 174.74 68.14 174.74 68.27 174.74 68.39 174.74 68.51 174.74 68.63 174.74 68.75 174.74 68.88 174.74 69 174.74 69.12 174.74 69.24 174.74 69.36 174.74 69.49 174.74 69.61 174.74 69.73 174.74 69.85 174.74 69.97 174.74 70.1 174.74 70.22 174.74 70.34 174.74 70.46 174.74 70.58 174.74 70.71 174.74 70.83 174.74 70.95 174.74 71.07 174.74 71.19 174.74 71.32 174.74 71.44 174.74 71.56 174.74 71.68 174.74 71.8 174.74 71.93 174.74 72.05 174.74 72.17 174.74 72.29 174.74 72.41 174.74 72.54 174.74 72.66 174.74 72.78 174.74 72.9 174.74 73.02 174.74 73.15 174.74 73.27 174.74 73.39 174.74 73.51 174.74 73.63 174.74 73.76 174.74 73.88 174.74 74 174.74 74.12 174.74 74.24 174.74 74.37 174.74 74.49 174.74 74.61 174.74 74.73 174.74 74.85 174.74 74.98 174.74 75.1 174.74 75.22 174.74 75.34 174.74 75.46 174.74 75.59 174.74 75.71 174.74 75.83 174.74 75.95 174.74 76.07 174.74 76.2 174.74 76.32 174.74 76.44 174.74 76.56 174.74 76.68 174.74 76.81 174.74 76.93 174.74 77.05 174.74 77.17 174.74 77.29 174.74 77.41 174.74 77.54 174.74 77.66 174.74 77.78 174.74 77.9 174.74 78.02 174.74 78.15 174.74 78.27 174.74 78.39 174.74 78.51 174.74 78.63 174.74 78.76 174.74 78.88 174.74 79 174.74 79.12 174.74 79.24 174.74 79.37 174.74 79.49 174.73 79.61 174.73 79.73 174.73 79.85 174.72 79.98 174.72 80.1 174.71 80.22 174.71 80.34 174.7 80.46 174.69 80.59 174.68 80.71 174.66 80.83 174.65 80.95 174.63 81.07 174.6 81.2 174.58 81.32 174.55 81.44 174.52 81.56 174.48 81.68 174.45 81.81 174.41 81.93 174.36 82.05 174.32 82.17 174.27 82.29 174.22 82.42 174.17 82.54 174.11 82.66 174.06 82.78 174.01 82.9 173.96 83.03 173.91 83.15 173.87 83.27 173.82 83.39 173.78 83.51 173.74 83.64 173.71 83.76 173.68 83.88 173.65 84 173.63 84.12 173.61 84.25 173.59 84.37 173.58 84.49 173.57 84.61 173.56 84.73 173.55 84.86 173.55 84.98 173.54 85.1 173.53 85.22 173.52 85.34 173.52 85.47 173.5 85.59 173.49 85.71 173.47 85.83 173.45 85.95 173.43 86.08 173.41 86.2 173.38 86.32 173.35 86.44 173.31 86.56 173.27 86.69 173.24 86.81 173.2 86.93 173.15 87.05 173.11 87.17 173.07 87.3 173.02 87.42 172.97 87.54 172.93 87.66 172.88 87.78 172.83 87.91 172.79 88.03 172.74 88.15 172.69 88.27 172.64 88.39 172.59 88.52 172.53 88.64 172.48 88.76 172.42 88.88 172.36 89 172.29 89.13 172.23 89.25 172.15 89.37 172.07 89.49 171.98 89.61 171.89 89.74 171.78 89.86 171.67 89.98 171.55 90.1 171.41 90.22 171.27 90.35 171.11 90.47 170.94 90.59 170.76 90.71 170.56 90.83 170.36 90.96 170.14 91.08 169.91 91.2 169.68 91.32 169.44 91.44 169.2 91.57 168.95 91.69 168.71 91.81 168.46 91.93 168.22 92.05 167.99 92.18 167.76 92.3 167.55 92.42 167.34 92.54 167.15 92.66 166.97 92.79 166.81 92.91 166.66 93.03 166.53 93.15 166.42 93.27 166.33 93.4 166.25 93.52 166.19 93.64 166.14 93.76 166.11 93.88 166.1 94.01 166.1 94.13 166.12 94.25 166.15 94.37 166.2 94.49 166.26 94.62 166.33 94.74 166.41 94.86 166.51 94.98 166.62 95.1 166.74 95.23 166.87 95.35 167 95.47 167.15 95.59 167.3 95.71 167.46 95.84 167.63 95.96 167.8 96.08 167.97 96.2 168.15 96.32 168.33 96.45 168.5 96.57 168.68 96.69 168.86 96.81 169.04 96.93 169.21 97.06 169.38 97.18 169.55 97.3 169.71 97.42 169.87 97.54 170.03 97.67 170.19 97.79 170.34 97.91 170.48 98.03 170.63 98.15 170.77 98.28 170.9 98.4 171.03 98.52 171.16 98.64 171.29 98.76 171.41 98.89 171.53 99.01 171.65 99.13 171.76 99.25 171.87 99.37 171.98 99.5 172.09 99.62 172.2 99.74 172.3 99.86 172.4 99.98 172.5 100.11 172.6 100.23 172.7 100.35 172.8 100.47 172.89 100.59 172.99 100.72 173.08 100.84 173.18 100.96 173.27 101.08 173.36 101.2 173.45 101.33 173.53 101.45 173.62 101.57 173.7 101.69 173.78 101.81 173.85 101.94 173.92 102.06 173.98 102.18 174.05 102.3 174.1 102.42 174.15 102.55 174.2 102.67 174.24 102.79 174.28 102.91 174.32 103.03 174.35 103.16 174.38 103.28 174.41 103.4 174.43 103.52 174.45 103.64 174.48 103.77 174.5 103.89 174.51 104.01 174.53 104.13 174.55 104.25 174.56 104.38 174.58 104.5 174.6 104.62 174.61 104.74 174.62 104.86 174.64 104.99 174.65 105.11 174.66 105.23 174.67 105.35 174.68 105.47 174.69 105.6 174.7 105.72 174.7 105.84 174.71 105.96 174.72 106.08 174.72 106.21 174.72 106.33 174.73 106.45 174.73 106.57 174.73 106.69 174.73 106.82 174.74 106.94 174.74 107.06 174.74 107.18 174.74 107.3 174.74 107.43 174.74 107.55 174.74 107.67 174.74 107.79 174.74 107.91 174.74 108.04 174.74 108.16 174.74 108.28 174.74 108.4 174.74 108.52 174.74 108.65 174.74 108.77 174.74 108.89 174.74 109.01 174.74 109.13 174.74 109.26 174.74 109.38 174.74 109.5 174.74 109.62 174.74 109.74 174.74 109.87 174.74 109.99 174.74 110.11 174.74 110.23 174.74 110.35 174.74 110.48 174.74 110.6 174.74 110.72 174.74 110.84 174.74 110.96 174.74 111.09 174.74 111.21 174.74 111.33 174.74 111.45 174.74 111.57 174.74 111.7 174.74 111.82 174.74 111.94 174.74 112.06 174.74 112.18 174.74 112.31 174.74 112.43 174.74 112.55 174.74 112.67 174.74 112.79 174.74 112.92 174.74 113.04 174.74 113.16 174.74 113.28 174.74 113.4 174.74 113.52 174.74 113.65 174.74 113.77 174.74 113.89 174.74 114.01 174.74 114.13 174.74 114.26 174.74 114.38 174.74 114.5 174.74 114.62 174.74 114.74 174.74 114.87 174.74 114.99 174.74 115.11 174.74 115.23 174.74 115.35 174.74 115.48 174.74 115.6 174.74 115.72 174.74 115.84 174.74 115.96 174.74 116.09 174.74 116.21 174.74 116.33 174.74 116.45 174.73 116.57 174.73 116.7 174.73 116.82 174.73 116.94 174.72 117.06 174.72 117.18 174.71 117.31 174.71 117.43 174.7 117.55 174.69 117.67 174.68 117.79 174.67 117.92 174.65 118.04 174.64 118.16 174.62 118.28 174.61 118.4 174.59 118.53 174.57 118.65 174.55 118.77 174.53 118.89 174.5 119.01 174.48 119.14 174.46 119.26 174.44 119.38 174.43 119.5 174.41 119.62 174.4 119.75 174.39 119.87 174.38 119.99 174.37 120.11 174.37 120.23 174.37 120.36 174.37 120.48 174.37 120.6 174.38 120.72 174.38 120.84 174.38 120.97 174.39 121.09 174.38 121.21 174.38 121.33 174.37 121.45 174.36 121.58 174.34 121.7 174.31 121.82 174.28 121.94 174.24 122.06 174.19 122.19 174.13 122.31 174.06 122.43 173.99 122.55 173.91 122.67 173.82 122.8 173.72 122.92 173.61 123.04 173.5 123.16 173.39 123.28 173.27 123.41 173.14 123.53 173.01 123.65 172.89 123.77 172.75 123.89 172.62 124.02 172.49 124.14 172.36 124.26 172.22 124.38 172.09 124.5 171.95 124.63 171.82 124.75 171.68 124.87 171.53 124.99 171.39 125.11 171.24 125.24 171.08 125.36 170.92 125.48 170.74 125.6 170.56 125.72 170.37 125.85 170.17 125.97 169.95 126.09 169.72 126.21 169.48 126.33 169.23 126.46 168.97 126.58 168.69 126.7 168.4 126.82 168.1 126.94 167.79 127.07 167.46 127.19 167.13 127.31 166.78 127.43 166.42 127.55 166.04 127.68 165.65 127.8 165.24 127.92 164.82 128.04 164.38 128.16 163.92 128.29 163.44 128.41 162.94 128.53 162.42 128.65 161.88 128.77 161.31 128.9 160.71 129.02 160.09 129.14 159.45 129.26 158.79 129.38 158.1 129.51 157.39 129.63 156.65 129.75 155.9 129.87 155.14 129.99 154.35 130.12 153.56 130.24 152.76 130.36 151.95 130.48 151.13 130.6 150.31 130.73 149.49 130.85 148.68 130.97 147.87 131.09 147.07 131.21 146.27 131.34 145.49 131.46 144.72 131.58 143.96 131.7 143.21 131.82 142.47 131.95 141.74 132.07 141.02 132.19 140.31 132.31 139.61 132.43 138.91 132.56 138.23 132.68 137.54 132.8 136.87 132.92 136.2 133.04 135.54 133.17 134.89 133.29 134.26 133.41 133.64 133.53 133.05 133.65 132.48 133.78 131.95 133.9 131.46 134.02 131.02 134.14 130.63 134.26 130.31 134.39 130.05 134.51 129.87 134.63 129.78 134.75 129.78 134.87 129.87 135 130.05 135.12 130.34 135.24 130.72 135.36 131.2 135.48 131.78 135.61 132.44 135.73 133.19 135.85 134.02 135.97 134.92 136.09 135.87 136.22 136.87 136.34 137.91 136.46 138.97 136.58 140.05 136.7 141.14 136.83 142.22 136.95 143.3 137.07 144.35 137.19 145.38 137.31 146.38 137.44 147.35 137.56 148.29 137.68 149.19 137.8 150.06 137.92 150.89 138.05 151.69 138.17 152.46 138.29 153.2 138.41 153.92 138.53 154.62 138.66 155.3 138.78 155.97 138.9 156.63 139.02 157.27 139.14 157.91 139.27 158.55 139.39 159.18 139.51 159.81 139.63 160.44 139.75 161.06 139.88 161.68 140 162.3 140.12 162.91 140.24 163.51 140.36 164.1 140.49 164.68 140.61 165.24 140.73 165.79 140.85 166.32 140.97 166.83 141.1 167.32 141.22 167.78 141.34 168.22 141.46 168.64 141.58 169.04 141.71 169.41 141.83 169.76 141.95 170.09 142.07 170.39 142.19 170.67 142.32 170.93 142.44 171.17 142.56 171.39 142.68 171.59 142.8 171.78 142.93 171.95 143.05 172.1 143.17 172.23 143.29 172.36 143.41 172.47 143.54 172.57 143.66 172.66 143.78 172.74 143.9 172.81 144.02 172.88 144.15 172.94 144.27 173 144.39 173.06 144.51 173.12 144.63 173.18 144.76 173.23 144.88 173.29 145 173.35 145.12 173.42 145.24 173.48 145.37 173.54 145.49 173.61 145.61 173.68 145.73 173.74 145.85 173.81 145.98 173.88 146.1 173.94 146.22 174.01 146.34 174.07 146.46 174.13 146.59 174.18 146.71 174.24 146.83 174.29 146.95 174.33 147.07 174.38 147.2 174.42 147.32 174.46 147.44 174.49 147.56 174.52 147.68 174.55 147.81 174.58 147.93 174.6 148.05 174.62 148.17 174.64 148.29 174.65 148.42 174.67 148.54 174.68 148.66 174.69 148.78 174.7 148.9 174.71 149.03 174.71 149.15 174.72 149.27 174.72 149.39 174.73 149.51 174.73 149.63 174.73 149.76 174.73 149.88 174.74 150 174.74 150.12 174.74 150.24 174.74 150.37 174.74 150.49 174.74 150.61 174.74 150.73 174.74 150.85 174.74 150.98 174.74 151.1 174.74 151.22 174.74 151.34 174.74 151.46 174.74 151.59 174.74 151.71 174.74 151.83 174.74 151.95 174.74 152.07 174.74 152.2 174.74 152.32 174.74 152.44 174.74 152.56 174.74 152.68 174.74 152.81 174.74 152.93 174.74 153.05 174.74 153.17 174.74 153.29 174.74 153.42 174.74 153.54 174.74 153.66 174.74 153.78 174.74 153.9 174.74 154.03 174.74 154.15 174.74 154.27 174.74 154.39 174.74 154.51 174.74 154.64 174.74 154.76 174.74 154.88 174.74 155 174.74 155.12 174.74 155.25 174.74 155.37 174.74 155.49 174.74 155.61 174.74 155.73 174.74 155.86 174.74 155.98 174.74 156.1 174.74 156.22 174.74 156.34 174.74 156.47 174.74 156.59 174.74 156.71 174.74 156.83 174.74 156.95 174.73 157.08 174.73 157.2 174.73 157.32 174.73 157.44 174.73 157.56 174.72 157.69 174.72 157.81 174.71 157.93 174.71 158.05 174.7 158.17 174.69 158.3 174.69 158.42 174.68 158.54 174.67 158.66 174.66 158.78 174.65 158.91 174.64 159.03 174.63 159.15 174.62 159.27 174.61 159.39 174.6 159.52 174.59 159.64 174.58 159.76 174.57 159.88 174.57 160 174.56 160.13 174.56 160.25 174.56 160.37 174.56 160.49 174.56 160.61 174.57 160.74 174.57 160.86 174.58 160.98 174.59 161.1 174.6 161.22 174.61 161.35 174.62 161.47 174.63 161.59 174.63 161.71 174.64 161.83 174.65 161.96 174.66 162.08 174.66 162.2 174.66 162.32 174.67 162.44 174.67 162.57 174.66 162.69 174.66 162.81 174.65 162.93 174.65 163.05 174.63 163.18 174.62 163.3 174.61 163.42 174.59 163.54 174.58 163.66 174.56 163.79 174.54 163.91 174.52 164.03 174.49 164.15 174.47 164.27 174.45 164.4 174.43 164.52 174.4 164.64 174.38 164.76 174.36 164.88 174.34 165.01 174.32 165.13 174.29 165.25 174.27 165.37 174.24 165.49 174.22 165.62 174.18 165.74 174.15 165.86 174.11 165.98 174.07 166.1 174.01 166.23 173.96 166.35 173.89 166.47 173.82 166.59 173.73 166.71 173.64 166.84 173.54 166.96 173.44 167.08 173.32 167.2 173.2 167.32 173.07 167.45 172.94 167.57 172.81 167.69 172.67 167.81 172.54 167.93 172.4 168.06 172.27 168.18 172.15 168.3 172.02 168.42 171.91 168.54 171.8 168.67 171.7 168.79 171.61 168.91 171.53 169.03 171.46 169.15 171.39 169.28 171.33 169.4 171.27 169.52 171.22 169.64 171.18 169.76 171.13 169.89 171.09 170.01 171.05 170.13 171 170.25 170.96 170.37 170.91 170.5 170.86 170.62 170.8 170.74 170.74 170.86 170.68 170.98 170.61 171.11 170.53 171.23 170.45 171.35 170.37 171.47 170.28 171.59 170.18 171.72 170.07 171.84 169.96 171.96 169.85 172.08 169.72 172.2 169.59 172.33 169.45 172.45 169.31 172.57 169.15 172.69 168.99 172.81 168.82 172.94 168.64 173.06 168.46 173.18 168.27 173.3 168.07 173.42 167.87 173.55 167.66 173.67 167.45 173.79 167.25 173.91 167.04 174.03 166.84 174.16 166.65 174.28 166.47 174.4 166.3 174.52 166.14 174.64 166.01 174.77 165.9 174.89 165.81 175.01 165.74 175.13 165.71 175.25 165.7 175.38 165.72 175.5 165.77 175.62 165.86 175.74 165.97 175.86 166.1 175.99 166.26 176.11 166.45 176.23 166.66 176.35 166.88 176.47 167.12 176.6 167.37 176.72 167.63 176.84 167.89 176.96 168.16 177.08 168.43 177.21 168.69 177.33 168.95 177.45 169.21 177.57 169.45 177.69 169.69 177.82 169.92 177.94 170.14 178.06 170.35 178.18 170.55 178.3 170.74 178.43 170.93 178.55 171.1 178.67 171.27 178.79 171.44 178.91 171.59 179.04 171.74 179.16 171.89 179.28 172.03 179.4 172.16 179.52 172.28 179.65 172.4 179.77 172.52 179.89 172.63 180.01 172.73 180.13 172.82 180.26 172.91 180.38 173 180.5 173.08 180.62 173.15 180.74 173.22 180.87 173.28 180.99 173.34 181.11 173.4 181.23 173.46 181.35 173.51 181.48 173.57 181.6 173.62 181.72 173.67 181.84 173.72 181.96 173.78 182.09 173.83 182.21 173.88 182.33 173.94 182.45 173.99 182.57 174.04 182.7 174.09 182.82 174.14 182.94 174.19 183.06 174.24 183.18 174.28 183.31 174.33 183.43 174.37 183.55 174.41 183.67 174.44 183.79 174.48 183.92 174.51 184.04 174.54 184.16 174.56 184.28 174.59 184.4 174.61 184.53 174.63 184.65 174.64 184.77 174.66 184.89 174.67 185.01 174.68 185.14 174.69 185.26 174.7 185.38 174.71 185.5 174.71 185.62 174.72 185.74 174.72 185.87 174.73 185.99 174.73 186.11 174.73 186.23 174.73 186.35 174.74 186.48 174.74 186.6 174.74 186.72 174.74 186.84 174.74 186.96 174.74 187.09 174.74 187.21 174.74 187.33 174.74 187.45 174.74 187.57 174.74 187.7 174.74 187.82 174.74 187.94 174.74 188.06 174.74 188.18 174.74 188.31 174.74 188.43 174.74 188.55 174.74 188.67 174.74 188.79 174.74 188.92 174.74 189.04 174.74 189.16 174.74 189.28 174.74 189.4 174.74 189.53 174.74 189.65 174.74 189.77 174.74 189.89 174.74 190.01 174.74 190.14 174.74 190.26 174.74 190.38 174.74 190.5 174.74 190.62 174.74 190.75 174.74 190.87 174.74 190.99 174.74 191.11 174.74 191.23 174.74 191.36 174.74 191.48 174.74 191.6 174.74 191.72 174.74 191.84 174.74 191.97 174.74 192.09 174.74 192.21 174.74 192.33 174.74 192.45 174.74 192.58 174.74 192.7 174.74 192.82 174.74 192.94 174.74 193.06 174.74 193.19 174.74 193.31 174.74 193.43 174.74 193.55 174.74 193.67 174.74 193.8 174.74 193.92 174.74 194.04 174.74 194.16 174.74 194.28 174.74 194.41 174.74 194.53 174.74 194.65 174.74 194.77 174.74 194.89 174.74 195.02 174.74 195.14 174.74 195.26 174.74 195.38 174.74 195.5 174.74 195.63 174.74 195.75 174.74 195.87 174.74 195.99 174.74 196.11 174.74 196.24 174.74 196.36 174.74 196.48 174.74 196.6 174.74 196.72 174.74 196.85 174.74 196.97 174.74 197.09 174.74 197.21 174.74 197.33 174.74 197.46 174.74 197.58 174.74 197.7 174.74 197.82 174.74 197.94 174.74 198.07 174.74 198.19 174.74 198.31 174.74 198.43 174.74 198.55 174.74 198.68 174.74 198.8 174.74 198.92 174.74 199.04 174.74 199.16 174.74 199.29 174.74 199.41 174.74 199.53 174.74 199.65 174.74 199.77 174.74 199.9 174.74 200.02 174.74 200.14 174.74 200.26 174.74 200.38 174.74 200.51 174.74 200.63 174.74 200.75 174.74 200.87 174.74 200.99 174.74 201.12 174.74 201.24 174.74 201.36 174.74 201.48 174.74 201.6 174.74 201.73 174.74 201.85 174.74 201.97 174.74 202.09 174.74 202.21 174.74 202.34 174.74 202.46 174.74 202.58 174.74 202.7 174.74 202.82 174.74 202.95 174.74 203.07 174.74 203.19 174.74 203.31 174.74 203.43 174.74 203.56 174.74 203.68 174.74 203.8 174.74 203.92 174.74 204.04 174.74 204.17 174.74 204.29 174.74 204.41 174.74 204.53 174.74 204.65 174.74 204.78 174.74 204.9 174.74 205.02 174.74 205.14 174.73 205.26 174.73 205.39 174.73 205.51 174.73 205.63 174.73 205.75 174.72 205.87 174.72 206 174.71 206.12 174.71 206.24 174.7 206.36 174.7 206.48 174.69 206.61 174.68 206.73 174.67 206.85 174.66 206.97 174.65 207.09 174.64 207.22 174.63 207.34 174.62 207.46 174.61 207.58 174.6 207.7 174.59 207.83 174.58 207.95 174.57 208.07 174.57 208.19 174.56 208.31 174.56 208.44 174.56 208.56 174.56 208.68 174.56 208.8 174.57 208.92 174.57 209.05 174.58 209.17 174.58 209.29 174.59 209.41 174.59 209.53 174.6 209.66 174.61 209.78 174.61 209.9 174.62 210.02 174.62 210.14 174.62 210.27 174.61 210.39 174.61 210.51 174.6 210.63 174.59 210.75 174.58 210.88 174.57 211 174.55 211.12 174.53 211.24 174.5 211.36 174.48 211.49 174.45 211.61 174.43 211.73 174.4 211.85 174.37 211.97 174.35 212.1 174.32 212.22 174.29 212.34 174.27 212.46 174.25 212.58 174.23 212.71 174.22 212.83 174.21 212.95 174.2 213.07 174.2 213.19 174.2 213.32 174.2 213.44 174.2 213.56 174.21 213.68 174.22 213.8 174.23 213.93 174.24 214.05 174.25 214.17 174.27 214.29 174.28 214.41 174.29 214.54 174.3 214.66 174.3 214.78 174.31 214.9 174.32 215.02 174.32 215.15 174.32 215.27 174.31 215.39 174.31 215.51 174.3 215.63 174.3 215.76 174.29 215.88 174.28 216 174.26 216.12 174.25 216.24 174.24 216.37 174.23 216.49 174.22 216.61 174.2 216.73 174.19 216.85 174.19 216.98 174.18 217.1 174.17 217.22 174.17 217.34 174.17 217.46 174.17 217.59 174.17 217.71 174.18 217.83 174.18 217.95 174.19 218.07 174.2 218.2 174.21 218.32 174.22 218.44 174.23 218.56 174.24 218.68 174.25 218.81 174.25 218.93 174.26 219.05 174.27 219.17 174.27 219.29 174.27 219.42 174.27 219.54 174.28 219.66 174.28 219.78 174.28 219.9 174.28 220.03 174.28 220.15 174.28 220.27 174.29 220.39 174.29 220.51 174.3 220.64 174.3 220.76 174.31 220.88 174.32 221 174.33 221.12 174.34 221.25 174.35 221.37 174.37 221.49 174.38 221.61 174.39 221.73 174.41 221.85 174.42 221.98 174.44 222.1 174.45 222.22 174.46 222.34 174.48 222.46 174.49 222.59 174.51 222.71 174.52 222.83 174.54 222.95 174.55 223.07 174.57 223.2 174.58 223.32 174.6 223.44 174.61 223.56 174.63 223.68 174.64 223.81 174.65 223.93 174.66 224.05 174.67 224.17 174.68 224.29 174.69 224.42 174.7 224.54 174.7 224.66 174.71 224.78 174.72 224.9 174.72 225.03 174.72 225.15 174.73 225.27 174.73 225.39 174.73 225.51 174.73 225.64 174.74 225.76 174.74 225.88 174.74 226 174.74 226.12 174.74 226.25 174.74 226.37 174.74 226.49 174.74 226.61 174.74 226.73 174.74 226.86 174.74 226.98 174.74 227.1 174.74 227.22 174.74 227.34 174.74 227.47 174.74 227.59 174.74 227.71 174.74 227.83 174.74 227.95 174.74 228.08 174.74 228.2 174.74 228.32 174.74 228.44 174.74 228.56 174.74 228.69 174.74 228.81 174.74 228.93 174.74 229.05 174.74 229.17 174.74 229.3 174.74 229.42 174.74 229.54 174.74 229.66 174.74 229.78 174.74 229.91 174.74 230.03 174.74 230.15 174.74 230.27 174.74 230.39 174.74 230.52 174.74 230.64 174.74 230.76 174.74 230.88 174.74 231 174.74 231.13 174.74 231.25 174.74 231.37 174.74 231.49 174.74 231.61 174.74 231.74 174.74 231.86 174.74 231.98 174.74 232.1 174.74 232.22 174.74 232.35 174.74 232.47 174.74 232.59 174.74 232.71 174.74 232.83 174.74 232.96 174.74 233.08 174.74 233.2 174.74 233.32 174.74 233.44 174.74 233.57 174.74 233.69 174.74 233.81 174.74 233.93 174.74 234.05 174.74 234.18 174.74 234.3 174.74 234.42 174.74 234.54 174.74 234.66 174.74 234.79 174.74 234.91 174.74 235.03 174.74 235.15 174.74 235.27 174.74 235.4 174.74 235.52 174.74 235.64 174.74 235.76 174.74 235.88 174.74 236.01 174.74 236.13 174.74 236.25 174.74 236.37 174.74 236.49 174.74 236.62 174.74 236.74 174.74 236.86 174.74 236.98 174.74 237.1 174.74 237.23 174.74 237.35 174.74 237.47 174.74 237.59 174.74 237.71 174.74 237.84 174.74 237.96 174.74 238.08 174.74 238.2 174.74 238.32 174.74 238.45 174.74 238.57 174.74 238.69 174.74 238.81 174.74 238.93 174.74 239.06 174.74 239.18 174.74 239.3 174.74 239.42 174.74 239.54 174.74 239.67 174.74 239.79 174.74 239.91 174.74 240.03 174.74 240.15 174.74 240.28 174.74 240.4 174.74 240.52 174.74 240.64 174.74 240.76 174.74 240.89 174.74 241.01 174.74 241.13 174.74 241.25 174.74 241.37 174.74 241.5 174.74 241.62 174.74 241.74 174.74 241.86 174.74 241.98 174.74 242.11 174.74 242.23 174.74 242.35 174.74 242.47 174.74 242.59 174.74 242.72 174.74 242.84 174.74 242.96 174.74 243.08 174.74 243.2 174.74 243.33 174.74 243.45 174.74 243.57 174.74 243.69 174.74 243.81 174.74 243.94 174.74 244.06 174.74 244.18 174.74 244.3 174.74 244.42 174.74 244.55 174.74 244.67 174.74 244.79 174.74 244.91 174.74 245.03 174.74 245.16 174.74 245.28 174.74 245.4 174.74 245.52 174.74 245.64 174.74 245.77 174.74 245.89 174.74 246.01 174.74 246.13 174.74 246.25 174.74 246.38 174.74 246.5 174.74 246.62 174.74 246.74 174.74 246.86 174.74 246.99 174.74 247.11 174.74 247.23 174.74 247.35 174.74 247.47 174.74 247.6 174.74 247.72 174.74 247.84 174.74 247.96 174.74 248.08 174.74 248.21 174.74 248.33 174.74 248.45 174.74 248.57 174.74 248.69 174.74 248.82 174.74 248.94 174.74 249.06 174.74 249.18 174.74 249.3 174.74 249.43 174.74 249.55 174.74 249.67 174.74 249.79 174.74 249.91 174.74 250.04 174.74 250.16 174.74 250.28 174.74 250.4 174.74 250.52 174.74 250.65 174.74 250.77 174.74 250.89 174.74 251.01 174.74 251.13 174.74 251.26 174.74 251.38 174.74 251.5 174.74 251.62 174.74 251.74 174.74 251.87 174.74 251.99 174.74 252.11 174.74 252.23 174.74 252.35 174.74 252.48 174.74 252.6 174.74 252.72 174.74 252.84 174.74 252.96 174.74 253.09 174.74 253.21 174.74 253.33 174.74 253.45 174.74 253.57 174.74 253.7 174.74 253.82 174.74 253.94 174.74 254.06 174.74 254.18 174.74 254.31 174.74 254.43 174.74 254.55 174.74 254.67 174.74 254.79 174.74 254.92 174.74 255.04 174.74 255.16 174.74 255.28 174.74 255.4 174.74 255.53 174.74 255.65 174.74 255.77 174.74 255.89 174.74 256.01 174.74 256.14 174.74 256.26 174.74 256.38 174.74 256.5 174.74 256.62 174.74 256.75 174.74 256.87 174.74 256.99 174.74 257.11 174.74 257.23 174.74 257.36 174.74 257.48 174.74 257.6 174.74 257.72 174.74 257.84 174.74 257.96 174.74 258.09 174.74 258.21 174.74 258.33 174.74 258.45 174.74 258.57 174.74 258.7 174.74 258.82 174.74 258.94 174.74 259.06 174.74 259.18 174.74 259.31 174.74 259.43 174.74 259.55 174.74 259.67 174.74 259.79 174.74 259.92 174.74 260.04 174.74 260.16 174.74 260.28 174.74 260.4 174.74 260.53 174.74 260.65 174.74 260.77 174.74 260.89 174.74 261.01 174.74 261.14 174.74 261.26 174.74 261.38 174.74 261.5 174.74 261.62 174.74 261.75 174.74 261.87 174.74 261.99 174.74 262.11 174.74 262.23 174.74 262.36 174.74 262.48 174.74 262.6 174.74 262.72 174.74 262.84 174.74 262.97 174.74 263.09 174.74 263.21 174.74 263.33 174.74 263.45 174.74 263.58 174.74 263.7 174.74 263.82 174.74 263.94 174.74 264.06 174.74 264.19 174.74 264.31 174.74 264.43 174.74 264.55 174.74 264.67 174.74 264.8 174.74 264.92 174.74 265.04 174.74 265.16 174.74 265.28 174.74 265.41 174.74 265.53 174.74 265.65 174.74 265.77 174.74 265.89 174.74 266.02 174.74 266.14 174.74 266.26 174.74 266.38 174.74 266.5 174.74 266.63 174.74 266.75 174.74 266.87 174.74 266.99 174.74 267.11 174.74 267.24 174.74 267.36 174.74 267.48 174.74 267.6 174.74 267.72 174.74 267.85 174.74 267.97 174.74 268.09 174.74 268.21 174.74 268.33 174.74 268.46 174.74 268.58 174.74 268.7 174.74 268.82 174.74 268.94 174.74 269.07 174.74 269.19 174.74 269.31 174.74 269.43 174.74 269.55 174.74 269.68 174.74 269.8 174.74 269.92 174.74 270.04 174.74 270.16 174.74 270.29 174.74 270.41 174.74 270.53 174.74 270.65 174.74 270.77 174.74 270.9 174.74 271.02 174.74 271.14 174.74 271.26 174.74 271.38 174.74 271.51 174.74 271.63 174.74 271.75 174.74 271.87 174.74 271.99 174.74 272.12 174.74 272.24 174.74 272.36 174.74 272.48 174.74 272.6 174.74 272.73 174.74 272.85 174.74 272.97 174.74 273.09 174.74 273.21 174.74 273.34 174.74 273.46 174.74 273.58 174.74 273.7 174.74 273.82 174.74 273.95 174.74 274.07 174.74 274.19 174.74 274.31 174.74 274.43 174.74 274.56 174.74 274.68 174.74 274.8 174.74 274.92 174.74 275.04 174.74 275.17 174.74 275.29 174.74 275.41 174.74 275.53 174.74 275.65 174.74 275.78 174.74 275.9 174.74 276.02 174.74 276.14 174.74 276.26 174.74 276.39 174.74 276.51 174.74 276.63 174.74 276.75 174.74 276.87 174.74 277 174.74 277.12 174.74 277.24 174.74 277.36 174.74 277.48 174.74 277.61 174.74 277.73 174.74 277.85 174.74 277.97 174.74 278.09 174.74 278.22 174.74 278.34 174.74 278.46 174.74 278.58 174.74 278.7 174.74 278.83 174.74 278.95 174.74 279.07 174.74 279.19 174.74 279.31 174.74 279.44 174.74 279.56 174.74 279.68 174.74 279.8 174.74 279.92 174.74 280.05 174.74 280.17 174.74 280.29 174.74 280.41 174.74 280.53 174.74 280.66 174.74 280.78 174.74 280.9 174.74 281.02 174.74 281.14 174.74 281.27 174.74 281.39 174.74 281.51 174.74 281.63 174.74 281.75 174.74 281.88 174.74 282 174.74 282.12 174.74 282.24 174.74 282.36 174.74 282.49 174.74 282.61 174.74 282.73 174.74 282.85 174.74 282.97 174.74 283.1 174.74 283.22 174.74 283.34 174.74 283.46 174.74 283.58 174.74 283.71 174.74 283.83 174.74 283.95 174.74 284.07 174.74 284.19 174.74 284.32 174.74 284.44 174.74 284.56 174.74 284.68 174.74 284.8 174.74 284.93 174.73 285.05 174.73 285.17 174.73 285.29 174.73 285.41 174.73 285.54 174.72 285.66 174.72 285.78 174.71 285.9 174.71 286.02 174.7 286.15 174.7 286.27 174.69 286.39 174.68 286.51 174.67 286.63 174.66 286.76 174.65 286.88 174.64 287 174.63 287.12 174.62 287.24 174.61 287.37 174.6 287.49 174.59 287.61 174.58 287.73 174.58 287.85 174.57 287.98 174.57 288.1 174.56 288.22 174.56 288.34 174.56 288.46 174.56 288.59 174.57 288.71 174.57 288.83 174.58 288.95 174.59 289.07 174.6 289.2 174.61 289.32 174.62 289.44 174.63 289.56 174.64 289.68 174.65 289.81 174.66 289.93 174.67 290.05 174.68 290.17 174.69 290.29 174.69 290.42 174.7 290.54 174.71 290.66 174.71 290.78 174.72 290.9 174.72 291.03 174.73 291.15 174.73 291.27 174.73 291.39 174.73 291.51 174.73 291.64 174.74 291.76 174.74 291.88 174.74 292 174.74 292.12 174.74 292.25 174.74 292.37 174.74 292.49 174.74 292.61 174.74 292.73 174.74 292.86 174.74 292.98 174.74 293.1 174.74 293.22 174.74"/>
      </g>
    </g>
  </g>
</g>
  <g class="guide ylabels" font-size="4.94" font-family="'PT Sans Caption','Helvetica Neue','Helvetica',sans-serif" fill="#6C606B" id="img-5ca5c9eb-16">
    <text x="25.54" y="174.74" text-anchor="end" dy="0.35em">0.00</text>
    <text x="25.54" y="148.38" text-anchor="end" dy="0.35em">0.01</text>
    <text x="25.54" y="122.02" text-anchor="end" dy="0.35em">0.02</text>
    <text x="25.54" y="95.66" text-anchor="end" dy="0.35em">0.03</text>
    <text x="25.54" y="69.3" text-anchor="end" dy="0.35em">0.04</text>
    <text x="25.54" y="42.94" text-anchor="end" dy="0.35em">0.05</text>
    <text x="25.54" y="16.58" text-anchor="end" dy="0.35em">0.06</text>
  </g>
  <g font-size="6" font-family="'PT Sans','Helvetica Neue','Helvetica',sans-serif" fill="#564A55" stroke="#000000" stroke-opacity="0.000" id="img-5ca5c9eb-17">
    <text x="9.79" y="93.66" text-anchor="middle" dy="0.35em" transform="rotate(-90, 9.79, 95.66)">Density</text>
  </g>
  <g font-size="6" font-family="'PT Sans','Helvetica Neue','Helvetica',sans-serif" fill="#564A55" stroke="#000000" stroke-opacity="0.000" id="img-5ca5c9eb-18">
    <text x="187.14" y="12.58" text-anchor="middle">Location estimator densities for NAB Short Horizon (Robust kurt = 2.2022522373510838) return data</text>
  </g>
</g>
<defs>
  <clipPath id="img-5ca5c9eb-8">
  <path d="M26.55,14.58 L 347.74 14.58 347.74 176.74 26.55 176.74" />
</clipPath>
</defs>
</svg>
