<?xml version="1.0" encoding="UTF-8"?>
<svg xmlns="http://www.w3.org/2000/svg"
     xmlns:xlink="http://www.w3.org/1999/xlink"
     xmlns:gadfly="http://www.gadflyjl.org/ns"
     version="1.2"
     width="400mm" height="200mm" viewBox="0 0 400 200"
     stroke="none"
     fill="#000000"
     stroke-width="0.3"
     font-size="3.88"
>
<g class="plotroot xscalable yscalable" id="img-5b362f1f-1">
  <g font-size="6" font-family="'PT Sans','Helvetica Neue','Helvetica',sans-serif" fill="#564A55" stroke="#000000" stroke-opacity="0.000" id="img-5b362f1f-2">
    <text x="182.36" y="186.42" text-anchor="middle" dy="0.6em">Regression constant</text>
  </g>
  <g class="guide xlabels" font-size="4.94" font-family="'PT Sans Caption','Helvetica Neue','Helvetica',sans-serif" fill="#6C606B" id="img-5b362f1f-3">
    <text x="30.3" y="177.74" text-anchor="middle" dy="0.6em">-0.004</text>
    <text x="91.12" y="177.74" text-anchor="middle" dy="0.6em">-0.002</text>
    <text x="151.94" y="177.74" text-anchor="middle" dy="0.6em">0.000</text>
    <text x="212.77" y="177.74" text-anchor="middle" dy="0.6em">0.002</text>
    <text x="273.59" y="177.74" text-anchor="middle" dy="0.6em">0.004</text>
    <text x="334.42" y="177.74" text-anchor="middle" dy="0.6em">0.006</text>
  </g>
  <g class="guide colorkey" id="img-5b362f1f-4">
    <g fill="#4C404B" font-size="4.94" font-family="'PT Sans','Helvetica Neue','Helvetica',sans-serif" id="img-5b362f1f-5">
      <text x="341.22" y="95.66" dy="0.35em">Least squares</text>
      <text x="341.22" y="101.26" dy="0.35em">Least absolute deviations</text>
    </g>
    <g stroke="#000000" stroke-opacity="0.000" id="img-5b362f1f-6">
      <rect x="337.42" y="94.26" width="2.8" height="2.8" fill="#0000FF"/>
      <rect x="337.42" y="99.86" width="2.8" height="2.8" fill="#008000"/>
    </g>
    <g fill="#362A35" font-size="6" font-family="'PT Sans','Helvetica Neue','Helvetica',sans-serif" stroke="#000000" stroke-opacity="0.000" id="img-5b362f1f-7">
      <text x="337.42" y="90.86">Legend:</text>
    </g>
  </g>
<g clip-path="url(#img-5b362f1f-8)">
  <g id="img-5b362f1f-9">
    <g pointer-events="visible" opacity="1" fill="#000000" fill-opacity="0.000" stroke="#000000" stroke-opacity="0.000" class="guide background" id="img-5b362f1f-10">
      <rect x="28.3" y="14.58" width="308.12" height="162.16"/>
    </g>
    <g class="guide ygridlines xfixed" stroke-dasharray="0.5,0.5" stroke-width="0.2" stroke="#D0D0E0" id="img-5b362f1f-11">
      <path fill="none" d="M28.3,174.74 L 336.42 174.74"/>
      <path fill="none" d="M28.3,135.2 L 336.42 135.2"/>
      <path fill="none" d="M28.3,95.66 L 336.42 95.66"/>
      <path fill="none" d="M28.3,56.12 L 336.42 56.12"/>
      <path fill="none" d="M28.3,16.58 L 336.42 16.58"/>
    </g>
    <g class="guide xgridlines yfixed" stroke-dasharray="0.5,0.5" stroke-width="0.2" stroke="#D0D0E0" id="img-5b362f1f-12">
      <path fill="none" d="M30.3,14.58 L 30.3 176.74"/>
      <path fill="none" d="M91.12,14.58 L 91.12 176.74"/>
      <path fill="none" d="M151.94,14.58 L 151.94 176.74"/>
      <path fill="none" d="M212.77,14.58 L 212.77 176.74"/>
      <path fill="none" d="M273.59,14.58 L 273.59 176.74"/>
      <path fill="none" d="M334.42,14.58 L 334.42 176.74"/>
    </g>
    <g class="plotpanel" id="img-5b362f1f-13">
      <g stroke-width="0.3" fill="#000000" fill-opacity="0.000" class="geometry" stroke-dasharray="none" stroke="#008000" id="img-5b362f1f-14">
        <path fill="none" d="M127.33,174.74 L 127.37 174.74 127.4 174.74 127.43 174.74 127.47 174.74 127.5 174.74 127.53 174.74 127.56 174.74 127.6 174.74 127.63 174.74 127.66 174.74 127.7 174.74 127.73 174.74 127.76 174.74 127.79 174.74 127.83 174.74 127.86 174.74 127.89 174.74 127.93 174.74 127.96 174.74 127.99 174.74 128.02 174.74 128.06 174.74 128.09 174.74 128.12 174.74 128.16 174.74 128.19 174.74 128.22 174.74 128.26 174.74 128.29 174.74 128.32 174.74 128.35 174.74 128.39 174.74 128.42 174.74 128.45 174.74 128.49 174.74 128.52 174.74 128.55 174.74 128.58 174.74 128.62 174.74 128.65 174.74 128.68 174.74 128.72 174.74 128.75 174.74 128.78 174.74 128.82 174.73 128.85 174.73 128.88 174.73 128.91 174.73 128.95 174.73 128.98 174.73 129.01 174.73 129.05 174.73 129.08 174.73 129.11 174.73 129.14 174.73 129.18 174.73 129.21 174.73 129.24 174.73 129.28 174.73 129.31 174.73 129.34 174.73 129.38 174.73 129.41 174.73 129.44 174.72 129.47 174.72 129.51 174.72 129.54 174.72 129.57 174.72 129.61 174.72 129.64 174.72 129.67 174.72 129.7 174.72 129.74 174.71 129.77 174.71 129.8 174.71 129.84 174.71 129.87 174.71 129.9 174.71 129.94 174.71 129.97 174.7 130 174.7 130.03 174.7 130.07 174.7 130.1 174.7 130.13 174.69 130.17 174.69 130.2 174.69 130.23 174.69 130.26 174.68 130.3 174.68 130.33 174.68 130.36 174.68 130.4 174.67 130.43 174.67 130.46 174.67 130.5 174.66 130.53 174.66 130.56 174.66 130.59 174.65 130.63 174.65 130.66 174.64 130.69 174.64 130.73 174.64 130.76 174.63 130.79 174.63 130.82 174.62 130.86 174.62 130.89 174.61 130.92 174.61 130.96 174.6 130.99 174.6 131.02 174.59 131.06 174.59 131.09 174.58 131.12 174.57 131.15 174.57 131.19 174.56 131.22 174.55 131.25 174.55 131.29 174.54 131.32 174.53 131.35 174.53 131.38 174.52 131.42 174.51 131.45 174.5 131.48 174.49 131.52 174.49 131.55 174.48 131.58 174.47 131.62 174.46 131.65 174.45 131.68 174.44 131.71 174.43 131.75 174.42 131.78 174.41 131.81 174.4 131.85 174.39 131.88 174.38 131.91 174.37 131.94 174.36 131.98 174.34 132.01 174.33 132.04 174.32 132.08 174.31 132.11 174.3 132.14 174.28 132.18 174.27 132.21 174.26 132.24 174.24 132.27 174.23 132.31 174.22 132.34 174.2 132.37 174.19 132.41 174.18 132.44 174.16 132.47 174.15 132.5 174.13 132.54 174.12 132.57 174.1 132.6 174.09 132.64 174.07 132.67 174.05 132.7 174.04 132.74 174.02 132.77 174.01 132.8 173.99 132.83 173.97 132.87 173.96 132.9 173.94 132.93 173.92 132.97 173.9 133 173.89 133.03 173.87 133.06 173.85 133.1 173.83 133.13 173.81 133.16 173.79 133.2 173.78 133.23 173.76 133.26 173.74 133.3 173.72 133.33 173.7 133.36 173.68 133.39 173.66 133.43 173.64 133.46 173.62 133.49 173.6 133.53 173.58 133.56 173.56 133.59 173.54 133.62 173.52 133.66 173.5 133.69 173.48 133.72 173.45 133.76 173.43 133.79 173.41 133.82 173.39 133.85 173.37 133.89 173.35 133.92 173.32 133.95 173.3 133.99 173.28 134.02 173.26 134.05 173.23 134.09 173.21 134.12 173.19 134.15 173.16 134.18 173.14 134.22 173.12 134.25 173.09 134.28 173.07 134.32 173.04 134.35 173.02 134.38 173 134.41 172.97 134.45 172.95 134.48 172.92 134.51 172.89 134.55 172.87 134.58 172.84 134.61 172.82 134.65 172.79 134.68 172.76 134.71 172.74 134.74 172.71 134.78 172.68 134.81 172.65 134.84 172.63 134.88 172.6 134.91 172.57 134.94 172.54 134.97 172.51 135.01 172.48 135.04 172.45 135.07 172.42 135.11 172.39 135.14 172.36 135.17 172.33 135.21 172.3 135.24 172.27 135.27 172.23 135.3 172.2 135.34 172.17 135.37 172.14 135.4 172.1 135.44 172.07 135.47 172.04 135.5 172 135.53 171.97 135.57 171.93 135.6 171.9 135.63 171.86 135.67 171.83 135.7 171.79 135.73 171.75 135.77 171.72 135.8 171.68 135.83 171.64 135.86 171.6 135.9 171.57 135.93 171.53 135.96 171.49 136 171.45 136.03 171.41 136.06 171.37 136.09 171.33 136.13 171.29 136.16 171.25 136.19 171.21 136.23 171.17 136.26 171.13 136.29 171.09 136.33 171.05 136.36 171.01 136.39 170.97 136.42 170.93 136.46 170.89 136.49 170.85 136.52 170.81 136.56 170.76 136.59 170.72 136.62 170.68 136.65 170.64 136.69 170.6 136.72 170.56 136.75 170.51 136.79 170.47 136.82 170.43 136.85 170.39 136.89 170.35 136.92 170.31 136.95 170.27 136.98 170.23 137.02 170.18 137.05 170.14 137.08 170.1 137.12 170.06 137.15 170.02 137.18 169.98 137.21 169.94 137.25 169.9 137.28 169.87 137.31 169.83 137.35 169.79 137.38 169.75 137.41 169.71 137.45 169.68 137.48 169.64 137.51 169.6 137.54 169.57 137.58 169.53 137.61 169.49 137.64 169.46 137.68 169.42 137.71 169.39 137.74 169.36 137.77 169.32 137.81 169.29 137.84 169.26 137.87 169.23 137.91 169.19 137.94 169.16 137.97 169.13 138.01 169.1 138.04 169.07 138.07 169.04 138.1 169.02 138.14 168.99 138.17 168.96 138.2 168.93 138.24 168.91 138.27 168.88 138.3 168.86 138.33 168.83 138.37 168.81 138.4 168.78 138.43 168.76 138.47 168.74 138.5 168.71 138.53 168.69 138.57 168.67 138.6 168.65 138.63 168.63 138.66 168.61 138.7 168.59 138.73 168.57 138.76 168.55 138.8 168.53 138.83 168.52 138.86 168.5 138.89 168.48 138.93 168.46 138.96 168.45 138.99 168.43 139.03 168.41 139.06 168.4 139.09 168.38 139.13 168.37 139.16 168.35 139.19 168.34 139.22 168.32 139.26 168.3 139.29 168.29 139.32 168.28 139.36 168.26 139.39 168.25 139.42 168.23 139.45 168.22 139.49 168.2 139.52 168.19 139.55 168.17 139.59 168.16 139.62 168.14 139.65 168.12 139.68 168.11 139.72 168.09 139.75 168.08 139.78 168.06 139.82 168.04 139.85 168.02 139.88 168.01 139.92 167.99 139.95 167.97 139.98 167.95 140.01 167.93 140.05 167.91 140.08 167.89 140.11 167.86 140.15 167.84 140.18 167.82 140.21 167.79 140.24 167.77 140.28 167.74 140.31 167.71 140.34 167.69 140.38 167.66 140.41 167.63 140.44 167.6 140.48 167.56 140.51 167.53 140.54 167.5 140.57 167.46 140.61 167.43 140.64 167.39 140.67 167.35 140.71 167.31 140.74 167.27 140.77 167.22 140.8 167.18 140.84 167.13 140.87 167.09 140.9 167.04 140.94 166.99 140.97 166.94 141 166.88 141.04 166.83 141.07 166.77 141.1 166.72 141.13 166.66 141.17 166.59 141.2 166.53 141.23 166.47 141.27 166.4 141.3 166.33 141.33 166.26 141.36 166.19 141.4 166.12 141.43 166.04 141.46 165.97 141.5 165.89 141.53 165.81 141.56 165.73 141.6 165.64 141.63 165.55 141.66 165.47 141.69 165.38 141.73 165.29 141.76 165.19 141.79 165.1 141.83 165 141.86 164.9 141.89 164.8 141.92 164.7 141.96 164.59 141.99 164.49 142.02 164.38 142.06 164.27 142.09 164.16 142.12 164.05 142.16 163.93 142.19 163.81 142.22 163.7 142.25 163.58 142.29 163.46 142.32 163.33 142.35 163.21 142.39 163.08 142.42 162.95 142.45 162.82 142.48 162.69 142.52 162.56 142.55 162.43 142.58 162.29 142.62 162.16 142.65 162.02 142.68 161.88 142.72 161.74 142.75 161.6 142.78 161.45 142.81 161.31 142.85 161.17 142.88 161.02 142.91 160.87 142.95 160.73 142.98 160.58 143.01 160.43 143.04 160.28 143.08 160.13 143.11 159.98 143.14 159.82 143.18 159.67 143.21 159.52 143.24 159.36 143.28 159.21 143.31 159.05 143.34 158.9 143.37 158.74 143.41 158.59 143.44 158.43 143.47 158.28 143.51 158.12 143.54 157.96 143.57 157.81 143.6 157.65 143.64 157.49 143.67 157.34 143.7 157.18 143.74 157.03 143.77 156.87 143.8 156.72 143.84 156.56 143.87 156.41 143.9 156.25 143.93 156.1 143.97 155.95 144 155.8 144.03 155.64 144.07 155.49 144.1 155.34 144.13 155.19 144.16 155.04 144.2 154.9 144.23 154.75 144.26 154.6 144.3 154.45 144.33 154.31 144.36 154.16 144.4 154.02 144.43 153.88 144.46 153.74 144.49 153.6 144.53 153.46 144.56 153.32 144.59 153.18 144.63 153.04 144.66 152.91 144.69 152.77 144.72 152.64 144.76 152.5 144.79 152.37 144.82 152.24 144.86 152.11 144.89 151.98 144.92 151.85 144.96 151.72 144.99 151.59 145.02 151.47 145.05 151.34 145.09 151.21 145.12 151.09 145.15 150.97 145.19 150.84 145.22 150.72 145.25 150.6 145.28 150.48 145.32 150.36 145.35 150.24 145.38 150.12 145.42 150 145.45 149.88 145.48 149.77 145.51 149.65 145.55 149.53 145.58 149.42 145.61 149.3 145.65 149.18 145.68 149.07 145.71 148.95 145.75 148.83 145.78 148.72 145.81 148.6 145.84 148.49 145.88 148.37 145.91 148.25 145.94 148.14 145.98 148.02 146.01 147.9 146.04 147.78 146.07 147.66 146.11 147.55 146.14 147.43 146.17 147.31 146.21 147.19 146.24 147.06 146.27 146.94 146.31 146.82 146.34 146.7 146.37 146.57 146.4 146.45 146.44 146.32 146.47 146.19 146.5 146.06 146.54 145.93 146.57 145.8 146.6 145.67 146.63 145.54 146.67 145.4 146.7 145.27 146.73 145.13 146.77 144.99 146.8 144.85 146.83 144.71 146.87 144.56 146.9 144.42 146.93 144.27 146.96 144.12 147 143.97 147.03 143.82 147.06 143.67 147.1 143.51 147.13 143.35 147.16 143.19 147.19 143.03 147.23 142.87 147.26 142.7 147.29 142.54 147.33 142.37 147.36 142.2 147.39 142.02 147.43 141.85 147.46 141.67 147.49 141.49 147.52 141.31 147.56 141.13 147.59 140.94 147.62 140.76 147.66 140.57 147.69 140.38 147.72 140.18 147.75 139.99 147.79 139.79 147.82 139.59 147.85 139.38 147.89 139.18 147.92 138.97 147.95 138.76 147.99 138.55 148.02 138.34 148.05 138.12 148.08 137.9 148.12 137.68 148.15 137.46 148.18 137.24 148.22 137.01 148.25 136.78 148.28 136.55 148.31 136.32 148.35 136.08 148.38 135.84 148.41 135.6 148.45 135.36 148.48 135.12 148.51 134.87 148.55 134.62 148.58 134.37 148.61 134.12 148.64 133.87 148.68 133.61 148.71 133.35 148.74 133.09 148.78 132.83 148.81 132.56 148.84 132.29 148.87 132.02 148.91 131.75 148.94 131.48 148.97 131.2 149.01 130.93 149.04 130.65 149.07 130.36 149.11 130.08 149.14 129.8 149.17 129.51 149.2 129.22 149.24 128.93 149.27 128.63 149.3 128.34 149.34 128.04 149.37 127.74 149.4 127.44 149.43 127.14 149.47 126.84 149.5 126.53 149.53 126.22 149.57 125.91 149.6 125.6 149.63 125.29 149.67 124.97 149.7 124.65 149.73 124.33 149.76 124.01 149.8 123.69 149.83 123.37 149.86 123.04 149.9 122.71 149.93 122.39 149.96 122.06 149.99 121.72 150.03 121.39 150.06 121.05 150.09 120.72 150.13 120.38 150.16 120.04 150.19 119.7 150.23 119.36 150.26 119.01 150.29 118.67 150.32 118.32 150.36 117.98 150.39 117.63 150.42 117.28 150.46 116.93 150.49 116.58 150.52 116.22 150.55 115.87 150.59 115.52 150.62 115.16 150.65 114.8 150.69 114.45 150.72 114.09 150.75 113.73 150.78 113.37 150.82 113.01 150.85 112.65 150.88 112.29 150.92 111.93 150.95 111.57 150.98 111.21 151.02 110.85 151.05 110.49 151.08 110.13 151.11 109.77 151.15 109.41 151.18 109.05 151.21 108.69 151.25 108.33 151.28 107.97 151.31 107.61 151.34 107.25 151.38 106.9 151.41 106.54 151.44 106.18 151.48 105.83 151.51 105.47 151.54 105.12 151.58 104.77 151.61 104.42 151.64 104.07 151.67 103.72 151.71 103.38 151.74 103.03 151.77 102.69 151.81 102.35 151.84 102.01 151.87 101.67 151.9 101.33 151.94 101 151.97 100.66 152 100.33 152.04 100 152.07 99.68 152.1 99.35 152.14 99.03 152.17 98.71 152.2 98.39 152.23 98.07 152.27 97.76 152.3 97.45 152.33 97.14 152.37 96.83 152.4 96.53 152.43 96.22 152.46 95.92 152.5 95.63 152.53 95.33 152.56 95.04 152.6 94.75 152.63 94.46 152.66 94.17 152.7 93.89 152.73 93.6 152.76 93.32 152.79 93.05 152.83 92.77 152.86 92.5 152.89 92.22 152.93 91.95 152.96 91.68 152.99 91.42 153.02 91.15 153.06 90.89 153.09 90.63 153.12 90.37 153.16 90.11 153.19 89.85 153.22 89.59 153.26 89.34 153.29 89.08 153.32 88.83 153.35 88.58 153.39 88.32 153.42 88.07 153.45 87.82 153.49 87.57 153.52 87.32 153.55 87.07 153.58 86.82 153.62 86.57 153.65 86.32 153.68 86.07 153.72 85.82 153.75 85.57 153.78 85.32 153.82 85.07 153.85 84.81 153.88 84.56 153.91 84.31 153.95 84.05 153.98 83.8 154.01 83.54 154.05 83.28 154.08 83.02 154.11 82.76 154.14 82.5 154.18 82.23 154.21 81.97 154.24 81.7 154.28 81.43 154.31 81.16 154.34 80.89 154.38 80.62 154.41 80.34 154.44 80.07 154.47 79.79 154.51 79.51 154.54 79.22 154.57 78.94 154.61 78.65 154.64 78.36 154.67 78.07 154.7 77.78 154.74 77.49 154.77 77.19 154.8 76.9 154.84 76.6 154.87 76.3 154.9 75.99 154.94 75.69 154.97 75.38 155 75.08 155.03 74.77 155.07 74.46 155.1 74.15 155.13 73.84 155.17 73.53 155.2 73.21 155.23 72.9 155.26 72.58 155.3 72.27 155.33 71.95 155.36 71.64 155.4 71.32 155.43 71 155.46 70.69 155.5 70.37 155.53 70.05 155.56 69.74 155.59 69.42 155.63 69.11 155.66 68.8 155.69 68.48 155.73 68.17 155.76 67.86 155.79 67.56 155.82 67.25 155.86 66.94 155.89 66.64 155.92 66.34 155.96 66.04 155.99 65.74 156.02 65.45 156.06 65.16 156.09 64.87 156.12 64.58 156.15 64.3 156.19 64.02 156.22 63.74 156.25 63.47 156.29 63.2 156.32 62.94 156.35 62.67 156.38 62.42 156.42 62.16 156.45 61.91 156.48 61.66 156.52 61.42 156.55 61.19 156.58 60.95 156.61 60.72 156.65 60.5 156.68 60.28 156.71 60.07 156.75 59.86 156.78 59.66 156.81 59.46 156.85 59.26 156.88 59.07 156.91 58.89 156.94 58.71 156.98 58.54 157.01 58.37 157.04 58.21 157.08 58.05 157.11 57.9 157.14 57.75 157.17 57.61 157.21 57.47 157.24 57.34 157.27 57.22 157.31 57.1 157.34 56.98 157.37 56.87 157.41 56.77 157.44 56.67 157.47 56.58 157.5 56.49 157.54 56.4 157.57 56.33 157.6 56.25 157.64 56.19 157.67 56.12 157.7 56.06 157.73 56.01 157.77 55.96 157.8 55.92 157.83 55.88 157.87 55.85 157.9 55.82 157.93 55.79 157.97 55.77 158 55.75 158.03 55.74 158.06 55.73 158.1 55.73 158.13 55.73 158.16 55.74 158.2 55.74 158.23 55.76 158.26 55.77 158.29 55.79 158.33 55.81 158.36 55.84 158.39 55.87 158.43 55.91 158.46 55.94 158.49 55.98 158.53 56.02 158.56 56.07 158.59 56.12 158.62 56.17 158.66 56.22 158.69 56.28 158.72 56.34 158.76 56.4 158.79 56.47 158.82 56.53 158.85 56.6 158.89 56.67 158.92 56.75 158.95 56.82 158.99 56.9 159.02 56.98 159.05 57.06 159.09 57.14 159.12 57.23 159.15 57.31 159.18 57.4 159.22 57.49 159.25 57.58 159.28 57.67 159.32 57.76 159.35 57.86 159.38 57.95 159.41 58.05 159.45 58.14 159.48 58.24 159.51 58.34 159.55 58.44 159.58 58.53 159.61 58.63 159.65 58.74 159.68 58.84 159.71 58.94 159.74 59.04 159.78 59.14 159.81 59.24 159.84 59.35 159.88 59.45 159.91 59.55 159.94 59.65 159.97 59.76 160.01 59.86 160.04 59.96 160.07 60.06 160.11 60.17 160.14 60.27 160.17 60.37 160.21 60.47 160.24 60.57 160.27 60.67 160.3 60.77 160.34 60.87 160.37 60.97 160.4 61.06 160.44 61.16 160.47 61.26 160.5 61.35 160.53 61.45 160.57 61.54 160.6 61.63 160.63 61.73 160.67 61.82 160.7 61.91 160.73 62 160.77 62.09 160.8 62.17 160.83 62.26 160.86 62.34 160.9 62.43 160.93 62.51 160.96 62.59 161 62.67 161.03 62.75 161.06 62.83 161.09 62.91 161.13 62.98 161.16 63.06 161.19 63.13 161.23 63.2 161.26 63.27 161.29 63.34 161.33 63.41 161.36 63.48 161.39 63.54 161.42 63.61 161.46 63.67 161.49 63.73 161.52 63.79 161.56 63.85 161.59 63.9 161.62 63.96 161.65 64.01 161.69 64.07 161.72 64.12 161.75 64.17 161.79 64.22 161.82 64.26 161.85 64.31 161.89 64.35 161.92 64.4 161.95 64.44 161.98 64.48 162.02 64.51 162.05 64.55 162.08 64.59 162.12 64.62 162.15 64.65 162.18 64.69 162.21 64.71 162.25 64.74 162.28 64.77 162.31 64.8 162.35 64.82 162.38 64.84 162.41 64.86 162.44 64.88 162.48 64.9 162.51 64.92 162.54 64.93 162.58 64.95 162.61 64.96 162.64 64.97 162.68 64.98 162.71 64.99 162.74 65 162.77 65 162.81 65 162.84 65.01 162.87 65.01 162.91 65.01 162.94 65.01 162.97 65 163 65 163.04 64.99 163.07 64.99 163.1 64.98 163.14 64.97 163.17 64.96 163.2 64.94 163.24 64.93 163.27 64.91 163.3 64.9 163.33 64.88 163.37 64.86 163.4 64.84 163.43 64.82 163.47 64.8 163.5 64.77 163.53 64.75 163.56 64.72 163.6 64.7 163.63 64.67 163.66 64.64 163.7 64.61 163.73 64.58 163.76 64.55 163.8 64.52 163.83 64.49 163.86 64.45 163.89 64.42 163.93 64.39 163.96 64.35 163.99 64.32 164.03 64.28 164.06 64.25 164.09 64.21 164.12 64.18 164.16 64.14 164.19 64.11 164.22 64.07 164.26 64.04 164.29 64.01 164.32 63.97 164.36 63.94 164.39 63.91 164.42 63.88 164.45 63.85 164.49 63.82 164.52 63.8 164.55 63.77 164.59 63.75 164.62 63.73 164.65 63.71 164.68 63.69 164.72 63.67 164.75 63.66 164.78 63.65 164.82 63.64 164.85 63.64 164.88 63.64 164.92 63.64 164.95 63.64 164.98 63.65 165.01 63.66 165.05 63.68 165.08 63.7 165.11 63.72 165.15 63.75 165.18 63.78 165.21 63.81 165.24 63.85 165.28 63.9 165.31 63.95 165.34 64.01 165.38 64.07 165.41 64.13 165.44 64.21 165.48 64.28 165.51 64.37 165.54 64.46 165.57 64.55 165.61 64.66 165.64 64.76 165.67 64.88 165.71 65 165.74 65.13 165.77 65.27 165.8 65.41 165.84 65.56 165.87 65.71 165.9 65.88 165.94 66.05 165.97 66.23 166 66.41 166.04 66.61 166.07 66.81 166.1 67.02 166.13 67.23 166.17 67.46 166.2 67.69 166.23 67.93 166.27 68.18 166.3 68.43 166.33 68.69 166.36 68.97 166.4 69.25 166.43 69.53 166.46 69.83 166.5 70.13 166.53 70.44 166.56 70.76 166.6 71.08 166.63 71.42 166.66 71.76 166.69 72.11 166.73 72.46 166.76 72.83 166.79 73.2 166.83 73.58 166.86 73.96 166.89 74.35 166.92 74.75 166.96 75.16 166.99 75.57 167.02 75.99 167.06 76.42 167.09 76.85 167.12 77.29 167.16 77.73 167.19 78.18 167.22 78.64 167.25 79.1 167.29 79.57 167.32 80.04 167.35 80.52 167.39 81.01 167.42 81.49 167.45 81.99 167.48 82.49 167.52 82.99 167.55 83.5 167.58 84.01 167.62 84.52 167.65 85.04 167.68 85.56 167.72 86.09 167.75 86.62 167.78 87.15 167.81 87.68 167.85 88.22 167.88 88.76 167.91 89.31 167.95 89.85 167.98 90.4 168.01 90.95 168.04 91.5 168.08 92.05 168.11 92.61 168.14 93.17 168.18 93.72 168.21 94.28 168.24 94.84 168.27 95.4 168.31 95.96 168.34 96.52 168.37 97.08 168.41 97.65 168.44 98.21 168.47 98.77 168.51 99.33 168.54 99.89 168.57 100.46 168.6 101.02 168.64 101.58 168.67 102.14 168.7 102.69 168.74 103.25 168.77 103.81 168.8 104.36 168.83 104.92 168.87 105.47 168.9 106.02 168.93 106.57 168.97 107.12 169 107.67 169.03 108.21 169.07 108.75 169.1 109.29 169.13 109.83 169.16 110.37 169.2 110.91 169.23 111.44 169.26 111.97 169.3 112.5 169.33 113.02 169.36 113.55 169.39 114.07 169.43 114.58 169.46 115.1 169.49 115.61 169.53 116.12 169.56 116.63 169.59 117.13 169.63 117.64 169.66 118.14 169.69 118.63 169.72 119.12 169.76 119.61 169.79 120.1 169.82 120.59 169.86 121.07 169.89 121.54 169.92 122.02 169.95 122.49 169.99 122.96 170.02 123.42 170.05 123.89 170.09 124.34 170.12 124.8 170.15 125.25 170.19 125.7 170.22 126.15 170.25 126.59 170.28 127.03 170.32 127.46 170.35 127.89 170.38 128.32 170.42 128.74 170.45 129.16 170.48 129.58 170.51 130 170.55 130.41 170.58 130.81 170.61 131.22 170.65 131.62 170.68 132.01 170.71 132.4 170.75 132.79 170.78 133.18 170.81 133.56 170.84 133.94 170.88 134.31 170.91 134.68 170.94 135.05 170.98 135.41 171.01 135.77 171.04 136.13 171.07 136.48 171.11 136.83 171.14 137.17 171.17 137.51 171.21 137.85 171.24 138.18 171.27 138.51 171.31 138.84 171.34 139.16 171.37 139.48 171.4 139.8 171.44 140.11 171.47 140.42 171.5 140.72 171.54 141.03 171.57 141.32 171.6 141.62 171.63 141.91 171.67 142.2 171.7 142.48 171.73 142.76 171.77 143.04 171.8 143.31 171.83 143.59 171.87 143.85 171.9 144.12 171.93 144.38 171.96 144.64 172 144.89 172.03 145.14 172.06 145.39 172.1 145.64 172.13 145.88 172.16 146.12 172.19 146.35 172.23 146.59 172.26 146.82 172.29 147.05 172.33 147.27 172.36 147.49 172.39 147.71 172.43 147.93 172.46 148.15 172.49 148.36 172.52 148.57 172.56 148.78 172.59 148.98 172.62 149.18 172.66 149.38 172.69 149.58 172.72 149.78 172.75 149.97 172.79 150.16 172.82 150.35 172.85 150.54 172.89 150.72 172.92 150.9 172.95 151.09 172.99 151.27 173.02 151.44 173.05 151.62 173.08 151.79 173.12 151.97 173.15 152.14 173.18 152.31 173.22 152.47 173.25 152.64 173.28 152.8 173.31 152.97 173.35 153.13 173.38 153.29 173.41 153.45 173.45 153.61 173.48 153.77 173.51 153.92 173.54 154.08 173.58 154.23 173.61 154.38 173.64 154.53 173.68 154.69 173.71 154.83 173.74 154.98 173.78 155.13 173.81 155.28 173.84 155.43 173.87 155.57 173.91 155.72 173.94 155.86 173.97 156 174.01 156.15 174.04 156.29 174.07 156.43 174.1 156.57 174.14 156.71 174.17 156.85 174.2 156.99 174.24 157.13 174.27 157.26 174.3 157.4 174.34 157.54 174.37 157.67 174.4 157.81 174.43 157.95 174.47 158.08 174.5 158.22 174.53 158.35 174.57 158.48 174.6 158.62 174.63 158.75 174.66 158.88 174.7 159.02 174.73 159.15 174.76 159.28 174.8 159.41 174.83 159.54 174.86 159.67 174.9 159.8 174.93 159.93 174.96 160.06 174.99 160.19 175.03 160.32 175.06 160.45 175.09 160.58 175.13 160.71 175.16 160.84 175.19 160.97 175.22 161.09 175.26 161.22 175.29 161.35 175.32 161.48 175.36 161.6 175.39 161.73 175.42 161.86 175.46 161.98 175.49 162.11 175.52 162.23 175.55 162.36 175.59 162.48 175.62 162.61 175.65 162.73 175.69 162.86 175.72 162.98 175.75 163.1 175.78 163.23 175.82 163.35 175.85 163.47 175.88 163.59 175.92 163.72 175.95 163.84 175.98 163.96 176.02 164.08 176.05 164.2 176.08 164.32 176.11 164.44 176.15 164.56 176.18 164.68 176.21 164.8 176.25 164.92 176.28 165.04 176.31 165.16 176.34 165.28 176.38 165.4 176.41 165.51 176.44 165.63 176.48 165.75 176.51 165.87 176.54 165.98 176.58 166.1 176.61 166.21 176.64 166.33 176.67 166.44 176.71 166.56 176.74 166.67 176.77 166.78 176.81 166.9 176.84 167.01 176.87 167.12 176.9 167.23 176.94 167.34 176.97 167.45 177 167.56 177.04 167.67 177.07 167.78 177.1 167.89 177.14 168 177.17 168.11 177.2 168.21 177.23 168.32 177.27 168.42 177.3 168.53 177.33 168.63 177.37 168.73 177.4 168.84 177.43 168.94 177.46 169.04 177.5 169.14 177.53 169.24 177.56 169.34 177.6 169.44 177.63 169.53 177.66 169.63 177.7 169.72 177.73 169.82 177.76 169.91 177.79 170.01 177.83 170.1 177.86 170.19 177.89 170.28 177.93 170.37 177.96 170.46 177.99 170.54 178.02 170.63 178.06 170.71 178.09 170.8 178.12 170.88 178.16 170.96 178.19 171.04 178.22 171.12 178.26 171.2 178.29 171.28 178.32 171.35 178.35 171.43 178.39 171.5 178.42 171.58 178.45 171.65 178.49 171.72 178.52 171.79 178.55 171.86 178.58 171.92 178.62 171.99 178.65 172.05 178.68 172.12 178.72 172.18 178.75 172.24 178.78 172.3 178.82 172.36 178.85 172.41 178.88 172.47 178.91 172.53 178.95 172.58 178.98 172.63 179.01 172.68 179.05 172.73 179.08 172.78 179.11 172.83 179.14 172.88 179.18 172.92 179.21 172.97 179.24 173.01 179.28 173.05 179.31 173.09 179.34 173.13 179.37 173.17 179.41 173.21 179.44 173.24 179.47 173.28 179.51 173.31 179.54 173.35 179.57 173.38 179.61 173.41 179.64 173.44 179.67 173.47 179.7 173.5 179.74 173.53 179.77 173.55 179.8 173.58 179.84 173.6 179.87 173.62 179.9 173.65 179.93 173.67 179.97 173.69 180 173.71 180.03 173.73 180.07 173.75 180.1 173.77 180.13 173.78 180.17 173.8 180.2 173.82 180.23 173.83 180.26 173.85 180.3 173.86 180.33 173.87 180.36 173.88 180.4 173.9 180.43 173.91 180.46 173.92 180.49 173.93 180.53 173.94 180.56 173.95 180.59 173.96 180.63 173.97 180.66 173.97 180.69 173.98 180.73 173.99 180.76 174 180.79 174 180.82 174.01 180.86 174.02 180.89 174.02 180.92 174.03 180.96 174.03 180.99 174.04 181.02 174.04 181.05 174.05 181.09 174.05 181.12 174.06 181.15 174.06 181.19 174.07 181.22 174.07 181.25 174.07 181.29 174.08 181.32 174.08 181.35 174.08 181.38 174.09 181.42 174.09 181.45 174.1 181.48 174.1 181.52 174.1 181.55 174.11 181.58 174.11 181.61 174.11 181.65 174.12 181.68 174.12 181.71 174.12 181.75 174.13 181.78 174.13 181.81 174.13 181.85 174.14 181.88 174.14 181.91 174.14 181.94 174.15 181.98 174.15 182.01 174.16 182.04 174.16 182.08 174.16 182.11 174.17 182.14 174.17 182.17 174.18 182.21 174.18 182.24 174.19 182.27 174.19 182.31 174.2 182.34 174.2 182.37 174.21 182.41 174.21 182.44 174.22 182.47 174.22 182.5 174.23 182.54 174.23 182.57 174.24 182.6 174.24 182.64 174.25 182.67 174.25 182.7 174.26 182.73 174.26 182.77 174.27 182.8 174.28 182.83 174.28 182.87 174.29 182.9 174.29 182.93 174.3 182.97 174.31 183 174.31 183.03 174.32 183.06 174.32 183.1 174.33 183.13 174.34 183.16 174.34 183.2 174.35 183.23 174.35 183.26 174.36 183.29 174.36 183.33 174.37 183.36 174.38 183.39 174.38 183.43 174.39 183.46 174.39 183.49 174.4 183.53 174.4 183.56 174.41 183.59 174.42 183.62 174.42 183.66 174.43 183.69 174.43 183.72 174.44 183.76 174.44 183.79 174.45 183.82 174.45 183.85 174.45 183.89 174.46 183.92 174.46 183.95 174.47 183.99 174.47 184.02 174.48 184.05 174.48 184.09 174.48 184.12 174.49 184.15 174.49 184.18 174.49 184.22 174.5 184.25 174.5 184.28 174.5 184.32 174.5 184.35 174.51 184.38 174.51 184.41 174.51 184.45 174.51 184.48 174.51 184.51 174.52 184.55 174.52 184.58 174.52 184.61 174.52 184.65 174.52 184.68 174.52 184.71 174.52 184.74 174.52 184.78 174.52 184.81 174.52 184.84 174.52 184.88 174.52 184.91 174.52 184.94 174.52 184.97 174.52 185.01 174.52 185.04 174.52 185.07 174.51 185.11 174.51 185.14 174.51 185.17 174.51 185.2 174.51 185.24 174.5 185.27 174.5 185.3 174.5 185.34 174.5 185.37 174.49 185.4 174.49 185.44 174.49 185.47 174.48 185.5 174.48 185.53 174.47 185.57 174.47 185.6 174.47 185.63 174.46 185.67 174.46 185.7 174.45 185.73 174.45 185.76 174.45 185.8 174.44 185.83 174.44 185.86 174.43 185.9 174.43 185.93 174.42 185.96 174.42 186 174.41 186.03 174.4 186.06 174.4 186.09 174.39 186.13 174.39 186.16 174.38 186.19 174.38 186.23 174.37 186.26 174.37 186.29 174.36 186.32 174.35 186.36 174.35 186.39 174.34 186.42 174.34 186.46 174.33 186.49 174.33 186.52 174.32 186.56 174.32 186.59 174.31 186.62 174.3 186.65 174.3 186.69 174.29 186.72 174.29 186.75 174.28 186.79 174.28 186.82 174.27 186.85 174.27 186.88 174.26 186.92 174.26 186.95 174.25 186.98 174.25 187.02 174.24 187.05 174.24 187.08 174.23 187.12 174.23 187.15 174.23 187.18 174.22 187.21 174.22 187.25 174.22 187.28 174.21 187.31 174.21 187.35 174.21 187.38 174.2 187.41 174.2 187.44 174.2 187.48 174.2 187.51 174.19 187.54 174.19 187.58 174.19 187.61 174.19 187.64 174.19 187.68 174.18 187.71 174.18 187.74 174.18 187.77 174.18 187.81 174.18 187.84 174.18 187.87 174.18 187.91 174.18 187.94 174.18 187.97 174.18 188 174.18 188.04 174.18 188.07 174.19 188.1 174.19 188.14 174.19 188.17 174.19 188.2 174.19 188.24 174.19 188.27 174.2 188.3 174.2 188.33 174.2 188.37 174.2 188.4 174.21 188.43 174.21 188.47 174.21 188.5 174.22 188.53 174.22 188.56 174.22 188.6 174.23 188.63 174.23 188.66 174.24 188.7 174.24 188.73 174.25 188.76 174.25 188.8 174.26 188.83 174.26 188.86 174.27 188.89 174.27 188.93 174.28 188.96 174.28 188.99 174.29 189.03 174.29 189.06 174.3 189.09 174.31 189.12 174.31 189.16 174.32 189.19 174.32 189.22 174.33 189.26 174.34 189.29 174.34 189.32 174.35 189.36 174.35 189.39 174.36 189.42 174.37 189.45 174.37 189.49 174.38 189.52 174.39 189.55 174.39 189.59 174.4 189.62 174.41 189.65 174.41 189.68 174.42 189.72 174.43 189.75 174.43 189.78 174.44 189.82 174.44 189.85 174.45 189.88 174.46 189.92 174.46 189.95 174.47 189.98 174.48 190.01 174.48 190.05 174.49 190.08 174.49 190.11 174.5 190.15 174.51 190.18 174.51 190.21 174.52 190.24 174.52 190.28 174.53 190.31 174.53 190.34 174.54 190.38 174.55 190.41 174.55 190.44 174.56 190.48 174.56 190.51 174.57 190.54 174.57 190.57 174.58 190.61 174.58 190.64 174.59 190.67 174.59 190.71 174.6 190.74 174.6 190.77 174.6 190.8 174.61 190.84 174.61 190.87 174.62 190.9 174.62 190.94 174.63 190.97 174.63 191 174.63 191.03 174.64 191.07 174.64 191.1 174.64 191.13 174.65 191.17 174.65 191.2 174.65 191.23 174.66 191.27 174.66 191.3 174.66 191.33 174.67 191.36 174.67 191.4 174.67 191.43 174.67 191.46 174.68 191.5 174.68 191.53 174.68 191.56 174.68 191.59 174.69 191.63 174.69 191.66 174.69 191.69 174.69 191.73 174.69 191.76 174.7 191.79 174.7 191.83 174.7 191.86 174.7 191.89 174.7 191.92 174.7 191.96 174.71 191.99 174.71 192.02 174.71 192.06 174.71 192.09 174.71 192.12 174.71 192.15 174.71 192.19 174.72 192.22 174.72 192.25 174.72 192.29 174.72 192.32 174.72 192.35 174.72 192.39 174.72 192.42 174.72 192.45 174.72 192.48 174.72 192.52 174.73 192.55 174.73 192.58 174.73 192.62 174.73 192.65 174.73 192.68 174.73 192.71 174.73 192.75 174.73 192.78 174.73 192.81 174.73 192.85 174.73 192.88 174.73 192.91 174.73 192.95 174.73 192.98 174.73 193.01 174.73 193.04 174.73 193.08 174.73 193.11 174.73 193.14 174.73 193.18 174.74 193.21 174.74 193.24 174.74 193.27 174.74 193.31 174.74 193.34 174.74 193.37 174.74 193.41 174.74 193.44 174.74 193.47 174.74 193.51 174.74 193.54 174.74 193.57 174.74 193.6 174.74 193.64 174.74 193.67 174.74 193.7 174.74 193.74 174.74 193.77 174.74 193.8 174.74 193.83 174.74 193.87 174.74 193.9 174.74 193.93 174.74 193.97 174.74 194 174.74 194.03 174.74 194.07 174.74 194.1 174.74 194.13 174.74 194.16 174.74 194.2 174.74 194.23 174.74 194.26 174.74 194.3 174.74 194.33 174.74 194.36 174.74 194.39 174.74 194.43 174.74 194.46 174.74 194.49 174.74 194.53 174.74 194.56 174.74 194.59 174.74 194.63 174.74 194.66 174.74 194.69 174.74 194.72 174.74"/>
      </g>
      <g stroke-width="0.3" fill="#000000" fill-opacity="0.000" class="geometry" stroke-dasharray="none" stroke="#0000FF" id="img-5b362f1f-15">
        <path fill="none" d="M56.92,174.74 L 57.03 174.74 57.14 174.74 57.24 174.74 57.35 174.74 57.45 174.74 57.56 174.74 57.67 174.74 57.77 174.74 57.88 174.74 57.98 174.74 58.09 174.74 58.2 174.74 58.3 174.74 58.41 174.74 58.51 174.74 58.62 174.74 58.73 174.74 58.83 174.74 58.94 174.74 59.04 174.74 59.15 174.74 59.26 174.74 59.36 174.74 59.47 174.74 59.57 174.74 59.68 174.74 59.79 174.74 59.89 174.74 60 174.74 60.1 174.74 60.21 174.74 60.32 174.74 60.42 174.74 60.53 174.74 60.63 174.74 60.74 174.74 60.85 174.74 60.95 174.74 61.06 174.74 61.16 174.74 61.27 174.74 61.38 174.74 61.48 174.74 61.59 174.74 61.69 174.74 61.8 174.74 61.91 174.74 62.01 174.74 62.12 174.74 62.22 174.74 62.33 174.74 62.44 174.74 62.54 174.74 62.65 174.74 62.75 174.74 62.86 174.74 62.97 174.74 63.07 174.74 63.18 174.74 63.28 174.74 63.39 174.74 63.5 174.74 63.6 174.74 63.71 174.73 63.81 174.73 63.92 174.73 64.03 174.73 64.13 174.73 64.24 174.73 64.34 174.73 64.45 174.73 64.56 174.73 64.66 174.73 64.77 174.73 64.87 174.73 64.98 174.73 65.09 174.73 65.19 174.73 65.3 174.73 65.4 174.73 65.51 174.73 65.62 174.73 65.72 174.73 65.83 174.73 65.93 174.72 66.04 174.72 66.15 174.72 66.25 174.72 66.36 174.72 66.46 174.72 66.57 174.72 66.68 174.72 66.78 174.72 66.89 174.72 66.99 174.72 67.1 174.72 67.21 174.71 67.31 174.71 67.42 174.71 67.52 174.71 67.63 174.71 67.74 174.71 67.84 174.71 67.95 174.71 68.05 174.7 68.16 174.7 68.27 174.7 68.37 174.7 68.48 174.7 68.58 174.7 68.69 174.7 68.8 174.69 68.9 174.69 69.01 174.69 69.11 174.69 69.22 174.69 69.33 174.68 69.43 174.68 69.54 174.68 69.64 174.68 69.75 174.68 69.86 174.67 69.96 174.67 70.07 174.67 70.17 174.67 70.28 174.67 70.39 174.66 70.49 174.66 70.6 174.66 70.7 174.66 70.81 174.65 70.92 174.65 71.02 174.65 71.13 174.65 71.23 174.64 71.34 174.64 71.45 174.64 71.55 174.63 71.66 174.63 71.76 174.63 71.87 174.63 71.98 174.62 72.08 174.62 72.19 174.62 72.29 174.61 72.4 174.61 72.51 174.61 72.61 174.6 72.72 174.6 72.82 174.6 72.93 174.59 73.04 174.59 73.14 174.59 73.25 174.58 73.35 174.58 73.46 174.58 73.57 174.57 73.67 174.57 73.78 174.57 73.89 174.56 73.99 174.56 74.1 174.56 74.2 174.55 74.31 174.55 74.42 174.54 74.52 174.54 74.63 174.54 74.73 174.53 74.84 174.53 74.95 174.53 75.05 174.52 75.16 174.52 75.26 174.52 75.37 174.51 75.48 174.51 75.58 174.5 75.69 174.5 75.79 174.5 75.9 174.49 76.01 174.49 76.11 174.48 76.22 174.48 76.32 174.48 76.43 174.47 76.54 174.47 76.64 174.47 76.75 174.46 76.85 174.46 76.96 174.45 77.07 174.45 77.17 174.45 77.28 174.44 77.38 174.44 77.49 174.44 77.6 174.43 77.7 174.43 77.81 174.42 77.91 174.42 78.02 174.42 78.13 174.41 78.23 174.41 78.34 174.41 78.44 174.4 78.55 174.4 78.66 174.4 78.76 174.39 78.87 174.39 78.97 174.38 79.08 174.38 79.19 174.38 79.29 174.37 79.4 174.37 79.5 174.37 79.61 174.36 79.72 174.36 79.82 174.36 79.93 174.35 80.03 174.35 80.14 174.35 80.25 174.34 80.35 174.34 80.46 174.33 80.56 174.33 80.67 174.33 80.78 174.32 80.88 174.32 80.99 174.32 81.09 174.31 81.2 174.31 81.31 174.31 81.41 174.3 81.52 174.3 81.62 174.3 81.73 174.29 81.84 174.29 81.94 174.29 82.05 174.28 82.15 174.28 82.26 174.27 82.37 174.27 82.47 174.27 82.58 174.26 82.68 174.26 82.79 174.26 82.9 174.25 83 174.25 83.11 174.25 83.21 174.24 83.32 174.24 83.43 174.23 83.53 174.23 83.64 174.23 83.74 174.22 83.85 174.22 83.96 174.21 84.06 174.21 84.17 174.21 84.27 174.2 84.38 174.2 84.49 174.19 84.59 174.19 84.7 174.19 84.8 174.18 84.91 174.18 85.02 174.17 85.12 174.17 85.23 174.16 85.33 174.16 85.44 174.16 85.55 174.15 85.65 174.15 85.76 174.14 85.86 174.14 85.97 174.13 86.08 174.13 86.18 174.12 86.29 174.12 86.39 174.11 86.5 174.1 86.61 174.1 86.71 174.09 86.82 174.09 86.92 174.08 87.03 174.07 87.14 174.07 87.24 174.06 87.35 174.06 87.45 174.05 87.56 174.04 87.67 174.04 87.77 174.03 87.88 174.02 87.98 174.01 88.09 174.01 88.2 174 88.3 173.99 88.41 173.98 88.51 173.98 88.62 173.97 88.73 173.96 88.83 173.95 88.94 173.94 89.04 173.93 89.15 173.92 89.26 173.91 89.36 173.9 89.47 173.89 89.57 173.88 89.68 173.87 89.79 173.86 89.89 173.85 90 173.84 90.1 173.83 90.21 173.82 90.32 173.81 90.42 173.8 90.53 173.78 90.63 173.77 90.74 173.76 90.85 173.75 90.95 173.73 91.06 173.72 91.16 173.71 91.27 173.69 91.38 173.68 91.48 173.67 91.59 173.65 91.69 173.64 91.8 173.62 91.91 173.61 92.01 173.59 92.12 173.58 92.22 173.56 92.33 173.54 92.44 173.53 92.54 173.51 92.65 173.49 92.75 173.48 92.86 173.46 92.97 173.44 93.07 173.43 93.18 173.41 93.28 173.39 93.39 173.37 93.5 173.35 93.6 173.33 93.71 173.31 93.81 173.29 93.92 173.27 94.03 173.25 94.13 173.23 94.24 173.21 94.35 173.19 94.45 173.17 94.56 173.15 94.66 173.13 94.77 173.11 94.88 173.09 94.98 173.06 95.09 173.04 95.19 173.02 95.3 173 95.41 172.97 95.51 172.95 95.62 172.93 95.72 172.9 95.83 172.88 95.94 172.86 96.04 172.83 96.15 172.81 96.25 172.78 96.36 172.76 96.47 172.73 96.57 172.7 96.68 172.68 96.78 172.65 96.89 172.63 97 172.6 97.1 172.57 97.21 172.54 97.31 172.52 97.42 172.49 97.53 172.46 97.63 172.43 97.74 172.41 97.84 172.38 97.95 172.35 98.06 172.32 98.16 172.29 98.27 172.26 98.37 172.23 98.48 172.2 98.59 172.17 98.69 172.14 98.8 172.11 98.9 172.07 99.01 172.04 99.12 172.01 99.22 171.98 99.33 171.95 99.43 171.91 99.54 171.88 99.65 171.85 99.75 171.82 99.86 171.78 99.96 171.75 100.07 171.71 100.18 171.68 100.28 171.65 100.39 171.61 100.49 171.58 100.6 171.54 100.71 171.51 100.81 171.47 100.92 171.43 101.02 171.4 101.13 171.36 101.24 171.33 101.34 171.29 101.45 171.25 101.55 171.21 101.66 171.18 101.77 171.14 101.87 171.1 101.98 171.06 102.08 171.03 102.19 170.99 102.3 170.95 102.4 170.91 102.51 170.87 102.61 170.84 102.72 170.8 102.83 170.76 102.93 170.72 103.04 170.68 103.14 170.64 103.25 170.6 103.36 170.56 103.46 170.52 103.57 170.48 103.67 170.44 103.78 170.4 103.89 170.36 103.99 170.32 104.1 170.28 104.2 170.24 104.31 170.2 104.42 170.16 104.52 170.12 104.63 170.08 104.73 170.04 104.84 170 104.95 169.96 105.05 169.92 105.16 169.88 105.26 169.84 105.37 169.8 105.48 169.76 105.58 169.72 105.69 169.68 105.79 169.64 105.9 169.6 106.01 169.55 106.11 169.51 106.22 169.47 106.32 169.43 106.43 169.39 106.54 169.35 106.64 169.31 106.75 169.27 106.85 169.22 106.96 169.18 107.07 169.14 107.17 169.1 107.28 169.06 107.38 169.01 107.49 168.97 107.6 168.93 107.7 168.89 107.81 168.84 107.91 168.8 108.02 168.76 108.13 168.71 108.23 168.67 108.34 168.62 108.44 168.58 108.55 168.53 108.66 168.49 108.76 168.44 108.87 168.4 108.97 168.35 109.08 168.3 109.19 168.26 109.29 168.21 109.4 168.16 109.5 168.11 109.61 168.07 109.72 168.02 109.82 167.97 109.93 167.92 110.03 167.87 110.14 167.82 110.25 167.76 110.35 167.71 110.46 167.66 110.56 167.61 110.67 167.55 110.78 167.5 110.88 167.44 110.99 167.39 111.09 167.33 111.2 167.27 111.31 167.22 111.41 167.16 111.52 167.1 111.62 167.04 111.73 166.98 111.84 166.92 111.94 166.85 112.05 166.79 112.15 166.73 112.26 166.67 112.37 166.6 112.47 166.54 112.58 166.47 112.68 166.4 112.79 166.33 112.9 166.27 113 166.2 113.11 166.13 113.21 166.06 113.32 165.99 113.43 165.91 113.53 165.84 113.64 165.77 113.74 165.69 113.85 165.62 113.96 165.54 114.06 165.47 114.17 165.39 114.27 165.31 114.38 165.24 114.49 165.16 114.59 165.08 114.7 165 114.81 164.92 114.91 164.84 115.02 164.75 115.12 164.67 115.23 164.59 115.34 164.51 115.44 164.42 115.55 164.34 115.65 164.25 115.76 164.17 115.87 164.08 115.97 164 116.08 163.91 116.18 163.82 116.29 163.74 116.4 163.65 116.5 163.56 116.61 163.47 116.71 163.39 116.82 163.3 116.93 163.21 117.03 163.12 117.14 163.03 117.24 162.94 117.35 162.85 117.46 162.76 117.56 162.67 117.67 162.58 117.77 162.49 117.88 162.4 117.99 162.31 118.09 162.22 118.2 162.13 118.3 162.04 118.41 161.95 118.52 161.86 118.62 161.77 118.73 161.68 118.83 161.59 118.94 161.5 119.05 161.41 119.15 161.32 119.26 161.23 119.36 161.14 119.47 161.05 119.58 160.96 119.68 160.87 119.79 160.78 119.89 160.69 120 160.6 120.11 160.51 120.21 160.42 120.32 160.33 120.42 160.24 120.53 160.15 120.64 160.06 120.74 159.98 120.85 159.89 120.95 159.8 121.06 159.71 121.17 159.62 121.27 159.54 121.38 159.45 121.48 159.36 121.59 159.27 121.7 159.19 121.8 159.1 121.91 159.01 122.01 158.92 122.12 158.84 122.23 158.75 122.33 158.66 122.44 158.57 122.54 158.49 122.65 158.4 122.76 158.31 122.86 158.22 122.97 158.13 123.07 158.05 123.18 157.96 123.29 157.87 123.39 157.78 123.5 157.69 123.6 157.6 123.71 157.51 123.82 157.42 123.92 157.33 124.03 157.24 124.13 157.15 124.24 157.06 124.35 156.97 124.45 156.88 124.56 156.79 124.66 156.69 124.77 156.6 124.88 156.51 124.98 156.41 125.09 156.32 125.19 156.22 125.3 156.13 125.41 156.03 125.51 155.93 125.62 155.84 125.72 155.74 125.83 155.64 125.94 155.54 126.04 155.44 126.15 155.34 126.25 155.24 126.36 155.14 126.47 155.03 126.57 154.93 126.68 154.82 126.78 154.72 126.89 154.61 127 154.51 127.1 154.4 127.21 154.29 127.31 154.18 127.42 154.07 127.53 153.96 127.63 153.85 127.74 153.73 127.84 153.62 127.95 153.51 128.06 153.39 128.16 153.27 128.27 153.16 128.37 153.04 128.48 152.92 128.59 152.8 128.69 152.68 128.8 152.56 128.9 152.44 129.01 152.32 129.12 152.19 129.22 152.07 129.33 151.94 129.43 151.82 129.54 151.69 129.65 151.57 129.75 151.44 129.86 151.31 129.96 151.18 130.07 151.05 130.18 150.92 130.28 150.79 130.39 150.66 130.49 150.53 130.6 150.39 130.71 150.26 130.81 150.13 130.92 149.99 131.02 149.86 131.13 149.72 131.24 149.59 131.34 149.45 131.45 149.32 131.55 149.18 131.66 149.04 131.77 148.91 131.87 148.77 131.98 148.63 132.08 148.5 132.19 148.36 132.3 148.22 132.4 148.08 132.51 147.94 132.61 147.81 132.72 147.67 132.83 147.53 132.93 147.39 133.04 147.25 133.14 147.12 133.25 146.98 133.36 146.84 133.46 146.7 133.57 146.57 133.67 146.43 133.78 146.29 133.89 146.16 133.99 146.02 134.1 145.88 134.2 145.75 134.31 145.61 134.42 145.48 134.52 145.34 134.63 145.21 134.73 145.07 134.84 144.94 134.95 144.81 135.05 144.67 135.16 144.54 135.27 144.41 135.37 144.28 135.48 144.15 135.58 144.02 135.69 143.89 135.8 143.76 135.9 143.63 136.01 143.5 136.11 143.38 136.22 143.25 136.33 143.13 136.43 143 136.54 142.88 136.64 142.75 136.75 142.63 136.86 142.51 136.96 142.39 137.07 142.26 137.17 142.14 137.28 142.02 137.39 141.91 137.49 141.79 137.6 141.67 137.7 141.55 137.81 141.44 137.92 141.32 138.02 141.21 138.13 141.1 138.23 140.98 138.34 140.87 138.45 140.76 138.55 140.65 138.66 140.54 138.76 140.43 138.87 140.32 138.98 140.21 139.08 140.11 139.19 140 139.29 139.89 139.4 139.79 139.51 139.69 139.61 139.58 139.72 139.48 139.82 139.38 139.93 139.28 140.04 139.18 140.14 139.08 140.25 138.98 140.35 138.88 140.46 138.78 140.57 138.68 140.67 138.59 140.78 138.49 140.88 138.4 140.99 138.3 141.1 138.21 141.2 138.12 141.31 138.03 141.41 137.93 141.52 137.84 141.63 137.75 141.73 137.67 141.84 137.58 141.94 137.49 142.05 137.4 142.16 137.32 142.26 137.23 142.37 137.14 142.47 137.06 142.58 136.98 142.69 136.89 142.79 136.81 142.9 136.73 143 136.65 143.11 136.57 143.22 136.49 143.32 136.41 143.43 136.33 143.53 136.26 143.64 136.18 143.75 136.1 143.85 136.03 143.96 135.95 144.06 135.88 144.17 135.81 144.28 135.74 144.38 135.66 144.49 135.59 144.59 135.52 144.7 135.46 144.81 135.39 144.91 135.32 145.02 135.25 145.12 135.19 145.23 135.12 145.34 135.06 145.44 135 145.55 134.94 145.65 134.87 145.76 134.81 145.87 134.76 145.97 134.7 146.08 134.64 146.18 134.58 146.29 134.53 146.4 134.47 146.5 134.42 146.61 134.37 146.71 134.32 146.82 134.27 146.93 134.22 147.03 134.17 147.14 134.12 147.24 134.07 147.35 134.03 147.46 133.98 147.56 133.94 147.67 133.9 147.77 133.86 147.88 133.82 147.99 133.78 148.09 133.74 148.2 133.7 148.3 133.67 148.41 133.63 148.52 133.6 148.62 133.57 148.73 133.54 148.83 133.51 148.94 133.48 149.05 133.45 149.15 133.42 149.26 133.4 149.36 133.37 149.47 133.35 149.58 133.32 149.68 133.3 149.79 133.28 149.89 133.26 150 133.24 150.11 133.23 150.21 133.21 150.32 133.19 150.42 133.18 150.53 133.17 150.64 133.15 150.74 133.14 150.85 133.13 150.95 133.12 151.06 133.11 151.17 133.11 151.27 133.1 151.38 133.09 151.48 133.09 151.59 133.08 151.7 133.08 151.8 133.08 151.91 133.08 152.01 133.08 152.12 133.08 152.23 133.08 152.33 133.08 152.44 133.08 152.54 133.08 152.65 133.09 152.76 133.09 152.86 133.1 152.97 133.1 153.07 133.11 153.18 133.12 153.29 133.12 153.39 133.13 153.5 133.14 153.6 133.15 153.71 133.16 153.82 133.17 153.92 133.18 154.03 133.2 154.13 133.21 154.24 133.22 154.35 133.24 154.45 133.25 154.56 133.27 154.66 133.28 154.77 133.3 154.88 133.32 154.98 133.33 155.09 133.35 155.19 133.37 155.3 133.39 155.41 133.41 155.51 133.43 155.62 133.45 155.73 133.47 155.83 133.5 155.94 133.52 156.04 133.54 156.15 133.57 156.26 133.59 156.36 133.62 156.47 133.65 156.57 133.67 156.68 133.7 156.79 133.73 156.89 133.76 157 133.79 157.1 133.82 157.21 133.85 157.32 133.89 157.42 133.92 157.53 133.96 157.63 133.99 157.74 134.03 157.85 134.07 157.95 134.11 158.06 134.15 158.16 134.19 158.27 134.23 158.38 134.27 158.48 134.32 158.59 134.36 158.69 134.41 158.8 134.46 158.91 134.5 159.01 134.55 159.12 134.61 159.22 134.66 159.33 134.71 159.44 134.77 159.54 134.82 159.65 134.88 159.75 134.94 159.86 135 159.97 135.06 160.07 135.12 160.18 135.19 160.28 135.26 160.39 135.32 160.5 135.39 160.6 135.46 160.71 135.53 160.81 135.6 160.92 135.68 161.03 135.75 161.13 135.83 161.24 135.91 161.34 135.99 161.45 136.07 161.56 136.15 161.66 136.24 161.77 136.32 161.87 136.41 161.98 136.5 162.09 136.59 162.19 136.68 162.3 136.77 162.4 136.86 162.51 136.96 162.62 137.05 162.72 137.15 162.83 137.25 162.93 137.35 163.04 137.45 163.15 137.55 163.25 137.66 163.36 137.76 163.46 137.86 163.57 137.97 163.68 138.08 163.78 138.19 163.89 138.3 163.99 138.41 164.1 138.52 164.21 138.63 164.31 138.74 164.42 138.86 164.52 138.97 164.63 139.08 164.74 139.2 164.84 139.32 164.95 139.43 165.05 139.55 165.16 139.67 165.27 139.79 165.37 139.91 165.48 140.03 165.58 140.15 165.69 140.27 165.8 140.39 165.9 140.51 166.01 140.63 166.11 140.75 166.22 140.87 166.33 141 166.43 141.12 166.54 141.24 166.64 141.36 166.75 141.48 166.86 141.61 166.96 141.73 167.07 141.85 167.17 141.98 167.28 142.1 167.39 142.22 167.49 142.34 167.6 142.46 167.7 142.59 167.81 142.71 167.92 142.83 168.02 142.95 168.13 143.07 168.23 143.2 168.34 143.32 168.45 143.44 168.55 143.56 168.66 143.68 168.76 143.8 168.87 143.92 168.98 144.04 169.08 144.16 169.19 144.28 169.29 144.4 169.4 144.51 169.51 144.63 169.61 144.75 169.72 144.87 169.82 144.99 169.93 145.1 170.04 145.22 170.14 145.34 170.25 145.45 170.35 145.57 170.46 145.68 170.57 145.8 170.67 145.91 170.78 146.03 170.88 146.14 170.99 146.26 171.1 146.37 171.2 146.48 171.31 146.6 171.41 146.71 171.52 146.82 171.63 146.93 171.73 147.05 171.84 147.16 171.94 147.27 172.05 147.38 172.16 147.49 172.26 147.6 172.37 147.71 172.47 147.83 172.58 147.94 172.69 148.05 172.79 148.16 172.9 148.27 173 148.38 173.11 148.49 173.22 148.6 173.32 148.7 173.43 148.81 173.53 148.92 173.64 149.03 173.75 149.14 173.85 149.25 173.96 149.36 174.06 149.47 174.17 149.57 174.28 149.68 174.38 149.79 174.49 149.9 174.59 150 174.7 150.11 174.81 150.22 174.91 150.33 175.02 150.43 175.12 150.54 175.23 150.65 175.34 150.75 175.44 150.86 175.55 150.97 175.65 151.07 175.76 151.18 175.87 151.28 175.97 151.39 176.08 151.49 176.19 151.6 176.29 151.7 176.4 151.81 176.5 151.91 176.61 152.02 176.72 152.12 176.82 152.22 176.93 152.33 177.03 152.43 177.14 152.53 177.25 152.64 177.35 152.74 177.46 152.84 177.56 152.94 177.67 153.05 177.78 153.15 177.88 153.25 177.99 153.35 178.09 153.45 178.2 153.55 178.31 153.65 178.41 153.75 178.52 153.85 178.62 153.95 178.73 154.05 178.84 154.14 178.94 154.24 179.05 154.34 179.15 154.43 179.26 154.53 179.37 154.63 179.47 154.72 179.58 154.82 179.68 154.91 179.79 155.01 179.9 155.1 180 155.19 180.11 155.29 180.21 155.38 180.32 155.47 180.43 155.56 180.53 155.66 180.64 155.75 180.74 155.84 180.85 155.93 180.96 156.02 181.06 156.1 181.17 156.19 181.27 156.28 181.38 156.37 181.49 156.45 181.59 156.54 181.7 156.63 181.8 156.71 181.91 156.8 182.02 156.88 182.12 156.96 182.23 157.05 182.33 157.13 182.44 157.21 182.55 157.3 182.65 157.38 182.76 157.46 182.86 157.54 182.97 157.62 183.08 157.7 183.18 157.78 183.29 157.85 183.39 157.93 183.5 158.01 183.61 158.09 183.71 158.16 183.82 158.24 183.92 158.32 184.03 158.39 184.14 158.47 184.24 158.54 184.35 158.61 184.45 158.69 184.56 158.76 184.67 158.83 184.77 158.91 184.88 158.98 184.98 159.05 185.09 159.12 185.2 159.19 185.3 159.26 185.41 159.33 185.51 159.4 185.62 159.47 185.73 159.54 185.83 159.61 185.94 159.68 186.04 159.75 186.15 159.81 186.26 159.88 186.36 159.95 186.47 160.01 186.57 160.08 186.68 160.15 186.79 160.21 186.89 160.28 187 160.35 187.1 160.41 187.21 160.48 187.32 160.54 187.42 160.61 187.53 160.67 187.63 160.73 187.74 160.8 187.85 160.86 187.95 160.93 188.06 160.99 188.16 161.05 188.27 161.12 188.38 161.18 188.48 161.24 188.59 161.31 188.69 161.37 188.8 161.43 188.91 161.49 189.01 161.56 189.12 161.62 189.22 161.68 189.33 161.74 189.44 161.81 189.54 161.87 189.65 161.93 189.75 161.99 189.86 162.05 189.97 162.12 190.07 162.18 190.18 162.24 190.28 162.3 190.39 162.36 190.5 162.42 190.6 162.49 190.71 162.55 190.81 162.61 190.92 162.67 191.03 162.73 191.13 162.79 191.24 162.85 191.34 162.92 191.45 162.98 191.56 163.04 191.66 163.1 191.77 163.16 191.87 163.22 191.98 163.28 192.09 163.34 192.19 163.41 192.3 163.47 192.4 163.53 192.51 163.59 192.62 163.65 192.72 163.71 192.83 163.77 192.93 163.83 193.04 163.89 193.15 163.96 193.25 164.02 193.36 164.08 193.46 164.14 193.57 164.2 193.68 164.26 193.78 164.32 193.89 164.38 193.99 164.44 194.1 164.5 194.21 164.56 194.31 164.62 194.42 164.68 194.52 164.74 194.63 164.8 194.74 164.86 194.84 164.92 194.95 164.98 195.05 165.04 195.16 165.1 195.27 165.16 195.37 165.21 195.48 165.27 195.58 165.33 195.69 165.39 195.8 165.45 195.9 165.51 196.01 165.56 196.11 165.62 196.22 165.68 196.33 165.73 196.43 165.79 196.54 165.85 196.65 165.9 196.75 165.96 196.86 166.02 196.96 166.07 197.07 166.13 197.18 166.18 197.28 166.24 197.39 166.29 197.49 166.35 197.6 166.4 197.71 166.46 197.81 166.51 197.92 166.56 198.02 166.62 198.13 166.67 198.24 166.72 198.34 166.78 198.45 166.83 198.55 166.88 198.66 166.93 198.77 166.98 198.87 167.04 198.98 167.09 199.08 167.14 199.19 167.19 199.3 167.24 199.4 167.29 199.51 167.34 199.61 167.39 199.72 167.44 199.83 167.49 199.93 167.54 200.04 167.59 200.14 167.64 200.25 167.68 200.36 167.73 200.46 167.78 200.57 167.83 200.67 167.88 200.78 167.93 200.89 167.97 200.99 168.02 201.1 168.07 201.2 168.11 201.31 168.16 201.42 168.21 201.52 168.25 201.63 168.3 201.73 168.35 201.84 168.39 201.95 168.44 202.05 168.49 202.16 168.53 202.26 168.58 202.37 168.62 202.48 168.67 202.58 168.71 202.69 168.76 202.79 168.8 202.9 168.85 203.01 168.9 203.11 168.94 203.22 168.98 203.32 169.03 203.43 169.07 203.54 169.12 203.64 169.16 203.75 169.21 203.85 169.25 203.96 169.3 204.07 169.34 204.17 169.39 204.28 169.43 204.38 169.47 204.49 169.52 204.6 169.56 204.7 169.61 204.81 169.65 204.91 169.69 205.02 169.74 205.13 169.78 205.23 169.82 205.34 169.87 205.44 169.91 205.55 169.95 205.66 170 205.76 170.04 205.87 170.08 205.97 170.13 206.08 170.17 206.19 170.21 206.29 170.25 206.4 170.3 206.5 170.34 206.61 170.38 206.72 170.42 206.82 170.47 206.93 170.51 207.03 170.55 207.14 170.59 207.25 170.63 207.35 170.67 207.46 170.72 207.56 170.76 207.67 170.8 207.78 170.84 207.88 170.88 207.99 170.92 208.09 170.96 208.2 171 208.31 171.04 208.41 171.08 208.52 171.12 208.62 171.16 208.73 171.2 208.84 171.24 208.94 171.28 209.05 171.31 209.15 171.35 209.26 171.39 209.37 171.43 209.47 171.46 209.58 171.5 209.68 171.54 209.79 171.58 209.9 171.61 210 171.65 210.11 171.68 210.21 171.72 210.32 171.75 210.43 171.79 210.53 171.82 210.64 171.86 210.74 171.89 210.85 171.92 210.96 171.96 211.06 171.99 211.17 172.02 211.27 172.06 211.38 172.09 211.49 172.12 211.59 172.15 211.7 172.18 211.8 172.21 211.91 172.24 212.02 172.27 212.12 172.3 212.23 172.33 212.33 172.35 212.44 172.38 212.55 172.41 212.65 172.44 212.76 172.46 212.86 172.49 212.97 172.51 213.08 172.54 213.18 172.56 213.29 172.59 213.39 172.61 213.5 172.63 213.61 172.66 213.71 172.68 213.82 172.7 213.92 172.72 214.03 172.74 214.14 172.76 214.24 172.78 214.35 172.8 214.45 172.82 214.56 172.84 214.67 172.86 214.77 172.88 214.88 172.89 214.98 172.91 215.09 172.92 215.2 172.94 215.3 172.96 215.41 172.97 215.51 172.98 215.62 173 215.73 173.01 215.83 173.02 215.94 173.04 216.04 173.05 216.15 173.06 216.26 173.07 216.36 173.08 216.47 173.09 216.57 173.1 216.68 173.11 216.79 173.12 216.89 173.13 217 173.14 217.11 173.15 217.21 173.15 217.32 173.16 217.42 173.17 217.53 173.17 217.64 173.18 217.74 173.18 217.85 173.19 217.95 173.19 218.06 173.2 218.17 173.2 218.27 173.21 218.38 173.21 218.48 173.22 218.59 173.22 218.7 173.22 218.8 173.23 218.91 173.23 219.01 173.23 219.12 173.23 219.23 173.23 219.33 173.24 219.44 173.24 219.54 173.24 219.65 173.24 219.76 173.24 219.86 173.24 219.97 173.25 220.07 173.25 220.18 173.25 220.29 173.25 220.39 173.25 220.5 173.25 220.6 173.25 220.71 173.25 220.82 173.25 220.92 173.25 221.03 173.25 221.13 173.26 221.24 173.26 221.35 173.26 221.45 173.26 221.56 173.26 221.66 173.26 221.77 173.26 221.88 173.26 221.98 173.27 222.09 173.27 222.19 173.27 222.3 173.27 222.41 173.27 222.51 173.28 222.62 173.28 222.72 173.28 222.83 173.28 222.94 173.29 223.04 173.29 223.15 173.29 223.25 173.3 223.36 173.3 223.47 173.31 223.57 173.31 223.68 173.31 223.78 173.32 223.89 173.32 224 173.33 224.1 173.34 224.21 173.34 224.31 173.35 224.42 173.35 224.53 173.36 224.63 173.37 224.74 173.37 224.84 173.38 224.95 173.39 225.06 173.4 225.16 173.4 225.27 173.41 225.37 173.42 225.48 173.43 225.59 173.44 225.69 173.45 225.8 173.46 225.9 173.47 226.01 173.47 226.12 173.48 226.22 173.49 226.33 173.5 226.43 173.51 226.54 173.53 226.65 173.54 226.75 173.55 226.86 173.56 226.96 173.57 227.07 173.58 227.18 173.59 227.28 173.6 227.39 173.61 227.49 173.63 227.6 173.64 227.71 173.65 227.81 173.66 227.92 173.67 228.02 173.68 228.13 173.7 228.24 173.71 228.34 173.72 228.45 173.73 228.55 173.75 228.66 173.76 228.77 173.77 228.87 173.78 228.98 173.79 229.08 173.81 229.19 173.82 229.3 173.83 229.4 173.84 229.51 173.85 229.61 173.87 229.72 173.88 229.83 173.89 229.93 173.9 230.04 173.91 230.14 173.92 230.25 173.93 230.36 173.95 230.46 173.96 230.57 173.97 230.67 173.98 230.78 173.99 230.89 174 230.99 174.01 231.1 174.02 231.2 174.03 231.31 174.04 231.42 174.05 231.52 174.06 231.63 174.07 231.73 174.08 231.84 174.09 231.95 174.1 232.05 174.11 232.16 174.12 232.26 174.12 232.37 174.13 232.48 174.14 232.58 174.15 232.69 174.16 232.79 174.16 232.9 174.17 233.01 174.18 233.11 174.19 233.22 174.19 233.32 174.2 233.43 174.21 233.54 174.21 233.64 174.22 233.75 174.23 233.85 174.23 233.96 174.24 234.07 174.25 234.17 174.25 234.28 174.26 234.38 174.26 234.49 174.27 234.6 174.27 234.7 174.28 234.81 174.28 234.91 174.29 235.02 174.29 235.13 174.3 235.23 174.3 235.34 174.31 235.44 174.31 235.55 174.31 235.66 174.32 235.76 174.32 235.87 174.33 235.97 174.33 236.08 174.33 236.19 174.34 236.29 174.34 236.4 174.34 236.5 174.35 236.61 174.35 236.72 174.35 236.82 174.36 236.93 174.36 237.03 174.36 237.14 174.37 237.25 174.37 237.35 174.37 237.46 174.38 237.57 174.38 237.67 174.38 237.78 174.38 237.88 174.39 237.99 174.39 238.1 174.39 238.2 174.4 238.31 174.4 238.41 174.4 238.52 174.4 238.63 174.41 238.73 174.41 238.84 174.41 238.94 174.41 239.05 174.42 239.16 174.42 239.26 174.42 239.37 174.42 239.47 174.43 239.58 174.43 239.69 174.43 239.79 174.43 239.9 174.44 240 174.44 240.11 174.44 240.22 174.44 240.32 174.45 240.43 174.45 240.53 174.45 240.64 174.45 240.75 174.46 240.85 174.46 240.96 174.46 241.06 174.46 241.17 174.47 241.28 174.47 241.38 174.47 241.49 174.47 241.59 174.48 241.7 174.48 241.81 174.48 241.91 174.48 242.02 174.49 242.12 174.49 242.23 174.49 242.34 174.49 242.44 174.5 242.55 174.5 242.65 174.5 242.76 174.5 242.87 174.5 242.97 174.51 243.08 174.51 243.18 174.51 243.29 174.51 243.4 174.52 243.5 174.52 243.61 174.52 243.71 174.52 243.82 174.52 243.93 174.53 244.03 174.53 244.14 174.53 244.24 174.53 244.35 174.53 244.46 174.53 244.56 174.54 244.67 174.54 244.77 174.54 244.88 174.54 244.99 174.54 245.09 174.54 245.2 174.55 245.3 174.55 245.41 174.55 245.52 174.55 245.62 174.55 245.73 174.55 245.83 174.55 245.94 174.55 246.05 174.55 246.15 174.56 246.26 174.56 246.36 174.56 246.47 174.56 246.58 174.56 246.68 174.56 246.79 174.56 246.89 174.56 247 174.56 247.11 174.56 247.21 174.56 247.32 174.56 247.42 174.56 247.53 174.56 247.64 174.56 247.74 174.56 247.85 174.56 247.95 174.56 248.06 174.56 248.17 174.56 248.27 174.56 248.38 174.56 248.48 174.56 248.59 174.56 248.7 174.56 248.8 174.56 248.91 174.56 249.01 174.56 249.12 174.56 249.23 174.56 249.33 174.56 249.44 174.56 249.54 174.56 249.65 174.55 249.76 174.55 249.86 174.55 249.97 174.55 250.07 174.55 250.18 174.55 250.29 174.55 250.39 174.55 250.5 174.55 250.6 174.55 250.71 174.55 250.82 174.55 250.92 174.55 251.03 174.55 251.13 174.55 251.24 174.55 251.35 174.55 251.45 174.55 251.56 174.55 251.66 174.54 251.77 174.54 251.88 174.54 251.98 174.54 252.09 174.54 252.19 174.54 252.3 174.54 252.41 174.54 252.51 174.54 252.62 174.54 252.72 174.54 252.83 174.54 252.94 174.54 253.04 174.54 253.15 174.55 253.25 174.55 253.36 174.55 253.47 174.55 253.57 174.55 253.68 174.55 253.78 174.55 253.89 174.55 254 174.55 254.1 174.55 254.21 174.55 254.31 174.55 254.42 174.55 254.53 174.56 254.63 174.56 254.74 174.56 254.84 174.56 254.95 174.56 255.06 174.56 255.16 174.56 255.27 174.56 255.37 174.57 255.48 174.57 255.59 174.57 255.69 174.57 255.8 174.57 255.9 174.57 256.01 174.58 256.12 174.58 256.22 174.58 256.33 174.58 256.43 174.58 256.54 174.59 256.65 174.59 256.75 174.59 256.86 174.59 256.96 174.6 257.07 174.6 257.18 174.6 257.28 174.6 257.39 174.6 257.49 174.61 257.6 174.61 257.71 174.61 257.81 174.61 257.92 174.62 258.03 174.62 258.13 174.62 258.24 174.62 258.34 174.63 258.45 174.63 258.56 174.63 258.66 174.63 258.77 174.63 258.87 174.64 258.98 174.64 259.09 174.64 259.19 174.64 259.3 174.65 259.4 174.65 259.51 174.65 259.62 174.65 259.72 174.65 259.83 174.66 259.93 174.66 260.04 174.66 260.15 174.66 260.25 174.67 260.36 174.67 260.46 174.67 260.57 174.67 260.68 174.67 260.78 174.68 260.89 174.68 260.99 174.68 261.1 174.68 261.21 174.68 261.31 174.68 261.42 174.69 261.52 174.69 261.63 174.69 261.74 174.69 261.84 174.69 261.95 174.69 262.05 174.7 262.16 174.7 262.27 174.7 262.37 174.7 262.48 174.7 262.58 174.7 262.69 174.7 262.8 174.71 262.9 174.71 263.01 174.71 263.11 174.71 263.22 174.71 263.33 174.71 263.43 174.71 263.54 174.71 263.64 174.72 263.75 174.72 263.86 174.72 263.96 174.72 264.07 174.72 264.17 174.72 264.28 174.72 264.39 174.72 264.49 174.72 264.6 174.72 264.7 174.72 264.81 174.72 264.92 174.73 265.02 174.73 265.13 174.73 265.23 174.73 265.34 174.73 265.45 174.73 265.55 174.73 265.66 174.73 265.76 174.73 265.87 174.73 265.98 174.73 266.08 174.73 266.19 174.73 266.29 174.73 266.4 174.73 266.51 174.73 266.61 174.73 266.72 174.73 266.82 174.73 266.93 174.73 267.04 174.73 267.14 174.73 267.25 174.74 267.35 174.74 267.46 174.74 267.57 174.74 267.67 174.74 267.78 174.74 267.88 174.74 267.99 174.74 268.1 174.74 268.2 174.74 268.31 174.74 268.41 174.74 268.52 174.74 268.63 174.74 268.73 174.74 268.84 174.74 268.94 174.74 269.05 174.74 269.16 174.74 269.26 174.74 269.37 174.74 269.47 174.74 269.58 174.74 269.69 174.74 269.79 174.74 269.9 174.74 270 174.74 270.11 174.74 270.22 174.74 270.32 174.74 270.43 174.74 270.53 174.74 270.64 174.74 270.75 174.74 270.85 174.74 270.96 174.74 271.06 174.74 271.17 174.74 271.28 174.74 271.38 174.74 271.49 174.74 271.59 174.74 271.7 174.74 271.81 174.74 271.91 174.74 272.02 174.74 272.12 174.74 272.23 174.74 272.34 174.74 272.44 174.74 272.55 174.74 272.65 174.74 272.76 174.74 272.87 174.74 272.97 174.74 273.08 174.74 273.18 174.74 273.29 174.74 273.4 174.74 273.5 174.74 273.61 174.74 273.71 174.74 273.82 174.74"/>
      </g>
    </g>
  </g>
</g>
  <g class="guide ylabels" font-size="4.94" font-family="'PT Sans Caption','Helvetica Neue','Helvetica',sans-serif" fill="#6C606B" id="img-5b362f1f-16">
    <text x="27.3" y="174.74" text-anchor="end" dy="0.35em">0</text>
    <text x="27.3" y="135.2" text-anchor="end" dy="0.35em">500</text>
    <text x="27.3" y="95.66" text-anchor="end" dy="0.35em">1000</text>
    <text x="27.3" y="56.12" text-anchor="end" dy="0.35em">1500</text>
    <text x="27.3" y="16.58" text-anchor="end" dy="0.35em">2000</text>
  </g>
  <g font-size="6" font-family="'PT Sans','Helvetica Neue','Helvetica',sans-serif" fill="#564A55" stroke="#000000" stroke-opacity="0.000" id="img-5b362f1f-17">
    <text x="9.79" y="93.66" text-anchor="middle" dy="0.35em" transform="rotate(-90, 9.79, 95.66)">Density</text>
  </g>
  <g font-size="6" font-family="'PT Sans','Helvetica Neue','Helvetica',sans-serif" fill="#564A55" stroke="#000000" stroke-opacity="0.000" id="img-5b362f1f-18">
    <text x="182.36" y="12.58" text-anchor="middle">Density of regression constant (true value = 0.0)</text>
  </g>
</g>
<defs>
  <clipPath id="img-5b362f1f-8">
  <path d="M28.3,14.58 L 336.42 14.58 336.42 176.74 28.3 176.74" />
</clipPath>
</defs>
</svg>
