<?xml version="1.0" encoding="UTF-8"?>
<svg xmlns="http://www.w3.org/2000/svg"
     xmlns:xlink="http://www.w3.org/1999/xlink"
     xmlns:gadfly="http://www.gadflyjl.org/ns"
     version="1.2"
     width="400mm" height="200mm" viewBox="0 0 400 200"
     stroke="none"
     fill="#000000"
     stroke-width="0.3"
     font-size="3.88"
>
<g class="plotroot xscalable yscalable" id="img-fec23c40-1">
  <g font-size="6" font-family="'PT Sans','Helvetica Neue','Helvetica',sans-serif" fill="#564A55" stroke="#000000" stroke-opacity="0.000" id="img-fec23c40-2">
    <text x="182.36" y="186.42" text-anchor="middle" dy="0.6em">Regression coefficient</text>
  </g>
  <g class="guide xlabels" font-size="4.94" font-family="'PT Sans Caption','Helvetica Neue','Helvetica',sans-serif" fill="#6C606B" id="img-fec23c40-3">
    <text x="30.29" y="177.74" text-anchor="middle" dy="0.6em">0.008</text>
    <text x="91.12" y="177.74" text-anchor="middle" dy="0.6em">0.009</text>
    <text x="151.94" y="177.74" text-anchor="middle" dy="0.6em">0.010</text>
    <text x="212.77" y="177.74" text-anchor="middle" dy="0.6em">0.011</text>
    <text x="273.59" y="177.74" text-anchor="middle" dy="0.6em">0.012</text>
    <text x="334.42" y="177.74" text-anchor="middle" dy="0.6em">0.013</text>
  </g>
  <g class="guide colorkey" id="img-fec23c40-4">
    <g fill="#4C404B" font-size="4.94" font-family="'PT Sans','Helvetica Neue','Helvetica',sans-serif" id="img-fec23c40-5">
      <text x="341.22" y="95.66" dy="0.35em">Least squares</text>
      <text x="341.22" y="101.26" dy="0.35em">Least absolute deviations</text>
    </g>
    <g stroke="#000000" stroke-opacity="0.000" id="img-fec23c40-6">
      <rect x="337.42" y="94.26" width="2.8" height="2.8" fill="#0000FF"/>
      <rect x="337.42" y="99.86" width="2.8" height="2.8" fill="#008000"/>
    </g>
    <g fill="#362A35" font-size="6" font-family="'PT Sans','Helvetica Neue','Helvetica',sans-serif" stroke="#000000" stroke-opacity="0.000" id="img-fec23c40-7">
      <text x="337.42" y="90.86">Legend:</text>
    </g>
  </g>
<g clip-path="url(#img-fec23c40-8)">
  <g id="img-fec23c40-9">
    <g pointer-events="visible" opacity="1" fill="#000000" fill-opacity="0.000" stroke="#000000" stroke-opacity="0.000" class="guide background" id="img-fec23c40-10">
      <rect x="28.3" y="14.58" width="308.12" height="162.16"/>
    </g>
    <g class="guide ygridlines xfixed" stroke-dasharray="0.5,0.5" stroke-width="0.2" stroke="#D0D0E0" id="img-fec23c40-11">
      <path fill="none" d="M28.3,174.74 L 336.42 174.74"/>
      <path fill="none" d="M28.3,135.2 L 336.42 135.2"/>
      <path fill="none" d="M28.3,95.66 L 336.42 95.66"/>
      <path fill="none" d="M28.3,56.12 L 336.42 56.12"/>
      <path fill="none" d="M28.3,16.58 L 336.42 16.58"/>
    </g>
    <g class="guide xgridlines yfixed" stroke-dasharray="0.5,0.5" stroke-width="0.2" stroke="#D0D0E0" id="img-fec23c40-12">
      <path fill="none" d="M30.29,14.58 L 30.29 176.74"/>
      <path fill="none" d="M91.12,14.58 L 91.12 176.74"/>
      <path fill="none" d="M151.94,14.58 L 151.94 176.74"/>
      <path fill="none" d="M212.77,14.58 L 212.77 176.74"/>
      <path fill="none" d="M273.59,14.58 L 273.59 176.74"/>
      <path fill="none" d="M334.42,14.58 L 334.42 176.74"/>
    </g>
    <g class="plotpanel" id="img-fec23c40-13">
      <g stroke-width="0.3" fill="#000000" fill-opacity="0.000" class="geometry" stroke-dasharray="none" stroke="#008000" id="img-fec23c40-14">
        <path fill="none" d="M43.27,174.74 L 43.33 174.74 43.39 174.74 43.45 174.74 43.51 174.74 43.57 174.74 43.64 174.74 43.7 174.74 43.76 174.74 43.82 174.74 43.88 174.74 43.94 174.74 44 174.74 44.06 174.74 44.12 174.74 44.18 174.74 44.24 174.74 44.3 174.74 44.36 174.74 44.42 174.74 44.48 174.74 44.55 174.74 44.61 174.74 44.67 174.74 44.73 174.74 44.79 174.74 44.85 174.74 44.91 174.74 44.97 174.74 45.03 174.74 45.09 174.74 45.15 174.74 45.21 174.74 45.27 174.74 45.33 174.74 45.39 174.74 45.46 174.74 45.52 174.74 45.58 174.74 45.64 174.74 45.7 174.74 45.76 174.74 45.82 174.74 45.88 174.74 45.94 174.74 46 174.74 46.06 174.74 46.12 174.74 46.18 174.74 46.24 174.74 46.3 174.74 46.37 174.74 46.43 174.73 46.49 174.73 46.55 174.73 46.61 174.73 46.67 174.73 46.73 174.73 46.79 174.73 46.85 174.73 46.91 174.73 46.97 174.73 47.03 174.73 47.09 174.73 47.15 174.73 47.21 174.73 47.28 174.73 47.34 174.73 47.4 174.73 47.46 174.73 47.52 174.73 47.58 174.73 47.64 174.73 47.7 174.72 47.76 174.72 47.82 174.72 47.88 174.72 47.94 174.72 48 174.72 48.06 174.72 48.12 174.72 48.19 174.72 48.25 174.72 48.31 174.72 48.37 174.71 48.43 174.71 48.49 174.71 48.55 174.71 48.61 174.71 48.67 174.71 48.73 174.71 48.79 174.7 48.85 174.7 48.91 174.7 48.97 174.7 49.03 174.7 49.1 174.7 49.16 174.69 49.22 174.69 49.28 174.69 49.34 174.69 49.4 174.69 49.46 174.68 49.52 174.68 49.58 174.68 49.64 174.68 49.7 174.68 49.76 174.67 49.82 174.67 49.88 174.67 49.94 174.66 50.01 174.66 50.07 174.66 50.13 174.66 50.19 174.65 50.25 174.65 50.31 174.65 50.37 174.64 50.43 174.64 50.49 174.64 50.55 174.63 50.61 174.63 50.67 174.63 50.73 174.62 50.79 174.62 50.85 174.61 50.92 174.61 50.98 174.61 51.04 174.6 51.1 174.6 51.16 174.59 51.22 174.59 51.28 174.58 51.34 174.58 51.4 174.57 51.46 174.57 51.52 174.56 51.58 174.56 51.64 174.55 51.7 174.55 51.76 174.54 51.83 174.54 51.89 174.53 51.95 174.53 52.01 174.52 52.07 174.51 52.13 174.51 52.19 174.5 52.25 174.5 52.31 174.49 52.37 174.48 52.43 174.48 52.49 174.47 52.55 174.47 52.61 174.46 52.67 174.45 52.74 174.45 52.8 174.44 52.86 174.43 52.92 174.42 52.98 174.42 53.04 174.41 53.1 174.4 53.16 174.4 53.22 174.39 53.28 174.38 53.34 174.37 53.4 174.37 53.46 174.36 53.52 174.35 53.59 174.35 53.65 174.34 53.71 174.33 53.77 174.32 53.83 174.32 53.89 174.31 53.95 174.3 54.01 174.29 54.07 174.29 54.13 174.28 54.19 174.27 54.25 174.26 54.31 174.26 54.37 174.25 54.43 174.24 54.5 174.23 54.56 174.22 54.62 174.22 54.68 174.21 54.74 174.2 54.8 174.19 54.86 174.19 54.92 174.18 54.98 174.17 55.04 174.17 55.1 174.16 55.16 174.15 55.22 174.14 55.28 174.14 55.34 174.13 55.41 174.12 55.47 174.12 55.53 174.11 55.59 174.1 55.65 174.1 55.71 174.09 55.77 174.08 55.83 174.08 55.89 174.07 55.95 174.06 56.01 174.06 56.07 174.05 56.13 174.05 56.19 174.04 56.25 174.03 56.32 174.03 56.38 174.02 56.44 174.02 56.5 174.01 56.56 174.01 56.62 174 56.68 174 56.74 173.99 56.8 173.99 56.86 173.98 56.92 173.98 56.98 173.97 57.04 173.97 57.1 173.96 57.16 173.96 57.23 173.95 57.29 173.95 57.35 173.95 57.41 173.94 57.47 173.94 57.53 173.94 57.59 173.93 57.65 173.93 57.71 173.93 57.77 173.92 57.83 173.92 57.89 173.92 57.95 173.91 58.01 173.91 58.07 173.91 58.14 173.91 58.2 173.9 58.26 173.9 58.32 173.9 58.38 173.9 58.44 173.89 58.5 173.89 58.56 173.89 58.62 173.89 58.68 173.89 58.74 173.89 58.8 173.89 58.86 173.88 58.92 173.88 58.98 173.88 59.05 173.88 59.11 173.88 59.17 173.88 59.23 173.88 59.29 173.88 59.35 173.88 59.41 173.88 59.47 173.88 59.53 173.88 59.59 173.88 59.65 173.88 59.71 173.88 59.77 173.88 59.83 173.88 59.89 173.88 59.96 173.88 60.02 173.88 60.08 173.88 60.14 173.88 60.2 173.88 60.26 173.88 60.32 173.88 60.38 173.89 60.44 173.89 60.5 173.89 60.56 173.89 60.62 173.89 60.68 173.89 60.74 173.89 60.8 173.9 60.87 173.9 60.93 173.9 60.99 173.9 61.05 173.9 61.11 173.9 61.17 173.91 61.23 173.91 61.29 173.91 61.35 173.91 61.41 173.91 61.47 173.92 61.53 173.92 61.59 173.92 61.65 173.92 61.71 173.93 61.78 173.93 61.84 173.93 61.9 173.93 61.96 173.93 62.02 173.94 62.08 173.94 62.14 173.94 62.2 173.94 62.26 173.95 62.32 173.95 62.38 173.95 62.44 173.95 62.5 173.96 62.56 173.96 62.62 173.96 62.69 173.96 62.75 173.96 62.81 173.97 62.87 173.97 62.93 173.97 62.99 173.97 63.05 173.97 63.11 173.98 63.17 173.98 63.23 173.98 63.29 173.98 63.35 173.98 63.41 173.98 63.47 173.98 63.54 173.99 63.6 173.99 63.66 173.99 63.72 173.99 63.78 173.99 63.84 173.99 63.9 173.99 63.96 173.99 64.02 173.99 64.08 173.99 64.14 173.99 64.2 173.99 64.26 173.99 64.32 173.99 64.38 173.99 64.45 173.98 64.51 173.98 64.57 173.98 64.63 173.98 64.69 173.98 64.75 173.98 64.81 173.97 64.87 173.97 64.93 173.97 64.99 173.97 65.05 173.96 65.11 173.96 65.17 173.95 65.23 173.95 65.29 173.95 65.36 173.94 65.42 173.94 65.48 173.93 65.54 173.93 65.6 173.92 65.66 173.92 65.72 173.91 65.78 173.91 65.84 173.9 65.9 173.89 65.96 173.89 66.02 173.88 66.08 173.87 66.14 173.86 66.2 173.86 66.27 173.85 66.33 173.84 66.39 173.83 66.45 173.82 66.51 173.82 66.57 173.81 66.63 173.8 66.69 173.79 66.75 173.78 66.81 173.77 66.87 173.76 66.93 173.75 66.99 173.74 67.05 173.73 67.11 173.72 67.18 173.71 67.24 173.7 67.3 173.69 67.36 173.68 67.42 173.66 67.48 173.65 67.54 173.64 67.6 173.63 67.66 173.62 67.72 173.61 67.78 173.6 67.84 173.58 67.9 173.57 67.96 173.56 68.02 173.55 68.09 173.54 68.15 173.52 68.21 173.51 68.27 173.5 68.33 173.49 68.39 173.48 68.45 173.46 68.51 173.45 68.57 173.44 68.63 173.43 68.69 173.41 68.75 173.4 68.81 173.39 68.87 173.38 68.93 173.37 69 173.35 69.06 173.34 69.12 173.33 69.18 173.32 69.24 173.31 69.3 173.3 69.36 173.28 69.42 173.27 69.48 173.26 69.54 173.25 69.6 173.24 69.66 173.23 69.72 173.22 69.78 173.21 69.84 173.2 69.91 173.19 69.97 173.18 70.03 173.17 70.09 173.16 70.15 173.15 70.21 173.14 70.27 173.13 70.33 173.12 70.39 173.11 70.45 173.1 70.51 173.09 70.57 173.08 70.63 173.07 70.69 173.06 70.75 173.05 70.82 173.04 70.88 173.03 70.94 173.02 71 173.02 71.06 173.01 71.12 173 71.18 172.99 71.24 172.98 71.3 172.97 71.36 172.96 71.42 172.95 71.48 172.95 71.54 172.94 71.6 172.93 71.66 172.92 71.73 172.91 71.79 172.9 71.85 172.89 71.91 172.88 71.97 172.87 72.03 172.86 72.09 172.85 72.15 172.84 72.21 172.83 72.27 172.82 72.33 172.81 72.39 172.8 72.45 172.79 72.51 172.78 72.57 172.76 72.64 172.75 72.7 172.74 72.76 172.72 72.82 172.71 72.88 172.7 72.94 172.68 73 172.67 73.06 172.65 73.12 172.63 73.18 172.62 73.24 172.6 73.3 172.58 73.36 172.56 73.42 172.54 73.48 172.52 73.55 172.5 73.61 172.48 73.67 172.46 73.73 172.44 73.79 172.41 73.85 172.39 73.91 172.36 73.97 172.34 74.03 172.31 74.09 172.28 74.15 172.25 74.21 172.22 74.27 172.19 74.33 172.16 74.4 172.12 74.46 172.09 74.52 172.05 74.58 172.01 74.64 171.98 74.7 171.94 74.76 171.9 74.82 171.86 74.88 171.81 74.94 171.77 75 171.72 75.06 171.68 75.12 171.63 75.18 171.58 75.24 171.53 75.31 171.48 75.37 171.42 75.43 171.37 75.49 171.31 75.55 171.26 75.61 171.2 75.67 171.14 75.73 171.07 75.79 171.01 75.85 170.95 75.91 170.88 75.97 170.81 76.03 170.74 76.09 170.67 76.15 170.6 76.22 170.53 76.28 170.45 76.34 170.38 76.4 170.3 76.46 170.22 76.52 170.14 76.58 170.05 76.64 169.97 76.7 169.88 76.76 169.8 76.82 169.71 76.88 169.62 76.94 169.53 77 169.43 77.06 169.34 77.13 169.24 77.19 169.15 77.25 169.05 77.31 168.95 77.37 168.85 77.43 168.75 77.49 168.64 77.55 168.54 77.61 168.43 77.67 168.32 77.73 168.21 77.79 168.1 77.85 167.99 77.91 167.88 77.97 167.77 78.04 167.65 78.1 167.53 78.16 167.42 78.22 167.3 78.28 167.18 78.34 167.06 78.4 166.94 78.46 166.82 78.52 166.69 78.58 166.57 78.64 166.45 78.7 166.32 78.76 166.19 78.82 166.07 78.88 165.94 78.95 165.81 79.01 165.68 79.07 165.55 79.13 165.42 79.19 165.29 79.25 165.16 79.31 165.03 79.37 164.9 79.43 164.76 79.49 164.63 79.55 164.5 79.61 164.36 79.67 164.23 79.73 164.1 79.79 163.96 79.86 163.83 79.92 163.69 79.98 163.56 80.04 163.42 80.1 163.29 80.16 163.15 80.22 163.02 80.28 162.88 80.34 162.75 80.4 162.61 80.46 162.47 80.52 162.34 80.58 162.2 80.64 162.07 80.7 161.93 80.77 161.8 80.83 161.66 80.89 161.53 80.95 161.39 81.01 161.26 81.07 161.13 81.13 160.99 81.19 160.86 81.25 160.72 81.31 160.59 81.37 160.46 81.43 160.32 81.49 160.19 81.55 160.06 81.61 159.93 81.68 159.79 81.74 159.66 81.8 159.53 81.86 159.4 81.92 159.27 81.98 159.14 82.04 159 82.1 158.87 82.16 158.74 82.22 158.61 82.28 158.48 82.34 158.35 82.4 158.22 82.46 158.09 82.52 157.96 82.59 157.83 82.65 157.7 82.71 157.57 82.77 157.44 82.83 157.31 82.89 157.18 82.95 157.05 83.01 156.92 83.07 156.79 83.13 156.66 83.19 156.53 83.25 156.4 83.31 156.27 83.37 156.13 83.43 156 83.5 155.87 83.56 155.74 83.62 155.61 83.68 155.47 83.74 155.34 83.8 155.21 83.86 155.07 83.92 154.94 83.98 154.8 84.04 154.67 84.1 154.53 84.16 154.39 84.22 154.26 84.28 154.12 84.35 153.98 84.41 153.84 84.47 153.7 84.53 153.56 84.59 153.42 84.65 153.28 84.71 153.14 84.77 152.99 84.83 152.85 84.89 152.7 84.95 152.56 85.01 152.41 85.07 152.26 85.13 152.12 85.19 151.97 85.26 151.82 85.32 151.67 85.38 151.52 85.44 151.36 85.5 151.21 85.56 151.06 85.62 150.9 85.68 150.75 85.74 150.59 85.8 150.43 85.86 150.28 85.92 150.12 85.98 149.96 86.04 149.8 86.1 149.64 86.17 149.47 86.23 149.31 86.29 149.15 86.35 148.98 86.41 148.82 86.47 148.65 86.53 148.49 86.59 148.32 86.65 148.15 86.71 147.98 86.77 147.81 86.83 147.64 86.89 147.47 86.95 147.3 87.01 147.13 87.08 146.95 87.14 146.78 87.2 146.61 87.26 146.43 87.32 146.26 87.38 146.08 87.44 145.9 87.5 145.73 87.56 145.55 87.62 145.37 87.68 145.19 87.74 145.01 87.8 144.83 87.86 144.66 87.92 144.48 87.99 144.29 88.05 144.11 88.11 143.93 88.17 143.75 88.23 143.57 88.29 143.39 88.35 143.2 88.41 143.02 88.47 142.84 88.53 142.65 88.59 142.47 88.65 142.28 88.71 142.1 88.77 141.91 88.83 141.73 88.9 141.54 88.96 141.36 89.02 141.17 89.08 140.98 89.14 140.8 89.2 140.61 89.26 140.42 89.32 140.23 89.38 140.04 89.44 139.85 89.5 139.66 89.56 139.47 89.62 139.28 89.68 139.09 89.74 138.9 89.81 138.71 89.87 138.52 89.93 138.32 89.99 138.13 90.05 137.94 90.11 137.74 90.17 137.55 90.23 137.35 90.29 137.15 90.35 136.96 90.41 136.76 90.47 136.56 90.53 136.36 90.59 136.16 90.65 135.96 90.72 135.75 90.78 135.55 90.84 135.35 90.9 135.14 90.96 134.93 91.02 134.73 91.08 134.52 91.14 134.31 91.2 134.1 91.26 133.88 91.32 133.67 91.38 133.45 91.44 133.24 91.5 133.02 91.56 132.8 91.63 132.58 91.69 132.36 91.75 132.13 91.81 131.91 91.87 131.68 91.93 131.45 91.99 131.22 92.05 130.99 92.11 130.75 92.17 130.52 92.23 130.28 92.29 130.04 92.35 129.8 92.41 129.55 92.47 129.31 92.54 129.06 92.6 128.81 92.66 128.56 92.72 128.31 92.78 128.05 92.84 127.79 92.9 127.53 92.96 127.27 93.02 127.01 93.08 126.74 93.14 126.47 93.2 126.2 93.26 125.92 93.32 125.65 93.38 125.37 93.45 125.09 93.51 124.81 93.57 124.52 93.63 124.24 93.69 123.95 93.75 123.66 93.81 123.36 93.87 123.07 93.93 122.77 93.99 122.47 94.05 122.17 94.11 121.86 94.17 121.56 94.23 121.25 94.29 120.94 94.36 120.62 94.42 120.31 94.48 119.99 94.54 119.67 94.6 119.35 94.66 119.03 94.72 118.7 94.78 118.38 94.84 118.05 94.9 117.72 94.96 117.39 95.02 117.05 95.08 116.72 95.14 116.38 95.21 116.05 95.27 115.71 95.33 115.37 95.39 115.03 95.45 114.68 95.51 114.34 95.57 114 95.63 113.65 95.69 113.3 95.75 112.96 95.81 112.61 95.87 112.26 95.93 111.91 95.99 111.56 96.05 111.21 96.12 110.86 96.18 110.51 96.24 110.16 96.3 109.81 96.36 109.46 96.42 109.11 96.48 108.76 96.54 108.41 96.6 108.06 96.66 107.71 96.72 107.36 96.78 107.01 96.84 106.66 96.9 106.32 96.96 105.97 97.03 105.63 97.09 105.28 97.15 104.94 97.21 104.6 97.27 104.25 97.33 103.91 97.39 103.58 97.45 103.24 97.51 102.9 97.57 102.57 97.63 102.24 97.69 101.91 97.75 101.58 97.81 101.25 97.87 100.92 97.94 100.6 98 100.28 98.06 99.96 98.12 99.64 98.18 99.32 98.24 99.01 98.3 98.7 98.36 98.39 98.42 98.08 98.48 97.78 98.54 97.48 98.6 97.18 98.66 96.88 98.72 96.58 98.78 96.29 98.85 96 98.91 95.71 98.97 95.42 99.03 95.14 99.09 94.86 99.15 94.58 99.21 94.3 99.27 94.03 99.33 93.76 99.39 93.49 99.45 93.22 99.51 92.96 99.57 92.69 99.63 92.43 99.69 92.18 99.76 91.92 99.82 91.67 99.88 91.42 99.94 91.17 100 90.92 100.06 90.68 100.12 90.43 100.18 90.19 100.24 89.96 100.3 89.72 100.36 89.48 100.42 89.25 100.48 89.02 100.54 88.79 100.6 88.56 100.67 88.34 100.73 88.12 100.79 87.89 100.85 87.67 100.91 87.45 100.97 87.24 101.03 87.02 101.09 86.8 101.15 86.59 101.21 86.38 101.27 86.17 101.33 85.96 101.39 85.75 101.45 85.54 101.51 85.33 101.58 85.13 101.64 84.92 101.7 84.72 101.76 84.52 101.82 84.31 101.88 84.11 101.94 83.91 102 83.71 102.06 83.51 102.12 83.31 102.18 83.11 102.24 82.91 102.3 82.72 102.36 82.52 102.42 82.32 102.49 82.12 102.55 81.93 102.61 81.73 102.67 81.54 102.73 81.34 102.79 81.14 102.85 80.95 102.91 80.75 102.97 80.56 103.03 80.36 103.09 80.16 103.15 79.97 103.21 79.77 103.27 79.58 103.33 79.38 103.4 79.18 103.46 78.99 103.52 78.79 103.58 78.59 103.64 78.4 103.7 78.2 103.76 78 103.82 77.81 103.88 77.61 103.94 77.41 104 77.21 104.06 77.01 104.12 76.81 104.18 76.61 104.24 76.41 104.31 76.21 104.37 76.01 104.43 75.81 104.49 75.61 104.55 75.41 104.61 75.21 104.67 75 104.73 74.8 104.79 74.6 104.85 74.39 104.91 74.19 104.97 73.98 105.03 73.78 105.09 73.57 105.16 73.37 105.22 73.16 105.28 72.96 105.34 72.75 105.4 72.54 105.46 72.34 105.52 72.13 105.58 71.92 105.64 71.71 105.7 71.5 105.76 71.29 105.82 71.08 105.88 70.88 105.94 70.67 106 70.46 106.07 70.25 106.13 70.03 106.19 69.82 106.25 69.61 106.31 69.4 106.37 69.19 106.43 68.98 106.49 68.77 106.55 68.56 106.61 68.34 106.67 68.13 106.73 67.92 106.79 67.71 106.85 67.5 106.91 67.28 106.98 67.07 107.04 66.86 107.1 66.65 107.16 66.44 107.22 66.23 107.28 66.02 107.34 65.8 107.4 65.59 107.46 65.38 107.52 65.17 107.58 64.96 107.64 64.76 107.7 64.55 107.76 64.34 107.82 64.13 107.89 63.92 107.95 63.72 108.01 63.51 108.07 63.31 108.13 63.1 108.19 62.9 108.25 62.7 108.31 62.5 108.37 62.3 108.43 62.1 108.49 61.9 108.55 61.7 108.61 61.51 108.67 61.31 108.73 61.12 108.8 60.92 108.86 60.73 108.92 60.55 108.98 60.36 109.04 60.17 109.1 59.99 109.16 59.8 109.22 59.62 109.28 59.45 109.34 59.27 109.4 59.09 109.46 58.92 109.52 58.75 109.58 58.58 109.64 58.41 109.71 58.25 109.77 58.09 109.83 57.93 109.89 57.77 109.95 57.62 110.01 57.46 110.07 57.32 110.13 57.17 110.19 57.03 110.25 56.88 110.31 56.75 110.37 56.61 110.43 56.48 110.49 56.35 110.55 56.22 110.62 56.1 110.68 55.98 110.74 55.86 110.8 55.75 110.86 55.64 110.92 55.53 110.98 55.43 111.04 55.33 111.1 55.24 111.16 55.14 111.22 55.05 111.28 54.97 111.34 54.89 111.4 54.81 111.46 54.73 111.53 54.66 111.59 54.59 111.65 54.53 111.71 54.47 111.77 54.41 111.83 54.36 111.89 54.31 111.95 54.27 112.01 54.22 112.07 54.19 112.13 54.15 112.19 54.12 112.25 54.09 112.31 54.07 112.37 54.05 112.44 54.03 112.5 54.02 112.56 54.01 112.62 54.01 112.68 54.01 112.74 54.01 112.8 54.01 112.86 54.02 112.92 54.03 112.98 54.05 113.04 54.06 113.1 54.08 113.16 54.11 113.22 54.14 113.28 54.17 113.35 54.2 113.41 54.24 113.47 54.27 113.53 54.32 113.59 54.36 113.65 54.41 113.71 54.46 113.77 54.51 113.83 54.56 113.89 54.62 113.95 54.68 114.01 54.74 114.07 54.8 114.13 54.86 114.19 54.93 114.26 55 114.32 55.07 114.38 55.14 114.44 55.21 114.5 55.29 114.56 55.36 114.62 55.44 114.68 55.51 114.74 55.59 114.8 55.67 114.86 55.75 114.92 55.83 114.98 55.92 115.04 56 115.1 56.08 115.17 56.16 115.23 56.25 115.29 56.33 115.35 56.41 115.41 56.5 115.47 56.58 115.53 56.66 115.59 56.75 115.65 56.83 115.71 56.91 115.77 56.99 115.83 57.07 115.89 57.15 115.95 57.23 116.02 57.31 116.08 57.39 116.14 57.47 116.2 57.54 116.26 57.62 116.32 57.69 116.38 57.77 116.44 57.84 116.5 57.91 116.56 57.98 116.62 58.05 116.68 58.11 116.74 58.18 116.8 58.24 116.86 58.3 116.93 58.36 116.99 58.42 117.05 58.48 117.11 58.53 117.17 58.59 117.23 58.64 117.29 58.69 117.35 58.74 117.41 58.79 117.47 58.83 117.53 58.88 117.59 58.92 117.65 58.96 117.71 59 117.77 59.04 117.84 59.07 117.9 59.11 117.96 59.14 118.02 59.17 118.08 59.2 118.14 59.23 118.2 59.26 118.26 59.28 118.32 59.31 118.38 59.33 118.44 59.35 118.5 59.37 118.56 59.39 118.62 59.41 118.68 59.43 118.75 59.45 118.81 59.46 118.87 59.48 118.93 59.49 118.99 59.51 119.05 59.52 119.11 59.53 119.17 59.54 119.23 59.56 119.29 59.57 119.35 59.58 119.41 59.59 119.47 59.61 119.53 59.62 119.59 59.63 119.66 59.65 119.72 59.66 119.78 59.68 119.84 59.69 119.9 59.71 119.96 59.72 120.02 59.74 120.08 59.76 120.14 59.78 120.2 59.8 120.26 59.83 120.32 59.85 120.38 59.88 120.44 59.91 120.5 59.94 120.57 59.97 120.63 60 120.69 60.04 120.75 60.08 120.81 60.12 120.87 60.17 120.93 60.21 120.99 60.26 121.05 60.31 121.11 60.37 121.17 60.43 121.23 60.49 121.29 60.55 121.35 60.62 121.41 60.69 121.48 60.76 121.54 60.84 121.6 60.92 121.66 61.01 121.72 61.1 121.78 61.19 121.84 61.28 121.9 61.38 121.96 61.49 122.02 61.6 122.08 61.71 122.14 61.82 122.2 61.95 122.26 62.07 122.32 62.2 122.39 62.33 122.45 62.47 122.51 62.61 122.57 62.76 122.63 62.91 122.69 63.07 122.75 63.23 122.81 63.39 122.87 63.56 122.93 63.73 122.99 63.91 123.05 64.09 123.11 64.28 123.17 64.47 123.23 64.67 123.3 64.87 123.36 65.07 123.42 65.28 123.48 65.49 123.54 65.71 123.6 65.93 123.66 66.16 123.72 66.39 123.78 66.62 123.84 66.86 123.9 67.1 123.96 67.35 124.02 67.6 124.08 67.85 124.14 68.11 124.21 68.37 124.27 68.64 124.33 68.91 124.39 69.18 124.45 69.46 124.51 69.74 124.57 70.02 124.63 70.31 124.69 70.6 124.75 70.89 124.81 71.18 124.87 71.48 124.93 71.78 124.99 72.09 125.05 72.39 125.12 72.7 125.18 73.01 125.24 73.32 125.3 73.64 125.36 73.96 125.42 74.28 125.48 74.6 125.54 74.92 125.6 75.25 125.66 75.57 125.72 75.9 125.78 76.23 125.84 76.56 125.9 76.89 125.97 77.23 126.03 77.56 126.09 77.9 126.15 78.23 126.21 78.57 126.27 78.91 126.33 79.25 126.39 79.59 126.45 79.92 126.51 80.26 126.57 80.6 126.63 80.94 126.69 81.28 126.75 81.62 126.81 81.96 126.88 82.3 126.94 82.64 127 82.98 127.06 83.32 127.12 83.66 127.18 83.99 127.24 84.33 127.3 84.67 127.36 85 127.42 85.34 127.48 85.67 127.54 86.01 127.6 86.34 127.66 86.67 127.72 87 127.79 87.33 127.85 87.66 127.91 87.99 127.97 88.31 128.03 88.64 128.09 88.96 128.15 89.28 128.21 89.61 128.27 89.93 128.33 90.25 128.39 90.56 128.45 90.88 128.51 91.2 128.57 91.51 128.63 91.82 128.7 92.14 128.76 92.45 128.82 92.76 128.88 93.06 128.94 93.37 129 93.68 129.06 93.98 129.12 94.28 129.18 94.59 129.24 94.89 129.3 95.19 129.36 95.48 129.42 95.78 129.48 96.08 129.54 96.37 129.61 96.67 129.67 96.96 129.73 97.25 129.79 97.54 129.85 97.83 129.91 98.12 129.97 98.41 130.03 98.7 130.09 98.98 130.15 99.27 130.21 99.56 130.27 99.84 130.33 100.12 130.39 100.41 130.45 100.69 130.52 100.97 130.58 101.25 130.64 101.53 130.7 101.81 130.76 102.09 130.82 102.37 130.88 102.65 130.94 102.93 131 103.21 131.06 103.48 131.12 103.76 131.18 104.04 131.24 104.32 131.3 104.59 131.36 104.87 131.43 105.15 131.49 105.42 131.55 105.7 131.61 105.97 131.67 106.25 131.73 106.53 131.79 106.8 131.85 107.08 131.91 107.35 131.97 107.63 132.03 107.9 132.09 108.18 132.15 108.45 132.21 108.73 132.27 109 132.34 109.28 132.4 109.56 132.46 109.83 132.52 110.11 132.58 110.38 132.64 110.66 132.7 110.93 132.76 111.21 132.82 111.49 132.88 111.76 132.94 112.04 133 112.31 133.06 112.59 133.12 112.87 133.18 113.14 133.25 113.42 133.31 113.69 133.37 113.97 133.43 114.25 133.49 114.52 133.55 114.8 133.61 115.07 133.67 115.35 133.73 115.63 133.79 115.9 133.85 116.18 133.91 116.45 133.97 116.73 134.03 117 134.09 117.28 134.16 117.55 134.22 117.82 134.28 118.1 134.34 118.37 134.4 118.65 134.46 118.92 134.52 119.19 134.58 119.46 134.64 119.74 134.7 120.01 134.76 120.28 134.82 120.55 134.88 120.82 134.94 121.09 135 121.36 135.07 121.63 135.13 121.9 135.19 122.17 135.25 122.43 135.31 122.7 135.37 122.97 135.43 123.23 135.49 123.5 135.55 123.76 135.61 124.03 135.67 124.29 135.73 124.55 135.79 124.81 135.85 125.07 135.92 125.33 135.98 125.59 136.04 125.85 136.1 126.11 136.16 126.37 136.22 126.62 136.28 126.88 136.34 127.13 136.4 127.39 136.46 127.64 136.52 127.89 136.58 128.14 136.64 128.39 136.7 128.64 136.76 128.89 136.83 129.14 136.89 129.39 136.95 129.63 137.01 129.88 137.07 130.12 137.13 130.36 137.19 130.6 137.25 130.84 137.31 131.08 137.37 131.32 137.43 131.56 137.49 131.8 137.55 132.03 137.61 132.27 137.67 132.5 137.74 132.73 137.8 132.96 137.86 133.19 137.92 133.42 137.98 133.65 138.04 133.88 138.1 134.1 138.16 134.33 138.22 134.55 138.28 134.78 138.34 135 138.4 135.22 138.46 135.44 138.52 135.66 138.58 135.88 138.65 136.09 138.71 136.31 138.77 136.52 138.83 136.74 138.89 136.95 138.95 137.16 139.01 137.37 139.07 137.58 139.13 137.79 139.19 138 139.25 138.2 139.31 138.41 139.37 138.61 139.43 138.82 139.49 139.02 139.56 139.22 139.62 139.43 139.68 139.63 139.74 139.83 139.8 140.03 139.86 140.22 139.92 140.42 139.98 140.62 140.04 140.81 140.1 141.01 140.16 141.2 140.22 141.4 140.28 141.59 140.34 141.79 140.4 141.98 140.47 142.17 140.53 142.36 140.59 142.55 140.65 142.74 140.71 142.93 140.77 143.12 140.83 143.31 140.89 143.5 140.95 143.69 141.01 143.87 141.07 144.06 141.13 144.25 141.19 144.44 141.25 144.62 141.31 144.81 141.38 145 141.44 145.18 141.5 145.37 141.56 145.55 141.62 145.74 141.68 145.92 141.74 146.11 141.8 146.3 141.86 146.48 141.92 146.67 141.98 146.85 142.04 147.04 142.1 147.22 142.16 147.41 142.22 147.6 142.29 147.78 142.35 147.97 142.41 148.15 142.47 148.34 142.53 148.53 142.59 148.71 142.65 148.9 142.71 149.09 142.77 149.28 142.83 149.46 142.89 149.65 142.95 149.84 143.01 150.03 143.07 150.22 143.13 150.4 143.2 150.59 143.26 150.78 143.32 150.97 143.38 151.16 143.44 151.35 143.5 151.54 143.56 151.73 143.62 151.92 143.68 152.11 143.74 152.3 143.8 152.5 143.86 152.69 143.92 152.88 143.98 153.07 144.04 153.26 144.11 153.45 144.17 153.65 144.23 153.84 144.29 154.03 144.35 154.22 144.41 154.42 144.47 154.61 144.53 154.8 144.59 154.99 144.65 155.19 144.71 155.38 144.77 155.57 144.83 155.76 144.89 155.96 144.95 156.15 145.02 156.34 145.08 156.53 145.14 156.72 145.2 156.91 145.26 157.11 145.32 157.3 145.38 157.49 145.44 157.68 145.5 157.87 145.56 158.05 145.62 158.24 145.68 158.43 145.74 158.62 145.8 158.81 145.86 158.99 145.93 159.18 145.99 159.36 146.05 159.55 146.11 159.73 146.17 159.91 146.23 160.1 146.29 160.28 146.35 160.46 146.41 160.64 146.47 160.82 146.53 160.99 146.59 161.17 146.65 161.35 146.71 161.52 146.78 161.7 146.84 161.87 146.9 162.04 146.96 162.21 147.02 162.38 147.08 162.55 147.14 162.72 147.2 162.89 147.26 163.05 147.32 163.22 147.38 163.38 147.44 163.54 147.5 163.7 147.56 163.86 147.62 164.02 147.69 164.18 147.75 164.33 147.81 164.48 147.87 164.64 147.93 164.79 147.99 164.94 148.05 165.09 148.11 165.23 148.17 165.38 148.23 165.52 148.29 165.67 148.35 165.81 148.41 165.95 148.47 166.09 148.53 166.22 148.6 166.36 148.66 166.49 148.72 166.62 148.78 166.76 148.84 166.89 148.9 167.01 148.96 167.14 149.02 167.26 149.08 167.39 149.14 167.51 149.2 167.63 149.26 167.75 149.32 167.87 149.38 167.98 149.44 168.1 149.51 168.21 149.57 168.32 149.63 168.43 149.69 168.54 149.75 168.65 149.81 168.76 149.87 168.86 149.93 168.96 149.99 169.06 150.05 169.16 150.11 169.26 150.17 169.36 150.23 169.46 150.29 169.55 150.35 169.64 150.42 169.74 150.48 169.83 150.54 169.92 150.6 170 150.66 170.09 150.72 170.17 150.78 170.26 150.84 170.34 150.9 170.42 150.96 170.5 151.02 170.58 151.08 170.66 151.14 170.73 151.2 170.81 151.26 170.88 151.33 170.95 151.39 171.02 151.45 171.09 151.51 171.16 151.57 171.23 151.63 171.3 151.69 171.36 151.75 171.43 151.81 171.49 151.87 171.55 151.93 171.61 151.99 171.67 152.05 171.73 152.11 171.79 152.17 171.85 152.24 171.9 152.3 171.96 152.36 172.01 152.42 172.06 152.48 172.12 152.54 172.17 152.6 172.22 152.66 172.27 152.72 172.32 152.78 172.36 152.84 172.41 152.9 172.46 152.96 172.5 153.02 172.54 153.08 172.59 153.15 172.63 153.21 172.67 153.27 172.71 153.33 172.75 153.39 172.79 153.45 172.83 153.51 172.87 153.57 172.91 153.63 172.94 153.69 172.98 153.75 173.01 153.81 173.05 153.87 173.08 153.93 173.11 153.99 173.15 154.06 173.18 154.12 173.21 154.18 173.24 154.24 173.27 154.3 173.3 154.36 173.33 154.42 173.36 154.48 173.39 154.54 173.42 154.6 173.44 154.66 173.47 154.72 173.5 154.78 173.52 154.84 173.55 154.9 173.57 154.97 173.6 155.03 173.62 155.09 173.64 155.15 173.67 155.21 173.69 155.27 173.71 155.33 173.73 155.39 173.75 155.45 173.77 155.51 173.79 155.57 173.81 155.63 173.83 155.69 173.85 155.75 173.87 155.81 173.89 155.88 173.91 155.94 173.93 156 173.95 156.06 173.96 156.12 173.98 156.18 174 156.24 174.01 156.3 174.03 156.36 174.05 156.42 174.06 156.48 174.08 156.54 174.09 156.6 174.11 156.66 174.12 156.73 174.14 156.79 174.15 156.85 174.17 156.91 174.18 156.97 174.19 157.03 174.21 157.09 174.22 157.15 174.23 157.21 174.24 157.27 174.26 157.33 174.27 157.39 174.28 157.45 174.29 157.51 174.3 157.57 174.31 157.64 174.32 157.7 174.34 157.76 174.35 157.82 174.36 157.88 174.37 157.94 174.38 158 174.39 158.06 174.4 158.12 174.4 158.18 174.41 158.24 174.42 158.3 174.43 158.36 174.44 158.42 174.45 158.48 174.46 158.55 174.46 158.61 174.47 158.67 174.48 158.73 174.49 158.79 174.5 158.85 174.5 158.91 174.51 158.97 174.52 159.03 174.52 159.09 174.53 159.15 174.54 159.21 174.54 159.27 174.55 159.33 174.55 159.39 174.56 159.46 174.57 159.52 174.57 159.58 174.58 159.64 174.58 159.7 174.59 159.76 174.59 159.82 174.6 159.88 174.6 159.94 174.61 160 174.61 160.06 174.62 160.12 174.62 160.18 174.62 160.24 174.63 160.3 174.63 160.37 174.64 160.43 174.64 160.49 174.64 160.55 174.65 160.61 174.65 160.67 174.65 160.73 174.66 160.79 174.66 160.85 174.66 160.91 174.67 160.97 174.67 161.03 174.67 161.09 174.67 161.15 174.68 161.21 174.68 161.28 174.68 161.34 174.68 161.4 174.69 161.46 174.69 161.52 174.69 161.58 174.69 161.64 174.69 161.7 174.7 161.76 174.7 161.82 174.7 161.88 174.7 161.94 174.7 162 174.7 162.06 174.71 162.12 174.71 162.19 174.71 162.25 174.71 162.31 174.71 162.37 174.71 162.43 174.71 162.49 174.72 162.55 174.72 162.61 174.72 162.67 174.72 162.73 174.72 162.79 174.72 162.85 174.72 162.91 174.72 162.97 174.72 163.03 174.72 163.1 174.72 163.16 174.73 163.22 174.73 163.28 174.73 163.34 174.73 163.4 174.73 163.46 174.73 163.52 174.73 163.58 174.73 163.64 174.73 163.7 174.73 163.76 174.73 163.82 174.73 163.88 174.73 163.94 174.73 164.01 174.73 164.07 174.73 164.13 174.73 164.19 174.73 164.25 174.73 164.31 174.73 164.37 174.73 164.43 174.74 164.49 174.74 164.55 174.74 164.61 174.74 164.67 174.74 164.73 174.74 164.79 174.74 164.85 174.74 164.92 174.74 164.98 174.74 165.04 174.74 165.1 174.74 165.16 174.74 165.22 174.74 165.28 174.74 165.34 174.74 165.4 174.74 165.46 174.74 165.52 174.74 165.58 174.74 165.64 174.74 165.7 174.74 165.76 174.74 165.83 174.74 165.89 174.74 165.95 174.74 166.01 174.74 166.07 174.74 166.13 174.74 166.19 174.74 166.25 174.74 166.31 174.74 166.37 174.74 166.43 174.74 166.49 174.74 166.55 174.74 166.61 174.74 166.67 174.74 166.74 174.74 166.8 174.74 166.86 174.74 166.92 174.74 166.98 174.74 167.04 174.74 167.1 174.74 167.16 174.74 167.22 174.74 167.28 174.74 167.34 174.74 167.4 174.74 167.46 174.74"/>
      </g>
      <g stroke-width="0.3" fill="#000000" fill-opacity="0.000" class="geometry" stroke-dasharray="none" stroke="#0000FF" id="img-fec23c40-15">
        <path fill="none" d="M32.79,174.74 L 32.93 174.74 33.06 174.74 33.19 174.74 33.32 174.74 33.46 174.74 33.59 174.74 33.72 174.74 33.85 174.74 33.99 174.74 34.12 174.74 34.25 174.74 34.38 174.74 34.52 174.74 34.65 174.74 34.78 174.74 34.91 174.74 35.05 174.74 35.18 174.74 35.31 174.74 35.44 174.74 35.58 174.74 35.71 174.74 35.84 174.74 35.97 174.74 36.11 174.74 36.24 174.74 36.37 174.74 36.5 174.74 36.64 174.74 36.77 174.74 36.9 174.74 37.03 174.74 37.17 174.74 37.3 174.74 37.43 174.74 37.56 174.74 37.7 174.74 37.83 174.74 37.96 174.74 38.1 174.74 38.23 174.74 38.36 174.74 38.49 174.74 38.63 174.74 38.76 174.74 38.89 174.74 39.02 174.74 39.16 174.74 39.29 174.74 39.42 174.74 39.55 174.74 39.69 174.74 39.82 174.74 39.95 174.73 40.08 174.73 40.22 174.73 40.35 174.73 40.48 174.73 40.61 174.73 40.75 174.73 40.88 174.73 41.01 174.73 41.14 174.73 41.28 174.73 41.41 174.73 41.54 174.73 41.67 174.73 41.81 174.73 41.94 174.73 42.07 174.73 42.2 174.73 42.34 174.73 42.47 174.73 42.6 174.72 42.73 174.72 42.87 174.72 43 174.72 43.13 174.72 43.26 174.72 43.4 174.72 43.53 174.72 43.66 174.72 43.79 174.72 43.93 174.71 44.06 174.71 44.19 174.71 44.32 174.71 44.46 174.71 44.59 174.71 44.72 174.71 44.85 174.7 44.99 174.7 45.12 174.7 45.25 174.7 45.39 174.7 45.52 174.69 45.65 174.69 45.78 174.69 45.92 174.69 46.05 174.69 46.18 174.68 46.31 174.68 46.45 174.68 46.58 174.68 46.71 174.67 46.84 174.67 46.98 174.67 47.11 174.66 47.24 174.66 47.37 174.66 47.51 174.65 47.64 174.65 47.77 174.65 47.9 174.64 48.04 174.64 48.17 174.63 48.3 174.63 48.43 174.63 48.57 174.62 48.7 174.62 48.83 174.61 48.96 174.61 49.1 174.6 49.23 174.6 49.36 174.59 49.49 174.59 49.63 174.58 49.76 174.57 49.89 174.57 50.02 174.56 50.16 174.55 50.29 174.55 50.42 174.54 50.55 174.53 50.69 174.53 50.82 174.52 50.95 174.51 51.08 174.5 51.22 174.5 51.35 174.49 51.48 174.48 51.61 174.47 51.75 174.46 51.88 174.45 52.01 174.44 52.14 174.44 52.28 174.43 52.41 174.42 52.54 174.41 52.67 174.4 52.81 174.38 52.94 174.37 53.07 174.36 53.21 174.35 53.34 174.34 53.47 174.33 53.6 174.32 53.74 174.3 53.87 174.29 54 174.28 54.13 174.27 54.27 174.25 54.4 174.24 54.53 174.23 54.66 174.21 54.8 174.2 54.93 174.18 55.06 174.17 55.19 174.15 55.33 174.14 55.46 174.12 55.59 174.11 55.72 174.09 55.86 174.08 55.99 174.06 56.12 174.04 56.25 174.03 56.39 174.01 56.52 173.99 56.65 173.98 56.78 173.96 56.92 173.94 57.05 173.92 57.18 173.9 57.31 173.88 57.45 173.87 57.58 173.85 57.71 173.83 57.84 173.81 57.98 173.79 58.11 173.77 58.24 173.75 58.37 173.73 58.51 173.71 58.64 173.69 58.77 173.66 58.9 173.64 59.04 173.62 59.17 173.6 59.3 173.58 59.43 173.56 59.57 173.53 59.7 173.51 59.83 173.49 59.96 173.47 60.1 173.44 60.23 173.42 60.36 173.4 60.5 173.37 60.63 173.35 60.76 173.33 60.89 173.3 61.03 173.28 61.16 173.25 61.29 173.23 61.42 173.21 61.56 173.18 61.69 173.16 61.82 173.13 61.95 173.11 62.09 173.08 62.22 173.06 62.35 173.03 62.48 173.01 62.62 172.98 62.75 172.96 62.88 172.93 63.01 172.91 63.15 172.88 63.28 172.86 63.41 172.83 63.54 172.81 63.68 172.78 63.81 172.76 63.94 172.73 64.07 172.71 64.21 172.68 64.34 172.65 64.47 172.63 64.6 172.6 64.74 172.58 64.87 172.55 65 172.53 65.13 172.5 65.27 172.48 65.4 172.45 65.53 172.43 65.66 172.4 65.8 172.38 65.93 172.35 66.06 172.33 66.19 172.3 66.33 172.28 66.46 172.25 66.59 172.23 66.72 172.2 66.86 172.18 66.99 172.16 67.12 172.13 67.25 172.11 67.39 172.08 67.52 172.06 67.65 172.04 67.79 172.01 67.92 171.99 68.05 171.96 68.18 171.94 68.32 171.92 68.45 171.89 68.58 171.87 68.71 171.85 68.85 171.82 68.98 171.8 69.11 171.78 69.24 171.75 69.38 171.73 69.51 171.71 69.64 171.69 69.77 171.66 69.91 171.64 70.04 171.62 70.17 171.6 70.3 171.57 70.44 171.55 70.57 171.53 70.7 171.5 70.83 171.48 70.97 171.46 71.1 171.44 71.23 171.41 71.36 171.39 71.5 171.37 71.63 171.34 71.76 171.32 71.89 171.3 72.03 171.27 72.16 171.25 72.29 171.23 72.42 171.2 72.56 171.18 72.69 171.16 72.82 171.13 72.95 171.11 73.09 171.08 73.22 171.06 73.35 171.03 73.48 171.01 73.62 170.98 73.75 170.95 73.88 170.93 74.01 170.9 74.15 170.87 74.28 170.85 74.41 170.82 74.54 170.79 74.68 170.76 74.81 170.73 74.94 170.71 75.08 170.68 75.21 170.65 75.34 170.62 75.47 170.59 75.61 170.55 75.74 170.52 75.87 170.49 76 170.46 76.14 170.42 76.27 170.39 76.4 170.36 76.53 170.32 76.67 170.29 76.8 170.25 76.93 170.22 77.06 170.18 77.2 170.14 77.33 170.1 77.46 170.07 77.59 170.03 77.73 169.99 77.86 169.95 77.99 169.91 78.12 169.87 78.26 169.82 78.39 169.78 78.52 169.74 78.65 169.7 78.79 169.65 78.92 169.61 79.05 169.56 79.18 169.52 79.32 169.47 79.45 169.42 79.58 169.38 79.71 169.33 79.85 169.28 79.98 169.23 80.11 169.18 80.24 169.13 80.38 169.08 80.51 169.03 80.64 168.98 80.77 168.92 80.91 168.87 81.04 168.82 81.17 168.76 81.3 168.71 81.44 168.65 81.57 168.6 81.7 168.54 81.83 168.49 81.97 168.43 82.1 168.37 82.23 168.32 82.36 168.26 82.5 168.2 82.63 168.14 82.76 168.08 82.9 168.02 83.03 167.96 83.16 167.9 83.29 167.84 83.43 167.78 83.56 167.72 83.69 167.66 83.82 167.59 83.96 167.53 84.09 167.47 84.22 167.41 84.35 167.34 84.49 167.28 84.62 167.21 84.75 167.15 84.88 167.08 85.02 167.02 85.15 166.95 85.28 166.89 85.41 166.82 85.55 166.76 85.68 166.69 85.81 166.62 85.94 166.55 86.08 166.49 86.21 166.42 86.34 166.35 86.47 166.28 86.61 166.21 86.74 166.14 86.87 166.07 87 166 87.14 165.93 87.27 165.86 87.4 165.79 87.53 165.71 87.67 165.64 87.8 165.57 87.93 165.49 88.06 165.42 88.2 165.35 88.33 165.27 88.46 165.19 88.59 165.12 88.73 165.04 88.86 164.96 88.99 164.89 89.12 164.81 89.26 164.73 89.39 164.65 89.52 164.57 89.65 164.48 89.79 164.4 89.92 164.32 90.05 164.23 90.19 164.15 90.32 164.06 90.45 163.98 90.58 163.89 90.72 163.8 90.85 163.71 90.98 163.62 91.11 163.53 91.25 163.43 91.38 163.34 91.51 163.25 91.64 163.15 91.78 163.05 91.91 162.95 92.04 162.85 92.17 162.75 92.31 162.65 92.44 162.55 92.57 162.44 92.7 162.34 92.84 162.23 92.97 162.12 93.1 162.01 93.23 161.9 93.37 161.79 93.5 161.67 93.63 161.56 93.76 161.44 93.9 161.32 94.03 161.2 94.16 161.08 94.29 160.96 94.43 160.83 94.56 160.7 94.69 160.58 94.82 160.45 94.96 160.32 95.09 160.18 95.22 160.05 95.35 159.91 95.49 159.78 95.62 159.64 95.75 159.5 95.88 159.35 96.02 159.21 96.15 159.06 96.28 158.92 96.41 158.77 96.55 158.62 96.68 158.46 96.81 158.31 96.94 158.15 97.08 158 97.21 157.84 97.34 157.68 97.48 157.52 97.61 157.35 97.74 157.19 97.87 157.02 98.01 156.86 98.14 156.69 98.27 156.52 98.4 156.34 98.54 156.17 98.67 156 98.8 155.82 98.93 155.64 99.07 155.46 99.2 155.28 99.33 155.1 99.46 154.92 99.6 154.74 99.73 154.55 99.86 154.37 99.99 154.18 100.13 153.99 100.26 153.8 100.39 153.61 100.52 153.42 100.66 153.23 100.79 153.04 100.92 152.84 101.05 152.65 101.19 152.45 101.32 152.26 101.45 152.06 101.58 151.86 101.72 151.67 101.85 151.47 101.98 151.27 102.11 151.07 102.25 150.87 102.38 150.67 102.51 150.47 102.64 150.27 102.78 150.06 102.91 149.86 103.04 149.66 103.17 149.46 103.31 149.26 103.44 149.05 103.57 148.85 103.7 148.65 103.84 148.45 103.97 148.24 104.1 148.04 104.23 147.84 104.37 147.64 104.5 147.43 104.63 147.23 104.77 147.03 104.9 146.83 105.03 146.63 105.16 146.43 105.3 146.23 105.43 146.03 105.56 145.83 105.69 145.63 105.83 145.43 105.96 145.23 106.09 145.04 106.22 144.84 106.36 144.64 106.49 144.45 106.62 144.25 106.75 144.06 106.89 143.87 107.02 143.68 107.15 143.48 107.28 143.29 107.42 143.1 107.55 142.91 107.68 142.73 107.81 142.54 107.95 142.35 108.08 142.17 108.21 141.98 108.34 141.8 108.48 141.62 108.61 141.43 108.74 141.25 108.87 141.07 109.01 140.89 109.14 140.72 109.27 140.54 109.4 140.36 109.54 140.19 109.67 140.02 109.8 139.84 109.93 139.67 110.07 139.5 110.2 139.33 110.33 139.16 110.46 139 110.6 138.83 110.73 138.67 110.86 138.5 110.99 138.34 111.13 138.18 111.26 138.02 111.39 137.86 111.52 137.7 111.66 137.54 111.79 137.38 111.92 137.23 112.05 137.07 112.19 136.92 112.32 136.76 112.45 136.61 112.59 136.46 112.72 136.31 112.85 136.16 112.98 136.01 113.12 135.87 113.25 135.72 113.38 135.57 113.51 135.43 113.65 135.29 113.78 135.14 113.91 135 114.04 134.86 114.18 134.72 114.31 134.58 114.44 134.44 114.57 134.3 114.71 134.16 114.84 134.02 114.97 133.88 115.1 133.75 115.24 133.61 115.37 133.48 115.5 133.34 115.63 133.21 115.77 133.07 115.9 132.94 116.03 132.81 116.16 132.67 116.3 132.54 116.43 132.41 116.56 132.28 116.69 132.15 116.83 132.02 116.96 131.88 117.09 131.75 117.22 131.62 117.36 131.49 117.49 131.36 117.62 131.24 117.75 131.11 117.89 130.98 118.02 130.85 118.15 130.72 118.28 130.59 118.42 130.46 118.55 130.33 118.68 130.2 118.81 130.08 118.95 129.95 119.08 129.82 119.21 129.69 119.34 129.56 119.48 129.43 119.61 129.31 119.74 129.18 119.88 129.05 120.01 128.92 120.14 128.79 120.27 128.67 120.41 128.54 120.54 128.41 120.67 128.28 120.8 128.15 120.94 128.02 121.07 127.9 121.2 127.77 121.33 127.64 121.47 127.51 121.6 127.38 121.73 127.25 121.86 127.13 122 127 122.13 126.87 122.26 126.74 122.39 126.61 122.53 126.49 122.66 126.36 122.79 126.23 122.92 126.1 123.06 125.98 123.19 125.85 123.32 125.72 123.45 125.59 123.59 125.47 123.72 125.34 123.85 125.21 123.98 125.09 124.12 124.96 124.25 124.84 124.38 124.71 124.51 124.59 124.65 124.46 124.78 124.34 124.91 124.21 125.04 124.09 125.18 123.97 125.31 123.84 125.44 123.72 125.57 123.6 125.71 123.48 125.84 123.36 125.97 123.24 126.1 123.12 126.24 123 126.37 122.88 126.5 122.76 126.63 122.64 126.77 122.52 126.9 122.41 127.03 122.29 127.17 122.18 127.3 122.06 127.43 121.95 127.56 121.83 127.7 121.72 127.83 121.61 127.96 121.5 128.09 121.39 128.23 121.28 128.36 121.17 128.49 121.06 128.62 120.95 128.76 120.85 128.89 120.74 129.02 120.64 129.15 120.53 129.29 120.43 129.42 120.33 129.55 120.22 129.68 120.12 129.82 120.02 129.95 119.92 130.08 119.83 130.21 119.73 130.35 119.63 130.48 119.53 130.61 119.44 130.74 119.35 130.88 119.25 131.01 119.16 131.14 119.07 131.27 118.98 131.41 118.89 131.54 118.8 131.67 118.71 131.8 118.62 131.94 118.54 132.07 118.45 132.2 118.37 132.33 118.28 132.47 118.2 132.6 118.12 132.73 118.04 132.86 117.96 133 117.88 133.13 117.8 133.26 117.72 133.39 117.64 133.53 117.57 133.66 117.49 133.79 117.42 133.92 117.34 134.06 117.27 134.19 117.2 134.32 117.12 134.46 117.05 134.59 116.98 134.72 116.91 134.85 116.85 134.99 116.78 135.12 116.71 135.25 116.64 135.38 116.58 135.52 116.51 135.65 116.45 135.78 116.39 135.91 116.32 136.05 116.26 136.18 116.2 136.31 116.14 136.44 116.08 136.58 116.02 136.71 115.96 136.84 115.9 136.97 115.84 137.11 115.79 137.24 115.73 137.37 115.67 137.5 115.62 137.64 115.56 137.77 115.51 137.9 115.46 138.03 115.4 138.17 115.35 138.3 115.3 138.43 115.25 138.56 115.2 138.7 115.15 138.83 115.1 138.96 115.05 139.09 115.01 139.23 114.96 139.36 114.91 139.49 114.87 139.62 114.82 139.76 114.78 139.89 114.73 140.02 114.69 140.15 114.65 140.29 114.6 140.42 114.56 140.55 114.52 140.68 114.48 140.82 114.44 140.95 114.4 141.08 114.37 141.21 114.33 141.35 114.29 141.48 114.25 141.61 114.22 141.74 114.18 141.88 114.15 142.01 114.12 142.14 114.09 142.28 114.05 142.41 114.02 142.54 113.99 142.67 113.96 142.81 113.94 142.94 113.91 143.07 113.88 143.2 113.86 143.34 113.83 143.47 113.81 143.6 113.78 143.73 113.76 143.87 113.74 144 113.72 144.13 113.7 144.26 113.68 144.4 113.67 144.53 113.65 144.66 113.64 144.79 113.62 144.93 113.61 145.06 113.6 145.19 113.59 145.32 113.58 145.46 113.57 145.59 113.57 145.72 113.56 145.85 113.56 145.99 113.55 146.12 113.55 146.25 113.55 146.38 113.56 146.52 113.56 146.65 113.56 146.78 113.57 146.91 113.58 147.05 113.58 147.18 113.59 147.31 113.61 147.44 113.62 147.58 113.63 147.71 113.65 147.84 113.67 147.97 113.69 148.11 113.71 148.24 113.73 148.37 113.76 148.5 113.78 148.64 113.81 148.77 113.84 148.9 113.87 149.03 113.91 149.17 113.94 149.3 113.98 149.43 114.02 149.57 114.06 149.7 114.1 149.83 114.15 149.96 114.19 150.1 114.24 150.23 114.29 150.36 114.34 150.49 114.4 150.63 114.45 150.76 114.51 150.89 114.57 151.02 114.63 151.16 114.69 151.29 114.76 151.42 114.83 151.55 114.9 151.69 114.97 151.82 115.04 151.95 115.12 152.08 115.2 152.22 115.27 152.35 115.36 152.48 115.44 152.61 115.52 152.75 115.61 152.88 115.7 153.01 115.79 153.14 115.89 153.28 115.98 153.41 116.08 153.54 116.18 153.67 116.28 153.81 116.38 153.94 116.49 154.07 116.59 154.2 116.7 154.34 116.81 154.47 116.92 154.6 117.04 154.73 117.16 154.87 117.27 155 117.39 155.13 117.51 155.26 117.64 155.4 117.76 155.53 117.89 155.66 118.02 155.79 118.15 155.93 118.28 156.06 118.42 156.19 118.55 156.32 118.69 156.46 118.83 156.59 118.97 156.72 119.11 156.86 119.25 156.99 119.4 157.12 119.54 157.25 119.69 157.39 119.84 157.52 119.99 157.65 120.14 157.78 120.3 157.92 120.45 158.05 120.61 158.18 120.77 158.31 120.92 158.45 121.08 158.58 121.25 158.71 121.41 158.84 121.57 158.98 121.73 159.11 121.9 159.24 122.06 159.37 122.23 159.51 122.4 159.64 122.57 159.77 122.74 159.9 122.91 160.04 123.08 160.17 123.25 160.3 123.42 160.43 123.59 160.57 123.77 160.7 123.94 160.83 124.11 160.96 124.29 161.1 124.46 161.23 124.64 161.36 124.81 161.49 124.99 161.63 125.16 161.76 125.34 161.89 125.52 162.02 125.69 162.16 125.87 162.29 126.04 162.42 126.22 162.55 126.4 162.69 126.57 162.82 126.75 162.95 126.92 163.08 127.09 163.22 127.27 163.35 127.44 163.48 127.62 163.61 127.79 163.75 127.96 163.88 128.13 164.01 128.3 164.15 128.47 164.28 128.64 164.41 128.81 164.54 128.98 164.68 129.14 164.81 129.31 164.94 129.48 165.07 129.64 165.21 129.8 165.34 129.96 165.47 130.13 165.6 130.29 165.74 130.44 165.87 130.6 166 130.76 166.13 130.91 166.27 131.07 166.4 131.22 166.53 131.37 166.66 131.52 166.8 131.67 166.93 131.82 167.06 131.96 167.19 132.11 167.33 132.25 167.46 132.39 167.59 132.53 167.72 132.67 167.86 132.81 167.99 132.95 168.12 133.08 168.25 133.22 168.39 133.35 168.52 133.48 168.65 133.61 168.78 133.74 168.92 133.86 169.05 133.99 169.18 134.11 169.31 134.23 169.45 134.36 169.58 134.48 169.71 134.6 169.84 134.71 169.98 134.83 170.11 134.94 170.24 135.06 170.37 135.17 170.51 135.28 170.64 135.4 170.77 135.51 170.9 135.61 171.04 135.72 171.17 135.83 171.3 135.94 171.43 136.04 171.57 136.15 171.7 136.25 171.83 136.35 171.97 136.46 172.1 136.56 172.23 136.66 172.36 136.76 172.5 136.86 172.63 136.96 172.76 137.06 172.89 137.16 173.03 137.26 173.16 137.36 173.29 137.46 173.42 137.56 173.56 137.66 173.69 137.75 173.82 137.85 173.95 137.95 174.09 138.05 174.22 138.15 174.35 138.25 174.48 138.35 174.62 138.45 174.75 138.55 174.88 138.65 175.01 138.75 175.15 138.85 175.28 138.96 175.41 139.06 175.54 139.16 175.68 139.27 175.81 139.37 175.94 139.48 176.07 139.58 176.21 139.69 176.34 139.8 176.47 139.9 176.6 140.01 176.74 140.12 176.87 140.23 177 140.35 177.13 140.46 177.27 140.57 177.4 140.68 177.53 140.8 177.66 140.92 177.8 141.03 177.93 141.15 178.06 141.27 178.19 141.39 178.33 141.51 178.46 141.63 178.59 141.75 178.72 141.87 178.86 142 178.99 142.12 179.12 142.25 179.26 142.37 179.39 142.5 179.52 142.63 179.65 142.76 179.79 142.89 179.92 143.02 180.05 143.15 180.18 143.28 180.32 143.41 180.45 143.54 180.58 143.67 180.71 143.8 180.85 143.94 180.98 144.07 181.11 144.2 181.24 144.34 181.38 144.47 181.51 144.61 181.64 144.74 181.77 144.88 181.91 145.01 182.04 145.14 182.17 145.28 182.3 145.41 182.44 145.55 182.57 145.68 182.7 145.81 182.83 145.95 182.97 146.08 183.1 146.21 183.23 146.35 183.36 146.48 183.5 146.61 183.63 146.74 183.76 146.87 183.89 147 184.03 147.13 184.16 147.25 184.29 147.38 184.42 147.51 184.56 147.63 184.69 147.76 184.82 147.88 184.95 148.01 185.09 148.13 185.22 148.25 185.35 148.37 185.48 148.49 185.62 148.6 185.75 148.72 185.88 148.84 186.01 148.95 186.15 149.06 186.28 149.18 186.41 149.29 186.55 149.4 186.68 149.51 186.81 149.61 186.94 149.72 187.08 149.82 187.21 149.93 187.34 150.03 187.47 150.13 187.61 150.23 187.74 150.33 187.87 150.43 188 150.53 188.14 150.62 188.27 150.72 188.4 150.81 188.53 150.9 188.67 150.99 188.8 151.09 188.93 151.17 189.06 151.26 189.2 151.35 189.33 151.44 189.46 151.52 189.59 151.61 189.73 151.69 189.86 151.77 189.99 151.85 190.12 151.93 190.26 152.01 190.39 152.09 190.52 152.17 190.65 152.25 190.79 152.33 190.92 152.4 191.05 152.48 191.18 152.56 191.32 152.63 191.45 152.71 191.58 152.78 191.71 152.86 191.85 152.93 191.98 153 192.11 153.08 192.24 153.15 192.38 153.22 192.51 153.29 192.64 153.37 192.77 153.44 192.91 153.51 193.04 153.58 193.17 153.65 193.3 153.73 193.44 153.8 193.57 153.87 193.7 153.94 193.84 154.02 193.97 154.09 194.1 154.16 194.23 154.23 194.37 154.31 194.5 154.38 194.63 154.45 194.76 154.53 194.9 154.6 195.03 154.68 195.16 154.75 195.29 154.83 195.43 154.9 195.56 154.98 195.69 155.06 195.82 155.13 195.96 155.21 196.09 155.29 196.22 155.37 196.35 155.45 196.49 155.53 196.62 155.61 196.75 155.69 196.88 155.77 197.02 155.85 197.15 155.93 197.28 156.01 197.41 156.1 197.55 156.18 197.68 156.26 197.81 156.35 197.94 156.43 198.08 156.52 198.21 156.6 198.34 156.69 198.47 156.78 198.61 156.86 198.74 156.95 198.87 157.04 199 157.13 199.14 157.22 199.27 157.3 199.4 157.39 199.53 157.48 199.67 157.57 199.8 157.66 199.93 157.76 200.06 157.85 200.2 157.94 200.33 158.03 200.46 158.12 200.59 158.21 200.73 158.31 200.86 158.4 200.99 158.49 201.12 158.58 201.26 158.68 201.39 158.77 201.52 158.86 201.66 158.96 201.79 159.05 201.92 159.14 202.05 159.24 202.19 159.33 202.32 159.42 202.45 159.52 202.58 159.61 202.72 159.7 202.85 159.8 202.98 159.89 203.11 159.98 203.25 160.08 203.38 160.17 203.51 160.26 203.64 160.36 203.78 160.45 203.91 160.54 204.04 160.63 204.17 160.73 204.31 160.82 204.44 160.91 204.57 161 204.7 161.09 204.84 161.18 204.97 161.27 205.1 161.36 205.23 161.45 205.37 161.54 205.5 161.63 205.63 161.72 205.76 161.81 205.9 161.9 206.03 161.98 206.16 162.07 206.29 162.16 206.43 162.24 206.56 162.33 206.69 162.42 206.82 162.5 206.96 162.59 207.09 162.67 207.22 162.76 207.35 162.84 207.49 162.92 207.62 163.01 207.75 163.09 207.88 163.17 208.02 163.25 208.15 163.33 208.28 163.41 208.41 163.5 208.55 163.58 208.68 163.65 208.81 163.73 208.95 163.81 209.08 163.89 209.21 163.97 209.34 164.05 209.48 164.12 209.61 164.2 209.74 164.28 209.87 164.35 210.01 164.43 210.14 164.5 210.27 164.58 210.4 164.65 210.54 164.73 210.67 164.8 210.8 164.88 210.93 164.95 211.07 165.02 211.2 165.1 211.33 165.17 211.46 165.24 211.6 165.31 211.73 165.38 211.86 165.45 211.99 165.52 212.13 165.59 212.26 165.67 212.39 165.73 212.52 165.8 212.66 165.87 212.79 165.94 212.92 166.01 213.05 166.08 213.19 166.15 213.32 166.22 213.45 166.29 213.58 166.35 213.72 166.42 213.85 166.49 213.98 166.56 214.11 166.62 214.25 166.69 214.38 166.76 214.51 166.82 214.64 166.89 214.78 166.96 214.91 167.02 215.04 167.09 215.17 167.15 215.31 167.22 215.44 167.29 215.57 167.35 215.7 167.42 215.84 167.48 215.97 167.55 216.1 167.61 216.24 167.68 216.37 167.74 216.5 167.81 216.63 167.87 216.77 167.93 216.9 168 217.03 168.06 217.16 168.13 217.3 168.19 217.43 168.25 217.56 168.32 217.69 168.38 217.83 168.44 217.96 168.5 218.09 168.57 218.22 168.63 218.36 168.69 218.49 168.75 218.62 168.82 218.75 168.88 218.89 168.94 219.02 169 219.15 169.06 219.28 169.12 219.42 169.18 219.55 169.24 219.68 169.3 219.81 169.36 219.95 169.42 220.08 169.48 220.21 169.54 220.34 169.6 220.48 169.66 220.61 169.72 220.74 169.78 220.87 169.83 221.01 169.89 221.14 169.95 221.27 170.01 221.4 170.06 221.54 170.12 221.67 170.17 221.8 170.23 221.93 170.28 222.07 170.34 222.2 170.39 222.33 170.45 222.46 170.5 222.6 170.55 222.73 170.61 222.86 170.66 222.99 170.71 223.13 170.76 223.26 170.81 223.39 170.86 223.53 170.91 223.66 170.96 223.79 171.01 223.92 171.06 224.06 171.1 224.19 171.15 224.32 171.2 224.45 171.24 224.59 171.29 224.72 171.33 224.85 171.38 224.98 171.42 225.12 171.47 225.25 171.51 225.38 171.55 225.51 171.59 225.65 171.63 225.78 171.67 225.91 171.71 226.04 171.75 226.18 171.79 226.31 171.83 226.44 171.87 226.57 171.91 226.71 171.94 226.84 171.98 226.97 172.01 227.1 172.05 227.24 172.08 227.37 172.12 227.5 172.15 227.63 172.18 227.77 172.21 227.9 172.25 228.03 172.28 228.16 172.31 228.3 172.34 228.43 172.37 228.56 172.4 228.69 172.42 228.83 172.45 228.96 172.48 229.09 172.51 229.22 172.53 229.36 172.56 229.49 172.58 229.62 172.61 229.75 172.63 229.89 172.66 230.02 172.68 230.15 172.7 230.28 172.73 230.42 172.75 230.55 172.77 230.68 172.79 230.81 172.81 230.95 172.83 231.08 172.85 231.21 172.87 231.35 172.89 231.48 172.91 231.61 172.93 231.74 172.95 231.88 172.97 232.01 172.98 232.14 173 232.27 173.02 232.41 173.03 232.54 173.05 232.67 173.07 232.8 173.08 232.94 173.1 233.07 173.11 233.2 173.13 233.33 173.14 233.47 173.16 233.6 173.17 233.73 173.18 233.86 173.2 234 173.21 234.13 173.22 234.26 173.24 234.39 173.25 234.53 173.26 234.66 173.27 234.79 173.29 234.92 173.3 235.06 173.31 235.19 173.32 235.32 173.33 235.45 173.34 235.59 173.35 235.72 173.36 235.85 173.38 235.98 173.39 236.12 173.4 236.25 173.41 236.38 173.42 236.51 173.43 236.65 173.44 236.78 173.45 236.91 173.46 237.04 173.47 237.18 173.48 237.31 173.48 237.44 173.49 237.57 173.5 237.71 173.51 237.84 173.52 237.97 173.53 238.1 173.54 238.24 173.55 238.37 173.56 238.5 173.57 238.64 173.57 238.77 173.58 238.9 173.59 239.03 173.6 239.17 173.61 239.3 173.62 239.43 173.62 239.56 173.63 239.7 173.64 239.83 173.65 239.96 173.66 240.09 173.66 240.23 173.67 240.36 173.68 240.49 173.69 240.62 173.69 240.76 173.7 240.89 173.71 241.02 173.72 241.15 173.72 241.29 173.73 241.42 173.74 241.55 173.75 241.68 173.75 241.82 173.76 241.95 173.77 242.08 173.77 242.21 173.78 242.35 173.79 242.48 173.79 242.61 173.8 242.74 173.81 242.88 173.82 243.01 173.82 243.14 173.83 243.27 173.83 243.41 173.84 243.54 173.85 243.67 173.85 243.8 173.86 243.94 173.87 244.07 173.87 244.2 173.88 244.33 173.89 244.47 173.89 244.6 173.9 244.73 173.9 244.86 173.91 245 173.92 245.13 173.92 245.26 173.93 245.39 173.93 245.53 173.94 245.66 173.94 245.79 173.95 245.93 173.96 246.06 173.96 246.19 173.97 246.32 173.97 246.46 173.98 246.59 173.98 246.72 173.99 246.85 173.99 246.99 174 247.12 174 247.25 174.01 247.38 174.01 247.52 174.02 247.65 174.02 247.78 174.03 247.91 174.03 248.05 174.04 248.18 174.04 248.31 174.05 248.44 174.05 248.58 174.06 248.71 174.06 248.84 174.07 248.97 174.07 249.11 174.08 249.24 174.08 249.37 174.08 249.5 174.09 249.64 174.09 249.77 174.1 249.9 174.1 250.03 174.11 250.17 174.11 250.3 174.11 250.43 174.12 250.56 174.12 250.7 174.13 250.83 174.13 250.96 174.13 251.09 174.14 251.23 174.14 251.36 174.14 251.49 174.15 251.62 174.15 251.76 174.16 251.89 174.16 252.02 174.16 252.15 174.17 252.29 174.17 252.42 174.17 252.55 174.18 252.68 174.18 252.82 174.18 252.95 174.19 253.08 174.19 253.22 174.19 253.35 174.2 253.48 174.2 253.61 174.2 253.75 174.21 253.88 174.21 254.01 174.21 254.14 174.21 254.28 174.22 254.41 174.22 254.54 174.22 254.67 174.23 254.81 174.23 254.94 174.23 255.07 174.23 255.2 174.24 255.34 174.24 255.47 174.24 255.6 174.24 255.73 174.25 255.87 174.25 256 174.25 256.13 174.25 256.26 174.26 256.4 174.26 256.53 174.26 256.66 174.26 256.79 174.27 256.93 174.27 257.06 174.27 257.19 174.27 257.32 174.28 257.46 174.28 257.59 174.28 257.72 174.28 257.85 174.28 257.99 174.29 258.12 174.29 258.25 174.29 258.38 174.29 258.52 174.3 258.65 174.3 258.78 174.3 258.91 174.3 259.05 174.3 259.18 174.31 259.31 174.31 259.44 174.31 259.58 174.31 259.71 174.32 259.84 174.32 259.97 174.32 260.11 174.32 260.24 174.32 260.37 174.33 260.5 174.33 260.64 174.33 260.77 174.33 260.9 174.33 261.04 174.34 261.17 174.34 261.3 174.34 261.43 174.34 261.57 174.35 261.7 174.35 261.83 174.35 261.96 174.35 262.1 174.35 262.23 174.36 262.36 174.36 262.49 174.36 262.63 174.36 262.76 174.36 262.89 174.37 263.02 174.37 263.16 174.37 263.29 174.37 263.42 174.37 263.55 174.37 263.69 174.38 263.82 174.38 263.95 174.38 264.08 174.38 264.22 174.38 264.35 174.39 264.48 174.39 264.61 174.39 264.75 174.39 264.88 174.39 265.01 174.39 265.14 174.39 265.28 174.4 265.41 174.4 265.54 174.4 265.67 174.4 265.81 174.4 265.94 174.4 266.07 174.4 266.2 174.41 266.34 174.41 266.47 174.41 266.6 174.41 266.73 174.41 266.87 174.41 267 174.41 267.13 174.41 267.26 174.41 267.4 174.42 267.53 174.42 267.66 174.42 267.79 174.42 267.93 174.42 268.06 174.42 268.19 174.42 268.33 174.42 268.46 174.42 268.59 174.42 268.72 174.42 268.86 174.42 268.99 174.42 269.12 174.42 269.25 174.42 269.39 174.42 269.52 174.42 269.65 174.42 269.78 174.42 269.92 174.42 270.05 174.42 270.18 174.43 270.31 174.43 270.45 174.43 270.58 174.43 270.71 174.43 270.84 174.43 270.98 174.43 271.11 174.43 271.24 174.43 271.37 174.43 271.51 174.43 271.64 174.43 271.77 174.43 271.9 174.43 272.04 174.43 272.17 174.43 272.3 174.43 272.43 174.43 272.57 174.43 272.7 174.43 272.83 174.43 272.96 174.43 273.1 174.43 273.23 174.43 273.36 174.43 273.49 174.43 273.63 174.43 273.76 174.43 273.89 174.43 274.02 174.43 274.16 174.43 274.29 174.43 274.42 174.43 274.55 174.43 274.69 174.43 274.82 174.43 274.95 174.43 275.08 174.43 275.22 174.43 275.35 174.43 275.48 174.43 275.62 174.44 275.75 174.44 275.88 174.44 276.01 174.44 276.15 174.44 276.28 174.44 276.41 174.44 276.54 174.44 276.68 174.45 276.81 174.45 276.94 174.45 277.07 174.45 277.21 174.45 277.34 174.45 277.47 174.45 277.6 174.46 277.74 174.46 277.87 174.46 278 174.46 278.13 174.46 278.27 174.47 278.4 174.47 278.53 174.47 278.66 174.47 278.8 174.48 278.93 174.48 279.06 174.48 279.19 174.48 279.33 174.49 279.46 174.49 279.59 174.49 279.72 174.49 279.86 174.5 279.99 174.5 280.12 174.5 280.25 174.51 280.39 174.51 280.52 174.51 280.65 174.51 280.78 174.52 280.92 174.52 281.05 174.52 281.18 174.53 281.31 174.53 281.45 174.53 281.58 174.54 281.71 174.54 281.84 174.54 281.98 174.55 282.11 174.55 282.24 174.55 282.37 174.56 282.51 174.56 282.64 174.56 282.77 174.57 282.91 174.57 283.04 174.57 283.17 174.58 283.3 174.58 283.44 174.58 283.57 174.58 283.7 174.59 283.83 174.59 283.97 174.59 284.1 174.6 284.23 174.6 284.36 174.6 284.5 174.61 284.63 174.61 284.76 174.61 284.89 174.62 285.03 174.62 285.16 174.62 285.29 174.62 285.42 174.63 285.56 174.63 285.69 174.63 285.82 174.64 285.95 174.64 286.09 174.64 286.22 174.64 286.35 174.65 286.48 174.65 286.62 174.65 286.75 174.65 286.88 174.66 287.01 174.66 287.15 174.66 287.28 174.66 287.41 174.67 287.54 174.67 287.68 174.67 287.81 174.67 287.94 174.68 288.07 174.68 288.21 174.68 288.34 174.68 288.47 174.68 288.6 174.68 288.74 174.69 288.87 174.69 289 174.69 289.13 174.69 289.27 174.69 289.4 174.7 289.53 174.7 289.66 174.7 289.8 174.7 289.93 174.7 290.06 174.7 290.19 174.7 290.33 174.71 290.46 174.71 290.59 174.71 290.73 174.71 290.86 174.71 290.99 174.71 291.12 174.71 291.26 174.71 291.39 174.72 291.52 174.72 291.65 174.72 291.79 174.72 291.92 174.72 292.05 174.72 292.18 174.72 292.32 174.72 292.45 174.72 292.58 174.72 292.71 174.72 292.85 174.72 292.98 174.73 293.11 174.73 293.24 174.73 293.38 174.73 293.51 174.73 293.64 174.73 293.77 174.73 293.91 174.73 294.04 174.73 294.17 174.73 294.3 174.73 294.44 174.73 294.57 174.73 294.7 174.73 294.83 174.73 294.97 174.73 295.1 174.73 295.23 174.73 295.36 174.73 295.5 174.73 295.63 174.73 295.76 174.73 295.89 174.74 296.03 174.74 296.16 174.74 296.29 174.74 296.42 174.74 296.56 174.74 296.69 174.74 296.82 174.74 296.95 174.74 297.09 174.74 297.22 174.74 297.35 174.74 297.48 174.74 297.62 174.74 297.75 174.74 297.88 174.74 298.02 174.74 298.15 174.74 298.28 174.74 298.41 174.74 298.55 174.74 298.68 174.74 298.81 174.74 298.94 174.74 299.08 174.74 299.21 174.74 299.34 174.74 299.47 174.74 299.61 174.74 299.74 174.74 299.87 174.74 300 174.74 300.14 174.74 300.27 174.74 300.4 174.74 300.53 174.74 300.67 174.74 300.8 174.74 300.93 174.74 301.06 174.74 301.2 174.74 301.33 174.74 301.46 174.74 301.59 174.74 301.73 174.74 301.86 174.74 301.99 174.74 302.12 174.74 302.26 174.74 302.39 174.74 302.52 174.74 302.65 174.74 302.79 174.74 302.92 174.74 303.05 174.74 303.18 174.74 303.32 174.74 303.45 174.74 303.58 174.74 303.71 174.74 303.85 174.74 303.98 174.74"/>
      </g>
    </g>
  </g>
</g>
  <g class="guide ylabels" font-size="4.94" font-family="'PT Sans Caption','Helvetica Neue','Helvetica',sans-serif" fill="#6C606B" id="img-fec23c40-16">
    <text x="27.3" y="174.74" text-anchor="end" dy="0.35em">0</text>
    <text x="27.3" y="135.2" text-anchor="end" dy="0.35em">500</text>
    <text x="27.3" y="95.66" text-anchor="end" dy="0.35em">1000</text>
    <text x="27.3" y="56.12" text-anchor="end" dy="0.35em">1500</text>
    <text x="27.3" y="16.58" text-anchor="end" dy="0.35em">2000</text>
  </g>
  <g font-size="6" font-family="'PT Sans','Helvetica Neue','Helvetica',sans-serif" fill="#564A55" stroke="#000000" stroke-opacity="0.000" id="img-fec23c40-17">
    <text x="9.79" y="93.66" text-anchor="middle" dy="0.35em" transform="rotate(-90, 9.79, 95.66)">Density</text>
  </g>
  <g font-size="6" font-family="'PT Sans','Helvetica Neue','Helvetica',sans-serif" fill="#564A55" stroke="#000000" stroke-opacity="0.000" id="img-fec23c40-18">
    <text x="182.36" y="12.58" text-anchor="middle">Density of regression coefficient (true value = 0.009212716910100748)</text>
  </g>
</g>
<defs>
  <clipPath id="img-fec23c40-8">
  <path d="M28.3,14.58 L 336.42 14.58 336.42 176.74 28.3 176.74" />
</clipPath>
</defs>
</svg>
