<?xml version="1.0" encoding="UTF-8"?>
<svg xmlns="http://www.w3.org/2000/svg"
     xmlns:xlink="http://www.w3.org/1999/xlink"
     xmlns:gadfly="http://www.gadflyjl.org/ns"
     version="1.2"
     width="400mm" height="200mm" viewBox="0 0 400 200"
     stroke="none"
     fill="#000000"
     stroke-width="0.3"
     font-size="3.88"
>
<g class="plotroot yscalable" id="img-82fd2598-1">
  <g font-size="6" font-family="'PT Sans','Helvetica Neue','Helvetica',sans-serif" fill="#564A55" stroke="#000000" stroke-opacity="0.000" id="img-82fd2598-2">
    <text x="209.31" y="186.42" text-anchor="middle" dy="0.6em">Ticker code</text>
  </g>
  <g class="guide xlabels" font-size="4.94" font-family="'PT Sans Caption','Helvetica Neue','Helvetica',sans-serif" fill="#6C606B" id="img-82fd2598-3">
    <text x="36" y="177.74" text-anchor="middle" dy="0.6em">AMP</text>
    <text x="60.76" y="177.74" text-anchor="middle" dy="0.6em">ANZ</text>
    <text x="85.51" y="177.74" text-anchor="middle" dy="0.6em">BHP</text>
    <text x="110.27" y="177.74" text-anchor="middle" dy="0.6em">CBA</text>
    <text x="135.03" y="177.74" text-anchor="middle" dy="0.6em">CCL</text>
    <text x="159.79" y="177.74" text-anchor="middle" dy="0.6em">JBH</text>
    <text x="184.55" y="177.74" text-anchor="middle" dy="0.6em">LLC</text>
    <text x="209.31" y="177.74" text-anchor="middle" dy="0.6em">NAB</text>
    <text x="234.07" y="177.74" text-anchor="middle" dy="0.6em">RIO</text>
    <text x="258.83" y="177.74" text-anchor="middle" dy="0.6em">SUN</text>
    <text x="283.58" y="177.74" text-anchor="middle" dy="0.6em">TLS</text>
    <text x="308.34" y="177.74" text-anchor="middle" dy="0.6em">TOL</text>
    <text x="333.1" y="177.74" text-anchor="middle" dy="0.6em">WBC</text>
    <text x="357.86" y="177.74" text-anchor="middle" dy="0.6em">WES</text>
    <text x="382.62" y="177.74" text-anchor="middle" dy="0.6em">WOW</text>
  </g>
<g clip-path="url(#img-82fd2598-4)">
  <g id="img-82fd2598-5">
    <g pointer-events="visible" opacity="1" fill="#000000" fill-opacity="0.000" stroke="#000000" stroke-opacity="0.000" class="guide background" id="img-82fd2598-6">
      <rect x="23.62" y="5" width="371.38" height="171.74"/>
    </g>
    <g class="guide ygridlines xfixed" stroke-dasharray="0.5,0.5" stroke-width="0.2" stroke="#D0D0E0" id="img-82fd2598-7">
      <path fill="none" d="M23.62,174.74 L 395 174.74"/>
      <path fill="none" d="M23.62,141.19 L 395 141.19"/>
      <path fill="none" d="M23.62,107.64 L 395 107.64"/>
      <path fill="none" d="M23.62,74.1 L 395 74.1"/>
      <path fill="none" d="M23.62,40.55 L 395 40.55"/>
      <path fill="none" d="M23.62,7 L 395 7"/>
    </g>
    <g class="guide xgridlines yfixed" stroke-dasharray="0.5,0.5" stroke-width="0.2" stroke="#D0D0E0" id="img-82fd2598-8">
      <path fill="none" d="M48.38,5 L 48.38 176.74"/>
      <path fill="none" d="M73.13,5 L 73.13 176.74"/>
      <path fill="none" d="M97.89,5 L 97.89 176.74"/>
      <path fill="none" d="M122.65,5 L 122.65 176.74"/>
      <path fill="none" d="M147.41,5 L 147.41 176.74"/>
      <path fill="none" d="M172.17,5 L 172.17 176.74"/>
      <path fill="none" d="M196.93,5 L 196.93 176.74"/>
      <path fill="none" d="M221.69,5 L 221.69 176.74"/>
      <path fill="none" d="M246.45,5 L 246.45 176.74"/>
      <path fill="none" d="M271.21,5 L 271.21 176.74"/>
      <path fill="none" d="M295.96,5 L 295.96 176.74"/>
      <path fill="none" d="M320.72,5 L 320.72 176.74"/>
      <path fill="none" d="M345.48,5 L 345.48 176.74"/>
      <path fill="none" d="M370.24,5 L 370.24 176.74"/>
    </g>
    <g class="plotpanel" id="img-82fd2598-9">
      <g class="xfixed" stroke-dasharray="none" stroke-width="0.3" stroke="#0000FF" id="img-82fd2598-10">
        <path fill="none" d="M23.62,170.96 L 395 170.96"/>
        <path fill="none" d="M23.62,63.25 L 395 63.25"/>
      </g>
      <g class="geometry" id="img-82fd2598-11">
        <g class="color_RGBA{Float32}(0.0f0,0.0f0,1.0f0,1.0f0)" stroke="#FFFFFF" stroke-width="0.3" fill="#0000FF" id="img-82fd2598-12">
          <use xlink:href="#img-82fd2598-13" x="36" y="122.63"/>
          <use xlink:href="#img-82fd2598-13" x="60.76" y="93.86"/>
          <use xlink:href="#img-82fd2598-13" x="85.51" y="102.41"/>
          <use xlink:href="#img-82fd2598-13" x="110.27" y="75.16"/>
          <use xlink:href="#img-82fd2598-13" x="135.03" y="128.06"/>
          <use xlink:href="#img-82fd2598-13" x="159.79" y="126.05"/>
          <use xlink:href="#img-82fd2598-13" x="184.55" y="113.42"/>
          <use xlink:href="#img-82fd2598-13" x="209.31" y="35.56"/>
          <use xlink:href="#img-82fd2598-13" x="234.07" y="85.25"/>
          <use xlink:href="#img-82fd2598-13" x="258.83" y="105.55"/>
          <use xlink:href="#img-82fd2598-13" x="283.58" y="92.27"/>
          <use xlink:href="#img-82fd2598-13" x="308.34" y="114.28"/>
          <use xlink:href="#img-82fd2598-13" x="333.1" y="116.77"/>
          <use xlink:href="#img-82fd2598-13" x="357.86" y="85.55"/>
          <use xlink:href="#img-82fd2598-13" x="382.62" y="121.98"/>
        </g>
      </g>
    </g>
  </g>
</g>
  <g class="guide ylabels" font-size="4.94" font-family="'PT Sans Caption','Helvetica Neue','Helvetica',sans-serif" fill="#6C606B" id="img-82fd2598-14">
    <text x="22.62" y="174.74" text-anchor="end" dy="0.35em">2.5</text>
    <text x="22.62" y="141.19" text-anchor="end" dy="0.35em">3.0</text>
    <text x="22.62" y="107.64" text-anchor="end" dy="0.35em">3.5</text>
    <text x="22.62" y="74.1" text-anchor="end" dy="0.35em">4.0</text>
    <text x="22.62" y="40.55" text-anchor="end" dy="0.35em">4.5</text>
    <text x="22.62" y="7" text-anchor="end" dy="0.35em">5.0</text>
  </g>
  <g font-size="6" font-family="'PT Sans','Helvetica Neue','Helvetica',sans-serif" fill="#564A55" stroke="#000000" stroke-opacity="0.000" id="img-82fd2598-15">
    <text x="9.79" y="88.87" text-anchor="middle" dy="0.35em" transform="rotate(-90, 9.79, 90.87)">Robust kurtosis</text>
  </g>
</g>
<defs>
  <clipPath id="img-82fd2598-4">
  <path d="M23.62,5 L 395 5 395 176.74 23.62 176.74" />
</clipPath>
  <g id="img-82fd2598-13">
    <circle cx="0" cy="0" r="1.41"/>
  </g>
</defs>
</svg>
