<?xml version="1.0" encoding="UTF-8"?>
<svg xmlns="http://www.w3.org/2000/svg"
     xmlns:xlink="http://www.w3.org/1999/xlink"
     xmlns:gadfly="http://www.gadflyjl.org/ns"
     version="1.2"
     width="400mm" height="200mm" viewBox="0 0 400 200"
     stroke="none"
     fill="#000000"
     stroke-width="0.3"
     font-size="3.88"
>
<g class="plotroot yscalable" id="img-37f10bda-1">
  <g font-size="6" font-family="'PT Sans','Helvetica Neue','Helvetica',sans-serif" fill="#564A55" stroke="#000000" stroke-opacity="0.000" id="img-37f10bda-2">
    <text x="209.31" y="186.42" text-anchor="middle" dy="0.6em">Ticker code</text>
  </g>
  <g class="guide xlabels" font-size="4.94" font-family="'PT Sans Caption','Helvetica Neue','Helvetica',sans-serif" fill="#6C606B" id="img-37f10bda-3">
    <text x="36" y="177.74" text-anchor="middle" dy="0.6em">AMP</text>
    <text x="60.76" y="177.74" text-anchor="middle" dy="0.6em">ANZ</text>
    <text x="85.51" y="177.74" text-anchor="middle" dy="0.6em">BHP</text>
    <text x="110.27" y="177.74" text-anchor="middle" dy="0.6em">CBA</text>
    <text x="135.03" y="177.74" text-anchor="middle" dy="0.6em">CCL</text>
    <text x="159.79" y="177.74" text-anchor="middle" dy="0.6em">JBH</text>
    <text x="184.55" y="177.74" text-anchor="middle" dy="0.6em">LLC</text>
    <text x="209.31" y="177.74" text-anchor="middle" dy="0.6em">NAB</text>
    <text x="234.07" y="177.74" text-anchor="middle" dy="0.6em">RIO</text>
    <text x="258.83" y="177.74" text-anchor="middle" dy="0.6em">SUN</text>
    <text x="283.58" y="177.74" text-anchor="middle" dy="0.6em">TLS</text>
    <text x="308.34" y="177.74" text-anchor="middle" dy="0.6em">TOL</text>
    <text x="333.1" y="177.74" text-anchor="middle" dy="0.6em">WBC</text>
    <text x="357.86" y="177.74" text-anchor="middle" dy="0.6em">WES</text>
    <text x="382.62" y="177.74" text-anchor="middle" dy="0.6em">WOW</text>
  </g>
<g clip-path="url(#img-37f10bda-4)">
  <g id="img-37f10bda-5">
    <g pointer-events="visible" opacity="1" fill="#000000" fill-opacity="0.000" stroke="#000000" stroke-opacity="0.000" class="guide background" id="img-37f10bda-6">
      <rect x="23.62" y="5" width="371.38" height="171.74"/>
    </g>
    <g class="guide ygridlines xfixed" stroke-dasharray="0.5,0.5" stroke-width="0.2" stroke="#D0D0E0" id="img-37f10bda-7">
      <path fill="none" d="M23.62,174.74 L 395 174.74"/>
      <path fill="none" d="M23.62,132.8 L 395 132.8"/>
      <path fill="none" d="M23.62,90.87 L 395 90.87"/>
      <path fill="none" d="M23.62,48.94 L 395 48.94"/>
      <path fill="none" d="M23.62,7 L 395 7"/>
    </g>
    <g class="guide xgridlines yfixed" stroke-dasharray="0.5,0.5" stroke-width="0.2" stroke="#D0D0E0" id="img-37f10bda-8">
      <path fill="none" d="M48.38,5 L 48.38 176.74"/>
      <path fill="none" d="M73.13,5 L 73.13 176.74"/>
      <path fill="none" d="M97.89,5 L 97.89 176.74"/>
      <path fill="none" d="M122.65,5 L 122.65 176.74"/>
      <path fill="none" d="M147.41,5 L 147.41 176.74"/>
      <path fill="none" d="M172.17,5 L 172.17 176.74"/>
      <path fill="none" d="M196.93,5 L 196.93 176.74"/>
      <path fill="none" d="M221.69,5 L 221.69 176.74"/>
      <path fill="none" d="M246.45,5 L 246.45 176.74"/>
      <path fill="none" d="M271.21,5 L 271.21 176.74"/>
      <path fill="none" d="M295.96,5 L 295.96 176.74"/>
      <path fill="none" d="M320.72,5 L 320.72 176.74"/>
      <path fill="none" d="M345.48,5 L 345.48 176.74"/>
      <path fill="none" d="M370.24,5 L 370.24 176.74"/>
    </g>
    <g class="plotpanel" id="img-37f10bda-9">
      <g class="xfixed" stroke-dasharray="none" stroke-width="0.3" stroke="#0000FF" id="img-37f10bda-10">
        <path fill="none" d="M23.62,170.02 L 395 170.02"/>
        <path fill="none" d="M23.62,35.38 L 395 35.38"/>
      </g>
      <g class="geometry" id="img-37f10bda-11">
        <g class="color_RGBA{Float32}(0.0f0,0.0f0,1.0f0,1.0f0)" stroke="#FFFFFF" stroke-width="0.3" fill="#0000FF" id="img-37f10bda-12">
          <use xlink:href="#img-37f10bda-13" x="36" y="137.22"/>
          <use xlink:href="#img-37f10bda-13" x="60.76" y="140.1"/>
          <use xlink:href="#img-37f10bda-13" x="85.51" y="127.7"/>
          <use xlink:href="#img-37f10bda-13" x="110.27" y="131.68"/>
          <use xlink:href="#img-37f10bda-13" x="135.03" y="136.32"/>
          <use xlink:href="#img-37f10bda-13" x="159.79" y="133.74"/>
          <use xlink:href="#img-37f10bda-13" x="184.55" y="134.89"/>
          <use xlink:href="#img-37f10bda-13" x="209.31" y="124.45"/>
          <use xlink:href="#img-37f10bda-13" x="234.07" y="130.7"/>
          <use xlink:href="#img-37f10bda-13" x="258.83" y="141.91"/>
          <use xlink:href="#img-37f10bda-13" x="283.58" y="133.25"/>
          <use xlink:href="#img-37f10bda-13" x="308.34" y="131.95"/>
          <use xlink:href="#img-37f10bda-13" x="333.1" y="150.49"/>
          <use xlink:href="#img-37f10bda-13" x="357.86" y="128.58"/>
          <use xlink:href="#img-37f10bda-13" x="382.62" y="139.21"/>
        </g>
      </g>
    </g>
  </g>
</g>
  <g class="guide ylabels" font-size="4.94" font-family="'PT Sans Caption','Helvetica Neue','Helvetica',sans-serif" fill="#6C606B" id="img-37f10bda-14">
    <text x="22.62" y="174.74" text-anchor="end" dy="0.35em">2.5</text>
    <text x="22.62" y="132.8" text-anchor="end" dy="0.35em">3.0</text>
    <text x="22.62" y="90.87" text-anchor="end" dy="0.35em">3.5</text>
    <text x="22.62" y="48.94" text-anchor="end" dy="0.35em">4.0</text>
    <text x="22.62" y="7" text-anchor="end" dy="0.35em">4.5</text>
  </g>
  <g font-size="6" font-family="'PT Sans','Helvetica Neue','Helvetica',sans-serif" fill="#564A55" stroke="#000000" stroke-opacity="0.000" id="img-37f10bda-15">
    <text x="9.79" y="88.87" text-anchor="middle" dy="0.35em" transform="rotate(-90, 9.79, 90.87)">Robust kurtosis</text>
  </g>
</g>
<defs>
  <clipPath id="img-37f10bda-4">
  <path d="M23.62,5 L 395 5 395 176.74 23.62 176.74" />
</clipPath>
  <g id="img-37f10bda-13">
    <circle cx="0" cy="0" r="1.41"/>
  </g>
</defs>
</svg>
