<?xml version="1.0" encoding="UTF-8"?>
<svg xmlns="http://www.w3.org/2000/svg"
     xmlns:xlink="http://www.w3.org/1999/xlink"
     xmlns:gadfly="http://www.gadflyjl.org/ns"
     version="1.2"
     width="400mm" height="200mm" viewBox="0 0 400 200"
     stroke="none"
     fill="#000000"
     stroke-width="0.3"
     font-size="3.88"
>
<g class="plotroot xscalable yscalable" id="img-c705d57c-1">
  <g font-size="6" font-family="'PT Sans','Helvetica Neue','Helvetica',sans-serif" fill="#564A55" stroke="#000000" stroke-opacity="0.000" id="img-c705d57c-2">
    <text x="189.18" y="186.42" text-anchor="middle" dy="0.6em">Terminal value</text>
  </g>
  <g class="guide xlabels" font-size="4.94" font-family="'PT Sans Caption','Helvetica Neue','Helvetica',sans-serif" fill="#6C606B" id="img-c705d57c-3">
    <text x="43.93" y="177.74" text-anchor="middle" dy="0.6em">0</text>
    <text x="116.55" y="177.74" text-anchor="middle" dy="0.6em">1×10⁶</text>
    <text x="189.18" y="177.74" text-anchor="middle" dy="0.6em">2×10⁶</text>
    <text x="261.8" y="177.74" text-anchor="middle" dy="0.6em">3×10⁶</text>
    <text x="334.42" y="177.74" text-anchor="middle" dy="0.6em">4×10⁶</text>
  </g>
  <g class="guide colorkey" id="img-c705d57c-4">
    <g fill="#4C404B" font-size="4.94" font-family="'PT Sans','Helvetica Neue','Helvetica',sans-serif" id="img-c705d57c-5">
      <text x="341.22" y="95.66" dy="0.35em">Least squares</text>
      <text x="341.22" y="101.26" dy="0.35em">Least absolute deviations</text>
    </g>
    <g stroke="#000000" stroke-opacity="0.000" id="img-c705d57c-6">
      <rect x="337.42" y="94.26" width="2.8" height="2.8" fill="#0000FF"/>
      <rect x="337.42" y="99.86" width="2.8" height="2.8" fill="#008000"/>
    </g>
    <g fill="#362A35" font-size="6" font-family="'PT Sans','Helvetica Neue','Helvetica',sans-serif" stroke="#000000" stroke-opacity="0.000" id="img-c705d57c-7">
      <text x="337.42" y="90.85">Legend:</text>
    </g>
  </g>
<g clip-path="url(#img-c705d57c-8)">
  <g id="img-c705d57c-9">
    <g pointer-events="visible" opacity="1" fill="#000000" fill-opacity="0.000" stroke="#000000" stroke-opacity="0.000" class="guide background" id="img-c705d57c-10">
      <rect x="41.93" y="14.58" width="294.48" height="162.16"/>
    </g>
    <g class="guide ygridlines xfixed" stroke-dasharray="0.5,0.5" stroke-width="0.2" stroke="#D0D0E0" id="img-c705d57c-11">
      <path fill="none" d="M41.93,174.74 L 336.42 174.74"/>
      <path fill="none" d="M41.93,143.11 L 336.42 143.11"/>
      <path fill="none" d="M41.93,111.48 L 336.42 111.48"/>
      <path fill="none" d="M41.93,79.84 L 336.42 79.84"/>
      <path fill="none" d="M41.93,48.21 L 336.42 48.21"/>
      <path fill="none" d="M41.93,16.58 L 336.42 16.58"/>
    </g>
    <g class="guide xgridlines yfixed" stroke-dasharray="0.5,0.5" stroke-width="0.2" stroke="#D0D0E0" id="img-c705d57c-12">
      <path fill="none" d="M43.93,14.58 L 43.93 176.74"/>
      <path fill="none" d="M116.55,14.58 L 116.55 176.74"/>
      <path fill="none" d="M189.18,14.58 L 189.18 176.74"/>
      <path fill="none" d="M261.8,14.58 L 261.8 176.74"/>
      <path fill="none" d="M334.42,14.58 L 334.42 176.74"/>
    </g>
    <g class="plotpanel" id="img-c705d57c-13">
      <g stroke-width="0.3" fill="#000000" fill-opacity="0.000" class="geometry" stroke-dasharray="none" stroke="#008000" id="img-c705d57c-14">
        <path fill="none" d="M91.37,174.74 L 91.47 174.74 91.58 174.74 91.68 174.74 91.78 174.74 91.88 174.74 91.98 174.74 92.08 174.74 92.19 174.74 92.29 174.74 92.39 174.74 92.49 174.74 92.59 174.74 92.69 174.74 92.8 174.74 92.9 174.74 93 174.74 93.1 174.74 93.2 174.74 93.31 174.74 93.41 174.74 93.51 174.74 93.61 174.74 93.71 174.74 93.81 174.74 93.92 174.74 94.02 174.74 94.12 174.74 94.22 174.74 94.32 174.74 94.42 174.74 94.53 174.74 94.63 174.74 94.73 174.74 94.83 174.74 94.93 174.74 95.04 174.74 95.14 174.74 95.24 174.74 95.34 174.74 95.44 174.73 95.54 174.73 95.65 174.73 95.75 174.73 95.85 174.73 95.95 174.73 96.05 174.73 96.15 174.73 96.26 174.73 96.36 174.73 96.46 174.73 96.56 174.73 96.66 174.73 96.77 174.73 96.87 174.73 96.97 174.73 97.07 174.72 97.17 174.72 97.27 174.72 97.38 174.72 97.48 174.72 97.58 174.72 97.68 174.72 97.78 174.72 97.88 174.71 97.99 174.71 98.09 174.71 98.19 174.71 98.29 174.71 98.39 174.7 98.5 174.7 98.6 174.7 98.7 174.7 98.8 174.7 98.9 174.69 99 174.69 99.11 174.69 99.21 174.68 99.31 174.68 99.41 174.68 99.51 174.67 99.61 174.67 99.72 174.67 99.82 174.66 99.92 174.66 100.02 174.65 100.12 174.65 100.22 174.64 100.33 174.64 100.43 174.63 100.53 174.63 100.63 174.62 100.73 174.62 100.84 174.61 100.94 174.61 101.04 174.6 101.14 174.59 101.24 174.58 101.34 174.58 101.45 174.57 101.55 174.56 101.65 174.55 101.75 174.55 101.85 174.54 101.95 174.53 102.06 174.52 102.16 174.51 102.26 174.5 102.36 174.49 102.46 174.48 102.57 174.47 102.67 174.46 102.77 174.44 102.87 174.43 102.97 174.42 103.07 174.41 103.18 174.4 103.28 174.38 103.38 174.37 103.48 174.36 103.58 174.34 103.68 174.33 103.79 174.31 103.89 174.3 103.99 174.28 104.09 174.27 104.19 174.25 104.3 174.23 104.4 174.22 104.5 174.2 104.6 174.18 104.7 174.17 104.8 174.15 104.91 174.13 105.01 174.11 105.11 174.09 105.21 174.08 105.31 174.06 105.41 174.04 105.52 174.02 105.62 174 105.72 173.98 105.82 173.96 105.92 173.94 106.03 173.92 106.13 173.9 106.23 173.88 106.33 173.86 106.43 173.84 106.53 173.82 106.64 173.8 106.74 173.77 106.84 173.75 106.94 173.73 107.04 173.71 107.14 173.69 107.25 173.67 107.35 173.65 107.45 173.63 107.55 173.61 107.65 173.59 107.76 173.57 107.86 173.55 107.96 173.53 108.06 173.51 108.16 173.49 108.26 173.47 108.37 173.45 108.47 173.43 108.57 173.41 108.67 173.39 108.77 173.37 108.87 173.35 108.98 173.34 109.08 173.32 109.18 173.3 109.28 173.28 109.38 173.27 109.49 173.25 109.59 173.23 109.69 173.22 109.79 173.2 109.89 173.19 109.99 173.17 110.1 173.16 110.2 173.15 110.3 173.13 110.4 173.12 110.5 173.11 110.6 173.09 110.71 173.08 110.81 173.07 110.91 173.06 111.01 173.05 111.11 173.04 111.21 173.03 111.32 173.02 111.42 173.01 111.52 173 111.62 172.99 111.72 172.98 111.83 172.97 111.93 172.96 112.03 172.95 112.13 172.94 112.23 172.94 112.33 172.93 112.44 172.92 112.54 172.91 112.64 172.9 112.74 172.89 112.84 172.89 112.94 172.88 113.05 172.87 113.15 172.86 113.25 172.85 113.35 172.84 113.45 172.83 113.56 172.82 113.66 172.81 113.76 172.8 113.86 172.79 113.96 172.78 114.06 172.77 114.17 172.75 114.27 172.74 114.37 172.73 114.47 172.71 114.57 172.7 114.67 172.68 114.78 172.66 114.88 172.65 114.98 172.63 115.08 172.61 115.18 172.59 115.29 172.56 115.39 172.54 115.49 172.52 115.59 172.49 115.69 172.47 115.79 172.44 115.9 172.41 116 172.38 116.1 172.35 116.2 172.31 116.3 172.28 116.4 172.24 116.51 172.21 116.61 172.17 116.71 172.13 116.81 172.09 116.91 172.04 117.02 172 117.12 171.95 117.22 171.9 117.32 171.85 117.42 171.8 117.52 171.75 117.63 171.7 117.73 171.64 117.83 171.58 117.93 171.52 118.03 171.46 118.13 171.4 118.24 171.33 118.34 171.27 118.44 171.2 118.54 171.13 118.64 171.06 118.75 170.99 118.85 170.91 118.95 170.84 119.05 170.76 119.15 170.68 119.25 170.6 119.36 170.51 119.46 170.43 119.56 170.34 119.66 170.26 119.76 170.17 119.86 170.08 119.97 169.99 120.07 169.89 120.17 169.8 120.27 169.7 120.37 169.61 120.47 169.51 120.58 169.41 120.68 169.31 120.78 169.2 120.88 169.1 120.98 169 121.09 168.89 121.19 168.78 121.29 168.67 121.39 168.57 121.49 168.46 121.59 168.34 121.7 168.23 121.8 168.12 121.9 168 122 167.89 122.1 167.77 122.2 167.65 122.31 167.54 122.41 167.42 122.51 167.3 122.61 167.18 122.71 167.06 122.82 166.93 122.92 166.81 123.02 166.69 123.12 166.56 123.22 166.43 123.32 166.31 123.43 166.18 123.53 166.05 123.63 165.92 123.73 165.79 123.83 165.66 123.93 165.53 124.04 165.4 124.14 165.27 124.24 165.13 124.34 165 124.44 164.86 124.55 164.72 124.65 164.59 124.75 164.45 124.85 164.31 124.95 164.17 125.05 164.02 125.16 163.88 125.26 163.74 125.36 163.59 125.46 163.44 125.56 163.3 125.66 163.15 125.77 163 125.87 162.85 125.97 162.69 126.07 162.54 126.17 162.38 126.28 162.23 126.38 162.07 126.48 161.91 126.58 161.75 126.68 161.58 126.78 161.42 126.89 161.25 126.99 161.08 127.09 160.91 127.19 160.74 127.29 160.57 127.39 160.39 127.5 160.22 127.6 160.04 127.7 159.86 127.8 159.67 127.9 159.49 128.01 159.3 128.11 159.12 128.21 158.93 128.31 158.73 128.41 158.54 128.51 158.34 128.62 158.14 128.72 157.94 128.82 157.74 128.92 157.54 129.02 157.33 129.12 157.12 129.23 156.91 129.33 156.7 129.43 156.48 129.53 156.27 129.63 156.05 129.73 155.83 129.84 155.6 129.94 155.38 130.04 155.15 130.14 154.92 130.24 154.69 130.35 154.46 130.45 154.22 130.55 153.99 130.65 153.75 130.75 153.51 130.85 153.26 130.96 153.02 131.06 152.77 131.16 152.53 131.26 152.28 131.36 152.02 131.46 151.77 131.57 151.52 131.67 151.26 131.77 151 131.87 150.74 131.97 150.48 132.08 150.22 132.18 149.95 132.28 149.69 132.38 149.42 132.48 149.15 132.58 148.88 132.69 148.61 132.79 148.34 132.89 148.07 132.99 147.79 133.09 147.52 133.19 147.24 133.3 146.96 133.4 146.68 133.5 146.4 133.6 146.12 133.7 145.84 133.81 145.55 133.91 145.27 134.01 144.98 134.11 144.7 134.21 144.41 134.31 144.12 134.42 143.83 134.52 143.55 134.62 143.26 134.72 142.96 134.82 142.67 134.92 142.38 135.03 142.09 135.13 141.79 135.23 141.5 135.33 141.21 135.43 140.91 135.54 140.62 135.64 140.32 135.74 140.02 135.84 139.73 135.94 139.43 136.04 139.13 136.15 138.84 136.25 138.54 136.35 138.24 136.45 137.94 136.55 137.64 136.65 137.34 136.76 137.05 136.86 136.75 136.96 136.45 137.06 136.15 137.16 135.85 137.27 135.55 137.37 135.25 137.47 134.95 137.57 134.66 137.67 134.36 137.77 134.06 137.88 133.76 137.98 133.47 138.08 133.17 138.18 132.88 138.28 132.58 138.38 132.28 138.49 131.99 138.59 131.7 138.69 131.4 138.79 131.11 138.89 130.82 139 130.53 139.1 130.24 139.2 129.95 139.3 129.67 139.4 129.38 139.5 129.09 139.61 128.81 139.71 128.53 139.81 128.24 139.91 127.96 140.01 127.69 140.11 127.41 140.22 127.13 140.32 126.86 140.42 126.58 140.52 126.31 140.62 126.04 140.72 125.77 140.83 125.51 140.93 125.24 141.03 124.98 141.13 124.72 141.23 124.46 141.34 124.2 141.44 123.95 141.54 123.69 141.64 123.44 141.74 123.19 141.84 122.94 141.95 122.7 142.05 122.45 142.15 122.21 142.25 121.97 142.35 121.73 142.45 121.5 142.56 121.26 142.66 121.03 142.76 120.8 142.86 120.57 142.96 120.35 143.07 120.12 143.17 119.9 143.27 119.68 143.37 119.46 143.47 119.24 143.57 119.03 143.68 118.82 143.78 118.6 143.88 118.39 143.98 118.19 144.08 117.98 144.18 117.77 144.29 117.57 144.39 117.37 144.49 117.17 144.59 116.97 144.69 116.77 144.8 116.57 144.9 116.38 145 116.18 145.1 115.99 145.2 115.79 145.3 115.6 145.41 115.41 145.51 115.22 145.61 115.03 145.71 114.84 145.81 114.65 145.91 114.46 146.02 114.27 146.12 114.08 146.22 113.89 146.32 113.7 146.42 113.51 146.53 113.31 146.63 113.12 146.73 112.93 146.83 112.74 146.93 112.55 147.03 112.35 147.14 112.16 147.24 111.96 147.34 111.76 147.44 111.56 147.54 111.36 147.64 111.16 147.75 110.96 147.85 110.76 147.95 110.55 148.05 110.34 148.15 110.13 148.26 109.92 148.36 109.71 148.46 109.49 148.56 109.27 148.66 109.05 148.76 108.83 148.87 108.61 148.97 108.38 149.07 108.15 149.17 107.92 149.27 107.69 149.37 107.45 149.48 107.21 149.58 106.97 149.68 106.72 149.78 106.47 149.88 106.22 149.98 105.97 150.09 105.71 150.19 105.45 150.29 105.19 150.39 104.93 150.49 104.66 150.6 104.39 150.7 104.12 150.8 103.84 150.9 103.56 151 103.28 151.1 103 151.21 102.71 151.31 102.42 151.41 102.13 151.51 101.84 151.61 101.54 151.71 101.24 151.82 100.94 151.92 100.63 152.02 100.33 152.12 100.02 152.22 99.71 152.33 99.4 152.43 99.09 152.53 98.77 152.63 98.46 152.73 98.14 152.83 97.82 152.94 97.5 153.04 97.18 153.14 96.86 153.24 96.53 153.34 96.21 153.44 95.88 153.55 95.56 153.65 95.23 153.75 94.91 153.85 94.58 153.95 94.26 154.06 93.94 154.16 93.61 154.26 93.29 154.36 92.97 154.46 92.65 154.56 92.33 154.67 92.01 154.77 91.69 154.87 91.38 154.97 91.06 155.07 90.75 155.17 90.44 155.28 90.14 155.38 89.83 155.48 89.53 155.58 89.23 155.68 88.94 155.79 88.64 155.89 88.36 155.99 88.07 156.09 87.79 156.19 87.51 156.29 87.24 156.4 86.97 156.5 86.7 156.6 86.44 156.7 86.18 156.8 85.93 156.9 85.68 157.01 85.44 157.11 85.2 157.21 84.97 157.31 84.74 157.41 84.52 157.52 84.3 157.62 84.09 157.72 83.89 157.82 83.69 157.92 83.49 158.02 83.3 158.13 83.12 158.23 82.94 158.33 82.77 158.43 82.6 158.53 82.44 158.63 82.29 158.74 82.14 158.84 82 158.94 81.87 159.04 81.74 159.14 81.61 159.24 81.49 159.35 81.38 159.45 81.28 159.55 81.18 159.65 81.08 159.75 80.99 159.86 80.91 159.96 80.83 160.06 80.76 160.16 80.7 160.26 80.64 160.36 80.58 160.47 80.53 160.57 80.49 160.67 80.45 160.77 80.42 160.87 80.39 160.97 80.37 161.08 80.35 161.18 80.34 161.28 80.33 161.38 80.33 161.48 80.33 161.59 80.34 161.69 80.35 161.79 80.37 161.89 80.39 161.99 80.41 162.09 80.44 162.2 80.48 162.3 80.51 162.4 80.55 162.5 80.6 162.6 80.65 162.7 80.7 162.81 80.76 162.91 80.82 163.01 80.88 163.11 80.95 163.21 81.02 163.32 81.09 163.42 81.17 163.52 81.25 163.62 81.33 163.72 81.42 163.82 81.51 163.93 81.6 164.03 81.7 164.13 81.8 164.23 81.9 164.33 82 164.43 82.11 164.54 82.22 164.64 82.33 164.74 82.45 164.84 82.56 164.94 82.68 165.05 82.81 165.15 82.93 165.25 83.06 165.35 83.19 165.45 83.32 165.55 83.46 165.66 83.59 165.76 83.73 165.86 83.88 165.96 84.02 166.06 84.17 166.16 84.32 166.27 84.47 166.37 84.62 166.47 84.78 166.57 84.94 166.67 85.1 166.78 85.27 166.88 85.43 166.98 85.6 167.08 85.77 167.18 85.95 167.28 86.12 167.39 86.3 167.49 86.48 167.59 86.67 167.69 86.85 167.79 87.04 167.89 87.23 168 87.42 168.1 87.62 168.2 87.81 168.3 88.02 168.4 88.22 168.51 88.42 168.61 88.63 168.71 88.84 168.81 89.05 168.91 89.27 169.01 89.48 169.12 89.7 169.22 89.93 169.32 90.15 169.42 90.38 169.52 90.61 169.62 90.84 169.73 91.07 169.83 91.31 169.93 91.55 170.03 91.79 170.13 92.03 170.23 92.28 170.34 92.53 170.44 92.78 170.54 93.03 170.64 93.29 170.74 93.54 170.85 93.8 170.95 94.07 171.05 94.33 171.15 94.6 171.25 94.87 171.35 95.14 171.46 95.41 171.56 95.69 171.66 95.97 171.76 96.25 171.86 96.53 171.96 96.81 172.07 97.1 172.17 97.39 172.27 97.68 172.37 97.97 172.47 98.26 172.58 98.56 172.68 98.86 172.78 99.16 172.88 99.46 172.98 99.76 173.08 100.07 173.19 100.37 173.29 100.68 173.39 100.99 173.49 101.3 173.59 101.62 173.69 101.93 173.8 102.25 173.9 102.56 174 102.88 174.1 103.2 174.2 103.52 174.31 103.84 174.41 104.16 174.51 104.49 174.61 104.81 174.71 105.14 174.81 105.46 174.92 105.79 175.02 106.11 175.12 106.44 175.22 106.77 175.32 107.09 175.42 107.42 175.53 107.75 175.63 108.08 175.73 108.4 175.83 108.73 175.93 109.06 176.04 109.38 176.14 109.71 176.24 110.03 176.34 110.36 176.44 110.68 176.54 111 176.65 111.32 176.75 111.64 176.85 111.96 176.95 112.28 177.05 112.59 177.15 112.91 177.26 113.22 177.36 113.53 177.46 113.84 177.56 114.14 177.66 114.45 177.77 114.75 177.87 115.05 177.97 115.34 178.07 115.64 178.17 115.93 178.27 116.22 178.38 116.5 178.48 116.78 178.58 117.06 178.68 117.34 178.78 117.61 178.88 117.88 178.99 118.15 179.09 118.41 179.19 118.67 179.29 118.93 179.39 119.18 179.49 119.43 179.6 119.67 179.7 119.92 179.8 120.15 179.9 120.39 180 120.62 180.11 120.84 180.21 121.06 180.31 121.28 180.41 121.5 180.51 121.71 180.61 121.91 180.72 122.12 180.82 122.31 180.92 122.51 181.02 122.7 181.12 122.89 181.22 123.07 181.33 123.25 181.43 123.43 181.53 123.6 181.63 123.77 181.73 123.94 181.84 124.1 181.94 124.26 182.04 124.41 182.14 124.57 182.24 124.72 182.34 124.86 182.45 125.01 182.55 125.15 182.65 125.29 182.75 125.42 182.85 125.56 182.95 125.69 183.06 125.82 183.16 125.94 183.26 126.07 183.36 126.19 183.46 126.31 183.57 126.43 183.67 126.55 183.77 126.67 183.87 126.78 183.97 126.9 184.07 127.01 184.18 127.13 184.28 127.24 184.38 127.35 184.48 127.46 184.58 127.58 184.68 127.69 184.79 127.8 184.89 127.91 184.99 128.02 185.09 128.13 185.19 128.25 185.3 128.36 185.4 128.47 185.5 128.59 185.6 128.7 185.7 128.82 185.8 128.94 185.91 129.06 186.01 129.18 186.11 129.3 186.21 129.42 186.31 129.55 186.41 129.67 186.52 129.8 186.62 129.93 186.72 130.06 186.82 130.19 186.92 130.33 187.03 130.47 187.13 130.61 187.23 130.75 187.33 130.89 187.43 131.04 187.53 131.18 187.64 131.33 187.74 131.48 187.84 131.64 187.94 131.79 188.04 131.95 188.14 132.11 188.25 132.28 188.35 132.44 188.45 132.61 188.55 132.77 188.65 132.95 188.75 133.12 188.86 133.29 188.96 133.47 189.06 133.65 189.16 133.83 189.26 134.01 189.37 134.19 189.47 134.38 189.57 134.56 189.67 134.75 189.77 134.94 189.87 135.13 189.98 135.33 190.08 135.52 190.18 135.72 190.28 135.91 190.38 136.11 190.48 136.31 190.59 136.51 190.69 136.7 190.79 136.91 190.89 137.11 190.99 137.31 191.1 137.51 191.2 137.71 191.3 137.92 191.4 138.12 191.5 138.32 191.6 138.53 191.71 138.73 191.81 138.93 191.91 139.14 192.01 139.34 192.11 139.54 192.21 139.74 192.32 139.94 192.42 140.15 192.52 140.35 192.62 140.55 192.72 140.75 192.83 140.95 192.93 141.14 193.03 141.34 193.13 141.54 193.23 141.73 193.33 141.93 193.44 142.12 193.54 142.31 193.64 142.5 193.74 142.69 193.84 142.88 193.94 143.07 194.05 143.26 194.15 143.44 194.25 143.62 194.35 143.81 194.45 143.99 194.56 144.17 194.66 144.34 194.76 144.52 194.86 144.7 194.96 144.87 195.06 145.04 195.17 145.21 195.27 145.38 195.37 145.55 195.47 145.72 195.57 145.88 195.67 146.04 195.78 146.21 195.88 146.37 195.98 146.53 196.08 146.68 196.18 146.84 196.29 147 196.39 147.15 196.49 147.3 196.59 147.45 196.69 147.6 196.79 147.75 196.9 147.9 197 148.04 197.1 148.19 197.2 148.33 197.3 148.48 197.4 148.62 197.51 148.76 197.61 148.9 197.71 149.03 197.81 149.17 197.91 149.31 198.02 149.44 198.12 149.58 198.22 149.71 198.32 149.84 198.42 149.98 198.52 150.11 198.63 150.24 198.73 150.37 198.83 150.49 198.93 150.62 199.03 150.75 199.13 150.88 199.24 151 199.34 151.13 199.44 151.25 199.54 151.38 199.64 151.5 199.74 151.63 199.85 151.75 199.95 151.87 200.05 152 200.15 152.12 200.25 152.24 200.36 152.36 200.46 152.49 200.56 152.61 200.66 152.73 200.76 152.85 200.86 152.97 200.97 153.09 201.07 153.21 201.17 153.33 201.27 153.45 201.37 153.57 201.47 153.69 201.58 153.81 201.68 153.93 201.78 154.06 201.88 154.18 201.98 154.3 202.09 154.42 202.19 154.54 202.29 154.66 202.39 154.78 202.49 154.9 202.59 155.02 202.7 155.14 202.8 155.26 202.9 155.38 203 155.51 203.1 155.63 203.2 155.75 203.31 155.87 203.41 155.99 203.51 156.12 203.61 156.24 203.71 156.36 203.82 156.48 203.92 156.61 204.02 156.73 204.12 156.85 204.22 156.97 204.32 157.1 204.43 157.22 204.53 157.34 204.63 157.47 204.73 157.59 204.83 157.71 204.93 157.84 205.04 157.96 205.14 158.08 205.24 158.21 205.34 158.33 205.44 158.45 205.55 158.57 205.65 158.7 205.75 158.82 205.85 158.94 205.95 159.07 206.05 159.19 206.16 159.31 206.26 159.43 206.36 159.55 206.46 159.68 206.56 159.8 206.66 159.92 206.77 160.04 206.87 160.16 206.97 160.28 207.07 160.4 207.17 160.52 207.28 160.64 207.38 160.75 207.48 160.87 207.58 160.99 207.68 161.11 207.78 161.22 207.89 161.34 207.99 161.45 208.09 161.57 208.19 161.68 208.29 161.79 208.39 161.91 208.5 162.02 208.6 162.13 208.7 162.24 208.8 162.35 208.9 162.46 209 162.57 209.11 162.67 209.21 162.78 209.31 162.89 209.41 162.99 209.51 163.1 209.62 163.2 209.72 163.3 209.82 163.4 209.92 163.5 210.02 163.6 210.12 163.7 210.23 163.8 210.33 163.9 210.43 163.99 210.53 164.09 210.63 164.18 210.73 164.28 210.84 164.37 210.94 164.46 211.04 164.55 211.14 164.64 211.24 164.73 211.35 164.81 211.45 164.9 211.55 164.98 211.65 165.07 211.75 165.15 211.85 165.23 211.96 165.32 212.06 165.4 212.16 165.47 212.26 165.55 212.36 165.63 212.46 165.7 212.57 165.78 212.67 165.85 212.77 165.93 212.87 166 212.97 166.07 213.08 166.14 213.18 166.21 213.28 166.27 213.38 166.34 213.48 166.4 213.58 166.47 213.69 166.53 213.79 166.59 213.89 166.65 213.99 166.71 214.09 166.77 214.19 166.83 214.3 166.89 214.4 166.94 214.5 167 214.6 167.05 214.7 167.1 214.81 167.16 214.91 167.21 215.01 167.26 215.11 167.31 215.21 167.35 215.31 167.4 215.42 167.45 215.52 167.49 215.62 167.54 215.72 167.58 215.82 167.62 215.92 167.66 216.03 167.7 216.13 167.74 216.23 167.78 216.33 167.82 216.43 167.86 216.54 167.89 216.64 167.93 216.74 167.96 216.84 168 216.94 168.03 217.04 168.06 217.15 168.1 217.25 168.13 217.35 168.16 217.45 168.19 217.55 168.22 217.65 168.25 217.76 168.28 217.86 168.31 217.96 168.34 218.06 168.36 218.16 168.39 218.26 168.42 218.37 168.44 218.47 168.47 218.57 168.5 218.67 168.52 218.77 168.55 218.88 168.57 218.98 168.6 219.08 168.62 219.18 168.65 219.28 168.67 219.38 168.7 219.49 168.72 219.59 168.75 219.69 168.77 219.79 168.8 219.89 168.82 219.99 168.85 220.1 168.87 220.2 168.9 220.3 168.92 220.4 168.95 220.5 168.98 220.61 169 220.71 169.03 220.81 169.05 220.91 169.08 221.01 169.11 221.11 169.13 221.22 169.16 221.32 169.19 221.42 169.22 221.52 169.24 221.62 169.27 221.72 169.3 221.83 169.33 221.93 169.36 222.03 169.39 222.13 169.41 222.23 169.44 222.34 169.47 222.44 169.5 222.54 169.53 222.64 169.56 222.74 169.59 222.84 169.62 222.95 169.65 223.05 169.69 223.15 169.72 223.25 169.75 223.35 169.78 223.45 169.81 223.56 169.84 223.66 169.87 223.76 169.9 223.86 169.93 223.96 169.96 224.07 169.99 224.17 170.03 224.27 170.06 224.37 170.09 224.47 170.12 224.57 170.15 224.68 170.18 224.78 170.21 224.88 170.24 224.98 170.27 225.08 170.3 225.18 170.32 225.29 170.35 225.39 170.38 225.49 170.41 225.59 170.44 225.69 170.46 225.8 170.49 225.9 170.52 226 170.54 226.1 170.57 226.2 170.59 226.3 170.62 226.41 170.64 226.51 170.67 226.61 170.69 226.71 170.71 226.81 170.74 226.91 170.76 227.02 170.78 227.12 170.8 227.22 170.82 227.32 170.84 227.42 170.86 227.52 170.88 227.63 170.9 227.73 170.92 227.83 170.94 227.93 170.96 228.03 170.97 228.14 170.99 228.24 171.01 228.34 171.02 228.44 171.04 228.54 171.06 228.64 171.07 228.75 171.09 228.85 171.1 228.95 171.12 229.05 171.13 229.15 171.14 229.25 171.16 229.36 171.17 229.46 171.18 229.56 171.2 229.66 171.21 229.76 171.22 229.87 171.24 229.97 171.25 230.07 171.26 230.17 171.28 230.27 171.29 230.37 171.3 230.48 171.31 230.58 171.33 230.68 171.34 230.78 171.35 230.88 171.37 230.98 171.38 231.09 171.39 231.19 171.41 231.29 171.42 231.39 171.43 231.49 171.45 231.6 171.46 231.7 171.48 231.8 171.49 231.9 171.51 232 171.52 232.1 171.54 232.21 171.55 232.31 171.57 232.41 171.59 232.51 171.61 232.61 171.62 232.71 171.64 232.82 171.66 232.92 171.68 233.02 171.7 233.12 171.72 233.22 171.74 233.33 171.76 233.43 171.78 233.53 171.8 233.63 171.82 233.73 171.84 233.83 171.87 233.94 171.89 234.04 171.91 234.14 171.93 234.24 171.96 234.34 171.98 234.44 172.01 234.55 172.03 234.65 172.06 234.75 172.08 234.85 172.11 234.95 172.14 235.06 172.16 235.16 172.19 235.26 172.22 235.36 172.24 235.46 172.27 235.56 172.3 235.67 172.33 235.77 172.35 235.87 172.38 235.97 172.41 236.07 172.44 236.17 172.47 236.28 172.5 236.38 172.53 236.48 172.56 236.58 172.58 236.68 172.61 236.79 172.64 236.89 172.67 236.99 172.7 237.09 172.73 237.19 172.76 237.29 172.79 237.4 172.81 237.5 172.84 237.6 172.87 237.7 172.9 237.8 172.93 237.9 172.95 238.01 172.98 238.11 173.01 238.21 173.03 238.31 173.06 238.41 173.09 238.51 173.11 238.62 173.14 238.72 173.16 238.82 173.19 238.92 173.21 239.02 173.24 239.13 173.26 239.23 173.29 239.33 173.31 239.43 173.33 239.53 173.35 239.63 173.38 239.74 173.4 239.84 173.42 239.94 173.44 240.04 173.46 240.14 173.48 240.24 173.5 240.35 173.52 240.45 173.54 240.55 173.56 240.65 173.57 240.75 173.59 240.86 173.61 240.96 173.62 241.06 173.64 241.16 173.66 241.26 173.67 241.36 173.69 241.47 173.7 241.57 173.72 241.67 173.73 241.77 173.74 241.87 173.75 241.97 173.77 242.08 173.78 242.18 173.79 242.28 173.8 242.38 173.81 242.48 173.82 242.59 173.83 242.69 173.84 242.79 173.85 242.89 173.86 242.99 173.87 243.09 173.88 243.2 173.89 243.3 173.9 243.4 173.9 243.5 173.91 243.6 173.92 243.7 173.93 243.81 173.93 243.91 173.94 244.01 173.95 244.11 173.95 244.21 173.96 244.32 173.96 244.42 173.97 244.52 173.97 244.62 173.98 244.72 173.98 244.82 173.99 244.93 173.99 245.03 174 245.13 174 245.23 174 245.33 174.01 245.43 174.01 245.54 174.01 245.64 174.02 245.74 174.02 245.84 174.02 245.94 174.03 246.05 174.03 246.15 174.03 246.25 174.04 246.35 174.04 246.45 174.04 246.55 174.04 246.66 174.05 246.76 174.05 246.86 174.05 246.96 174.05 247.06 174.05 247.16 174.06 247.27 174.06 247.37 174.06 247.47 174.06 247.57 174.06 247.67 174.07 247.77 174.07 247.88 174.07 247.98 174.07 248.08 174.07 248.18 174.07 248.28 174.08 248.39 174.08 248.49 174.08 248.59 174.08 248.69 174.08 248.79 174.08 248.89 174.09 249 174.09 249.1 174.09 249.2 174.09 249.3 174.09 249.4 174.09 249.5 174.09 249.61 174.1 249.71 174.1 249.81 174.1 249.91 174.1 250.01 174.1 250.12 174.1 250.22 174.1 250.32 174.1 250.42 174.11 250.52 174.11 250.62 174.11 250.73 174.11 250.83 174.11 250.93 174.11 251.03 174.11 251.13 174.11 251.23 174.12 251.34 174.12 251.44 174.12 251.54 174.12 251.64 174.12 251.74 174.12 251.85 174.12 251.95 174.12 252.05 174.12 252.15 174.12 252.25 174.13 252.35 174.13 252.46 174.13 252.56 174.13 252.66 174.13 252.76 174.13 252.86 174.13 252.96 174.13 253.07 174.13 253.17 174.13 253.27 174.13 253.37 174.13 253.47 174.13 253.58 174.13 253.68 174.13 253.78 174.13 253.88 174.13 253.98 174.14 254.08 174.14 254.19 174.14 254.29 174.14 254.39 174.14 254.49 174.14 254.59 174.14 254.69 174.14 254.8 174.14 254.9 174.14 255 174.14 255.1 174.14 255.2 174.14 255.31 174.14 255.41 174.14 255.51 174.14 255.61 174.14 255.71 174.14 255.81 174.14 255.92 174.14 256.02 174.14 256.12 174.13 256.22 174.13 256.32 174.13 256.42 174.13 256.53 174.13 256.63 174.13 256.73 174.13 256.83 174.13 256.93 174.13 257.03 174.13 257.14 174.13 257.24 174.13 257.34 174.13 257.44 174.13 257.54 174.12 257.65 174.12 257.75 174.12 257.85 174.12 257.95 174.12 258.05 174.12 258.15 174.12 258.26 174.12 258.36 174.11 258.46 174.11 258.56 174.11 258.66 174.11 258.76 174.11 258.87 174.11 258.97 174.1 259.07 174.1 259.17 174.1 259.27 174.1 259.38 174.1 259.48 174.09 259.58 174.09 259.68 174.09 259.78 174.09 259.88 174.08 259.99 174.08 260.09 174.08 260.19 174.07 260.29 174.07 260.39 174.07 260.49 174.06 260.6 174.06 260.7 174.06 260.8 174.05 260.9 174.05 261 174.05 261.11 174.04 261.21 174.04 261.31 174.03 261.41 174.03 261.51 174.03 261.61 174.02 261.72 174.02 261.82 174.01 261.92 174.01 262.02 174.01 262.12 174 262.22 174 262.33 173.99 262.43 173.99 262.53 173.99 262.63 173.98 262.73 173.98 262.84 173.97 262.94 173.97 263.04 173.96 263.14 173.96 263.24 173.96 263.34 173.95 263.45 173.95 263.55 173.95 263.65 173.94 263.75 173.94 263.85 173.93 263.95 173.93 264.06 173.93 264.16 173.93 264.26 173.92 264.36 173.92 264.46 173.92 264.57 173.91 264.67 173.91 264.77 173.91 264.87 173.91 264.97 173.91 265.07 173.91 265.18 173.91 265.28 173.9 265.38 173.9 265.48 173.9 265.58 173.9 265.68 173.9 265.79 173.9 265.89 173.9 265.99 173.9 266.09 173.91 266.19 173.91 266.3 173.91 266.4 173.91 266.5 173.91 266.6 173.92 266.7 173.92 266.8 173.92 266.91 173.92 267.01 173.93 267.11 173.93 267.21 173.94 267.31 173.94 267.41 173.95 267.52 173.95 267.62 173.96 267.72 173.96 267.82 173.97 267.92 173.97 268.02 173.98 268.13 173.98 268.23 173.99 268.33 174 268.43 174.01 268.53 174.01 268.64 174.02 268.74 174.03 268.84 174.04 268.94 174.04 269.04 174.05 269.14 174.06 269.25 174.07 269.35 174.08 269.45 174.08 269.55 174.09 269.65 174.1 269.75 174.11 269.86 174.12 269.96 174.13 270.06 174.14 270.16 174.15 270.26 174.16 270.37 174.17 270.47 174.18 270.57 174.18 270.67 174.19 270.77 174.2 270.87 174.21 270.98 174.22 271.08 174.23 271.18 174.24 271.28 174.25 271.38 174.26 271.48 174.27 271.59 174.27 271.69 174.28 271.79 174.29 271.89 174.3 271.99 174.31 272.1 174.31 272.2 174.32 272.3 174.33 272.4 174.34 272.5 174.34 272.6 174.35 272.71 174.36 272.81 174.36 272.91 174.37 273.01 174.38 273.11 174.38 273.21 174.39 273.32 174.39 273.42 174.4 273.52 174.4 273.62 174.41 273.72 174.41 273.83 174.42 273.93 174.42 274.03 174.43 274.13 174.43 274.23 174.43 274.33 174.44 274.44 174.44 274.54 174.44 274.64 174.44 274.74 174.45 274.84 174.45 274.94 174.45 275.05 174.45 275.15 174.45 275.25 174.45 275.35 174.45 275.45 174.45 275.56 174.45 275.66 174.45 275.76 174.45 275.86 174.45 275.96 174.45 276.06 174.45 276.17 174.45 276.27 174.45 276.37 174.45 276.47 174.44 276.57 174.44 276.67 174.44 276.78 174.44 276.88 174.44 276.98 174.43 277.08 174.43 277.18 174.43 277.28 174.43 277.39 174.42 277.49 174.42 277.59 174.42 277.69 174.41 277.79 174.41 277.9 174.41 278 174.4 278.1 174.4 278.2 174.4 278.3 174.39 278.4 174.39 278.51 174.39 278.61 174.38 278.71 174.38 278.81 174.38 278.91 174.38 279.01 174.37 279.12 174.37 279.22 174.37 279.32 174.36 279.42 174.36 279.52 174.36 279.63 174.36 279.73 174.35 279.83 174.35 279.93 174.35 280.03 174.35 280.13 174.34 280.24 174.34 280.34 174.34 280.44 174.34 280.54 174.34 280.64 174.34 280.74 174.33 280.85 174.33 280.95 174.33 281.05 174.33 281.15 174.33 281.25 174.33 281.36 174.33 281.46 174.33 281.56 174.33 281.66 174.33 281.76 174.33 281.86 174.33 281.97 174.33 282.07 174.34 282.17 174.34 282.27 174.34 282.37 174.34 282.47 174.34 282.58 174.34 282.68 174.35 282.78 174.35 282.88 174.35 282.98 174.35 283.09 174.36 283.19 174.36 283.29 174.36 283.39 174.37 283.49 174.37 283.59 174.37 283.7 174.38 283.8 174.38 283.9 174.39 284 174.39 284.1 174.39 284.2 174.4 284.31 174.4 284.41 174.41 284.51 174.41 284.61 174.42 284.71 174.42 284.82 174.43 284.92 174.43 285.02 174.44 285.12 174.44 285.22 174.45 285.32 174.45 285.43 174.46 285.53 174.47 285.63 174.47 285.73 174.48 285.83 174.48 285.93 174.49 286.04 174.49 286.14 174.5 286.24 174.5 286.34 174.51 286.44 174.51 286.54 174.52 286.65 174.53 286.75 174.53 286.85 174.54 286.95 174.54 287.05 174.55 287.16 174.55 287.26 174.56 287.36 174.56 287.46 174.57 287.56 174.57 287.66 174.58 287.77 174.58 287.87 174.59 287.97 174.59 288.07 174.6 288.17 174.6 288.27 174.61 288.38 174.61 288.48 174.61 288.58 174.62 288.68 174.62 288.78 174.63 288.89 174.63 288.99 174.64 289.09 174.64 289.19 174.64 289.29 174.65 289.39 174.65 289.5 174.65 289.6 174.66 289.7 174.66 289.8 174.66 289.9 174.67 290 174.67 290.11 174.67 290.21 174.68 290.31 174.68 290.41 174.68 290.51 174.68 290.62 174.69 290.72 174.69 290.82 174.69 290.92 174.69 291.02 174.69 291.12 174.7 291.23 174.7 291.33 174.7 291.43 174.7 291.53 174.7 291.63 174.71 291.73 174.71 291.84 174.71 291.94 174.71 292.04 174.71 292.14 174.71 292.24 174.72 292.35 174.72 292.45 174.72 292.55 174.72 292.65 174.72 292.75 174.72 292.85 174.72 292.96 174.72 293.06 174.72 293.16 174.72 293.26 174.73 293.36 174.73 293.46 174.73 293.57 174.73 293.67 174.73 293.77 174.73 293.87 174.73 293.97 174.73 294.08 174.73 294.18 174.73 294.28 174.73 294.38 174.73 294.48 174.73 294.58 174.73 294.69 174.73 294.79 174.73 294.89 174.73 294.99 174.74 295.09 174.74 295.19 174.74 295.3 174.74 295.4 174.74 295.5 174.74 295.6 174.74 295.7 174.74 295.81 174.74 295.91 174.74 296.01 174.74 296.11 174.74 296.21 174.74 296.31 174.74 296.42 174.74 296.52 174.74 296.62 174.74 296.72 174.74 296.82 174.74 296.92 174.74 297.03 174.74 297.13 174.74 297.23 174.74 297.33 174.74 297.43 174.74 297.53 174.74 297.64 174.74 297.74 174.74 297.84 174.74 297.94 174.74 298.04 174.74 298.15 174.74 298.25 174.74 298.35 174.74 298.45 174.74 298.55 174.74 298.65 174.74 298.76 174.74 298.86 174.74 298.96 174.74 299.06 174.74 299.16 174.74 299.26 174.74 299.37 174.74 299.47 174.74 299.57 174.74 299.67 174.74"/>
      </g>
      <g stroke-width="0.3" fill="#000000" fill-opacity="0.000" class="geometry" stroke-dasharray="none" stroke="#0000FF" id="img-c705d57c-15">
        <path fill="none" d="M66.78,174.74 L 66.86 174.74 66.95 174.74 67.03 174.74 67.12 174.74 67.2 174.74 67.28 174.74 67.37 174.74 67.45 174.74 67.54 174.74 67.62 174.74 67.71 174.74 67.79 174.74 67.88 174.74 67.96 174.74 68.04 174.74 68.13 174.74 68.21 174.74 68.3 174.74 68.38 174.74 68.47 174.74 68.55 174.74 68.63 174.74 68.72 174.74 68.8 174.74 68.89 174.74 68.97 174.74 69.06 174.74 69.14 174.74 69.22 174.74 69.31 174.74 69.39 174.74 69.48 174.74 69.56 174.74 69.65 174.74 69.73 174.74 69.82 174.73 69.9 174.73 69.98 174.73 70.07 174.73 70.15 174.73 70.24 174.73 70.32 174.73 70.41 174.73 70.49 174.73 70.57 174.73 70.66 174.73 70.74 174.73 70.83 174.73 70.91 174.73 71 174.73 71.08 174.72 71.16 174.72 71.25 174.72 71.33 174.72 71.42 174.72 71.5 174.72 71.59 174.72 71.67 174.72 71.75 174.71 71.84 174.71 71.92 174.71 72.01 174.71 72.09 174.71 72.18 174.7 72.26 174.7 72.35 174.7 72.43 174.7 72.51 174.69 72.6 174.69 72.68 174.69 72.77 174.69 72.85 174.68 72.94 174.68 73.02 174.68 73.1 174.67 73.19 174.67 73.27 174.67 73.36 174.66 73.44 174.66 73.53 174.65 73.61 174.65 73.69 174.64 73.78 174.64 73.86 174.63 73.95 174.63 74.03 174.62 74.12 174.62 74.2 174.61 74.29 174.61 74.37 174.6 74.45 174.6 74.54 174.59 74.62 174.58 74.71 174.58 74.79 174.57 74.88 174.56 74.96 174.56 75.04 174.55 75.13 174.54 75.21 174.53 75.3 174.53 75.38 174.52 75.47 174.51 75.55 174.5 75.63 174.49 75.72 174.49 75.8 174.48 75.89 174.47 75.97 174.46 76.06 174.45 76.14 174.44 76.22 174.43 76.31 174.43 76.39 174.42 76.48 174.41 76.56 174.4 76.65 174.39 76.73 174.38 76.82 174.37 76.9 174.36 76.98 174.36 77.07 174.35 77.15 174.34 77.24 174.33 77.32 174.32 77.41 174.31 77.49 174.3 77.57 174.3 77.66 174.29 77.74 174.28 77.83 174.27 77.91 174.27 78 174.26 78.08 174.25 78.16 174.24 78.25 174.24 78.33 174.23 78.42 174.22 78.5 174.22 78.59 174.21 78.67 174.21 78.76 174.2 78.84 174.2 78.92 174.19 79.01 174.19 79.09 174.19 79.18 174.18 79.26 174.18 79.35 174.18 79.43 174.17 79.51 174.17 79.6 174.17 79.68 174.17 79.77 174.17 79.85 174.16 79.94 174.16 80.02 174.16 80.1 174.16 80.19 174.16 80.27 174.16 80.36 174.16 80.44 174.17 80.53 174.17 80.61 174.17 80.7 174.17 80.78 174.17 80.86 174.17 80.95 174.18 81.03 174.18 81.12 174.18 81.2 174.18 81.29 174.19 81.37 174.19 81.45 174.19 81.54 174.2 81.62 174.2 81.71 174.2 81.79 174.21 81.88 174.21 81.96 174.21 82.04 174.22 82.13 174.22 82.21 174.22 82.3 174.22 82.38 174.23 82.47 174.23 82.55 174.23 82.63 174.23 82.72 174.24 82.8 174.24 82.89 174.24 82.97 174.24 83.06 174.24 83.14 174.24 83.23 174.24 83.31 174.24 83.39 174.24 83.48 174.24 83.56 174.24 83.65 174.24 83.73 174.23 83.82 174.23 83.9 174.23 83.98 174.22 84.07 174.22 84.15 174.21 84.24 174.21 84.32 174.2 84.41 174.19 84.49 174.19 84.57 174.18 84.66 174.17 84.74 174.16 84.83 174.15 84.91 174.14 85 174.13 85.08 174.11 85.17 174.1 85.25 174.08 85.33 174.07 85.42 174.05 85.5 174.04 85.59 174.02 85.67 174 85.76 173.98 85.84 173.96 85.92 173.94 86.01 173.92 86.09 173.9 86.18 173.88 86.26 173.85 86.35 173.83 86.43 173.8 86.51 173.77 86.6 173.75 86.68 173.72 86.77 173.69 86.85 173.66 86.94 173.63 87.02 173.6 87.1 173.56 87.19 173.53 87.27 173.5 87.36 173.46 87.44 173.42 87.53 173.39 87.61 173.35 87.7 173.31 87.78 173.27 87.86 173.23 87.95 173.18 88.03 173.14 88.12 173.1 88.2 173.05 88.29 173.01 88.37 172.96 88.45 172.91 88.54 172.86 88.62 172.81 88.71 172.76 88.79 172.71 88.88 172.65 88.96 172.6 89.04 172.54 89.13 172.49 89.21 172.43 89.3 172.37 89.38 172.31 89.47 172.25 89.55 172.19 89.64 172.12 89.72 172.06 89.8 171.99 89.89 171.92 89.97 171.86 90.06 171.79 90.14 171.71 90.23 171.64 90.31 171.57 90.39 171.49 90.48 171.42 90.56 171.34 90.65 171.26 90.73 171.18 90.82 171.1 90.9 171.01 90.98 170.93 91.07 170.84 91.15 170.75 91.24 170.66 91.32 170.57 91.41 170.47 91.49 170.38 91.57 170.28 91.66 170.18 91.74 170.08 91.83 169.98 91.91 169.88 92 169.77 92.08 169.66 92.17 169.55 92.25 169.44 92.33 169.33 92.42 169.21 92.5 169.09 92.59 168.98 92.67 168.85 92.76 168.73 92.84 168.6 92.92 168.47 93.01 168.34 93.09 168.21 93.18 168.08 93.26 167.94 93.35 167.8 93.43 167.66 93.51 167.51 93.6 167.36 93.68 167.21 93.77 167.06 93.85 166.91 93.94 166.75 94.02 166.59 94.11 166.43 94.19 166.27 94.27 166.1 94.36 165.93 94.44 165.76 94.53 165.58 94.61 165.41 94.7 165.23 94.78 165.05 94.86 164.86 94.95 164.67 95.03 164.48 95.12 164.29 95.2 164.1 95.29 163.9 95.37 163.7 95.45 163.5 95.54 163.3 95.62 163.09 95.71 162.88 95.79 162.67 95.88 162.46 95.96 162.24 96.05 162.02 96.13 161.8 96.21 161.58 96.3 161.36 96.38 161.13 96.47 160.91 96.55 160.68 96.64 160.44 96.72 160.21 96.8 159.98 96.89 159.74 96.97 159.5 97.06 159.26 97.14 159.02 97.23 158.78 97.31 158.54 97.39 158.29 97.48 158.05 97.56 157.8 97.65 157.55 97.73 157.3 97.82 157.05 97.9 156.8 97.98 156.55 98.07 156.29 98.15 156.04 98.24 155.79 98.32 155.53 98.41 155.27 98.49 155.02 98.58 154.76 98.66 154.5 98.74 154.25 98.83 153.99 98.91 153.73 99 153.47 99.08 153.21 99.17 152.95 99.25 152.69 99.33 152.43 99.42 152.17 99.5 151.91 99.59 151.64 99.67 151.38 99.76 151.12 99.84 150.86 99.92 150.59 100.01 150.33 100.09 150.07 100.18 149.8 100.26 149.54 100.35 149.27 100.43 149 100.52 148.74 100.6 148.47 100.68 148.2 100.77 147.93 100.85 147.66 100.94 147.39 101.02 147.12 101.11 146.84 101.19 146.57 101.27 146.29 101.36 146.02 101.44 145.74 101.53 145.46 101.61 145.18 101.7 144.9 101.78 144.61 101.86 144.33 101.95 144.04 102.03 143.75 102.12 143.46 102.2 143.17 102.29 142.88 102.37 142.58 102.45 142.28 102.54 141.98 102.62 141.68 102.71 141.38 102.79 141.07 102.88 140.76 102.96 140.45 103.05 140.14 103.13 139.83 103.21 139.51 103.3 139.19 103.38 138.87 103.47 138.55 103.55 138.22 103.64 137.9 103.72 137.57 103.8 137.23 103.89 136.9 103.97 136.56 104.06 136.22 104.14 135.88 104.23 135.54 104.31 135.2 104.39 134.85 104.48 134.5 104.56 134.15 104.65 133.8 104.73 133.45 104.82 133.09 104.9 132.73 104.99 132.38 105.07 132.02 105.15 131.65 105.24 131.29 105.32 130.93 105.41 130.56 105.49 130.2 105.58 129.83 105.66 129.46 105.74 129.09 105.83 128.72 105.91 128.35 106 127.98 106.08 127.6 106.17 127.23 106.25 126.86 106.33 126.48 106.42 126.11 106.5 125.73 106.59 125.36 106.67 124.98 106.76 124.61 106.84 124.23 106.93 123.85 107.01 123.48 107.09 123.1 107.18 122.72 107.26 122.34 107.35 121.97 107.43 121.59 107.52 121.21 107.6 120.83 107.68 120.46 107.77 120.08 107.85 119.7 107.94 119.32 108.02 118.94 108.11 118.57 108.19 118.19 108.27 117.81 108.36 117.43 108.44 117.05 108.53 116.67 108.61 116.29 108.7 115.91 108.78 115.53 108.86 115.14 108.95 114.76 109.03 114.38 109.12 114 109.2 113.61 109.29 113.23 109.37 112.84 109.46 112.45 109.54 112.06 109.62 111.67 109.71 111.28 109.79 110.89 109.88 110.5 109.96 110.11 110.05 109.71 110.13 109.32 110.21 108.92 110.3 108.52 110.38 108.12 110.47 107.72 110.55 107.32 110.64 106.91 110.72 106.51 110.8 106.1 110.89 105.69 110.97 105.28 111.06 104.87 111.14 104.45 111.23 104.04 111.31 103.62 111.4 103.2 111.48 102.78 111.56 102.36 111.65 101.94 111.73 101.52 111.82 101.09 111.9 100.66 111.99 100.24 112.07 99.81 112.15 99.38 112.24 98.94 112.32 98.51 112.41 98.08 112.49 97.64 112.58 97.2 112.66 96.77 112.74 96.33 112.83 95.89 112.91 95.45 113 95.01 113.08 94.57 113.17 94.13 113.25 93.69 113.33 93.24 113.42 92.8 113.5 92.36 113.59 91.91 113.67 91.47 113.76 91.02 113.84 90.58 113.93 90.14 114.01 89.69 114.09 89.25 114.18 88.8 114.26 88.36 114.35 87.91 114.43 87.47 114.52 87.03 114.6 86.58 114.68 86.14 114.77 85.7 114.85 85.26 114.94 84.82 115.02 84.38 115.11 83.94 115.19 83.5 115.27 83.06 115.36 82.62 115.44 82.18 115.53 81.75 115.61 81.31 115.7 80.87 115.78 80.44 115.87 80.01 115.95 79.57 116.03 79.14 116.12 78.71 116.2 78.28 116.29 77.85 116.37 77.43 116.46 77 116.54 76.57 116.62 76.15 116.71 75.72 116.79 75.3 116.88 74.88 116.96 74.46 117.05 74.04 117.13 73.62 117.21 73.2 117.3 72.78 117.38 72.37 117.47 71.95 117.55 71.54 117.64 71.13 117.72 70.71 117.81 70.3 117.89 69.89 117.97 69.49 118.06 69.08 118.14 68.67 118.23 68.27 118.31 67.86 118.4 67.46 118.48 67.06 118.56 66.66 118.65 66.26 118.73 65.87 118.82 65.47 118.9 65.07 118.99 64.68 119.07 64.29 119.15 63.9 119.24 63.51 119.32 63.12 119.41 62.74 119.49 62.36 119.58 61.97 119.66 61.59 119.74 61.21 119.83 60.84 119.91 60.46 120 60.09 120.08 59.72 120.17 59.35 120.25 58.99 120.34 58.63 120.42 58.26 120.5 57.91 120.59 57.55 120.67 57.2 120.76 56.85 120.84 56.5 120.93 56.16 121.01 55.82 121.09 55.48 121.18 55.15 121.26 54.82 121.35 54.49 121.43 54.17 121.52 53.85 121.6 53.54 121.68 53.23 121.77 52.93 121.85 52.63 121.94 52.33 122.02 52.04 122.11 51.76 122.19 51.48 122.28 51.2 122.36 50.93 122.44 50.67 122.53 50.42 122.61 50.17 122.7 49.92 122.78 49.69 122.87 49.46 122.95 49.23 123.03 49.02 123.12 48.81 123.2 48.61 123.29 48.41 123.37 48.23 123.46 48.05 123.54 47.88 123.62 47.72 123.71 47.57 123.79 47.42 123.88 47.29 123.96 47.16 124.05 47.04 124.13 46.93 124.21 46.83 124.3 46.74 124.38 46.66 124.47 46.59 124.55 46.53 124.64 46.48 124.72 46.44 124.81 46.4 124.89 46.38 124.97 46.37 125.06 46.37 125.14 46.38 125.23 46.39 125.31 46.42 125.4 46.46 125.48 46.5 125.56 46.56 125.65 46.63 125.73 46.7 125.82 46.79 125.9 46.88 125.99 46.99 126.07 47.1 126.15 47.23 126.24 47.36 126.32 47.5 126.41 47.65 126.49 47.81 126.58 47.97 126.66 48.15 126.75 48.33 126.83 48.52 126.91 48.71 127 48.92 127.08 49.13 127.17 49.35 127.25 49.57 127.34 49.8 127.42 50.04 127.5 50.28 127.59 50.53 127.67 50.78 127.76 51.03 127.84 51.29 127.93 51.56 128.01 51.83 128.09 52.1 128.18 52.38 128.26 52.65 128.35 52.94 128.43 53.22 128.52 53.51 128.6 53.79 128.69 54.08 128.77 54.37 128.85 54.66 128.94 54.95 129.02 55.25 129.11 55.54 129.19 55.83 129.28 56.13 129.36 56.42 129.44 56.71 129.53 57 129.61 57.29 129.7 57.58 129.78 57.87 129.87 58.15 129.95 58.44 130.03 58.72 130.12 59 130.2 59.28 130.29 59.56 130.37 59.84 130.46 60.11 130.54 60.39 130.62 60.66 130.71 60.93 130.79 61.2 130.88 61.46 130.96 61.73 131.05 61.99 131.13 62.25 131.22 62.51 131.3 62.77 131.38 63.03 131.47 63.28 131.55 63.54 131.64 63.79 131.72 64.05 131.81 64.3 131.89 64.56 131.97 64.81 132.06 65.06 132.14 65.32 132.23 65.57 132.31 65.83 132.4 66.09 132.48 66.34 132.56 66.6 132.65 66.86 132.73 67.13 132.82 67.39 132.9 67.66 132.99 67.93 133.07 68.2 133.16 68.47 133.24 68.75 133.32 69.03 133.41 69.32 133.49 69.61 133.58 69.9 133.66 70.2 133.75 70.5 133.83 70.8 133.91 71.11 134 71.42 134.08 71.74 134.17 72.07 134.25 72.39 134.34 72.73 134.42 73.06 134.5 73.41 134.59 73.75 134.67 74.11 134.76 74.47 134.84 74.83 134.93 75.2 135.01 75.57 135.09 75.95 135.18 76.33 135.26 76.72 135.35 77.12 135.43 77.51 135.52 77.92 135.6 78.33 135.69 78.74 135.77 79.15 135.85 79.58 135.94 80 136.02 80.43 136.11 80.86 136.19 81.3 136.28 81.74 136.36 82.19 136.44 82.63 136.53 83.08 136.61 83.54 136.7 83.99 136.78 84.45 136.87 84.91 136.95 85.37 137.03 85.84 137.12 86.3 137.2 86.77 137.29 87.24 137.37 87.71 137.46 88.18 137.54 88.65 137.63 89.12 137.71 89.6 137.79 90.07 137.88 90.54 137.96 91.01 138.05 91.48 138.13 91.95 138.22 92.42 138.3 92.89 138.38 93.36 138.47 93.83 138.55 94.29 138.64 94.76 138.72 95.22 138.81 95.68 138.89 96.14 138.97 96.59 139.06 97.05 139.14 97.5 139.23 97.95 139.31 98.39 139.4 98.84 139.48 99.28 139.56 99.72 139.65 100.16 139.73 100.59 139.82 101.02 139.9 101.45 139.99 101.88 140.07 102.3 140.16 102.73 140.24 103.14 140.32 103.56 140.41 103.97 140.49 104.38 140.58 104.79 140.66 105.19 140.75 105.6 140.83 106 140.91 106.39 141 106.79 141.08 107.18 141.17 107.57 141.25 107.96 141.34 108.34 141.42 108.73 141.5 109.11 141.59 109.49 141.67 109.86 141.76 110.24 141.84 110.61 141.93 110.98 142.01 111.35 142.1 111.72 142.18 112.08 142.26 112.45 142.35 112.81 142.43 113.17 142.52 113.53 142.6 113.89 142.69 114.24 142.77 114.6 142.85 114.95 142.94 115.31 143.02 115.66 143.11 116.01 143.19 116.36 143.28 116.71 143.36 117.06 143.44 117.41 143.53 117.75 143.61 118.1 143.7 118.45 143.78 118.79 143.87 119.14 143.95 119.48 144.04 119.83 144.12 120.17 144.2 120.51 144.29 120.86 144.37 121.2 144.46 121.54 144.54 121.88 144.63 122.23 144.71 122.57 144.79 122.91 144.88 123.25 144.96 123.59 145.05 123.94 145.13 124.28 145.22 124.62 145.3 124.96 145.38 125.3 145.47 125.64 145.55 125.98 145.64 126.33 145.72 126.67 145.81 127.01 145.89 127.35 145.97 127.69 146.06 128.03 146.14 128.38 146.23 128.72 146.31 129.06 146.4 129.4 146.48 129.74 146.57 130.08 146.65 130.42 146.73 130.76 146.82 131.1 146.9 131.44 146.99 131.78 147.07 132.12 147.16 132.46 147.24 132.8 147.32 133.14 147.41 133.47 147.49 133.81 147.58 134.15 147.66 134.48 147.75 134.82 147.83 135.15 147.91 135.48 148 135.81 148.08 136.14 148.17 136.47 148.25 136.79 148.34 137.12 148.42 137.44 148.51 137.76 148.59 138.08 148.67 138.4 148.76 138.71 148.84 139.02 148.93 139.33 149.01 139.64 149.1 139.94 149.18 140.24 149.26 140.54 149.35 140.84 149.43 141.13 149.52 141.42 149.6 141.7 149.69 141.99 149.77 142.26 149.85 142.54 149.94 142.81 150.02 143.07 150.11 143.33 150.19 143.59 150.28 143.84 150.36 144.09 150.44 144.34 150.53 144.57 150.61 144.81 150.7 145.04 150.78 145.26 150.87 145.48 150.95 145.69 151.04 145.9 151.12 146.1 151.2 146.3 151.29 146.49 151.37 146.68 151.46 146.86 151.54 147.03 151.63 147.2 151.71 147.37 151.79 147.53 151.88 147.68 151.96 147.83 152.05 147.97 152.13 148.11 152.22 148.24 152.3 148.37 152.38 148.49 152.47 148.61 152.55 148.72 152.64 148.83 152.72 148.93 152.81 149.03 152.89 149.12 152.98 149.21 153.06 149.3 153.14 149.38 153.23 149.46 153.31 149.53 153.4 149.6 153.48 149.67 153.57 149.73 153.65 149.8 153.73 149.85 153.82 149.91 153.9 149.96 153.99 150.02 154.07 150.07 154.16 150.11 154.24 150.16 154.32 150.21 154.41 150.25 154.49 150.3 154.58 150.34 154.66 150.38 154.75 150.43 154.83 150.47 154.92 150.51 155 150.56 155.08 150.6 155.17 150.65 155.25 150.69 155.34 150.74 155.42 150.79 155.51 150.84 155.59 150.9 155.67 150.95 155.76 151.01 155.84 151.07 155.93 151.13 156.01 151.19 156.1 151.26 156.18 151.33 156.26 151.41 156.35 151.48 156.43 151.56 156.52 151.64 156.6 151.73 156.69 151.82 156.77 151.91 156.85 152.01 156.94 152.1 157.02 152.21 157.11 152.31 157.19 152.42 157.28 152.53 157.36 152.65 157.45 152.77 157.53 152.89 157.61 153.02 157.7 153.15 157.78 153.28 157.87 153.42 157.95 153.55 158.04 153.7 158.12 153.84 158.2 153.99 158.29 154.14 158.37 154.29 158.46 154.44 158.54 154.6 158.63 154.76 158.71 154.92 158.79 155.09 158.88 155.25 158.96 155.42 159.05 155.59 159.13 155.76 159.22 155.93 159.3 156.1 159.39 156.28 159.47 156.45 159.55 156.63 159.64 156.81 159.72 156.98 159.81 157.16 159.89 157.34 159.98 157.52 160.06 157.7 160.14 157.87 160.23 158.05 160.31 158.23 160.4 158.41 160.48 158.58 160.57 158.76 160.65 158.93 160.73 159.11 160.82 159.28 160.9 159.45 160.99 159.62 161.07 159.79 161.16 159.96 161.24 160.12 161.32 160.29 161.41 160.45 161.49 160.61 161.58 160.77 161.66 160.93 161.75 161.08 161.83 161.23 161.92 161.39 162 161.53 162.08 161.68 162.17 161.83 162.25 161.97 162.34 162.11 162.42 162.25 162.51 162.38 162.59 162.52 162.67 162.65 162.76 162.78 162.84 162.9 162.93 163.03 163.01 163.15 163.1 163.27 163.18 163.39 163.26 163.5 163.35 163.62 163.43 163.73 163.52 163.84 163.6 163.94 163.69 164.05 163.77 164.15 163.86 164.25 163.94 164.35 164.02 164.45 164.11 164.54 164.19 164.63 164.28 164.72 164.36 164.81 164.45 164.9 164.53 164.98 164.61 165.07 164.7 165.15 164.78 165.23 164.87 165.31 164.95 165.39 165.04 165.47 165.12 165.54 165.2 165.61 165.29 165.69 165.37 165.76 165.46 165.83 165.54 165.9 165.63 165.97 165.71 166.03 165.8 166.1 165.88 166.16 165.96 166.23 166.05 166.29 166.13 166.35 166.22 166.42 166.3 166.48 166.39 166.54 166.47 166.6 166.55 166.66 166.64 166.72 166.72 166.77 166.81 166.83 166.89 166.89 166.98 166.95 167.06 167 167.14 167.06 167.23 167.12 167.31 167.17 167.4 167.23 167.48 167.28 167.57 167.34 167.65 167.39 167.73 167.45 167.82 167.5 167.9 167.55 167.99 167.61 168.07 167.66 168.16 167.72 168.24 167.77 168.33 167.82 168.41 167.88 168.49 167.93 168.58 167.98 168.66 168.03 168.75 168.09 168.83 168.14 168.92 168.19 169 168.25 169.08 168.3 169.17 168.35 169.25 168.4 169.34 168.46 169.42 168.51 169.51 168.56 169.59 168.61 169.67 168.66 169.76 168.72 169.84 168.77 169.93 168.82 170.01 168.87 170.1 168.92 170.18 168.98 170.27 169.03 170.35 169.08 170.43 169.13 170.52 169.18 170.6 169.23 170.69 169.28 170.77 169.33 170.86 169.38 170.94 169.43 171.02 169.48 171.11 169.53 171.19 169.58 171.28 169.63 171.36 169.68 171.45 169.73 171.53 169.78 171.61 169.83 171.7 169.87 171.78 169.92 171.87 169.97 171.95 170.02 172.04 170.06 172.12 170.11 172.2 170.15 172.29 170.2 172.37 170.24 172.46 170.29 172.54 170.33 172.63 170.37 172.71 170.42 172.8 170.46 172.88 170.5 172.96 170.54 173.05 170.58 173.13 170.62 173.22 170.66 173.3 170.7 173.39 170.74 173.47 170.78 173.55 170.81 173.64 170.85 173.72 170.88 173.81 170.92 173.89 170.95 173.98 170.99 174.06 171.02 174.14 171.05 174.23 171.08 174.31 171.11 174.4 171.15 174.48 171.18 174.57 171.2 174.65 171.23 174.74 171.26 174.82 171.29 174.9 171.31 174.99 171.34 175.07 171.37 175.16 171.39 175.24 171.42 175.33 171.44 175.41 171.46 175.49 171.49 175.58 171.51 175.66 171.53 175.75 171.55 175.83 171.57 175.92 171.59 176 171.61 176.08 171.63 176.17 171.65 176.25 171.67 176.34 171.69 176.42 171.71 176.51 171.73 176.59 171.75 176.68 171.77 176.76 171.79 176.84 171.8 176.93 171.82 177.01 171.84 177.1 171.86 177.18 171.88 177.27 171.9 177.35 171.91 177.43 171.93 177.52 171.95 177.6 171.97 177.69 171.99 177.77 172.01 177.86 172.03 177.94 172.05 178.02 172.06 178.11 172.08 178.19 172.1 178.28 172.12 178.36 172.15 178.45 172.17 178.53 172.19 178.61 172.21 178.7 172.23 178.78 172.25 178.87 172.27 178.95 172.3 179.04 172.32 179.12 172.34 179.21 172.37 179.29 172.39 179.37 172.41 179.46 172.44 179.54 172.46 179.63 172.49 179.71 172.51 179.8 172.54 179.88 172.56 179.96 172.58 180.05 172.61 180.13 172.64 180.22 172.66 180.3 172.69 180.39 172.71 180.47 172.74 180.55 172.76 180.64 172.79 180.72 172.81 180.81 172.84 180.89 172.86 180.98 172.89 181.06 172.91 181.15 172.93 181.23 172.96 181.31 172.98 181.4 173 181.48 173.03 181.57 173.05 181.65 173.07 181.74 173.09 181.82 173.11 181.9 173.14 181.99 173.16 182.07 173.18 182.16 173.2 182.24 173.21 182.33 173.23 182.41 173.25 182.49 173.27 182.58 173.28 182.66 173.3 182.75 173.32 182.83 173.33 182.92 173.34 183 173.36 183.08 173.37 183.17 173.38 183.25 173.4 183.34 173.41 183.42 173.42 183.51 173.43 183.59 173.44 183.68 173.45 183.76 173.45 183.84 173.46 183.93 173.47 184.01 173.47 184.1 173.48 184.18 173.49 184.27 173.49 184.35 173.49 184.43 173.5 184.52 173.5 184.6 173.5 184.69 173.51 184.77 173.51 184.86 173.51 184.94 173.51 185.02 173.51 185.11 173.51 185.19 173.51 185.28 173.51 185.36 173.51 185.45 173.51 185.53 173.5 185.62 173.5 185.7 173.5 185.78 173.5 185.87 173.49 185.95 173.49 186.04 173.48 186.12 173.48 186.21 173.48 186.29 173.47 186.37 173.47 186.46 173.46 186.54 173.46 186.63 173.45 186.71 173.45 186.8 173.44 186.88 173.44 186.96 173.43 187.05 173.42 187.13 173.42 187.22 173.41 187.3 173.41 187.39 173.4 187.47 173.39 187.55 173.39 187.64 173.38 187.72 173.37 187.81 173.37 187.89 173.36 187.98 173.35 188.06 173.35 188.15 173.34 188.23 173.34 188.31 173.33 188.4 173.32 188.48 173.32 188.57 173.31 188.65 173.3 188.74 173.3 188.82 173.29 188.9 173.29 188.99 173.28 189.07 173.28 189.16 173.27 189.24 173.27 189.33 173.26 189.41 173.26 189.49 173.25 189.58 173.25 189.66 173.24 189.75 173.24 189.83 173.24 189.92 173.23 190 173.23 190.09 173.23 190.17 173.22 190.25 173.22 190.34 173.22 190.42 173.22 190.51 173.22 190.59 173.22 190.68 173.22 190.76 173.22 190.84 173.22 190.93 173.22 191.01 173.22 191.1 173.22 191.18 173.22 191.27 173.22 191.35 173.23 191.43 173.23 191.52 173.23 191.6 173.24 191.69 173.24 191.77 173.25 191.86 173.25 191.94 173.26 192.03 173.26 192.11 173.27 192.19 173.28 192.28 173.29 192.36 173.3 192.45 173.3 192.53 173.31 192.62 173.32 192.7 173.33 192.78 173.34 192.87 173.35 192.95 173.37 193.04 173.38 193.12 173.39 193.21 173.4 193.29 173.41 193.37 173.43 193.46 173.44 193.54 173.45 193.63 173.47 193.71 173.48 193.8 173.5 193.88 173.51 193.96 173.53 194.05 173.54 194.13 173.56 194.22 173.57 194.3 173.59 194.39 173.6 194.47 173.62 194.56 173.64 194.64 173.65 194.72 173.67 194.81 173.68 194.89 173.7 194.98 173.72 195.06 173.73 195.15 173.75 195.23 173.76 195.31 173.78 195.4 173.79 195.48 173.81 195.57 173.82 195.65 173.84 195.74 173.85 195.82 173.86 195.9 173.88 195.99 173.89 196.07 173.9 196.16 173.92 196.24 173.93 196.33 173.94 196.41 173.95 196.5 173.96 196.58 173.97 196.66 173.98 196.75 173.99 196.83 174 196.92 174.01 197 174.02 197.09 174.02 197.17 174.03 197.25 174.04 197.34 174.04 197.42 174.05 197.51 174.06 197.59 174.06 197.68 174.06 197.76 174.07 197.84 174.07 197.93 174.07 198.01 174.08 198.1 174.08 198.18 174.08 198.27 174.08 198.35 174.08 198.43 174.08 198.52 174.08 198.6 174.08 198.69 174.08 198.77 174.08 198.86 174.08 198.94 174.07 199.03 174.07 199.11 174.07 199.19 174.07 199.28 174.06 199.36 174.06 199.45 174.05 199.53 174.05 199.62 174.05 199.7 174.04 199.78 174.04 199.87 174.03 199.95 174.03 200.04 174.02 200.12 174.02 200.21 174.01 200.29 174.01 200.37 174 200.46 173.99 200.54 173.99 200.63 173.98 200.71 173.98 200.8 173.97 200.88 173.97 200.97 173.96 201.05 173.96 201.13 173.95 201.22 173.94 201.3 173.94 201.39 173.93 201.47 173.93 201.56 173.92 201.64 173.92 201.72 173.91 201.81 173.91 201.89 173.91 201.98 173.9 202.06 173.9 202.15 173.89 202.23 173.89 202.31 173.89 202.4 173.88 202.48 173.88 202.57 173.88 202.65 173.88 202.74 173.87 202.82 173.87 202.91 173.87 202.99 173.87 203.07 173.87 203.16 173.86 203.24 173.86 203.33 173.86 203.41 173.86 203.5 173.86 203.58 173.86 203.66 173.86 203.75 173.86 203.83 173.86 203.92 173.87 204 173.87 204.09 173.87 204.17 173.87 204.25 173.87 204.34 173.87 204.42 173.88 204.51 173.88 204.59 173.88 204.68 173.89 204.76 173.89 204.84 173.89 204.93 173.9 205.01 173.9 205.1 173.91 205.18 173.91 205.27 173.92 205.35 173.92 205.44 173.93 205.52 173.94 205.6 173.94 205.69 173.95 205.77 173.96 205.86 173.96 205.94 173.97 206.03 173.98 206.11 173.99 206.19 174 206.28 174 206.36 174.01 206.45 174.02 206.53 174.03 206.62 174.04 206.7 174.05 206.78 174.06 206.87 174.07 206.95 174.08 207.04 174.09 207.12 174.1 207.21 174.11 207.29 174.12 207.38 174.13 207.46 174.14 207.54 174.15 207.63 174.16 207.71 174.17 207.8 174.18 207.88 174.19 207.97 174.2 208.05 174.22 208.13 174.23 208.22 174.24 208.3 174.25 208.39 174.26 208.47 174.27 208.56 174.28 208.64 174.29 208.72 174.31 208.81 174.32 208.89 174.33 208.98 174.34 209.06 174.35 209.15 174.36 209.23 174.37 209.31 174.38 209.4 174.39 209.48 174.4 209.57 174.41 209.65 174.42 209.74 174.43 209.82 174.44 209.91 174.45 209.99 174.46 210.07 174.47 210.16 174.48 210.24 174.49 210.33 174.5 210.41 174.51 210.5 174.52 210.58 174.52 210.66 174.53 210.75 174.54 210.83 174.55 210.92 174.56 211 174.56 211.09 174.57 211.17 174.58 211.25 174.58 211.34 174.59 211.42 174.6 211.51 174.6 211.59 174.61 211.68 174.62 211.76 174.62 211.85 174.63 211.93 174.63 212.01 174.64 212.1 174.64 212.18 174.65 212.27 174.65 212.35 174.66 212.44 174.66 212.52 174.66 212.6 174.67 212.69 174.67 212.77 174.68 212.86 174.68 212.94 174.68 213.03 174.69 213.11 174.69 213.19 174.69 213.28 174.69 213.36 174.7 213.45 174.7 213.53 174.7 213.62 174.7 213.7 174.71 213.79 174.71 213.87 174.71 213.95 174.71 214.04 174.71 214.12 174.71 214.21 174.72 214.29 174.72 214.38 174.72 214.46 174.72 214.54 174.72 214.63 174.72 214.71 174.72 214.8 174.72 214.88 174.73 214.97 174.73 215.05 174.73 215.13 174.73 215.22 174.73 215.3 174.73 215.39 174.73 215.47 174.73 215.56 174.73 215.64 174.73 215.72 174.73 215.81 174.73 215.89 174.73 215.98 174.73 216.06 174.73 216.15 174.73 216.23 174.73 216.32 174.73 216.4 174.73 216.48 174.73 216.57 174.73 216.65 174.73 216.74 174.73 216.82 174.73 216.91 174.73 216.99 174.73 217.07 174.73 217.16 174.73 217.24 174.73 217.33 174.73 217.41 174.73 217.5 174.73 217.58 174.72 217.66 174.72 217.75 174.72 217.83 174.72 217.92 174.72 218 174.72 218.09 174.72 218.17 174.72 218.26 174.71 218.34 174.71 218.42 174.71 218.51 174.71 218.59 174.71 218.68 174.71 218.76 174.7 218.85 174.7 218.93 174.7 219.01 174.7 219.1 174.69 219.18 174.69 219.27 174.69 219.35 174.68 219.44 174.68 219.52 174.68 219.6 174.67 219.69 174.67 219.77 174.67 219.86 174.66 219.94 174.66 220.03 174.66 220.11 174.65 220.19 174.65 220.28 174.64 220.36 174.64 220.45 174.63 220.53 174.63 220.62 174.62 220.7 174.62 220.79 174.61 220.87 174.6 220.95 174.6 221.04 174.59 221.12 174.59 221.21 174.58 221.29 174.57 221.38 174.57 221.46 174.56 221.54 174.55 221.63 174.55 221.71 174.54 221.8 174.53 221.88 174.52 221.97 174.51 222.05 174.51 222.13 174.5 222.22 174.49 222.3 174.48 222.39 174.47 222.47 174.47 222.56 174.46 222.64 174.45 222.73 174.44 222.81 174.43 222.89 174.42 222.98 174.41 223.06 174.4 223.15 174.4 223.23 174.39 223.32 174.38 223.4 174.37 223.48 174.36 223.57 174.35 223.65 174.34 223.74 174.33 223.82 174.33 223.91 174.32 223.99 174.31 224.07 174.3 224.16 174.29 224.24 174.29 224.33 174.28 224.41 174.27 224.5 174.26 224.58 174.26 224.66 174.25 224.75 174.24 224.83 174.24 224.92 174.23 225 174.23 225.09 174.22 225.17 174.22 225.26 174.21 225.34 174.21 225.42 174.2 225.51 174.2 225.59 174.19 225.68 174.19 225.76 174.19 225.85 174.19 225.93 174.18 226.01 174.18 226.1 174.18 226.18 174.18 226.27 174.18 226.35 174.18 226.44 174.18 226.52 174.18 226.6 174.18 226.69 174.18 226.77 174.18 226.86 174.18 226.94 174.19 227.03 174.19 227.11 174.19 227.2 174.2 227.28 174.2 227.36 174.2 227.45 174.21 227.53 174.21 227.62 174.22 227.7 174.22 227.79 174.23 227.87 174.23 227.95 174.24 228.04 174.25 228.12 174.25 228.21 174.26 228.29 174.27 228.38 174.27 228.46 174.28 228.54 174.29 228.63 174.3 228.71 174.31 228.8 174.31 228.88 174.32 228.97 174.33 229.05 174.34 229.14 174.35 229.22 174.36 229.3 174.36 229.39 174.37 229.47 174.38 229.56 174.39 229.64 174.4 229.73 174.41 229.81 174.42 229.89 174.43 229.98 174.43 230.06 174.44 230.15 174.45 230.23 174.46 230.32 174.47 230.4 174.48 230.48 174.49 230.57 174.49 230.65 174.5 230.74 174.51 230.82 174.52 230.91 174.53 230.99 174.53 231.07 174.54 231.16 174.55 231.24 174.56 231.33 174.56 231.41 174.57 231.5 174.58 231.58 174.58 231.67 174.59 231.75 174.6 231.83 174.6 231.92 174.61 232 174.61 232.09 174.62 232.17 174.62 232.26 174.63 232.34 174.63 232.42 174.64 232.51 174.64 232.59 174.65 232.68 174.65 232.76 174.66 232.85 174.66 232.93 174.67 233.01 174.67 233.1 174.67 233.18 174.68 233.27 174.68 233.35 174.68 233.44 174.69 233.52 174.69 233.61 174.69 233.69 174.69 233.77 174.7 233.86 174.7 233.94 174.7 234.03 174.7 234.11 174.71 234.2 174.71 234.28 174.71 234.36 174.71 234.45 174.71 234.53 174.72 234.62 174.72 234.7 174.72 234.79 174.72 234.87 174.72 234.95 174.72 235.04 174.72 235.12 174.72 235.21 174.73 235.29 174.73 235.38 174.73 235.46 174.73 235.54 174.73 235.63 174.73 235.71 174.73 235.8 174.73 235.88 174.73 235.97 174.73 236.05 174.73 236.14 174.73 236.22 174.73 236.3 174.73 236.39 174.73 236.47 174.74 236.56 174.74 236.64 174.74 236.73 174.74 236.81 174.74 236.89 174.74 236.98 174.74 237.06 174.74 237.15 174.74 237.23 174.74 237.32 174.74 237.4 174.74 237.48 174.74 237.57 174.74 237.65 174.74 237.74 174.74 237.82 174.74 237.91 174.74 237.99 174.74 238.08 174.74 238.16 174.74 238.24 174.74 238.33 174.74 238.41 174.74 238.5 174.74 238.58 174.74 238.67 174.74 238.75 174.74 238.83 174.74 238.92 174.74 239 174.74 239.09 174.74 239.17 174.74 239.26 174.74 239.34 174.74 239.42 174.74"/>
      </g>
    </g>
  </g>
</g>
  <g class="guide ylabels" font-size="4.94" font-family="'PT Sans Caption','Helvetica Neue','Helvetica',sans-serif" fill="#6C606B" id="img-c705d57c-16">
    <text x="40.93" y="174.74" text-anchor="end" dy="0.35em">0</text>
    <text x="40.93" y="143.11" text-anchor="end" dy="0.35em">5.0×10⁻⁷</text>
    <text x="40.93" y="111.48" text-anchor="end" dy="0.35em">1.0×10⁻⁶</text>
    <text x="40.93" y="79.84" text-anchor="end" dy="0.35em">1.5×10⁻⁶</text>
    <text x="40.93" y="48.21" text-anchor="end" dy="0.35em">2.0×10⁻⁶</text>
    <text x="40.93" y="16.58" text-anchor="end" dy="0.35em">2.5×10⁻⁶</text>
  </g>
  <g font-size="6" font-family="'PT Sans','Helvetica Neue','Helvetica',sans-serif" fill="#564A55" stroke="#000000" stroke-opacity="0.000" id="img-c705d57c-17">
    <text x="9.79" y="93.66" text-anchor="middle" dy="0.35em" transform="rotate(-90, 9.79, 95.66)">Density</text>
  </g>
  <g font-size="6" font-family="'PT Sans','Helvetica Neue','Helvetica',sans-serif" fill="#564A55" stroke="#000000" stroke-opacity="0.000" id="img-c705d57c-18">
    <text x="189.18" y="12.58" text-anchor="middle">Density of terminal values from simple simulations</text>
  </g>
</g>
<defs>
  <clipPath id="img-c705d57c-8">
  <path d="M41.93,14.58 L 336.42 14.58 336.42 176.74 41.93 176.74" />
</clipPath>
</defs>
</svg>
