<?xml version="1.0" encoding="UTF-8"?>
<svg xmlns="http://www.w3.org/2000/svg"
     xmlns:xlink="http://www.w3.org/1999/xlink"
     xmlns:gadfly="http://www.gadflyjl.org/ns"
     version="1.2"
     width="400mm" height="200mm" viewBox="0 0 400 200"
     stroke="none"
     fill="#000000"
     stroke-width="0.3"
     font-size="3.88"
>
<g class="plotroot xscalable yscalable" id="img-1bedda50-1">
  <g font-size="6" font-family="'PT Sans','Helvetica Neue','Helvetica',sans-serif" fill="#564A55" stroke="#000000" stroke-opacity="0.000" id="img-1bedda50-2">
    <text x="207.32" y="186.42" text-anchor="middle" dy="0.6em">x</text>
  </g>
  <g class="guide xlabels" font-size="4.94" font-family="'PT Sans Caption','Helvetica Neue','Helvetica',sans-serif" fill="#6C606B" id="img-1bedda50-3">
    <text x="21.65" y="177.74" text-anchor="middle" dy="0.6em">0</text>
    <text x="114.49" y="177.74" text-anchor="middle" dy="0.6em">5</text>
    <text x="207.32" y="177.74" text-anchor="middle" dy="0.6em">10</text>
    <text x="300.16" y="177.74" text-anchor="middle" dy="0.6em">15</text>
    <text x="393" y="177.74" text-anchor="middle" dy="0.6em">20</text>
  </g>
<g clip-path="url(#img-1bedda50-4)">
  <g id="img-1bedda50-5">
    <g pointer-events="visible" opacity="1" fill="#000000" fill-opacity="0.000" stroke="#000000" stroke-opacity="0.000" class="guide background" id="img-1bedda50-6">
      <rect x="19.65" y="5" width="375.35" height="171.74"/>
    </g>
    <g class="guide ygridlines xfixed" stroke-dasharray="0.5,0.5" stroke-width="0.2" stroke="#D0D0E0" id="img-1bedda50-7">
      <path fill="none" d="M19.65,174.74 L 395 174.74"/>
      <path fill="none" d="M19.65,132.8 L 395 132.8"/>
      <path fill="none" d="M19.65,90.87 L 395 90.87"/>
      <path fill="none" d="M19.65,48.93 L 395 48.93"/>
      <path fill="none" d="M19.65,7 L 395 7"/>
    </g>
    <g class="guide xgridlines yfixed" stroke-dasharray="0.5,0.5" stroke-width="0.2" stroke="#D0D0E0" id="img-1bedda50-8">
      <path fill="none" d="M21.65,5 L 21.65 176.74"/>
      <path fill="none" d="M114.49,5 L 114.49 176.74"/>
      <path fill="none" d="M207.32,5 L 207.32 176.74"/>
      <path fill="none" d="M300.16,5 L 300.16 176.74"/>
      <path fill="none" d="M393,5 L 393 176.74"/>
    </g>
    <g class="plotpanel" id="img-1bedda50-9">
      <g class="xfixed" stroke-dasharray="none" stroke-width="0.3" stroke="#0000FF" id="img-1bedda50-10">
        <path fill="none" d="M19.65,143.47 L 395 143.47"/>
        <path fill="none" d="M19.65,79.53 L 395 79.53"/>
      </g>
      <g class="geometry" id="img-1bedda50-11">
        <g class="color_RGBA{Float32}(0.0f0,0.0f0,1.0f0,1.0f0)" stroke="#FFFFFF" stroke-width="0.3" fill="#0000FF" id="img-1bedda50-12">
          <use xlink:href="#img-1bedda50-13" x="40.22" y="130.25"/>
          <use xlink:href="#img-1bedda50-13" x="58.78" y="146.07"/>
          <use xlink:href="#img-1bedda50-13" x="77.35" y="124.6"/>
          <use xlink:href="#img-1bedda50-13" x="95.92" y="135.79"/>
          <use xlink:href="#img-1bedda50-13" x="114.49" y="134.18"/>
          <use xlink:href="#img-1bedda50-13" x="133.05" y="130.22"/>
          <use xlink:href="#img-1bedda50-13" x="151.62" y="127.54"/>
          <use xlink:href="#img-1bedda50-13" x="170.19" y="136.25"/>
          <use xlink:href="#img-1bedda50-13" x="188.76" y="121.93"/>
          <use xlink:href="#img-1bedda50-13" x="207.32" y="71.27"/>
          <use xlink:href="#img-1bedda50-13" x="225.89" y="87.79"/>
          <use xlink:href="#img-1bedda50-13" x="244.46" y="30.64"/>
          <use xlink:href="#img-1bedda50-13" x="263.03" y="133.26"/>
          <use xlink:href="#img-1bedda50-13" x="281.59" y="144.08"/>
          <use xlink:href="#img-1bedda50-13" x="300.16" y="132.56"/>
          <use xlink:href="#img-1bedda50-13" x="318.73" y="137.18"/>
          <use xlink:href="#img-1bedda50-13" x="337.3" y="134.05"/>
          <use xlink:href="#img-1bedda50-13" x="355.86" y="142.86"/>
          <use xlink:href="#img-1bedda50-13" x="374.43" y="110.45"/>
          <use xlink:href="#img-1bedda50-13" x="393" y="114.11"/>
        </g>
      </g>
    </g>
  </g>
</g>
  <g class="guide ylabels" font-size="4.94" font-family="'PT Sans Caption','Helvetica Neue','Helvetica',sans-serif" fill="#6C606B" id="img-1bedda50-14">
    <text x="18.65" y="174.74" text-anchor="end" dy="0.35em">-5</text>
    <text x="18.65" y="132.8" text-anchor="end" dy="0.35em">0</text>
    <text x="18.65" y="90.87" text-anchor="end" dy="0.35em">5</text>
    <text x="18.65" y="48.93" text-anchor="end" dy="0.35em">10</text>
    <text x="18.65" y="7" text-anchor="end" dy="0.35em">15</text>
  </g>
  <g font-size="6" font-family="'PT Sans','Helvetica Neue','Helvetica',sans-serif" fill="#564A55" stroke="#000000" stroke-opacity="0.000" id="img-1bedda50-15">
    <text x="9.79" y="90.87" text-anchor="end" dy="0.35em">y</text>
  </g>
</g>
<defs>
  <clipPath id="img-1bedda50-4">
  <path d="M19.65,5 L 395 5 395 176.74 19.65 176.74" />
</clipPath>
  <g id="img-1bedda50-13">
    <circle cx="0" cy="0" r="1.41"/>
  </g>
</defs>
</svg>
